<svg width="1440" height="2933" viewBox="0 0 1440 2933" fill="none" xmlns="http://www.w3.org/2000/svg">
<g clip-path="url(#clip0_3954_132683)">
<line x1="29" y1="4.37114e-08" x2="29" y2="690" stroke="#4B4A4A" stroke-opacity="0.09" stroke-width="2" stroke-dasharray="2 4"/>
<line x1="69" y1="4.37114e-08" x2="69" y2="690" stroke="#4B4A4A" stroke-opacity="0.09" stroke-width="2" stroke-dasharray="2 4"/>
<line x1="109" y1="4.37114e-08" x2="109" y2="690" stroke="#4B4A4A" stroke-opacity="0.09" stroke-width="2" stroke-dasharray="2 4"/>
<line x1="149" y1="4.37114e-08" x2="149" y2="690" stroke="#4B4A4A" stroke-opacity="0.09" stroke-width="2" stroke-dasharray="2 4"/>
<line x1="189" y1="4.37114e-08" x2="189" y2="690" stroke="#4B4A4A" stroke-opacity="0.09" stroke-width="2" stroke-dasharray="2 4"/>
<line x1="229" y1="4.37114e-08" x2="229" y2="690" stroke="#4B4A4A" stroke-opacity="0.09" stroke-width="2" stroke-dasharray="2 4"/>
<line x1="269" y1="4.37114e-08" x2="269" y2="690" stroke="#4B4A4A" stroke-opacity="0.09" stroke-width="2" stroke-dasharray="2 4"/>
<line x1="309" y1="4.37114e-08" x2="309" y2="690" stroke="#4B4A4A" stroke-opacity="0.09" stroke-width="2" stroke-dasharray="2 4"/>
<line x1="349" y1="4.37114e-08" x2="349" y2="690" stroke="#4B4A4A" stroke-opacity="0.09" stroke-width="2" stroke-dasharray="2 4"/>
<line x1="389" y1="4.37114e-08" x2="389" y2="690" stroke="#4B4A4A" stroke-opacity="0.09" stroke-width="2" stroke-dasharray="2 4"/>
<line x1="429" y1="4.37114e-08" x2="429" y2="690" stroke="#4B4A4A" stroke-opacity="0.09" stroke-width="2" stroke-dasharray="2 4"/>
<line x1="469" y1="4.37114e-08" x2="469" y2="690" stroke="#4B4A4A" stroke-opacity="0.09" stroke-width="2" stroke-dasharray="2 4"/>
<line x1="509" y1="4.37114e-08" x2="509" y2="690" stroke="#4B4A4A" stroke-opacity="0.09" stroke-width="2" stroke-dasharray="2 4"/>
<line x1="549" y1="4.37114e-08" x2="549" y2="690" stroke="#4B4A4A" stroke-opacity="0.09" stroke-width="2" stroke-dasharray="2 4"/>
<line x1="589" y1="4.37114e-08" x2="589" y2="690" stroke="#4B4A4A" stroke-opacity="0.09" stroke-width="2" stroke-dasharray="2 4"/>
<line x1="629" y1="4.37114e-08" x2="629" y2="690" stroke="#4B4A4A" stroke-opacity="0.09" stroke-width="2" stroke-dasharray="2 4"/>
<line x1="669" y1="4.37114e-08" x2="669" y2="690" stroke="#4B4A4A" stroke-opacity="0.09" stroke-width="2" stroke-dasharray="2 4"/>
<line x1="709" y1="4.37114e-08" x2="709" y2="690" stroke="#4B4A4A" stroke-opacity="0.09" stroke-width="2" stroke-dasharray="2 4"/>
<line x1="749" y1="4.37114e-08" x2="749" y2="690" stroke="#4B4A4A" stroke-opacity="0.09" stroke-width="2" stroke-dasharray="2 4"/>
<line x1="789" y1="4.37114e-08" x2="789" y2="690" stroke="#4B4A4A" stroke-opacity="0.09" stroke-width="2" stroke-dasharray="2 4"/>
<line x1="829" y1="4.37114e-08" x2="829" y2="690" stroke="#4B4A4A" stroke-opacity="0.09" stroke-width="2" stroke-dasharray="2 4"/>
<line x1="869" y1="4.37114e-08" x2="869" y2="690" stroke="#4B4A4A" stroke-opacity="0.09" stroke-width="2" stroke-dasharray="2 4"/>
<line x1="909" y1="4.37114e-08" x2="909" y2="690" stroke="#4B4A4A" stroke-opacity="0.09" stroke-width="2" stroke-dasharray="2 4"/>
<line x1="949" y1="4.37114e-08" x2="949" y2="690" stroke="#4B4A4A" stroke-opacity="0.09" stroke-width="2" stroke-dasharray="2 4"/>
<line x1="989" y1="4.37114e-08" x2="989" y2="690" stroke="#4B4A4A" stroke-opacity="0.09" stroke-width="2" stroke-dasharray="2 4"/>
<line x1="1029" y1="4.37114e-08" x2="1029" y2="690" stroke="#4B4A4A" stroke-opacity="0.09" stroke-width="2" stroke-dasharray="2 4"/>
<line x1="1069" y1="4.37114e-08" x2="1069" y2="690" stroke="#4B4A4A" stroke-opacity="0.09" stroke-width="2" stroke-dasharray="2 4"/>
<line x1="1109" y1="4.37114e-08" x2="1109" y2="690" stroke="#4B4A4A" stroke-opacity="0.09" stroke-width="2" stroke-dasharray="2 4"/>
<line x1="1149" y1="4.37114e-08" x2="1149" y2="690" stroke="#4B4A4A" stroke-opacity="0.09" stroke-width="2" stroke-dasharray="2 4"/>
<line x1="1189" y1="4.37114e-08" x2="1189" y2="690" stroke="#4B4A4A" stroke-opacity="0.09" stroke-width="2" stroke-dasharray="2 4"/>
<line x1="1229" y1="4.37114e-08" x2="1229" y2="690" stroke="#4B4A4A" stroke-opacity="0.09" stroke-width="2" stroke-dasharray="2 4"/>
<line x1="1269" y1="4.37114e-08" x2="1269" y2="690" stroke="#4B4A4A" stroke-opacity="0.09" stroke-width="2" stroke-dasharray="2 4"/>
<line x1="1309" y1="4.37114e-08" x2="1309" y2="690" stroke="#4B4A4A" stroke-opacity="0.09" stroke-width="2" stroke-dasharray="2 4"/>
<line x1="1349" y1="4.37114e-08" x2="1349" y2="690" stroke="#4B4A4A" stroke-opacity="0.09" stroke-width="2" stroke-dasharray="2 4"/>
<line x1="1389" y1="4.37114e-08" x2="1389" y2="690" stroke="#4B4A4A" stroke-opacity="0.09" stroke-width="2" stroke-dasharray="2 4"/>
<line x1="1429" y1="4.37114e-08" x2="1429" y2="690" stroke="#4B4A4A" stroke-opacity="0.09" stroke-width="2" stroke-dasharray="2 4"/>
<line x1="29" y1="668" x2="29" y2="1358" stroke="#4B4A4A" stroke-opacity="0.09" stroke-width="2" stroke-dasharray="2 4"/>
<line x1="69" y1="668" x2="69" y2="1358" stroke="#4B4A4A" stroke-opacity="0.09" stroke-width="2" stroke-dasharray="2 4"/>
<line x1="109" y1="668" x2="109" y2="1358" stroke="#4B4A4A" stroke-opacity="0.09" stroke-width="2" stroke-dasharray="2 4"/>
<line x1="149" y1="668" x2="149" y2="1358" stroke="#4B4A4A" stroke-opacity="0.09" stroke-width="2" stroke-dasharray="2 4"/>
<line x1="189" y1="668" x2="189" y2="1358" stroke="#4B4A4A" stroke-opacity="0.09" stroke-width="2" stroke-dasharray="2 4"/>
<line x1="229" y1="668" x2="229" y2="1358" stroke="#4B4A4A" stroke-opacity="0.09" stroke-width="2" stroke-dasharray="2 4"/>
<line x1="269" y1="668" x2="269" y2="1358" stroke="#4B4A4A" stroke-opacity="0.09" stroke-width="2" stroke-dasharray="2 4"/>
<line x1="309" y1="668" x2="309" y2="1358" stroke="#4B4A4A" stroke-opacity="0.09" stroke-width="2" stroke-dasharray="2 4"/>
<line x1="349" y1="668" x2="349" y2="1358" stroke="#4B4A4A" stroke-opacity="0.09" stroke-width="2" stroke-dasharray="2 4"/>
<line x1="389" y1="668" x2="389" y2="1358" stroke="#4B4A4A" stroke-opacity="0.09" stroke-width="2" stroke-dasharray="2 4"/>
<line x1="429" y1="668" x2="429" y2="1358" stroke="#4B4A4A" stroke-opacity="0.09" stroke-width="2" stroke-dasharray="2 4"/>
<line x1="469" y1="668" x2="469" y2="1358" stroke="#4B4A4A" stroke-opacity="0.09" stroke-width="2" stroke-dasharray="2 4"/>
<line x1="509" y1="668" x2="509" y2="1358" stroke="#4B4A4A" stroke-opacity="0.09" stroke-width="2" stroke-dasharray="2 4"/>
<line x1="549" y1="668" x2="549" y2="1358" stroke="#4B4A4A" stroke-opacity="0.09" stroke-width="2" stroke-dasharray="2 4"/>
<line x1="589" y1="668" x2="589" y2="1358" stroke="#4B4A4A" stroke-opacity="0.09" stroke-width="2" stroke-dasharray="2 4"/>
<line x1="629" y1="668" x2="629" y2="1358" stroke="#4B4A4A" stroke-opacity="0.09" stroke-width="2" stroke-dasharray="2 4"/>
<line x1="669" y1="668" x2="669" y2="1358" stroke="#4B4A4A" stroke-opacity="0.09" stroke-width="2" stroke-dasharray="2 4"/>
<line x1="709" y1="668" x2="709" y2="1358" stroke="#4B4A4A" stroke-opacity="0.09" stroke-width="2" stroke-dasharray="2 4"/>
<line x1="749" y1="668" x2="749" y2="1358" stroke="#4B4A4A" stroke-opacity="0.09" stroke-width="2" stroke-dasharray="2 4"/>
<line x1="789" y1="668" x2="789" y2="1358" stroke="#4B4A4A" stroke-opacity="0.09" stroke-width="2" stroke-dasharray="2 4"/>
<line x1="829" y1="668" x2="829" y2="1358" stroke="#4B4A4A" stroke-opacity="0.09" stroke-width="2" stroke-dasharray="2 4"/>
<line x1="869" y1="668" x2="869" y2="1358" stroke="#4B4A4A" stroke-opacity="0.09" stroke-width="2" stroke-dasharray="2 4"/>
<line x1="909" y1="668" x2="909" y2="1358" stroke="#4B4A4A" stroke-opacity="0.09" stroke-width="2" stroke-dasharray="2 4"/>
<line x1="949" y1="668" x2="949" y2="1358" stroke="#4B4A4A" stroke-opacity="0.09" stroke-width="2" stroke-dasharray="2 4"/>
<line x1="989" y1="668" x2="989" y2="1358" stroke="#4B4A4A" stroke-opacity="0.09" stroke-width="2" stroke-dasharray="2 4"/>
<line x1="1029" y1="668" x2="1029" y2="1358" stroke="#4B4A4A" stroke-opacity="0.09" stroke-width="2" stroke-dasharray="2 4"/>
<line x1="1069" y1="668" x2="1069" y2="1358" stroke="#4B4A4A" stroke-opacity="0.09" stroke-width="2" stroke-dasharray="2 4"/>
<line x1="1109" y1="668" x2="1109" y2="1358" stroke="#4B4A4A" stroke-opacity="0.09" stroke-width="2" stroke-dasharray="2 4"/>
<line x1="1149" y1="668" x2="1149" y2="1358" stroke="#4B4A4A" stroke-opacity="0.09" stroke-width="2" stroke-dasharray="2 4"/>
<line x1="1189" y1="668" x2="1189" y2="1358" stroke="#4B4A4A" stroke-opacity="0.09" stroke-width="2" stroke-dasharray="2 4"/>
<line x1="1229" y1="668" x2="1229" y2="1358" stroke="#4B4A4A" stroke-opacity="0.09" stroke-width="2" stroke-dasharray="2 4"/>
<line x1="1269" y1="668" x2="1269" y2="1358" stroke="#4B4A4A" stroke-opacity="0.09" stroke-width="2" stroke-dasharray="2 4"/>
<line x1="1309" y1="668" x2="1309" y2="1358" stroke="#4B4A4A" stroke-opacity="0.09" stroke-width="2" stroke-dasharray="2 4"/>
<line x1="1349" y1="668" x2="1349" y2="1358" stroke="#4B4A4A" stroke-opacity="0.09" stroke-width="2" stroke-dasharray="2 4"/>
<line x1="1389" y1="668" x2="1389" y2="1358" stroke="#4B4A4A" stroke-opacity="0.09" stroke-width="2" stroke-dasharray="2 4"/>
<line x1="1429" y1="668" x2="1429" y2="1358" stroke="#4B4A4A" stroke-opacity="0.09" stroke-width="2" stroke-dasharray="2 4"/>
<line x1="29" y1="1319" x2="29" y2="2009" stroke="#4B4A4A" stroke-opacity="0.09" stroke-width="2" stroke-dasharray="2 4"/>
<line x1="69" y1="1319" x2="69" y2="2009" stroke="#4B4A4A" stroke-opacity="0.09" stroke-width="2" stroke-dasharray="2 4"/>
<line x1="109" y1="1319" x2="109" y2="2009" stroke="#4B4A4A" stroke-opacity="0.09" stroke-width="2" stroke-dasharray="2 4"/>
<line x1="149" y1="1319" x2="149" y2="2009" stroke="#4B4A4A" stroke-opacity="0.09" stroke-width="2" stroke-dasharray="2 4"/>
<line x1="189" y1="1319" x2="189" y2="2009" stroke="#4B4A4A" stroke-opacity="0.09" stroke-width="2" stroke-dasharray="2 4"/>
<line x1="229" y1="1319" x2="229" y2="2009" stroke="#4B4A4A" stroke-opacity="0.09" stroke-width="2" stroke-dasharray="2 4"/>
<line x1="269" y1="1319" x2="269" y2="2009" stroke="#4B4A4A" stroke-opacity="0.09" stroke-width="2" stroke-dasharray="2 4"/>
<line x1="309" y1="1319" x2="309" y2="2009" stroke="#4B4A4A" stroke-opacity="0.09" stroke-width="2" stroke-dasharray="2 4"/>
<line x1="349" y1="1319" x2="349" y2="2009" stroke="#4B4A4A" stroke-opacity="0.09" stroke-width="2" stroke-dasharray="2 4"/>
<line x1="389" y1="1319" x2="389" y2="2009" stroke="#4B4A4A" stroke-opacity="0.09" stroke-width="2" stroke-dasharray="2 4"/>
<line x1="429" y1="1319" x2="429" y2="2009" stroke="#4B4A4A" stroke-opacity="0.09" stroke-width="2" stroke-dasharray="2 4"/>
<line x1="469" y1="1319" x2="469" y2="2009" stroke="#4B4A4A" stroke-opacity="0.09" stroke-width="2" stroke-dasharray="2 4"/>
<line x1="509" y1="1319" x2="509" y2="2009" stroke="#4B4A4A" stroke-opacity="0.09" stroke-width="2" stroke-dasharray="2 4"/>
<line x1="549" y1="1319" x2="549" y2="2009" stroke="#4B4A4A" stroke-opacity="0.09" stroke-width="2" stroke-dasharray="2 4"/>
<line x1="589" y1="1319" x2="589" y2="2009" stroke="#4B4A4A" stroke-opacity="0.09" stroke-width="2" stroke-dasharray="2 4"/>
<line x1="629" y1="1319" x2="629" y2="2009" stroke="#4B4A4A" stroke-opacity="0.09" stroke-width="2" stroke-dasharray="2 4"/>
<line x1="669" y1="1319" x2="669" y2="2009" stroke="#4B4A4A" stroke-opacity="0.09" stroke-width="2" stroke-dasharray="2 4"/>
<line x1="709" y1="1319" x2="709" y2="2009" stroke="#4B4A4A" stroke-opacity="0.09" stroke-width="2" stroke-dasharray="2 4"/>
<line x1="749" y1="1319" x2="749" y2="2009" stroke="#4B4A4A" stroke-opacity="0.09" stroke-width="2" stroke-dasharray="2 4"/>
<line x1="789" y1="1319" x2="789" y2="2009" stroke="#4B4A4A" stroke-opacity="0.09" stroke-width="2" stroke-dasharray="2 4"/>
<line x1="829" y1="1319" x2="829" y2="2009" stroke="#4B4A4A" stroke-opacity="0.09" stroke-width="2" stroke-dasharray="2 4"/>
<line x1="869" y1="1319" x2="869" y2="2009" stroke="#4B4A4A" stroke-opacity="0.09" stroke-width="2" stroke-dasharray="2 4"/>
<line x1="909" y1="1319" x2="909" y2="2009" stroke="#4B4A4A" stroke-opacity="0.09" stroke-width="2" stroke-dasharray="2 4"/>
<line x1="949" y1="1319" x2="949" y2="2009" stroke="#4B4A4A" stroke-opacity="0.09" stroke-width="2" stroke-dasharray="2 4"/>
<line x1="989" y1="1319" x2="989" y2="2009" stroke="#4B4A4A" stroke-opacity="0.09" stroke-width="2" stroke-dasharray="2 4"/>
<line x1="1029" y1="1319" x2="1029" y2="2009" stroke="#4B4A4A" stroke-opacity="0.09" stroke-width="2" stroke-dasharray="2 4"/>
<line x1="1069" y1="1319" x2="1069" y2="2009" stroke="#4B4A4A" stroke-opacity="0.09" stroke-width="2" stroke-dasharray="2 4"/>
<line x1="1109" y1="1319" x2="1109" y2="2009" stroke="#4B4A4A" stroke-opacity="0.09" stroke-width="2" stroke-dasharray="2 4"/>
<line x1="1149" y1="1319" x2="1149" y2="2009" stroke="#4B4A4A" stroke-opacity="0.09" stroke-width="2" stroke-dasharray="2 4"/>
<line x1="1189" y1="1319" x2="1189" y2="2009" stroke="#4B4A4A" stroke-opacity="0.09" stroke-width="2" stroke-dasharray="2 4"/>
<line x1="1229" y1="1319" x2="1229" y2="2009" stroke="#4B4A4A" stroke-opacity="0.09" stroke-width="2" stroke-dasharray="2 4"/>
<line x1="1269" y1="1319" x2="1269" y2="2009" stroke="#4B4A4A" stroke-opacity="0.09" stroke-width="2" stroke-dasharray="2 4"/>
<line x1="1309" y1="1319" x2="1309" y2="2009" stroke="#4B4A4A" stroke-opacity="0.09" stroke-width="2" stroke-dasharray="2 4"/>
<line x1="1349" y1="1319" x2="1349" y2="2009" stroke="#4B4A4A" stroke-opacity="0.09" stroke-width="2" stroke-dasharray="2 4"/>
<line x1="1389" y1="1319" x2="1389" y2="2009" stroke="#4B4A4A" stroke-opacity="0.09" stroke-width="2" stroke-dasharray="2 4"/>
<line x1="1429" y1="1319" x2="1429" y2="2009" stroke="#4B4A4A" stroke-opacity="0.09" stroke-width="2" stroke-dasharray="2 4"/>
<line x1="29" y1="2108" x2="29" y2="2798" stroke="#4B4A4A" stroke-opacity="0.09" stroke-width="2" stroke-dasharray="2 4"/>
<line x1="69" y1="2108" x2="69" y2="2798" stroke="#4B4A4A" stroke-opacity="0.09" stroke-width="2" stroke-dasharray="2 4"/>
<line x1="109" y1="2108" x2="109" y2="2798" stroke="#4B4A4A" stroke-opacity="0.09" stroke-width="2" stroke-dasharray="2 4"/>
<line x1="149" y1="2108" x2="149" y2="2798" stroke="#4B4A4A" stroke-opacity="0.09" stroke-width="2" stroke-dasharray="2 4"/>
<line x1="189" y1="2108" x2="189" y2="2798" stroke="#4B4A4A" stroke-opacity="0.09" stroke-width="2" stroke-dasharray="2 4"/>
<line x1="229" y1="2108" x2="229" y2="2798" stroke="#4B4A4A" stroke-opacity="0.09" stroke-width="2" stroke-dasharray="2 4"/>
<line x1="269" y1="2108" x2="269" y2="2798" stroke="#4B4A4A" stroke-opacity="0.09" stroke-width="2" stroke-dasharray="2 4"/>
<line x1="309" y1="2108" x2="309" y2="2798" stroke="#4B4A4A" stroke-opacity="0.09" stroke-width="2" stroke-dasharray="2 4"/>
<line x1="349" y1="2108" x2="349" y2="2798" stroke="#4B4A4A" stroke-opacity="0.09" stroke-width="2" stroke-dasharray="2 4"/>
<line x1="389" y1="2108" x2="389" y2="2798" stroke="#4B4A4A" stroke-opacity="0.09" stroke-width="2" stroke-dasharray="2 4"/>
<line x1="429" y1="2108" x2="429" y2="2798" stroke="#4B4A4A" stroke-opacity="0.09" stroke-width="2" stroke-dasharray="2 4"/>
<line x1="469" y1="2108" x2="469" y2="2798" stroke="#4B4A4A" stroke-opacity="0.09" stroke-width="2" stroke-dasharray="2 4"/>
<line x1="509" y1="2108" x2="509" y2="2798" stroke="#4B4A4A" stroke-opacity="0.09" stroke-width="2" stroke-dasharray="2 4"/>
<line x1="549" y1="2108" x2="549" y2="2798" stroke="#4B4A4A" stroke-opacity="0.09" stroke-width="2" stroke-dasharray="2 4"/>
<line x1="589" y1="2108" x2="589" y2="2798" stroke="#4B4A4A" stroke-opacity="0.09" stroke-width="2" stroke-dasharray="2 4"/>
<line x1="629" y1="2108" x2="629" y2="2798" stroke="#4B4A4A" stroke-opacity="0.09" stroke-width="2" stroke-dasharray="2 4"/>
<line x1="669" y1="2108" x2="669" y2="2798" stroke="#4B4A4A" stroke-opacity="0.09" stroke-width="2" stroke-dasharray="2 4"/>
<line x1="709" y1="2108" x2="709" y2="2798" stroke="#4B4A4A" stroke-opacity="0.09" stroke-width="2" stroke-dasharray="2 4"/>
<line x1="749" y1="2108" x2="749" y2="2798" stroke="#4B4A4A" stroke-opacity="0.09" stroke-width="2" stroke-dasharray="2 4"/>
<line x1="789" y1="2108" x2="789" y2="2798" stroke="#4B4A4A" stroke-opacity="0.09" stroke-width="2" stroke-dasharray="2 4"/>
<line x1="829" y1="2108" x2="829" y2="2798" stroke="#4B4A4A" stroke-opacity="0.09" stroke-width="2" stroke-dasharray="2 4"/>
<line x1="869" y1="2108" x2="869" y2="2798" stroke="#4B4A4A" stroke-opacity="0.09" stroke-width="2" stroke-dasharray="2 4"/>
<line x1="909" y1="2108" x2="909" y2="2798" stroke="#4B4A4A" stroke-opacity="0.09" stroke-width="2" stroke-dasharray="2 4"/>
<line x1="949" y1="2108" x2="949" y2="2798" stroke="#4B4A4A" stroke-opacity="0.09" stroke-width="2" stroke-dasharray="2 4"/>
<line x1="989" y1="2108" x2="989" y2="2798" stroke="#4B4A4A" stroke-opacity="0.09" stroke-width="2" stroke-dasharray="2 4"/>
<line x1="1029" y1="2108" x2="1029" y2="2798" stroke="#4B4A4A" stroke-opacity="0.09" stroke-width="2" stroke-dasharray="2 4"/>
<line x1="1069" y1="2108" x2="1069" y2="2798" stroke="#4B4A4A" stroke-opacity="0.09" stroke-width="2" stroke-dasharray="2 4"/>
<line x1="1109" y1="2108" x2="1109" y2="2798" stroke="#4B4A4A" stroke-opacity="0.09" stroke-width="2" stroke-dasharray="2 4"/>
<line x1="1149" y1="2108" x2="1149" y2="2798" stroke="#4B4A4A" stroke-opacity="0.09" stroke-width="2" stroke-dasharray="2 4"/>
<line x1="1189" y1="2108" x2="1189" y2="2798" stroke="#4B4A4A" stroke-opacity="0.09" stroke-width="2" stroke-dasharray="2 4"/>
<line x1="1229" y1="2108" x2="1229" y2="2798" stroke="#4B4A4A" stroke-opacity="0.09" stroke-width="2" stroke-dasharray="2 4"/>
<line x1="1269" y1="2108" x2="1269" y2="2798" stroke="#4B4A4A" stroke-opacity="0.09" stroke-width="2" stroke-dasharray="2 4"/>
<line x1="1309" y1="2108" x2="1309" y2="2798" stroke="#4B4A4A" stroke-opacity="0.09" stroke-width="2" stroke-dasharray="2 4"/>
<line x1="1349" y1="2108" x2="1349" y2="2798" stroke="#4B4A4A" stroke-opacity="0.09" stroke-width="2" stroke-dasharray="2 4"/>
<line x1="1389" y1="2108" x2="1389" y2="2798" stroke="#4B4A4A" stroke-opacity="0.09" stroke-width="2" stroke-dasharray="2 4"/>
<line x1="1429" y1="2108" x2="1429" y2="2798" stroke="#4B4A4A" stroke-opacity="0.09" stroke-width="2" stroke-dasharray="2 4"/>
<line x1="-54" y1="1357.5" x2="1430" y2="1357.5" stroke="#4B4A4A" stroke-opacity="0.09" stroke-width="2" stroke-dasharray="2 4"/>
<line x1="-54" y1="1316.5" x2="1430" y2="1316.5" stroke="#4B4A4A" stroke-opacity="0.09" stroke-width="2" stroke-dasharray="2 4"/>
<line x1="-54" y1="1275.5" x2="1430" y2="1275.5" stroke="#4B4A4A" stroke-opacity="0.09" stroke-width="2" stroke-dasharray="2 4"/>
<line x1="-54" y1="1234.5" x2="1430" y2="1234.5" stroke="#4B4A4A" stroke-opacity="0.09" stroke-width="2" stroke-dasharray="2 4"/>
<line x1="-54" y1="1193.5" x2="1430" y2="1193.5" stroke="#4B4A4A" stroke-opacity="0.09" stroke-width="2" stroke-dasharray="2 4"/>
<line x1="-54" y1="1152.5" x2="1430" y2="1152.5" stroke="#4B4A4A" stroke-opacity="0.09" stroke-width="2" stroke-dasharray="2 4"/>
<line x1="-54" y1="1111.5" x2="1430" y2="1111.5" stroke="#4B4A4A" stroke-opacity="0.09" stroke-width="2" stroke-dasharray="2 4"/>
<line x1="-54" y1="1070.5" x2="1430" y2="1070.5" stroke="#4B4A4A" stroke-opacity="0.09" stroke-width="2" stroke-dasharray="2 4"/>
<line x1="-54" y1="1029.5" x2="1430" y2="1029.5" stroke="#4B4A4A" stroke-opacity="0.09" stroke-width="2" stroke-dasharray="2 4"/>
<line x1="-54" y1="988.5" x2="1430" y2="988.5" stroke="#4B4A4A" stroke-opacity="0.09" stroke-width="2" stroke-dasharray="2 4"/>
<line x1="-54" y1="947.5" x2="1430" y2="947.5" stroke="#4B4A4A" stroke-opacity="0.09" stroke-width="2" stroke-dasharray="2 4"/>
<line x1="-54" y1="906.5" x2="1430" y2="906.5" stroke="#4B4A4A" stroke-opacity="0.09" stroke-width="2" stroke-dasharray="2 4"/>
<line x1="-54" y1="865.5" x2="1430" y2="865.5" stroke="#4B4A4A" stroke-opacity="0.09" stroke-width="2" stroke-dasharray="2 4"/>
<line x1="-54" y1="824.5" x2="1430" y2="824.5" stroke="#4B4A4A" stroke-opacity="0.09" stroke-width="2" stroke-dasharray="2 4"/>
<line x1="-54" y1="783.5" x2="1430" y2="783.5" stroke="#4B4A4A" stroke-opacity="0.09" stroke-width="2" stroke-dasharray="2 4"/>
<line x1="-54" y1="742.5" x2="1430" y2="742.5" stroke="#4B4A4A" stroke-opacity="0.09" stroke-width="2" stroke-dasharray="2 4"/>
<line x1="-54" y1="701.5" x2="1430" y2="701.5" stroke="#4B4A4A" stroke-opacity="0.09" stroke-width="2" stroke-dasharray="2 4"/>
<line x1="-54" y1="660.5" x2="1430" y2="660.5" stroke="#4B4A4A" stroke-opacity="0.09" stroke-width="2" stroke-dasharray="2 4"/>
<line x1="-54" y1="619.5" x2="1430" y2="619.5" stroke="#4B4A4A" stroke-opacity="0.09" stroke-width="2" stroke-dasharray="2 4"/>
<line x1="-54" y1="578.5" x2="1430" y2="578.5" stroke="#4B4A4A" stroke-opacity="0.09" stroke-width="2" stroke-dasharray="2 4"/>
<line x1="-54" y1="537.5" x2="1430" y2="537.5" stroke="#4B4A4A" stroke-opacity="0.09" stroke-width="2" stroke-dasharray="2 4"/>
<line x1="-54" y1="496.5" x2="1430" y2="496.5" stroke="#4B4A4A" stroke-opacity="0.09" stroke-width="2" stroke-dasharray="2 4"/>
<line x1="-54" y1="455.5" x2="1430" y2="455.5" stroke="#4B4A4A" stroke-opacity="0.09" stroke-width="2" stroke-dasharray="2 4"/>
<line x1="-54" y1="414.5" x2="1430" y2="414.5" stroke="#4B4A4A" stroke-opacity="0.09" stroke-width="2" stroke-dasharray="2 4"/>
<line x1="-54" y1="373.5" x2="1430" y2="373.5" stroke="#4B4A4A" stroke-opacity="0.09" stroke-width="2" stroke-dasharray="2 4"/>
<line x1="-54" y1="332.5" x2="1430" y2="332.5" stroke="#4B4A4A" stroke-opacity="0.09" stroke-width="2" stroke-dasharray="2 4"/>
<line x1="-54" y1="291.5" x2="1430" y2="291.5" stroke="#4B4A4A" stroke-opacity="0.09" stroke-width="2" stroke-dasharray="2 4"/>
<line x1="-54" y1="250.5" x2="1430" y2="250.5" stroke="#4B4A4A" stroke-opacity="0.09" stroke-width="2" stroke-dasharray="2 4"/>
<line x1="-54" y1="209.5" x2="1430" y2="209.5" stroke="#4B4A4A" stroke-opacity="0.09" stroke-width="2" stroke-dasharray="2 4"/>
<line x1="-54" y1="168.5" x2="1430" y2="168.5" stroke="#4B4A4A" stroke-opacity="0.09" stroke-width="2" stroke-dasharray="2 4"/>
<line x1="-54" y1="127.5" x2="1430" y2="127.5" stroke="#4B4A4A" stroke-opacity="0.09" stroke-width="2" stroke-dasharray="2 4"/>
<line x1="-54" y1="86.5" x2="1430" y2="86.5001" stroke="#4B4A4A" stroke-opacity="0.09" stroke-width="2" stroke-dasharray="2 4"/>
<line x1="-54" y1="45.5" x2="1430" y2="45.5001" stroke="#4B4A4A" stroke-opacity="0.09" stroke-width="2" stroke-dasharray="2 4"/>
<line x1="-54" y1="4.5" x2="1430" y2="4.50006" stroke="#4B4A4A" stroke-opacity="0.09" stroke-width="2" stroke-dasharray="2 4"/>
<line x1="-54" y1="2915.5" x2="1430" y2="2915.5" stroke="#4B4A4A" stroke-opacity="0.09" stroke-width="2" stroke-dasharray="2 4"/>
<line x1="-54" y1="2874.5" x2="1430" y2="2874.5" stroke="#4B4A4A" stroke-opacity="0.09" stroke-width="2" stroke-dasharray="2 4"/>
<line x1="-54" y1="2833.5" x2="1430" y2="2833.5" stroke="#4B4A4A" stroke-opacity="0.09" stroke-width="2" stroke-dasharray="2 4"/>
<line x1="-54" y1="2792.5" x2="1430" y2="2792.5" stroke="#4B4A4A" stroke-opacity="0.09" stroke-width="2" stroke-dasharray="2 4"/>
<line x1="-54" y1="2751.5" x2="1430" y2="2751.5" stroke="#4B4A4A" stroke-opacity="0.09" stroke-width="2" stroke-dasharray="2 4"/>
<line x1="-54" y1="2710.5" x2="1430" y2="2710.5" stroke="#4B4A4A" stroke-opacity="0.09" stroke-width="2" stroke-dasharray="2 4"/>
<line x1="-54" y1="2669.5" x2="1430" y2="2669.5" stroke="#4B4A4A" stroke-opacity="0.09" stroke-width="2" stroke-dasharray="2 4"/>
<line x1="-54" y1="2628.5" x2="1430" y2="2628.5" stroke="#4B4A4A" stroke-opacity="0.09" stroke-width="2" stroke-dasharray="2 4"/>
<line x1="-54" y1="2587.5" x2="1430" y2="2587.5" stroke="#4B4A4A" stroke-opacity="0.09" stroke-width="2" stroke-dasharray="2 4"/>
<line x1="-54" y1="2546.5" x2="1430" y2="2546.5" stroke="#4B4A4A" stroke-opacity="0.09" stroke-width="2" stroke-dasharray="2 4"/>
<line x1="-54" y1="2505.5" x2="1430" y2="2505.5" stroke="#4B4A4A" stroke-opacity="0.09" stroke-width="2" stroke-dasharray="2 4"/>
<line x1="-54" y1="2464.5" x2="1430" y2="2464.5" stroke="#4B4A4A" stroke-opacity="0.09" stroke-width="2" stroke-dasharray="2 4"/>
<line x1="-54" y1="2423.5" x2="1430" y2="2423.5" stroke="#4B4A4A" stroke-opacity="0.09" stroke-width="2" stroke-dasharray="2 4"/>
<line x1="-54" y1="2382.5" x2="1430" y2="2382.5" stroke="#4B4A4A" stroke-opacity="0.09" stroke-width="2" stroke-dasharray="2 4"/>
<line x1="-54" y1="2341.5" x2="1430" y2="2341.5" stroke="#4B4A4A" stroke-opacity="0.09" stroke-width="2" stroke-dasharray="2 4"/>
<line x1="-54" y1="2300.5" x2="1430" y2="2300.5" stroke="#4B4A4A" stroke-opacity="0.09" stroke-width="2" stroke-dasharray="2 4"/>
<line x1="-54" y1="2259.5" x2="1430" y2="2259.5" stroke="#4B4A4A" stroke-opacity="0.09" stroke-width="2" stroke-dasharray="2 4"/>
<line x1="-54" y1="2218.5" x2="1430" y2="2218.5" stroke="#4B4A4A" stroke-opacity="0.09" stroke-width="2" stroke-dasharray="2 4"/>
<line x1="-54" y1="2177.5" x2="1430" y2="2177.5" stroke="#4B4A4A" stroke-opacity="0.09" stroke-width="2" stroke-dasharray="2 4"/>
<line x1="-54" y1="2136.5" x2="1430" y2="2136.5" stroke="#4B4A4A" stroke-opacity="0.09" stroke-width="2" stroke-dasharray="2 4"/>
<line x1="-54" y1="2095.5" x2="1430" y2="2095.5" stroke="#4B4A4A" stroke-opacity="0.09" stroke-width="2" stroke-dasharray="2 4"/>
<line x1="-54" y1="2054.5" x2="1430" y2="2054.5" stroke="#4B4A4A" stroke-opacity="0.09" stroke-width="2" stroke-dasharray="2 4"/>
<line x1="-54" y1="2013.5" x2="1430" y2="2013.5" stroke="#4B4A4A" stroke-opacity="0.09" stroke-width="2" stroke-dasharray="2 4"/>
<line x1="-54" y1="1972.5" x2="1430" y2="1972.5" stroke="#4B4A4A" stroke-opacity="0.09" stroke-width="2" stroke-dasharray="2 4"/>
<line x1="-54" y1="1931.5" x2="1430" y2="1931.5" stroke="#4B4A4A" stroke-opacity="0.09" stroke-width="2" stroke-dasharray="2 4"/>
<line x1="-54" y1="1890.5" x2="1430" y2="1890.5" stroke="#4B4A4A" stroke-opacity="0.09" stroke-width="2" stroke-dasharray="2 4"/>
<line x1="-54" y1="1849.5" x2="1430" y2="1849.5" stroke="#4B4A4A" stroke-opacity="0.09" stroke-width="2" stroke-dasharray="2 4"/>
<line x1="-54" y1="1808.5" x2="1430" y2="1808.5" stroke="#4B4A4A" stroke-opacity="0.09" stroke-width="2" stroke-dasharray="2 4"/>
<line x1="-54" y1="1767.5" x2="1430" y2="1767.5" stroke="#4B4A4A" stroke-opacity="0.09" stroke-width="2" stroke-dasharray="2 4"/>
<line x1="-54" y1="1726.5" x2="1430" y2="1726.5" stroke="#4B4A4A" stroke-opacity="0.09" stroke-width="2" stroke-dasharray="2 4"/>
<line x1="-54" y1="1685.5" x2="1430" y2="1685.5" stroke="#4B4A4A" stroke-opacity="0.09" stroke-width="2" stroke-dasharray="2 4"/>
<line x1="-54" y1="1644.5" x2="1430" y2="1644.5" stroke="#4B4A4A" stroke-opacity="0.09" stroke-width="2" stroke-dasharray="2 4"/>
<line x1="-54" y1="1603.5" x2="1430" y2="1603.5" stroke="#4B4A4A" stroke-opacity="0.09" stroke-width="2" stroke-dasharray="2 4"/>
<line x1="-54" y1="1562.5" x2="1430" y2="1562.5" stroke="#4B4A4A" stroke-opacity="0.09" stroke-width="2" stroke-dasharray="2 4"/>
<line x1="-54" y1="1521.5" x2="1430" y2="1521.5" stroke="#4B4A4A" stroke-opacity="0.09" stroke-width="2" stroke-dasharray="2 4"/>
<line x1="-54" y1="1480.5" x2="1430" y2="1480.5" stroke="#4B4A4A" stroke-opacity="0.09" stroke-width="2" stroke-dasharray="2 4"/>
<line x1="-54" y1="1439.5" x2="1430" y2="1439.5" stroke="#4B4A4A" stroke-opacity="0.09" stroke-width="2" stroke-dasharray="2 4"/>
<line x1="-54" y1="1398.5" x2="1430" y2="1398.5" stroke="#4B4A4A" stroke-opacity="0.09" stroke-width="2" stroke-dasharray="2 4"/>
<line x1="29" y1="2449" x2="29" y2="3139" stroke="#4B4A4A" stroke-opacity="0.09" stroke-width="2" stroke-dasharray="2 4"/>
<line x1="69" y1="2449" x2="69" y2="3139" stroke="#4B4A4A" stroke-opacity="0.09" stroke-width="2" stroke-dasharray="2 4"/>
<line x1="109" y1="2449" x2="109" y2="3139" stroke="#4B4A4A" stroke-opacity="0.09" stroke-width="2" stroke-dasharray="2 4"/>
<line x1="149" y1="2449" x2="149" y2="3139" stroke="#4B4A4A" stroke-opacity="0.09" stroke-width="2" stroke-dasharray="2 4"/>
<line x1="189" y1="2449" x2="189" y2="3139" stroke="#4B4A4A" stroke-opacity="0.09" stroke-width="2" stroke-dasharray="2 4"/>
<line x1="229" y1="2449" x2="229" y2="3139" stroke="#4B4A4A" stroke-opacity="0.09" stroke-width="2" stroke-dasharray="2 4"/>
<line x1="269" y1="2449" x2="269" y2="3139" stroke="#4B4A4A" stroke-opacity="0.09" stroke-width="2" stroke-dasharray="2 4"/>
<line x1="309" y1="2449" x2="309" y2="3139" stroke="#4B4A4A" stroke-opacity="0.09" stroke-width="2" stroke-dasharray="2 4"/>
<line x1="349" y1="2449" x2="349" y2="3139" stroke="#4B4A4A" stroke-opacity="0.09" stroke-width="2" stroke-dasharray="2 4"/>
<line x1="389" y1="2449" x2="389" y2="3139" stroke="#4B4A4A" stroke-opacity="0.09" stroke-width="2" stroke-dasharray="2 4"/>
<line x1="429" y1="2449" x2="429" y2="3139" stroke="#4B4A4A" stroke-opacity="0.09" stroke-width="2" stroke-dasharray="2 4"/>
<line x1="469" y1="2449" x2="469" y2="3139" stroke="#4B4A4A" stroke-opacity="0.09" stroke-width="2" stroke-dasharray="2 4"/>
<line x1="509" y1="2449" x2="509" y2="3139" stroke="#4B4A4A" stroke-opacity="0.09" stroke-width="2" stroke-dasharray="2 4"/>
<line x1="549" y1="2449" x2="549" y2="3139" stroke="#4B4A4A" stroke-opacity="0.09" stroke-width="2" stroke-dasharray="2 4"/>
<line x1="589" y1="2449" x2="589" y2="3139" stroke="#4B4A4A" stroke-opacity="0.09" stroke-width="2" stroke-dasharray="2 4"/>
<line x1="629" y1="2449" x2="629" y2="3139" stroke="#4B4A4A" stroke-opacity="0.09" stroke-width="2" stroke-dasharray="2 4"/>
<line x1="669" y1="2449" x2="669" y2="3139" stroke="#4B4A4A" stroke-opacity="0.09" stroke-width="2" stroke-dasharray="2 4"/>
<line x1="709" y1="2449" x2="709" y2="3139" stroke="#4B4A4A" stroke-opacity="0.09" stroke-width="2" stroke-dasharray="2 4"/>
<line x1="749" y1="2449" x2="749" y2="3139" stroke="#4B4A4A" stroke-opacity="0.09" stroke-width="2" stroke-dasharray="2 4"/>
<line x1="789" y1="2449" x2="789" y2="3139" stroke="#4B4A4A" stroke-opacity="0.09" stroke-width="2" stroke-dasharray="2 4"/>
<line x1="829" y1="2449" x2="829" y2="3139" stroke="#4B4A4A" stroke-opacity="0.09" stroke-width="2" stroke-dasharray="2 4"/>
<line x1="869" y1="2449" x2="869" y2="3139" stroke="#4B4A4A" stroke-opacity="0.09" stroke-width="2" stroke-dasharray="2 4"/>
<line x1="909" y1="2449" x2="909" y2="3139" stroke="#4B4A4A" stroke-opacity="0.09" stroke-width="2" stroke-dasharray="2 4"/>
<line x1="949" y1="2449" x2="949" y2="3139" stroke="#4B4A4A" stroke-opacity="0.09" stroke-width="2" stroke-dasharray="2 4"/>
<line x1="989" y1="2449" x2="989" y2="3139" stroke="#4B4A4A" stroke-opacity="0.09" stroke-width="2" stroke-dasharray="2 4"/>
<line x1="1029" y1="2449" x2="1029" y2="3139" stroke="#4B4A4A" stroke-opacity="0.09" stroke-width="2" stroke-dasharray="2 4"/>
<line x1="1069" y1="2449" x2="1069" y2="3139" stroke="#4B4A4A" stroke-opacity="0.09" stroke-width="2" stroke-dasharray="2 4"/>
<line x1="1109" y1="2449" x2="1109" y2="3139" stroke="#4B4A4A" stroke-opacity="0.09" stroke-width="2" stroke-dasharray="2 4"/>
<line x1="1149" y1="2449" x2="1149" y2="3139" stroke="#4B4A4A" stroke-opacity="0.09" stroke-width="2" stroke-dasharray="2 4"/>
<line x1="1189" y1="2449" x2="1189" y2="3139" stroke="#4B4A4A" stroke-opacity="0.09" stroke-width="2" stroke-dasharray="2 4"/>
<line x1="1229" y1="2449" x2="1229" y2="3139" stroke="#4B4A4A" stroke-opacity="0.09" stroke-width="2" stroke-dasharray="2 4"/>
<line x1="1269" y1="2449" x2="1269" y2="3139" stroke="#4B4A4A" stroke-opacity="0.09" stroke-width="2" stroke-dasharray="2 4"/>
<line x1="1309" y1="2449" x2="1309" y2="3139" stroke="#4B4A4A" stroke-opacity="0.09" stroke-width="2" stroke-dasharray="2 4"/>
<line x1="1349" y1="2449" x2="1349" y2="3139" stroke="#4B4A4A" stroke-opacity="0.09" stroke-width="2" stroke-dasharray="2 4"/>
<line x1="1389" y1="2449" x2="1389" y2="3139" stroke="#4B4A4A" stroke-opacity="0.09" stroke-width="2" stroke-dasharray="2 4"/>
<line x1="1429" y1="2449" x2="1429" y2="3139" stroke="#4B4A4A" stroke-opacity="0.09" stroke-width="2" stroke-dasharray="2 4"/>
</g>
<defs>
<clipPath id="clip0_3954_132683">
<rect width="1440" height="2933" fill="white"/>
</clipPath>
</defs>
</svg>
