<svg width="547" height="242" viewBox="0 0 547 242" fill="none" xmlns="http://www.w3.org/2000/svg">
<g clip-path="url(#clip0_3992_71436)">
<rect width="547" height="242" fill="#EEF0F7"/>
<g filter="url(#filter0_f_3992_71436)">
<circle cx="493.5" cy="338.5" r="359.5" fill="#E3E6FF" fill-opacity="0.6"/>
</g>
<circle cx="413" cy="117" r="19.5" fill="white" stroke="#9097B8" stroke-dasharray="2 2"/>
<circle cx="413" cy="37" r="20" fill="white" fill-opacity="0.8"/>
<circle cx="333" cy="117" r="20" fill="white" fill-opacity="0.8"/>
<circle cx="493" cy="117" r="20" fill="white" fill-opacity="0.8"/>
<circle cx="413" cy="197" r="20" fill="white" fill-opacity="0.8"/>
<circle cx="353" cy="117.33" r="3" fill="#9097B8"/>
<path d="M391 117.33L383.5 121.66V118.33L354 118.33V116.33L383.5 116.33V113L391 117.33Z" fill="#9097B8"/>
<circle cx="3" cy="3" r="3" transform="matrix(-1 0 0 1 476 114.33)" fill="#9097B8"/>
<path d="M435 117.33L442.5 121.66V118.33L472 118.33V116.33L442.5 116.33V113L435 117.33Z" fill="#9097B8"/>
<circle cx="413.33" cy="57" r="3" transform="rotate(90 413.33 57)" fill="#9097B8"/>
<path d="M413.33 95L409 87.5H412.33L412.33 58H414.33L414.33 87.5H417.66L413.33 95Z" fill="#9097B8"/>
<circle cx="3" cy="3" r="3" transform="matrix(0 -1 -1 0 416.33 180)" fill="#9097B8"/>
<path d="M413.33 139L409 146.5H412.33L412.33 176H414.33L414.33 146.5H417.66L413.33 139Z" fill="#9097B8"/>
<circle cx="134" cy="117" r="20" fill="#696788"/>
<circle cx="225" cy="117" r="19.5" fill="white" stroke="#9097B8" stroke-dasharray="2 2"/>
<circle cx="94" cy="37" r="20" fill="white" fill-opacity="0.8"/>
<circle cx="54" cy="117" r="20" fill="white" fill-opacity="0.8"/>
<circle cx="94" cy="197" r="20" fill="white" fill-opacity="0.8"/>
<circle cx="74" cy="119.33" r="3" fill="#9097B8"/>
<path d="M112 119.33L104.5 123.66V120.33L75 120.33V118.33L104.5 118.33V115L112 119.33Z" fill="#9097B8"/>
<circle cx="160" cy="119.33" r="3" fill="#9097B8"/>
<path d="M198 119.33L190.5 123.66V120.33L161 120.33V118.33L190.5 118.33V115L198 119.33Z" fill="#9097B8"/>
<circle cx="103.25" cy="179.074" r="3" transform="rotate(-60 103.25 179.074)" fill="#9097B8"/>
<path d="M122.25 146.163L122.25 154.823L119.366 153.158L104.616 178.706L102.884 177.706L117.634 152.158L114.75 150.493L122.25 146.163Z" fill="#9097B8"/>
<circle cx="3" cy="3" r="3" transform="matrix(0.5 0.866025 0.866025 -0.5 99.1523 52.6641)" fill="#9097B8"/>
<path d="M122.25 86.6728L122.25 78.0126L119.366 79.6776L104.616 54.1299L102.884 55.1299L117.634 80.6776L114.75 82.3427L122.25 86.6728Z" fill="#9097B8"/>
</g>
<defs>
<filter id="filter0_f_3992_71436" x="-38" y="-193" width="1063" height="1063" filterUnits="userSpaceOnUse" color-interpolation-filters="sRGB">
<feFlood flood-opacity="0" result="BackgroundImageFix"/>
<feBlend mode="normal" in="SourceGraphic" in2="BackgroundImageFix" result="shape"/>
<feGaussianBlur stdDeviation="86" result="effect1_foregroundBlur_3992_71436"/>
</filter>
<clipPath id="clip0_3992_71436">
<rect width="547" height="242" fill="white"/>
</clipPath>
</defs>
</svg>
