<svg width="922" height="164" viewBox="0 0 922 164" fill="none" xmlns="http://www.w3.org/2000/svg">
<g clip-path="url(#clip0_3954_129021)">
<rect width="922" height="164" fill="#E9F0E4"/>
<g filter="url(#filter0_f_3954_129021)">
<path d="M1051 382.5C1051 569.448 899.448 721 712.5 721C525.552 721 374 569.448 374 382.5C374 195.552 525.552 44 712.5 44C899.448 44 1051 195.552 1051 382.5Z" fill="#F7F1EB"/>
</g>
<rect x="24" y="56" width="230" height="76" rx="4" fill="white" fill-opacity="0.72"/>
<path d="M32.32 96.08V92.688H33.52C33.7227 92.2827 33.888 91.7867 34.016 91.2C34.1547 90.6027 34.2613 89.9573 34.336 89.264C34.4213 88.56 34.48 87.8507 34.512 87.136C34.544 86.4107 34.56 85.712 34.56 85.04V82.8H41.84V92.688H43.2V96.08H41.76V94H33.76V96.08H32.32ZM35.12 92.688H40.336V84.112H36.032V85.36C36.032 86.9813 35.9573 88.384 35.808 89.568C35.6693 90.752 35.44 91.792 35.12 92.688ZM48.1713 94.16C47.4566 94.16 46.7846 94.0053 46.1553 93.696C45.5366 93.376 45.0353 92.896 44.6513 92.256C44.2779 91.616 44.0913 90.8107 44.0913 89.84V89.52C44.0913 88.6027 44.2779 87.8347 44.6513 87.216C45.0353 86.5973 45.5366 86.1333 46.1553 85.824C46.7846 85.5147 47.4566 85.36 48.1713 85.36C48.8966 85.36 49.5686 85.5147 50.1873 85.824C50.8059 86.1333 51.3019 86.5973 51.6753 87.216C52.0593 87.8347 52.2513 88.6027 52.2513 89.52V89.84C52.2513 90.8107 52.0593 91.616 51.6753 92.256C51.3019 92.896 50.8059 93.376 50.1873 93.696C49.5686 94.0053 48.8966 94.16 48.1713 94.16ZM48.1713 92.88C48.6086 92.88 49.0246 92.784 49.4193 92.592C49.8246 92.3893 50.1553 92.064 50.4113 91.616C50.6779 91.168 50.8113 90.576 50.8113 89.84V89.52C50.8113 88.8373 50.6779 88.288 50.4113 87.872C50.1553 87.4453 49.8246 87.136 49.4193 86.944C49.0246 86.7413 48.6086 86.64 48.1713 86.64C47.7446 86.64 47.3286 86.7413 46.9233 86.944C46.5179 87.136 46.1819 87.4453 45.9153 87.872C45.6593 88.288 45.5313 88.8373 45.5313 89.52V89.84C45.5313 90.576 45.6593 91.168 45.9153 91.616C46.1819 92.064 46.5179 92.3893 46.9233 92.592C47.3286 92.784 47.7446 92.88 48.1713 92.88ZM53.5288 94.16C53.4541 94.16 53.3741 94.1547 53.2888 94.144C53.2141 94.1333 53.1341 94.1227 53.0488 94.112V92.704C53.0808 92.7147 53.1608 92.72 53.2888 92.72C53.6088 92.72 53.8701 92.5813 54.0728 92.304C54.2754 92.016 54.4194 91.5147 54.5048 90.8C54.6008 90.0747 54.6488 89.0613 54.6488 87.76V85.52H60.7288V94H59.3208V86.768H56.0568V88.08C56.0568 89.264 56.0034 90.2507 55.8968 91.04C55.7901 91.8187 55.6301 92.4373 55.4168 92.896C55.2141 93.3547 54.9528 93.68 54.6328 93.872C54.3128 94.064 53.9448 94.16 53.5288 94.16ZM62.4881 94L64.7921 90.64C64.0881 90.48 63.5815 90.192 63.2721 89.776C62.9628 89.3493 62.8081 88.8053 62.8081 88.144C62.8081 87.5893 62.9201 87.12 63.1441 86.736C63.3681 86.3413 63.7148 86.0427 64.1841 85.84C64.6535 85.6267 65.2615 85.52 66.0081 85.52H69.6881V94H68.2801V90.768H66.1201L64.0561 94H62.4881ZM64.2161 88.144C64.2161 88.592 64.3441 88.9333 64.6001 89.168C64.8668 89.4027 65.3095 89.52 65.9281 89.52H68.2801V86.768H65.9281C65.3095 86.768 64.8668 86.8853 64.6001 87.12C64.3441 87.3547 64.2161 87.696 64.2161 88.144ZM75.9331 97.2V85.52H77.2451V87.12C77.5331 86.5547 77.9331 86.1227 78.4451 85.824C78.9678 85.5147 79.5705 85.36 80.2531 85.36C81.3198 85.36 82.1731 85.712 82.8131 86.416C83.4531 87.1093 83.7731 88.144 83.7731 89.52V89.84C83.7731 90.8 83.6238 91.6 83.3251 92.24C83.0371 92.88 82.6265 93.36 82.0931 93.68C81.5705 94 80.9571 94.16 80.2531 94.16C79.5278 94.16 78.9198 94 78.4291 93.68C77.9491 93.36 77.5865 92.96 77.3411 92.48V97.2H75.9331ZM79.9331 92.912C80.6265 92.912 81.2025 92.6507 81.6611 92.128C82.1305 91.6053 82.3651 90.8427 82.3651 89.84V89.52C82.3651 88.592 82.1305 87.8773 81.6611 87.376C81.2025 86.864 80.6265 86.608 79.9331 86.608C79.4211 86.608 78.9678 86.7147 78.5731 86.928C78.1891 87.1413 77.8851 87.4347 77.6611 87.808C77.4478 88.1707 77.3411 88.5813 77.3411 89.04V90.32C77.3411 90.832 77.4478 91.2853 77.6611 91.68C77.8851 92.064 78.1891 92.368 78.5731 92.592C78.9678 92.8053 79.4211 92.912 79.9331 92.912ZM86.4244 97.36C86.2644 97.36 86.1044 97.344 85.9444 97.312V96.032C86.1044 96.064 86.2644 96.08 86.4244 96.08C86.6377 96.08 86.8137 96.0267 86.9524 95.92C87.1017 95.824 87.251 95.6267 87.4004 95.328C87.5497 95.0293 87.731 94.5867 87.9444 94L84.3444 85.52H85.9124L88.6644 92.4L91.1604 85.52H92.6644L89.4644 94C89.1657 94.8 88.8777 95.4453 88.6004 95.936C88.3337 96.4267 88.0297 96.784 87.6884 97.008C87.3577 97.2427 86.9364 97.36 86.4244 97.36ZM99.1658 94V90.624C98.9204 90.7733 98.6218 90.9067 98.2698 91.024C97.9284 91.1413 97.4964 91.2 96.9738 91.2C95.9818 91.2 95.2138 90.976 94.6698 90.528C94.1258 90.08 93.8538 89.3173 93.8538 88.24V85.52H95.2618V88C95.2618 88.7253 95.4111 89.2267 95.7098 89.504C96.0084 89.7813 96.5098 89.92 97.2138 89.92C97.6938 89.92 98.1044 89.872 98.4458 89.776C98.7871 89.68 99.0271 89.5787 99.1658 89.472V85.52H100.574V94H99.1658ZM102.969 94V85.52H104.377V89.056H108.761V85.52H110.169V94H108.761V90.304H104.377V94H102.969ZM116.094 94.16C115.38 94.16 114.708 94.0053 114.078 93.696C113.46 93.376 112.958 92.896 112.574 92.256C112.201 91.616 112.014 90.8107 112.014 89.84V89.52C112.014 88.6027 112.201 87.8347 112.574 87.216C112.958 86.5973 113.46 86.1333 114.078 85.824C114.708 85.5147 115.38 85.36 116.094 85.36C116.82 85.36 117.492 85.5147 118.11 85.824C118.729 86.1333 119.225 86.5973 119.598 87.216C119.982 87.8347 120.174 88.6027 120.174 89.52V89.84C120.174 90.8107 119.982 91.616 119.598 92.256C119.225 92.896 118.729 93.376 118.11 93.696C117.492 94.0053 116.82 94.16 116.094 94.16ZM116.094 92.88C116.532 92.88 116.948 92.784 117.342 92.592C117.748 92.3893 118.078 92.064 118.334 91.616C118.601 91.168 118.734 90.576 118.734 89.84V89.52C118.734 88.8373 118.601 88.288 118.334 87.872C118.078 87.4453 117.748 87.136 117.342 86.944C116.948 86.7413 116.532 86.64 116.094 86.64C115.668 86.64 115.252 86.7413 114.846 86.944C114.441 87.136 114.105 87.4453 113.838 87.872C113.582 88.288 113.454 88.8373 113.454 89.52V89.84C113.454 90.576 113.582 91.168 113.838 91.616C114.105 92.064 114.441 92.3893 114.846 92.592C115.252 92.784 115.668 92.88 116.094 92.88ZM122.008 94V85.52H123.416V91.92L127.8 85.52H129.208V94H127.8V87.6L123.416 94H122.008ZM125.608 84.48C124.776 84.48 124.168 84.304 123.784 83.952C123.4 83.5893 123.208 83.072 123.208 82.4H124.584C124.584 82.7627 124.669 83.0347 124.84 83.216C125.011 83.3973 125.267 83.488 125.608 83.488C125.96 83.488 126.221 83.3973 126.392 83.216C126.573 83.0347 126.664 82.7627 126.664 82.4H128.008C128.008 83.072 127.816 83.5893 127.432 83.952C127.048 84.304 126.44 84.48 125.608 84.48ZM33.28 118V109.52H34.688V113.072H35.808L38.976 109.52H40.64L36.96 113.584L40.8 118H39.008L35.808 114.288H34.688V118H33.28ZM45.5306 118.16C44.816 118.16 44.144 118.005 43.5146 117.696C42.896 117.376 42.3946 116.896 42.0106 116.256C41.6373 115.616 41.4506 114.811 41.4506 113.84V113.52C41.4506 112.603 41.6373 111.835 42.0106 111.216C42.3946 110.597 42.896 110.133 43.5146 109.824C44.144 109.515 44.816 109.36 45.5306 109.36C46.256 109.36 46.928 109.515 47.5466 109.824C48.1653 110.133 48.6613 110.597 49.0346 111.216C49.4186 111.835 49.6106 112.603 49.6106 113.52V113.84C49.6106 114.811 49.4186 115.616 49.0346 116.256C48.6613 116.896 48.1653 117.376 47.5466 117.696C46.928 118.005 46.256 118.16 45.5306 118.16ZM45.5306 116.88C45.968 116.88 46.384 116.784 46.7786 116.592C47.184 116.389 47.5146 116.064 47.7706 115.616C48.0373 115.168 48.1706 114.576 48.1706 113.84V113.52C48.1706 112.837 48.0373 112.288 47.7706 111.872C47.5146 111.445 47.184 111.136 46.7786 110.944C46.384 110.741 45.968 110.64 45.5306 110.64C45.104 110.64 44.688 110.741 44.2826 110.944C43.8773 111.136 43.5413 111.445 43.2746 111.872C43.0186 112.288 42.8906 112.837 42.8906 113.52V113.84C42.8906 114.576 43.0186 115.168 43.2746 115.616C43.5413 116.064 43.8773 116.389 44.2826 116.592C44.688 116.784 45.104 116.88 45.5306 116.88ZM54.9644 118.16C54.2497 118.16 53.5777 118.005 52.9484 117.696C52.3297 117.376 51.8284 116.896 51.4444 116.256C51.071 115.616 50.8844 114.811 50.8844 113.84V113.52C50.8844 112.603 51.071 111.835 51.4444 111.216C51.8284 110.597 52.3297 110.133 52.9484 109.824C53.5777 109.515 54.2497 109.36 54.9644 109.36C55.6897 109.36 56.3617 109.515 56.9804 109.824C57.599 110.133 58.095 110.597 58.4684 111.216C58.8524 111.835 59.0444 112.603 59.0444 113.52V113.84C59.0444 114.811 58.8524 115.616 58.4684 116.256C58.095 116.896 57.599 117.376 56.9804 117.696C56.3617 118.005 55.6897 118.16 54.9644 118.16ZM54.9644 116.88C55.4017 116.88 55.8177 116.784 56.2124 116.592C56.6177 116.389 56.9484 116.064 57.2044 115.616C57.471 115.168 57.6044 114.576 57.6044 113.84V113.52C57.6044 112.837 57.471 112.288 57.2044 111.872C56.9484 111.445 56.6177 111.136 56.2124 110.944C55.8177 110.741 55.4017 110.64 54.9644 110.64C54.5377 110.64 54.1217 110.741 53.7164 110.944C53.311 111.136 52.975 111.445 52.7084 111.872C52.4524 112.288 52.3244 112.837 52.3244 113.52V113.84C52.3244 114.576 52.4524 115.168 52.7084 115.616C52.975 116.064 53.311 116.389 53.7164 116.592C54.1217 116.784 54.5377 116.88 54.9644 116.88ZM60.8781 121.2V109.52H62.1901V111.12C62.4781 110.555 62.8781 110.123 63.3901 109.824C63.9128 109.515 64.5155 109.36 65.1981 109.36C66.2648 109.36 67.1181 109.712 67.7581 110.416C68.3981 111.109 68.7181 112.144 68.7181 113.52V113.84C68.7181 114.8 68.5688 115.6 68.2701 116.24C67.9821 116.88 67.5715 117.36 67.0381 117.68C66.5155 118 65.9021 118.16 65.1981 118.16C64.4728 118.16 63.8648 118 63.3741 117.68C62.8941 117.36 62.5315 116.96 62.2861 116.48V121.2H60.8781ZM64.8781 116.912C65.5715 116.912 66.1475 116.651 66.6061 116.128C67.0755 115.605 67.3101 114.843 67.3101 113.84V113.52C67.3101 112.592 67.0755 111.877 66.6061 111.376C66.1475 110.864 65.5715 110.608 64.8781 110.608C64.3661 110.608 63.9128 110.715 63.5181 110.928C63.1341 111.141 62.8301 111.435 62.6061 111.808C62.3928 112.171 62.2861 112.581 62.2861 113.04V114.32C62.2861 114.832 62.3928 115.285 62.6061 115.68C62.8301 116.064 63.1341 116.368 63.5181 116.592C63.9128 116.805 64.3661 116.912 64.8781 116.912ZM69.4456 120V116.752H70.4856C70.6456 116.539 70.7843 116.181 70.9016 115.68C71.019 115.168 71.1096 114.571 71.1736 113.888C71.2483 113.205 71.2856 112.496 71.2856 111.76V109.52H77.2056V116.752H78.4056V120H77.0616V118H70.7896V120H69.4456ZM71.9256 116.752H75.7976V110.768H72.6616V112.08C72.6616 112.976 72.5976 113.845 72.4696 114.688C72.3523 115.52 72.171 116.208 71.9256 116.752ZM79.9331 118V109.52H81.3411V115.92L85.7251 109.52H87.1331V118H85.7251V111.6L81.3411 118H79.9331ZM89.5388 118V109.52H90.9468V113.056H95.3308V109.52H96.7388V118H95.3308V114.304H90.9468V118H89.5388ZM101.56 118.16C100.942 118.16 100.414 118.048 99.9764 117.824C99.5497 117.589 99.2244 117.275 99.0004 116.88C98.7764 116.475 98.6644 116.021 98.6644 115.52C98.6644 114.677 98.9097 114.069 99.4004 113.696C99.9017 113.323 100.616 113.136 101.544 113.136H104.296V112.56C104.296 111.835 104.131 111.333 103.8 111.056C103.48 110.779 102.995 110.64 102.344 110.64C101.736 110.64 101.294 110.757 101.016 110.992C100.739 111.216 100.584 111.472 100.552 111.76H99.1444C99.1764 111.301 99.331 110.896 99.6084 110.544C99.8857 110.181 100.264 109.893 100.744 109.68C101.224 109.467 101.784 109.36 102.424 109.36C103.096 109.36 103.678 109.467 104.168 109.68C104.659 109.883 105.038 110.208 105.304 110.656C105.571 111.093 105.704 111.675 105.704 112.4V115.84C105.704 116.288 105.704 116.683 105.704 117.024C105.715 117.355 105.742 117.68 105.784 118H104.552C104.52 117.755 104.499 117.525 104.488 117.312C104.478 117.088 104.472 116.837 104.472 116.56C104.248 117.008 103.886 117.387 103.384 117.696C102.883 118.005 102.275 118.16 101.56 118.16ZM101.864 116.88C102.312 116.88 102.718 116.8 103.08 116.64C103.454 116.48 103.747 116.245 103.96 115.936C104.184 115.627 104.296 115.248 104.296 114.8V114.224H101.784C101.262 114.224 100.851 114.331 100.552 114.544C100.254 114.747 100.104 115.072 100.104 115.52C100.104 115.915 100.243 116.24 100.52 116.496C100.808 116.752 101.256 116.88 101.864 116.88ZM114.927 120V118H108.031V109.52H109.439V116.752H113.503V109.52H114.911V116.752H116.271V120H114.927ZM117.793 118V109.52H119.201V115.92L123.585 109.52H124.993V118H123.585V111.6L119.201 118H117.793ZM127.399 118V109.52H128.807V115.92L133.191 109.52H134.599V118H133.191V111.6L128.807 118H127.399ZM140.844 118V109.52H144.524C145.228 109.52 145.804 109.621 146.252 109.824C146.7 110.016 147.031 110.288 147.244 110.64C147.458 110.981 147.564 111.381 147.564 111.84C147.564 112.213 147.442 112.571 147.196 112.912C146.962 113.243 146.658 113.472 146.284 113.6C146.807 113.728 147.202 113.973 147.468 114.336C147.746 114.688 147.884 115.104 147.884 115.584C147.884 116.32 147.639 116.907 147.148 117.344C146.658 117.781 145.89 118 144.844 118H140.844ZM142.252 116.752H144.844C145.442 116.752 145.863 116.645 146.108 116.432C146.354 116.219 146.476 115.915 146.476 115.52C146.476 115.115 146.354 114.805 146.108 114.592C145.863 114.368 145.442 114.256 144.844 114.256H142.252V116.752ZM142.252 113.104H144.524C145.132 113.104 145.554 112.997 145.788 112.784C146.034 112.571 146.156 112.277 146.156 111.904C146.156 111.552 146.034 111.275 145.788 111.072C145.554 110.869 145.132 110.768 144.524 110.768H142.252V113.104ZM153.251 118.16C152.537 118.16 151.865 118.005 151.235 117.696C150.617 117.376 150.115 116.896 149.731 116.256C149.358 115.616 149.171 114.811 149.171 113.84V113.52C149.171 112.603 149.358 111.835 149.731 111.216C150.115 110.597 150.617 110.133 151.235 109.824C151.865 109.515 152.537 109.36 153.251 109.36C153.977 109.36 154.649 109.515 155.267 109.824C155.886 110.133 156.382 110.597 156.755 111.216C157.139 111.835 157.331 112.603 157.331 113.52V113.84C157.331 114.811 157.139 115.616 156.755 116.256C156.382 116.896 155.886 117.376 155.267 117.696C154.649 118.005 153.977 118.16 153.251 118.16ZM153.251 116.88C153.689 116.88 154.105 116.784 154.499 116.592C154.905 116.389 155.235 116.064 155.491 115.616C155.758 115.168 155.891 114.576 155.891 113.84V113.52C155.891 112.837 155.758 112.288 155.491 111.872C155.235 111.445 154.905 111.136 154.499 110.944C154.105 110.741 153.689 110.64 153.251 110.64C152.825 110.64 152.409 110.741 152.003 110.944C151.598 111.136 151.262 111.445 150.995 111.872C150.739 112.288 150.611 112.837 150.611 113.52V113.84C150.611 114.576 150.739 115.168 150.995 115.616C151.262 116.064 151.598 116.389 152.003 116.592C152.409 116.784 152.825 116.88 153.251 116.88ZM158.049 120V116.752H159.089C159.249 116.539 159.387 116.181 159.505 115.68C159.622 115.168 159.713 114.571 159.777 113.888C159.851 113.205 159.889 112.496 159.889 111.76V109.52H165.809V116.752H167.009V120H165.665V118H159.393V120H158.049ZM160.529 116.752H164.401V110.768H161.265V112.08C161.265 112.976 161.201 113.845 161.073 114.688C160.955 115.52 160.774 116.208 160.529 116.752ZM168.536 118V109.52H169.944V115.92L174.328 109.52H175.736V118H174.328V111.6L169.944 118H168.536ZM180.078 118V110.768H177.182V109.52H184.382V110.768H181.486V118H180.078ZM189.189 118.16C188.475 118.16 187.803 118.005 187.173 117.696C186.555 117.387 186.053 116.912 185.669 116.272C185.296 115.632 185.109 114.821 185.109 113.84V113.52C185.109 112.581 185.291 111.808 185.653 111.2C186.016 110.581 186.496 110.123 187.093 109.824C187.691 109.515 188.336 109.36 189.029 109.36C190.277 109.36 191.243 109.701 191.925 110.384C192.608 111.067 192.949 112.032 192.949 113.28V114.176H186.517C186.517 114.837 186.651 115.365 186.917 115.76C187.195 116.155 187.536 116.443 187.941 116.624C188.357 116.795 188.773 116.88 189.189 116.88C189.829 116.88 190.32 116.773 190.661 116.56C191.013 116.347 191.264 116.053 191.413 115.68H192.789C192.619 116.491 192.197 117.109 191.525 117.536C190.864 117.952 190.085 118.16 189.189 118.16ZM189.109 110.64C188.672 110.64 188.256 110.725 187.861 110.896C187.467 111.056 187.141 111.312 186.885 111.664C186.64 112.016 186.517 112.469 186.517 113.024H191.621C191.611 112.437 191.488 111.973 191.253 111.632C191.029 111.28 190.731 111.029 190.357 110.88C189.984 110.72 189.568 110.64 189.109 110.64ZM194.234 118.16C194.16 118.16 194.08 118.155 193.994 118.144C193.92 118.133 193.84 118.123 193.754 118.112V116.704C193.786 116.715 193.866 116.72 193.994 116.72C194.314 116.72 194.576 116.581 194.778 116.304C194.981 116.016 195.125 115.515 195.21 114.8C195.306 114.075 195.354 113.061 195.354 111.76V109.52H201.434V118H200.026V110.768H196.762V112.08C196.762 113.264 196.709 114.251 196.602 115.04C196.496 115.819 196.336 116.437 196.122 116.896C195.92 117.355 195.658 117.68 195.338 117.872C195.018 118.064 194.65 118.16 194.234 118.16ZM207.354 118.16C206.639 118.16 205.967 118.005 205.338 117.696C204.719 117.387 204.218 116.912 203.834 116.272C203.46 115.632 203.274 114.821 203.274 113.84V113.52C203.274 112.581 203.455 111.808 203.818 111.2C204.18 110.581 204.66 110.123 205.258 109.824C205.855 109.515 206.5 109.36 207.194 109.36C208.442 109.36 209.407 109.701 210.09 110.384C210.772 111.067 211.114 112.032 211.114 113.28V114.176H204.682C204.682 114.837 204.815 115.365 205.082 115.76C205.359 116.155 205.7 116.443 206.106 116.624C206.522 116.795 206.938 116.88 207.354 116.88C207.994 116.88 208.484 116.773 208.826 116.56C209.178 116.347 209.428 116.053 209.578 115.68H210.954C210.783 116.491 210.362 117.109 209.69 117.536C209.028 117.952 208.25 118.16 207.354 118.16ZM207.274 110.64C206.836 110.64 206.42 110.725 206.026 110.896C205.631 111.056 205.306 111.312 205.05 111.664C204.804 112.016 204.682 112.469 204.682 113.024H209.786C209.775 112.437 209.652 111.973 209.418 111.632C209.194 111.28 208.895 111.029 208.522 110.88C208.148 110.72 207.732 110.64 207.274 110.64ZM212.955 118V109.52H214.363V115.92L218.747 109.52H220.155V118H218.747V111.6L214.363 118H212.955ZM216.555 108.48C215.723 108.48 215.115 108.304 214.731 107.952C214.347 107.589 214.155 107.072 214.155 106.4H215.531C215.531 106.763 215.616 107.035 215.787 107.216C215.958 107.397 216.214 107.488 216.555 107.488C216.907 107.488 217.168 107.397 217.339 107.216C217.52 107.035 217.611 106.763 217.611 106.4H218.955C218.955 107.072 218.763 107.589 218.379 107.952C217.995 108.304 217.387 108.48 216.555 108.48Z" fill="#21201F"/>
<rect x="272" y="56" width="230" height="76" rx="4" fill="white" fill-opacity="0.72"/>
<path d="M281.6 94V82.8H283.072L289.088 91.52V82.8H290.56V94H289.088L283.072 85.28V94H281.6ZM293.596 94V82.8H297.436C298.428 82.8 299.239 82.9493 299.868 83.248C300.508 83.536 300.983 83.9413 301.292 84.464C301.602 84.976 301.756 85.568 301.756 86.24C301.756 86.9013 301.602 87.4933 301.292 88.016C300.983 88.5387 300.508 88.9493 299.868 89.248C299.239 89.536 298.428 89.68 297.436 89.68H295.1V94H293.596ZM295.1 88.368H297.356C298.423 88.368 299.17 88.176 299.596 87.792C300.034 87.408 300.252 86.8907 300.252 86.24C300.252 85.5893 300.034 85.072 299.596 84.688C299.17 84.304 298.423 84.112 297.356 84.112H295.1V88.368ZM307.441 94.16C306.545 94.16 305.798 94.0213 305.201 93.744C304.614 93.4667 304.161 93.0933 303.841 92.624C303.521 92.144 303.307 91.616 303.201 91.04H304.705C304.822 91.5307 305.089 91.952 305.505 92.304C305.921 92.6453 306.566 92.816 307.441 92.816C308.337 92.816 309.014 92.6453 309.473 92.304C309.942 91.9627 310.177 91.5413 310.177 91.04C310.177 90.624 310.081 90.2933 309.889 90.048C309.697 89.792 309.377 89.5787 308.929 89.408C308.491 89.2267 307.894 89.0507 307.137 88.88C306.305 88.6987 305.622 88.4853 305.089 88.24C304.555 87.9947 304.161 87.664 303.905 87.248C303.649 86.832 303.521 86.2827 303.521 85.6C303.521 85.0453 303.675 84.5493 303.985 84.112C304.305 83.664 304.758 83.3067 305.345 83.04C305.931 82.7733 306.63 82.64 307.441 82.64C308.241 82.64 308.907 82.7733 309.441 83.04C309.974 83.3067 310.39 83.664 310.689 84.112C310.987 84.5493 311.185 85.0453 311.281 85.6H309.777C309.67 85.152 309.441 84.7733 309.089 84.464C308.747 84.144 308.198 83.984 307.441 83.984C306.673 83.984 306.075 84.144 305.649 84.464C305.233 84.7733 305.025 85.152 305.025 85.6C305.025 86.1867 305.243 86.6187 305.681 86.896C306.118 87.1627 306.817 87.4027 307.777 87.616C308.47 87.7653 309.062 87.936 309.553 88.128C310.054 88.32 310.459 88.5493 310.769 88.816C311.089 89.072 311.318 89.3813 311.457 89.744C311.606 90.1067 311.681 90.5387 311.681 91.04C311.681 91.616 311.51 92.144 311.169 92.624C310.838 93.0933 310.358 93.4667 309.729 93.744C309.099 94.0213 308.337 94.16 307.441 94.16ZM281.28 118V109.52H284.96C285.664 109.52 286.24 109.621 286.688 109.824C287.136 110.016 287.467 110.288 287.68 110.64C287.893 110.981 288 111.381 288 111.84C288 112.213 287.877 112.571 287.632 112.912C287.397 113.243 287.093 113.472 286.72 113.6C287.243 113.728 287.637 113.973 287.904 114.336C288.181 114.688 288.32 115.104 288.32 115.584C288.32 116.32 288.075 116.907 287.584 117.344C287.093 117.781 286.325 118 285.28 118H281.28ZM282.688 116.752H285.28C285.877 116.752 286.299 116.645 286.544 116.432C286.789 116.219 286.912 115.915 286.912 115.52C286.912 115.115 286.789 114.805 286.544 114.592C286.299 114.368 285.877 114.256 285.28 114.256H282.688V116.752ZM282.688 113.104H284.96C285.568 113.104 285.989 112.997 286.224 112.784C286.469 112.571 286.592 112.277 286.592 111.904C286.592 111.552 286.469 111.275 286.224 111.072C285.989 110.869 285.568 110.768 284.96 110.768H282.688V113.104ZM293.687 118.16C292.972 118.16 292.3 118.005 291.671 117.696C291.052 117.376 290.551 116.896 290.167 116.256C289.794 115.616 289.607 114.811 289.607 113.84V113.52C289.607 112.603 289.794 111.835 290.167 111.216C290.551 110.597 291.052 110.133 291.671 109.824C292.3 109.515 292.972 109.36 293.687 109.36C294.412 109.36 295.084 109.515 295.703 109.824C296.322 110.133 296.818 110.597 297.191 111.216C297.575 111.835 297.767 112.603 297.767 113.52V113.84C297.767 114.811 297.575 115.616 297.191 116.256C296.818 116.896 296.322 117.376 295.703 117.696C295.084 118.005 294.412 118.16 293.687 118.16ZM293.687 116.88C294.124 116.88 294.54 116.784 294.935 116.592C295.34 116.389 295.671 116.064 295.927 115.616C296.194 115.168 296.327 114.576 296.327 113.84V113.52C296.327 112.837 296.194 112.288 295.927 111.872C295.671 111.445 295.34 111.136 294.935 110.944C294.54 110.741 294.124 110.64 293.687 110.64C293.26 110.64 292.844 110.741 292.439 110.944C292.034 111.136 291.698 111.445 291.431 111.872C291.175 112.288 291.047 112.837 291.047 113.52V113.84C291.047 114.576 291.175 115.168 291.431 115.616C291.698 116.064 292.034 116.389 292.439 116.592C292.844 116.784 293.26 116.88 293.687 116.88ZM298.484 120V116.752H299.524C299.684 116.539 299.823 116.181 299.94 115.68C300.058 115.168 300.148 114.571 300.212 113.888C300.287 113.205 300.324 112.496 300.324 111.76V109.52H306.244V116.752H307.444V120H306.1V118H299.828V120H298.484ZM300.964 116.752H304.836V110.768H301.7V112.08C301.7 112.976 301.636 113.845 301.508 114.688C301.391 115.52 301.21 116.208 300.964 116.752ZM308.972 118V109.52H310.38V115.92L314.764 109.52H316.172V118H314.764V111.6L310.38 118H308.972ZM320.514 118V110.768H317.618V109.52H324.818V110.768H321.922V118H320.514ZM329.625 118.16C328.91 118.16 328.238 118.005 327.609 117.696C326.99 117.387 326.489 116.912 326.105 116.272C325.732 115.632 325.545 114.821 325.545 113.84V113.52C325.545 112.581 325.726 111.808 326.089 111.2C326.452 110.581 326.932 110.123 327.529 109.824C328.126 109.515 328.772 109.36 329.465 109.36C330.713 109.36 331.678 109.701 332.361 110.384C333.044 111.067 333.385 112.032 333.385 113.28V114.176H326.953C326.953 114.837 327.086 115.365 327.353 115.76C327.63 116.155 327.972 116.443 328.377 116.624C328.793 116.795 329.209 116.88 329.625 116.88C330.265 116.88 330.756 116.773 331.097 116.56C331.449 116.347 331.7 116.053 331.849 115.68H333.225C333.054 116.491 332.633 117.109 331.961 117.536C331.3 117.952 330.521 118.16 329.625 118.16ZM329.545 110.64C329.108 110.64 328.692 110.725 328.297 110.896C327.902 111.056 327.577 111.312 327.321 111.664C327.076 112.016 326.953 112.469 326.953 113.024H332.057C332.046 112.437 331.924 111.973 331.689 111.632C331.465 111.28 331.166 111.029 330.793 110.88C330.42 110.72 330.004 110.64 329.545 110.64ZM334.67 118.16C334.595 118.16 334.515 118.155 334.43 118.144C334.355 118.133 334.275 118.123 334.19 118.112V116.704C334.222 116.715 334.302 116.72 334.43 116.72C334.75 116.72 335.011 116.581 335.214 116.304C335.417 116.016 335.561 115.515 335.646 114.8C335.742 114.075 335.79 113.061 335.79 111.76V109.52H341.87V118H340.462V110.768H337.198V112.08C337.198 113.264 337.145 114.251 337.038 115.04C336.931 115.819 336.771 116.437 336.558 116.896C336.355 117.355 336.094 117.68 335.774 117.872C335.454 118.064 335.086 118.16 334.67 118.16ZM347.789 118.16C347.075 118.16 346.403 118.005 345.773 117.696C345.155 117.387 344.653 116.912 344.269 116.272C343.896 115.632 343.709 114.821 343.709 113.84V113.52C343.709 112.581 343.891 111.808 344.253 111.2C344.616 110.581 345.096 110.123 345.693 109.824C346.291 109.515 346.936 109.36 347.629 109.36C348.877 109.36 349.843 109.701 350.525 110.384C351.208 111.067 351.549 112.032 351.549 113.28V114.176H345.117C345.117 114.837 345.251 115.365 345.517 115.76C345.795 116.155 346.136 116.443 346.541 116.624C346.957 116.795 347.373 116.88 347.789 116.88C348.429 116.88 348.92 116.773 349.261 116.56C349.613 116.347 349.864 116.053 350.013 115.68H351.389C351.219 116.491 350.797 117.109 350.125 117.536C349.464 117.952 348.685 118.16 347.789 118.16ZM347.709 110.64C347.272 110.64 346.856 110.725 346.461 110.896C346.067 111.056 345.741 111.312 345.485 111.664C345.24 112.016 345.117 112.469 345.117 113.024H350.221C350.211 112.437 350.088 111.973 349.853 111.632C349.629 111.28 349.331 111.029 348.957 110.88C348.584 110.72 348.168 110.64 347.709 110.64ZM353.391 118V109.52H354.799V115.92L359.183 109.52H360.591V118H359.183V111.6L354.799 118H353.391ZM356.991 108.48C356.159 108.48 355.551 108.304 355.167 107.952C354.783 107.589 354.591 107.072 354.591 106.4H355.967C355.967 106.763 356.052 107.035 356.223 107.216C356.393 107.397 356.649 107.488 356.991 107.488C357.343 107.488 357.604 107.397 357.775 107.216C357.956 107.035 358.047 106.763 358.047 106.4H359.391C359.391 107.072 359.199 107.589 358.815 107.952C358.431 108.304 357.823 108.48 356.991 108.48Z" fill="#21201F"/>
<path d="M25.6 42V30.8H27.168L30.912 37.92L34.656 30.8H36.16V42H34.656V33.52L31.44 39.6H30.32L27.104 33.52V42H25.6ZM42.4056 42.16C41.691 42.16 41.019 42.0053 40.3896 41.696C39.771 41.3867 39.2696 40.912 38.8856 40.272C38.5123 39.632 38.3256 38.8213 38.3256 37.84V37.52C38.3256 36.5813 38.507 35.808 38.8696 35.2C39.2323 34.5813 39.7123 34.1227 40.3096 33.824C40.907 33.5147 41.5523 33.36 42.2456 33.36C43.4936 33.36 44.459 33.7013 45.1416 34.384C45.8243 35.0667 46.1656 36.032 46.1656 37.28V38.176H39.7336C39.7336 38.8373 39.867 39.3653 40.1336 39.76C40.411 40.1547 40.7523 40.4427 41.1576 40.624C41.5736 40.7947 41.9896 40.88 42.4056 40.88C43.0456 40.88 43.5363 40.7733 43.8776 40.56C44.2296 40.3467 44.4803 40.0533 44.6296 39.68H46.0056C45.835 40.4907 45.4136 41.1093 44.7416 41.536C44.0803 41.952 43.3016 42.16 42.4056 42.16ZM42.3256 34.64C41.8883 34.64 41.4723 34.7253 41.0776 34.896C40.683 35.056 40.3576 35.312 40.1016 35.664C39.8563 36.016 39.7336 36.4693 39.7336 37.024H44.8376C44.827 36.4373 44.7043 35.9733 44.4696 35.632C44.2456 35.28 43.947 35.0293 43.5736 34.88C43.2003 34.72 42.7843 34.64 42.3256 34.64ZM49.7866 42V34.768H46.8906V33.52H54.0906V34.768H51.1946V42H49.7866ZM55.5344 45.2V33.52H56.8464V35.12C57.1344 34.5547 57.5344 34.1227 58.0464 33.824C58.569 33.5147 59.1717 33.36 59.8544 33.36C60.921 33.36 61.7744 33.712 62.4144 34.416C63.0544 35.1093 63.3744 36.144 63.3744 37.52V37.84C63.3744 38.8 63.225 39.6 62.9264 40.24C62.6384 40.88 62.2277 41.36 61.6944 41.68C61.1717 42 60.5584 42.16 59.8544 42.16C59.129 42.16 58.521 42 58.0304 41.68C57.5504 41.36 57.1877 40.96 56.9424 40.48V45.2H55.5344ZM59.5344 40.912C60.2277 40.912 60.8037 40.6507 61.2624 40.128C61.7317 39.6053 61.9664 38.8427 61.9664 37.84V37.52C61.9664 36.592 61.7317 35.8773 61.2624 35.376C60.8037 34.864 60.2277 34.608 59.5344 34.608C59.0224 34.608 58.569 34.7147 58.1744 34.928C57.7904 35.1413 57.4864 35.4347 57.2624 35.808C57.049 36.1707 56.9424 36.5813 56.9424 37.04V38.32C56.9424 38.832 57.049 39.2853 57.2624 39.68C57.4864 40.064 57.7904 40.368 58.1744 40.592C58.569 40.8053 59.0224 40.912 59.5344 40.912ZM65.2181 42V33.52H66.6261V39.92L71.0101 33.52H72.4181V42H71.0101V35.6L66.6261 42H65.2181ZM74.8238 42V33.52H76.2318V37.072H77.3518L80.5198 33.52H82.1838L78.5038 37.584L82.3438 42H80.5518L77.3518 38.288H76.2318V42H74.8238ZM87.7069 42V33.52H91.3869C92.0909 33.52 92.6669 33.6213 93.1149 33.824C93.5629 34.016 93.8935 34.288 94.1069 34.64C94.3202 34.9813 94.4269 35.3813 94.4269 35.84C94.4269 36.2133 94.3042 36.5707 94.0589 36.912C93.8242 37.2427 93.5202 37.472 93.1469 37.6C93.6695 37.728 94.0642 37.9733 94.3309 38.336C94.6082 38.688 94.7469 39.104 94.7469 39.584C94.7469 40.32 94.5015 40.9067 94.0109 41.344C93.5202 41.7813 92.7522 42 91.7069 42H87.7069ZM89.1149 40.752H91.7069C92.3042 40.752 92.7255 40.6453 92.9709 40.432C93.2162 40.2187 93.3389 39.9147 93.3389 39.52C93.3389 39.1147 93.2162 38.8053 92.9709 38.592C92.7255 38.368 92.3042 38.256 91.7069 38.256H89.1149V40.752ZM89.1149 37.104H91.3869C91.9949 37.104 92.4162 36.9973 92.6509 36.784C92.8962 36.5707 93.0189 36.2773 93.0189 35.904C93.0189 35.552 92.8962 35.2747 92.6509 35.072C92.4162 34.8693 91.9949 34.768 91.3869 34.768H89.1149V37.104ZM96.1938 42.16C96.1191 42.16 96.0391 42.1547 95.9538 42.144C95.8791 42.1333 95.7991 42.1227 95.7138 42.112V40.704C95.7458 40.7147 95.8258 40.72 95.9538 40.72C96.2738 40.72 96.5351 40.5813 96.7378 40.304C96.9404 40.016 97.0844 39.5147 97.1698 38.8C97.2658 38.0747 97.3138 37.0613 97.3138 35.76V33.52H103.394V42H101.986V34.768H98.7218V36.08C98.7218 37.264 98.6684 38.2507 98.5618 39.04C98.4551 39.8187 98.2951 40.4373 98.0818 40.896C97.8791 41.3547 97.6178 41.68 97.2978 41.872C96.9778 42.064 96.6098 42.16 96.1938 42.16ZM105.793 42V33.52H107.201V39.92L111.585 33.52H112.993V42H111.585V35.6L107.201 42H105.793ZM114.759 42L117.063 38.64C116.359 38.48 115.852 38.192 115.543 37.776C115.233 37.3493 115.079 36.8053 115.079 36.144C115.079 35.5893 115.191 35.12 115.415 34.736C115.639 34.3413 115.985 34.0427 116.455 33.84C116.924 33.6267 117.532 33.52 118.279 33.52H121.959V42H120.551V38.768H118.391L116.327 42H114.759ZM116.487 36.144C116.487 36.592 116.615 36.9333 116.871 37.168C117.137 37.4027 117.58 37.52 118.199 37.52H120.551V34.768H118.199C117.58 34.768 117.137 34.8853 116.871 35.12C116.615 35.3547 116.487 35.696 116.487 36.144ZM124.364 42V33.52H125.772V37.056H130.156V33.52H131.564V42H130.156V38.304H125.772V42H124.364ZM133.969 42V33.52H135.377V39.92L139.761 33.52H141.169V42H139.761V35.6L135.377 42H133.969ZM142.935 42L145.239 38.64C144.535 38.48 144.028 38.192 143.719 37.776C143.41 37.3493 143.255 36.8053 143.255 36.144C143.255 35.5893 143.367 35.12 143.591 34.736C143.815 34.3413 144.162 34.0427 144.631 33.84C145.1 33.6267 145.708 33.52 146.455 33.52H150.135V42H148.727V38.768H146.567L144.503 42H142.935ZM144.663 36.144C144.663 36.592 144.791 36.9333 145.047 37.168C145.314 37.4027 145.756 37.52 146.375 37.52H148.727V34.768H146.375C145.756 34.768 145.314 34.8853 145.047 35.12C144.791 35.3547 144.663 35.696 144.663 36.144Z" fill="#4B4A4A"/>
</g>
<defs>
<filter id="filter0_f_3954_129021" x="202" y="-128" width="1021" height="1021" filterUnits="userSpaceOnUse" color-interpolation-filters="sRGB">
<feFlood flood-opacity="0" result="BackgroundImageFix"/>
<feBlend mode="normal" in="SourceGraphic" in2="BackgroundImageFix" result="shape"/>
<feGaussianBlur stdDeviation="86" result="effect1_foregroundBlur_3954_129021"/>
</filter>
<clipPath id="clip0_3954_129021">
<rect width="922" height="164" fill="white"/>
</clipPath>
</defs>
</svg>
