<svg width="510" height="144" viewBox="0 0 510 144" fill="none" xmlns="http://www.w3.org/2000/svg">
<g clip-path="url(#clip0_3990_55440)">
<rect width="510" height="144" fill="#E9F0E4"/>
<g filter="url(#filter0_f_3990_55440)">
<path d="M1051 382.5C1051 569.448 899.448 721 712.5 721C525.552 721 374 569.448 374 382.5C374 195.552 525.552 44 712.5 44C899.448 44 1051 195.552 1051 382.5Z" fill="#F7F1EB"/>
</g>
<rect x="16" y="48" width="230" height="76" rx="4" fill="white" fill-opacity="0.72"/>
<path d="M24.32 88.08V84.688H25.52C25.7227 84.2827 25.888 83.7867 26.016 83.2C26.1547 82.6027 26.2613 81.9573 26.336 81.264C26.4213 80.56 26.48 79.8507 26.512 79.136C26.544 78.4107 26.56 77.712 26.56 77.04V74.8H33.84V84.688H35.2V88.08H33.76V86H25.76V88.08H24.32ZM27.12 84.688H32.336V76.112H28.032V77.36C28.032 78.9813 27.9573 80.384 27.808 81.568C27.6693 82.752 27.44 83.792 27.12 84.688ZM40.1713 86.16C39.4566 86.16 38.7846 86.0053 38.1553 85.696C37.5366 85.376 37.0353 84.896 36.6513 84.256C36.2779 83.616 36.0913 82.8107 36.0913 81.84V81.52C36.0913 80.6027 36.2779 79.8347 36.6513 79.216C37.0353 78.5973 37.5366 78.1333 38.1553 77.824C38.7846 77.5147 39.4566 77.36 40.1713 77.36C40.8966 77.36 41.5686 77.5147 42.1873 77.824C42.8059 78.1333 43.3019 78.5973 43.6753 79.216C44.0593 79.8347 44.2513 80.6027 44.2513 81.52V81.84C44.2513 82.8107 44.0593 83.616 43.6753 84.256C43.3019 84.896 42.8059 85.376 42.1873 85.696C41.5686 86.0053 40.8966 86.16 40.1713 86.16ZM40.1713 84.88C40.6086 84.88 41.0246 84.784 41.4193 84.592C41.8246 84.3893 42.1553 84.064 42.4113 83.616C42.6779 83.168 42.8113 82.576 42.8113 81.84V81.52C42.8113 80.8373 42.6779 80.288 42.4113 79.872C42.1553 79.4453 41.8246 79.136 41.4193 78.944C41.0246 78.7413 40.6086 78.64 40.1713 78.64C39.7446 78.64 39.3286 78.7413 38.9233 78.944C38.5179 79.136 38.1819 79.4453 37.9153 79.872C37.6593 80.288 37.5313 80.8373 37.5313 81.52V81.84C37.5313 82.576 37.6593 83.168 37.9153 83.616C38.1819 84.064 38.5179 84.3893 38.9233 84.592C39.3286 84.784 39.7446 84.88 40.1713 84.88ZM45.5288 86.16C45.4541 86.16 45.3741 86.1547 45.2888 86.144C45.2141 86.1333 45.1341 86.1227 45.0488 86.112V84.704C45.0808 84.7147 45.1608 84.72 45.2888 84.72C45.6088 84.72 45.8701 84.5813 46.0728 84.304C46.2754 84.016 46.4194 83.5147 46.5048 82.8C46.6008 82.0747 46.6488 81.0613 46.6488 79.76V77.52H52.7288V86H51.3208V78.768H48.0568V80.08C48.0568 81.264 48.0034 82.2507 47.8968 83.04C47.7901 83.8187 47.6301 84.4373 47.4168 84.896C47.2141 85.3547 46.9528 85.68 46.6328 85.872C46.3128 86.064 45.9448 86.16 45.5288 86.16ZM54.4881 86L56.7921 82.64C56.0881 82.48 55.5815 82.192 55.2721 81.776C54.9628 81.3493 54.8081 80.8053 54.8081 80.144C54.8081 79.5893 54.9201 79.12 55.1441 78.736C55.3681 78.3413 55.7148 78.0427 56.1841 77.84C56.6535 77.6267 57.2615 77.52 58.0081 77.52H61.6881V86H60.2801V82.768H58.1201L56.0561 86H54.4881ZM56.2161 80.144C56.2161 80.592 56.3441 80.9333 56.6001 81.168C56.8668 81.4027 57.3095 81.52 57.9281 81.52H60.2801V78.768H57.9281C57.3095 78.768 56.8668 78.8853 56.6001 79.12C56.3441 79.3547 56.2161 79.696 56.2161 80.144ZM67.9331 89.2V77.52H69.2451V79.12C69.5331 78.5547 69.9331 78.1227 70.4451 77.824C70.9678 77.5147 71.5705 77.36 72.2531 77.36C73.3198 77.36 74.1731 77.712 74.8131 78.416C75.4531 79.1093 75.7731 80.144 75.7731 81.52V81.84C75.7731 82.8 75.6238 83.6 75.3251 84.24C75.0371 84.88 74.6265 85.36 74.0931 85.68C73.5705 86 72.9571 86.16 72.2531 86.16C71.5278 86.16 70.9198 86 70.4291 85.68C69.9491 85.36 69.5865 84.96 69.3411 84.48V89.2H67.9331ZM71.9331 84.912C72.6265 84.912 73.2025 84.6507 73.6611 84.128C74.1305 83.6053 74.3651 82.8427 74.3651 81.84V81.52C74.3651 80.592 74.1305 79.8773 73.6611 79.376C73.2025 78.864 72.6265 78.608 71.9331 78.608C71.4211 78.608 70.9678 78.7147 70.5731 78.928C70.1891 79.1413 69.8851 79.4347 69.6611 79.808C69.4478 80.1707 69.3411 80.5813 69.3411 81.04V82.32C69.3411 82.832 69.4478 83.2853 69.6611 83.68C69.8851 84.064 70.1891 84.368 70.5731 84.592C70.9678 84.8053 71.4211 84.912 71.9331 84.912ZM78.4244 89.36C78.2644 89.36 78.1044 89.344 77.9444 89.312V88.032C78.1044 88.064 78.2644 88.08 78.4244 88.08C78.6377 88.08 78.8137 88.0267 78.9524 87.92C79.1017 87.824 79.251 87.6267 79.4004 87.328C79.5497 87.0293 79.731 86.5867 79.9444 86L76.3444 77.52H77.9124L80.6644 84.4L83.1604 77.52H84.6644L81.4644 86C81.1657 86.8 80.8777 87.4453 80.6004 87.936C80.3337 88.4267 80.0297 88.784 79.6884 89.008C79.3577 89.2427 78.9364 89.36 78.4244 89.36ZM91.1658 86V82.624C90.9204 82.7733 90.6218 82.9067 90.2698 83.024C89.9284 83.1413 89.4964 83.2 88.9738 83.2C87.9818 83.2 87.2138 82.976 86.6698 82.528C86.1258 82.08 85.8538 81.3173 85.8538 80.24V77.52H87.2618V80C87.2618 80.7253 87.4111 81.2267 87.7098 81.504C88.0084 81.7813 88.5098 81.92 89.2138 81.92C89.6938 81.92 90.1044 81.872 90.4458 81.776C90.7871 81.68 91.0271 81.5787 91.1658 81.472V77.52H92.5738V86H91.1658ZM94.9688 86V77.52H96.3768V81.056H100.761V77.52H102.169V86H100.761V82.304H96.3768V86H94.9688ZM108.094 86.16C107.38 86.16 106.708 86.0053 106.078 85.696C105.46 85.376 104.958 84.896 104.574 84.256C104.201 83.616 104.014 82.8107 104.014 81.84V81.52C104.014 80.6027 104.201 79.8347 104.574 79.216C104.958 78.5973 105.46 78.1333 106.078 77.824C106.708 77.5147 107.38 77.36 108.094 77.36C108.82 77.36 109.492 77.5147 110.11 77.824C110.729 78.1333 111.225 78.5973 111.598 79.216C111.982 79.8347 112.174 80.6027 112.174 81.52V81.84C112.174 82.8107 111.982 83.616 111.598 84.256C111.225 84.896 110.729 85.376 110.11 85.696C109.492 86.0053 108.82 86.16 108.094 86.16ZM108.094 84.88C108.532 84.88 108.948 84.784 109.342 84.592C109.748 84.3893 110.078 84.064 110.334 83.616C110.601 83.168 110.734 82.576 110.734 81.84V81.52C110.734 80.8373 110.601 80.288 110.334 79.872C110.078 79.4453 109.748 79.136 109.342 78.944C108.948 78.7413 108.532 78.64 108.094 78.64C107.668 78.64 107.252 78.7413 106.846 78.944C106.441 79.136 106.105 79.4453 105.838 79.872C105.582 80.288 105.454 80.8373 105.454 81.52V81.84C105.454 82.576 105.582 83.168 105.838 83.616C106.105 84.064 106.441 84.3893 106.846 84.592C107.252 84.784 107.668 84.88 108.094 84.88ZM114.008 86V77.52H115.416V83.92L119.8 77.52H121.208V86H119.8V79.6L115.416 86H114.008ZM117.608 76.48C116.776 76.48 116.168 76.304 115.784 75.952C115.4 75.5893 115.208 75.072 115.208 74.4H116.584C116.584 74.7627 116.669 75.0347 116.84 75.216C117.011 75.3973 117.267 75.488 117.608 75.488C117.96 75.488 118.221 75.3973 118.392 75.216C118.573 75.0347 118.664 74.7627 118.664 74.4H120.008C120.008 75.072 119.816 75.5893 119.432 75.952C119.048 76.304 118.44 76.48 117.608 76.48ZM25.28 110V101.52H26.688V105.072H27.808L30.976 101.52H32.64L28.96 105.584L32.8 110H31.008L27.808 106.288H26.688V110H25.28ZM37.5306 110.16C36.816 110.16 36.144 110.005 35.5146 109.696C34.896 109.376 34.3946 108.896 34.0106 108.256C33.6373 107.616 33.4506 106.811 33.4506 105.84V105.52C33.4506 104.603 33.6373 103.835 34.0106 103.216C34.3946 102.597 34.896 102.133 35.5146 101.824C36.144 101.515 36.816 101.36 37.5306 101.36C38.256 101.36 38.928 101.515 39.5466 101.824C40.1653 102.133 40.6613 102.597 41.0346 103.216C41.4186 103.835 41.6106 104.603 41.6106 105.52V105.84C41.6106 106.811 41.4186 107.616 41.0346 108.256C40.6613 108.896 40.1653 109.376 39.5466 109.696C38.928 110.005 38.256 110.16 37.5306 110.16ZM37.5306 108.88C37.968 108.88 38.384 108.784 38.7786 108.592C39.184 108.389 39.5146 108.064 39.7706 107.616C40.0373 107.168 40.1706 106.576 40.1706 105.84V105.52C40.1706 104.837 40.0373 104.288 39.7706 103.872C39.5146 103.445 39.184 103.136 38.7786 102.944C38.384 102.741 37.968 102.64 37.5306 102.64C37.104 102.64 36.688 102.741 36.2826 102.944C35.8773 103.136 35.5413 103.445 35.2746 103.872C35.0186 104.288 34.8906 104.837 34.8906 105.52V105.84C34.8906 106.576 35.0186 107.168 35.2746 107.616C35.5413 108.064 35.8773 108.389 36.2826 108.592C36.688 108.784 37.104 108.88 37.5306 108.88ZM46.9644 110.16C46.2497 110.16 45.5777 110.005 44.9484 109.696C44.3297 109.376 43.8284 108.896 43.4444 108.256C43.071 107.616 42.8844 106.811 42.8844 105.84V105.52C42.8844 104.603 43.071 103.835 43.4444 103.216C43.8284 102.597 44.3297 102.133 44.9484 101.824C45.5777 101.515 46.2497 101.36 46.9644 101.36C47.6897 101.36 48.3617 101.515 48.9804 101.824C49.599 102.133 50.095 102.597 50.4684 103.216C50.8524 103.835 51.0444 104.603 51.0444 105.52V105.84C51.0444 106.811 50.8524 107.616 50.4684 108.256C50.095 108.896 49.599 109.376 48.9804 109.696C48.3617 110.005 47.6897 110.16 46.9644 110.16ZM46.9644 108.88C47.4017 108.88 47.8177 108.784 48.2124 108.592C48.6177 108.389 48.9484 108.064 49.2044 107.616C49.471 107.168 49.6044 106.576 49.6044 105.84V105.52C49.6044 104.837 49.471 104.288 49.2044 103.872C48.9484 103.445 48.6177 103.136 48.2124 102.944C47.8177 102.741 47.4017 102.64 46.9644 102.64C46.5377 102.64 46.1217 102.741 45.7164 102.944C45.311 103.136 44.975 103.445 44.7084 103.872C44.4524 104.288 44.3244 104.837 44.3244 105.52V105.84C44.3244 106.576 44.4524 107.168 44.7084 107.616C44.975 108.064 45.311 108.389 45.7164 108.592C46.1217 108.784 46.5377 108.88 46.9644 108.88ZM52.8781 113.2V101.52H54.1901V103.12C54.4781 102.555 54.8781 102.123 55.3901 101.824C55.9128 101.515 56.5155 101.36 57.1981 101.36C58.2648 101.36 59.1181 101.712 59.7581 102.416C60.3981 103.109 60.7181 104.144 60.7181 105.52V105.84C60.7181 106.8 60.5688 107.6 60.2701 108.24C59.9821 108.88 59.5715 109.36 59.0381 109.68C58.5155 110 57.9021 110.16 57.1981 110.16C56.4728 110.16 55.8648 110 55.3741 109.68C54.8941 109.36 54.5315 108.96 54.2861 108.48V113.2H52.8781ZM56.8781 108.912C57.5715 108.912 58.1475 108.651 58.6061 108.128C59.0755 107.605 59.3101 106.843 59.3101 105.84V105.52C59.3101 104.592 59.0755 103.877 58.6061 103.376C58.1475 102.864 57.5715 102.608 56.8781 102.608C56.3661 102.608 55.9128 102.715 55.5181 102.928C55.1341 103.141 54.8301 103.435 54.6061 103.808C54.3928 104.171 54.2861 104.581 54.2861 105.04V106.32C54.2861 106.832 54.3928 107.285 54.6061 107.68C54.8301 108.064 55.1341 108.368 55.5181 108.592C55.9128 108.805 56.3661 108.912 56.8781 108.912ZM61.4456 112V108.752H62.4856C62.6456 108.539 62.7843 108.181 62.9016 107.68C63.019 107.168 63.1096 106.571 63.1736 105.888C63.2483 105.205 63.2856 104.496 63.2856 103.76V101.52H69.2056V108.752H70.4056V112H69.0616V110H62.7896V112H61.4456ZM63.9256 108.752H67.7976V102.768H64.6616V104.08C64.6616 104.976 64.5976 105.845 64.4696 106.688C64.3523 107.52 64.171 108.208 63.9256 108.752ZM71.9331 110V101.52H73.3411V107.92L77.7251 101.52H79.1331V110H77.7251V103.6L73.3411 110H71.9331ZM81.5388 110V101.52H82.9468V105.056H87.3308V101.52H88.7388V110H87.3308V106.304H82.9468V110H81.5388ZM93.5604 110.16C92.9417 110.16 92.4137 110.048 91.9764 109.824C91.5497 109.589 91.2244 109.275 91.0004 108.88C90.7764 108.475 90.6644 108.021 90.6644 107.52C90.6644 106.677 90.9097 106.069 91.4004 105.696C91.9017 105.323 92.6164 105.136 93.5444 105.136H96.2964V104.56C96.2964 103.835 96.131 103.333 95.8004 103.056C95.4804 102.779 94.995 102.64 94.3444 102.64C93.7364 102.64 93.2937 102.757 93.0164 102.992C92.739 103.216 92.5844 103.472 92.5524 103.76H91.1444C91.1764 103.301 91.331 102.896 91.6084 102.544C91.8857 102.181 92.2644 101.893 92.7444 101.68C93.2244 101.467 93.7844 101.36 94.4244 101.36C95.0964 101.36 95.6777 101.467 96.1684 101.68C96.659 101.883 97.0377 102.208 97.3044 102.656C97.571 103.093 97.7044 103.675 97.7044 104.4V107.84C97.7044 108.288 97.7044 108.683 97.7044 109.024C97.715 109.355 97.7417 109.68 97.7844 110H96.5524C96.5204 109.755 96.499 109.525 96.4884 109.312C96.4777 109.088 96.4724 108.837 96.4724 108.56C96.2484 109.008 95.8857 109.387 95.3844 109.696C94.883 110.005 94.275 110.16 93.5604 110.16ZM93.8644 108.88C94.3124 108.88 94.7177 108.8 95.0804 108.64C95.4537 108.48 95.747 108.245 95.9604 107.936C96.1844 107.627 96.2964 107.248 96.2964 106.8V106.224H93.7844C93.2617 106.224 92.851 106.331 92.5524 106.544C92.2537 106.747 92.1044 107.072 92.1044 107.52C92.1044 107.915 92.243 108.24 92.5204 108.496C92.8084 108.752 93.2564 108.88 93.8644 108.88ZM106.927 112V110H100.031V101.52H101.439V108.752H105.503V101.52H106.911V108.752H108.271V112H106.927ZM109.793 110V101.52H111.201V107.92L115.585 101.52H116.993V110H115.585V103.6L111.201 110H109.793ZM119.399 110V101.52H120.807V107.92L125.191 101.52H126.599V110H125.191V103.6L120.807 110H119.399ZM132.844 110V101.52H136.524C137.228 101.52 137.804 101.621 138.252 101.824C138.7 102.016 139.031 102.288 139.244 102.64C139.458 102.981 139.564 103.381 139.564 103.84C139.564 104.213 139.442 104.571 139.196 104.912C138.962 105.243 138.658 105.472 138.284 105.6C138.807 105.728 139.202 105.973 139.468 106.336C139.746 106.688 139.884 107.104 139.884 107.584C139.884 108.32 139.639 108.907 139.148 109.344C138.658 109.781 137.89 110 136.844 110H132.844ZM134.252 108.752H136.844C137.442 108.752 137.863 108.645 138.108 108.432C138.354 108.219 138.476 107.915 138.476 107.52C138.476 107.115 138.354 106.805 138.108 106.592C137.863 106.368 137.442 106.256 136.844 106.256H134.252V108.752ZM134.252 105.104H136.524C137.132 105.104 137.554 104.997 137.788 104.784C138.034 104.571 138.156 104.277 138.156 103.904C138.156 103.552 138.034 103.275 137.788 103.072C137.554 102.869 137.132 102.768 136.524 102.768H134.252V105.104ZM145.251 110.16C144.537 110.16 143.865 110.005 143.235 109.696C142.617 109.376 142.115 108.896 141.731 108.256C141.358 107.616 141.171 106.811 141.171 105.84V105.52C141.171 104.603 141.358 103.835 141.731 103.216C142.115 102.597 142.617 102.133 143.235 101.824C143.865 101.515 144.537 101.36 145.251 101.36C145.977 101.36 146.649 101.515 147.267 101.824C147.886 102.133 148.382 102.597 148.755 103.216C149.139 103.835 149.331 104.603 149.331 105.52V105.84C149.331 106.811 149.139 107.616 148.755 108.256C148.382 108.896 147.886 109.376 147.267 109.696C146.649 110.005 145.977 110.16 145.251 110.16ZM145.251 108.88C145.689 108.88 146.105 108.784 146.499 108.592C146.905 108.389 147.235 108.064 147.491 107.616C147.758 107.168 147.891 106.576 147.891 105.84V105.52C147.891 104.837 147.758 104.288 147.491 103.872C147.235 103.445 146.905 103.136 146.499 102.944C146.105 102.741 145.689 102.64 145.251 102.64C144.825 102.64 144.409 102.741 144.003 102.944C143.598 103.136 143.262 103.445 142.995 103.872C142.739 104.288 142.611 104.837 142.611 105.52V105.84C142.611 106.576 142.739 107.168 142.995 107.616C143.262 108.064 143.598 108.389 144.003 108.592C144.409 108.784 144.825 108.88 145.251 108.88ZM150.049 112V108.752H151.089C151.249 108.539 151.387 108.181 151.505 107.68C151.622 107.168 151.713 106.571 151.777 105.888C151.851 105.205 151.889 104.496 151.889 103.76V101.52H157.809V108.752H159.009V112H157.665V110H151.393V112H150.049ZM152.529 108.752H156.401V102.768H153.265V104.08C153.265 104.976 153.201 105.845 153.073 106.688C152.955 107.52 152.774 108.208 152.529 108.752ZM160.536 110V101.52H161.944V107.92L166.328 101.52H167.736V110H166.328V103.6L161.944 110H160.536ZM172.078 110V102.768H169.182V101.52H176.382V102.768H173.486V110H172.078ZM181.189 110.16C180.475 110.16 179.803 110.005 179.173 109.696C178.555 109.387 178.053 108.912 177.669 108.272C177.296 107.632 177.109 106.821 177.109 105.84V105.52C177.109 104.581 177.291 103.808 177.653 103.2C178.016 102.581 178.496 102.123 179.093 101.824C179.691 101.515 180.336 101.36 181.029 101.36C182.277 101.36 183.243 101.701 183.925 102.384C184.608 103.067 184.949 104.032 184.949 105.28V106.176H178.517C178.517 106.837 178.651 107.365 178.917 107.76C179.195 108.155 179.536 108.443 179.941 108.624C180.357 108.795 180.773 108.88 181.189 108.88C181.829 108.88 182.32 108.773 182.661 108.56C183.013 108.347 183.264 108.053 183.413 107.68H184.789C184.619 108.491 184.197 109.109 183.525 109.536C182.864 109.952 182.085 110.16 181.189 110.16ZM181.109 102.64C180.672 102.64 180.256 102.725 179.861 102.896C179.467 103.056 179.141 103.312 178.885 103.664C178.64 104.016 178.517 104.469 178.517 105.024H183.621C183.611 104.437 183.488 103.973 183.253 103.632C183.029 103.28 182.731 103.029 182.357 102.88C181.984 102.72 181.568 102.64 181.109 102.64ZM186.234 110.16C186.16 110.16 186.08 110.155 185.994 110.144C185.92 110.133 185.84 110.123 185.754 110.112V108.704C185.786 108.715 185.866 108.72 185.994 108.72C186.314 108.72 186.576 108.581 186.778 108.304C186.981 108.016 187.125 107.515 187.21 106.8C187.306 106.075 187.354 105.061 187.354 103.76V101.52H193.434V110H192.026V102.768H188.762V104.08C188.762 105.264 188.709 106.251 188.602 107.04C188.496 107.819 188.336 108.437 188.122 108.896C187.92 109.355 187.658 109.68 187.338 109.872C187.018 110.064 186.65 110.16 186.234 110.16ZM199.354 110.16C198.639 110.16 197.967 110.005 197.338 109.696C196.719 109.387 196.218 108.912 195.834 108.272C195.46 107.632 195.274 106.821 195.274 105.84V105.52C195.274 104.581 195.455 103.808 195.818 103.2C196.18 102.581 196.66 102.123 197.258 101.824C197.855 101.515 198.5 101.36 199.194 101.36C200.442 101.36 201.407 101.701 202.09 102.384C202.772 103.067 203.114 104.032 203.114 105.28V106.176H196.682C196.682 106.837 196.815 107.365 197.082 107.76C197.359 108.155 197.7 108.443 198.106 108.624C198.522 108.795 198.938 108.88 199.354 108.88C199.994 108.88 200.484 108.773 200.826 108.56C201.178 108.347 201.428 108.053 201.578 107.68H202.954C202.783 108.491 202.362 109.109 201.69 109.536C201.028 109.952 200.25 110.16 199.354 110.16ZM199.274 102.64C198.836 102.64 198.42 102.725 198.026 102.896C197.631 103.056 197.306 103.312 197.05 103.664C196.804 104.016 196.682 104.469 196.682 105.024H201.786C201.775 104.437 201.652 103.973 201.418 103.632C201.194 103.28 200.895 103.029 200.522 102.88C200.148 102.72 199.732 102.64 199.274 102.64ZM204.955 110V101.52H206.363V107.92L210.747 101.52H212.155V110H210.747V103.6L206.363 110H204.955ZM208.555 100.48C207.723 100.48 207.115 100.304 206.731 99.952C206.347 99.5893 206.155 99.072 206.155 98.4H207.531C207.531 98.7627 207.616 99.0347 207.787 99.216C207.958 99.3973 208.214 99.488 208.555 99.488C208.907 99.488 209.168 99.3973 209.339 99.216C209.52 99.0347 209.611 98.7627 209.611 98.4H210.955C210.955 99.072 210.763 99.5893 210.379 99.952C209.995 100.304 209.387 100.48 208.555 100.48Z" fill="#21201F"/>
<rect x="264" y="48" width="230" height="76" rx="4" fill="white" fill-opacity="0.72"/>
<path d="M273.6 86V74.8H275.072L281.088 83.52V74.8H282.56V86H281.088L275.072 77.28V86H273.6ZM285.596 86V74.8H289.436C290.428 74.8 291.239 74.9493 291.868 75.248C292.508 75.536 292.983 75.9413 293.292 76.464C293.602 76.976 293.756 77.568 293.756 78.24C293.756 78.9013 293.602 79.4933 293.292 80.016C292.983 80.5387 292.508 80.9493 291.868 81.248C291.239 81.536 290.428 81.68 289.436 81.68H287.1V86H285.596ZM287.1 80.368H289.356C290.423 80.368 291.17 80.176 291.596 79.792C292.034 79.408 292.252 78.8907 292.252 78.24C292.252 77.5893 292.034 77.072 291.596 76.688C291.17 76.304 290.423 76.112 289.356 76.112H287.1V80.368ZM299.441 86.16C298.545 86.16 297.798 86.0213 297.201 85.744C296.614 85.4667 296.161 85.0933 295.841 84.624C295.521 84.144 295.307 83.616 295.201 83.04H296.705C296.822 83.5307 297.089 83.952 297.505 84.304C297.921 84.6453 298.566 84.816 299.441 84.816C300.337 84.816 301.014 84.6453 301.473 84.304C301.942 83.9627 302.177 83.5413 302.177 83.04C302.177 82.624 302.081 82.2933 301.889 82.048C301.697 81.792 301.377 81.5787 300.929 81.408C300.491 81.2267 299.894 81.0507 299.137 80.88C298.305 80.6987 297.622 80.4853 297.089 80.24C296.555 79.9947 296.161 79.664 295.905 79.248C295.649 78.832 295.521 78.2827 295.521 77.6C295.521 77.0453 295.675 76.5493 295.985 76.112C296.305 75.664 296.758 75.3067 297.345 75.04C297.931 74.7733 298.63 74.64 299.441 74.64C300.241 74.64 300.907 74.7733 301.441 75.04C301.974 75.3067 302.39 75.664 302.689 76.112C302.987 76.5493 303.185 77.0453 303.281 77.6H301.777C301.67 77.152 301.441 76.7733 301.089 76.464C300.747 76.144 300.198 75.984 299.441 75.984C298.673 75.984 298.075 76.144 297.649 76.464C297.233 76.7733 297.025 77.152 297.025 77.6C297.025 78.1867 297.243 78.6187 297.681 78.896C298.118 79.1627 298.817 79.4027 299.777 79.616C300.47 79.7653 301.062 79.936 301.553 80.128C302.054 80.32 302.459 80.5493 302.769 80.816C303.089 81.072 303.318 81.3813 303.457 81.744C303.606 82.1067 303.681 82.5387 303.681 83.04C303.681 83.616 303.51 84.144 303.169 84.624C302.838 85.0933 302.358 85.4667 301.729 85.744C301.099 86.0213 300.337 86.16 299.441 86.16ZM273.28 110V101.52H276.96C277.664 101.52 278.24 101.621 278.688 101.824C279.136 102.016 279.467 102.288 279.68 102.64C279.893 102.981 280 103.381 280 103.84C280 104.213 279.877 104.571 279.632 104.912C279.397 105.243 279.093 105.472 278.72 105.6C279.243 105.728 279.637 105.973 279.904 106.336C280.181 106.688 280.32 107.104 280.32 107.584C280.32 108.32 280.075 108.907 279.584 109.344C279.093 109.781 278.325 110 277.28 110H273.28ZM274.688 108.752H277.28C277.877 108.752 278.299 108.645 278.544 108.432C278.789 108.219 278.912 107.915 278.912 107.52C278.912 107.115 278.789 106.805 278.544 106.592C278.299 106.368 277.877 106.256 277.28 106.256H274.688V108.752ZM274.688 105.104H276.96C277.568 105.104 277.989 104.997 278.224 104.784C278.469 104.571 278.592 104.277 278.592 103.904C278.592 103.552 278.469 103.275 278.224 103.072C277.989 102.869 277.568 102.768 276.96 102.768H274.688V105.104ZM285.687 110.16C284.972 110.16 284.3 110.005 283.671 109.696C283.052 109.376 282.551 108.896 282.167 108.256C281.794 107.616 281.607 106.811 281.607 105.84V105.52C281.607 104.603 281.794 103.835 282.167 103.216C282.551 102.597 283.052 102.133 283.671 101.824C284.3 101.515 284.972 101.36 285.687 101.36C286.412 101.36 287.084 101.515 287.703 101.824C288.322 102.133 288.818 102.597 289.191 103.216C289.575 103.835 289.767 104.603 289.767 105.52V105.84C289.767 106.811 289.575 107.616 289.191 108.256C288.818 108.896 288.322 109.376 287.703 109.696C287.084 110.005 286.412 110.16 285.687 110.16ZM285.687 108.88C286.124 108.88 286.54 108.784 286.935 108.592C287.34 108.389 287.671 108.064 287.927 107.616C288.194 107.168 288.327 106.576 288.327 105.84V105.52C288.327 104.837 288.194 104.288 287.927 103.872C287.671 103.445 287.34 103.136 286.935 102.944C286.54 102.741 286.124 102.64 285.687 102.64C285.26 102.64 284.844 102.741 284.439 102.944C284.034 103.136 283.698 103.445 283.431 103.872C283.175 104.288 283.047 104.837 283.047 105.52V105.84C283.047 106.576 283.175 107.168 283.431 107.616C283.698 108.064 284.034 108.389 284.439 108.592C284.844 108.784 285.26 108.88 285.687 108.88ZM290.484 112V108.752H291.524C291.684 108.539 291.823 108.181 291.94 107.68C292.058 107.168 292.148 106.571 292.212 105.888C292.287 105.205 292.324 104.496 292.324 103.76V101.52H298.244V108.752H299.444V112H298.1V110H291.828V112H290.484ZM292.964 108.752H296.836V102.768H293.7V104.08C293.7 104.976 293.636 105.845 293.508 106.688C293.391 107.52 293.21 108.208 292.964 108.752ZM300.972 110V101.52H302.38V107.92L306.764 101.52H308.172V110H306.764V103.6L302.38 110H300.972ZM312.514 110V102.768H309.618V101.52H316.818V102.768H313.922V110H312.514ZM321.625 110.16C320.91 110.16 320.238 110.005 319.609 109.696C318.99 109.387 318.489 108.912 318.105 108.272C317.732 107.632 317.545 106.821 317.545 105.84V105.52C317.545 104.581 317.726 103.808 318.089 103.2C318.452 102.581 318.932 102.123 319.529 101.824C320.126 101.515 320.772 101.36 321.465 101.36C322.713 101.36 323.678 101.701 324.361 102.384C325.044 103.067 325.385 104.032 325.385 105.28V106.176H318.953C318.953 106.837 319.086 107.365 319.353 107.76C319.63 108.155 319.972 108.443 320.377 108.624C320.793 108.795 321.209 108.88 321.625 108.88C322.265 108.88 322.756 108.773 323.097 108.56C323.449 108.347 323.7 108.053 323.849 107.68H325.225C325.054 108.491 324.633 109.109 323.961 109.536C323.3 109.952 322.521 110.16 321.625 110.16ZM321.545 102.64C321.108 102.64 320.692 102.725 320.297 102.896C319.902 103.056 319.577 103.312 319.321 103.664C319.076 104.016 318.953 104.469 318.953 105.024H324.057C324.046 104.437 323.924 103.973 323.689 103.632C323.465 103.28 323.166 103.029 322.793 102.88C322.42 102.72 322.004 102.64 321.545 102.64ZM326.67 110.16C326.595 110.16 326.515 110.155 326.43 110.144C326.355 110.133 326.275 110.123 326.19 110.112V108.704C326.222 108.715 326.302 108.72 326.43 108.72C326.75 108.72 327.011 108.581 327.214 108.304C327.417 108.016 327.561 107.515 327.646 106.8C327.742 106.075 327.79 105.061 327.79 103.76V101.52H333.87V110H332.462V102.768H329.198V104.08C329.198 105.264 329.145 106.251 329.038 107.04C328.931 107.819 328.771 108.437 328.558 108.896C328.355 109.355 328.094 109.68 327.774 109.872C327.454 110.064 327.086 110.16 326.67 110.16ZM339.789 110.16C339.075 110.16 338.403 110.005 337.773 109.696C337.155 109.387 336.653 108.912 336.269 108.272C335.896 107.632 335.709 106.821 335.709 105.84V105.52C335.709 104.581 335.891 103.808 336.253 103.2C336.616 102.581 337.096 102.123 337.693 101.824C338.291 101.515 338.936 101.36 339.629 101.36C340.877 101.36 341.843 101.701 342.525 102.384C343.208 103.067 343.549 104.032 343.549 105.28V106.176H337.117C337.117 106.837 337.251 107.365 337.517 107.76C337.795 108.155 338.136 108.443 338.541 108.624C338.957 108.795 339.373 108.88 339.789 108.88C340.429 108.88 340.92 108.773 341.261 108.56C341.613 108.347 341.864 108.053 342.013 107.68H343.389C343.219 108.491 342.797 109.109 342.125 109.536C341.464 109.952 340.685 110.16 339.789 110.16ZM339.709 102.64C339.272 102.64 338.856 102.725 338.461 102.896C338.067 103.056 337.741 103.312 337.485 103.664C337.24 104.016 337.117 104.469 337.117 105.024H342.221C342.211 104.437 342.088 103.973 341.853 103.632C341.629 103.28 341.331 103.029 340.957 102.88C340.584 102.72 340.168 102.64 339.709 102.64ZM345.391 110V101.52H346.799V107.92L351.183 101.52H352.591V110H351.183V103.6L346.799 110H345.391ZM348.991 100.48C348.159 100.48 347.551 100.304 347.167 99.952C346.783 99.5893 346.591 99.072 346.591 98.4H347.967C347.967 98.7627 348.052 99.0347 348.223 99.216C348.393 99.3973 348.649 99.488 348.991 99.488C349.343 99.488 349.604 99.3973 349.775 99.216C349.956 99.0347 350.047 98.7627 350.047 98.4H351.391C351.391 99.072 351.199 99.5893 350.815 99.952C350.431 100.304 349.823 100.48 348.991 100.48Z" fill="#21201F"/>
<path d="M17.6 34V22.8H19.168L22.912 29.92L26.656 22.8H28.16V34H26.656V25.52L23.44 31.6H22.32L19.104 25.52V34H17.6ZM34.4056 34.16C33.691 34.16 33.019 34.0053 32.3896 33.696C31.771 33.3867 31.2696 32.912 30.8856 32.272C30.5123 31.632 30.3256 30.8213 30.3256 29.84V29.52C30.3256 28.5813 30.507 27.808 30.8696 27.2C31.2323 26.5813 31.7123 26.1227 32.3096 25.824C32.907 25.5147 33.5523 25.36 34.2456 25.36C35.4936 25.36 36.459 25.7013 37.1416 26.384C37.8243 27.0667 38.1656 28.032 38.1656 29.28V30.176H31.7336C31.7336 30.8373 31.867 31.3653 32.1336 31.76C32.411 32.1547 32.7523 32.4427 33.1576 32.624C33.5736 32.7947 33.9896 32.88 34.4056 32.88C35.0456 32.88 35.5363 32.7733 35.8776 32.56C36.2296 32.3467 36.4803 32.0533 36.6296 31.68H38.0056C37.835 32.4907 37.4136 33.1093 36.7416 33.536C36.0803 33.952 35.3016 34.16 34.4056 34.16ZM34.3256 26.64C33.8883 26.64 33.4723 26.7253 33.0776 26.896C32.683 27.056 32.3576 27.312 32.1016 27.664C31.8563 28.016 31.7336 28.4693 31.7336 29.024H36.8376C36.827 28.4373 36.7043 27.9733 36.4696 27.632C36.2456 27.28 35.947 27.0293 35.5736 26.88C35.2003 26.72 34.7843 26.64 34.3256 26.64ZM41.7866 34V26.768H38.8906V25.52H46.0906V26.768H43.1946V34H41.7866ZM47.5344 37.2V25.52H48.8464V27.12C49.1344 26.5547 49.5344 26.1227 50.0464 25.824C50.569 25.5147 51.1717 25.36 51.8544 25.36C52.921 25.36 53.7744 25.712 54.4144 26.416C55.0544 27.1093 55.3744 28.144 55.3744 29.52V29.84C55.3744 30.8 55.225 31.6 54.9264 32.24C54.6384 32.88 54.2277 33.36 53.6944 33.68C53.1717 34 52.5584 34.16 51.8544 34.16C51.129 34.16 50.521 34 50.0304 33.68C49.5504 33.36 49.1877 32.96 48.9424 32.48V37.2H47.5344ZM51.5344 32.912C52.2277 32.912 52.8037 32.6507 53.2624 32.128C53.7317 31.6053 53.9664 30.8427 53.9664 29.84V29.52C53.9664 28.592 53.7317 27.8773 53.2624 27.376C52.8037 26.864 52.2277 26.608 51.5344 26.608C51.0224 26.608 50.569 26.7147 50.1744 26.928C49.7904 27.1413 49.4864 27.4347 49.2624 27.808C49.049 28.1707 48.9424 28.5813 48.9424 29.04V30.32C48.9424 30.832 49.049 31.2853 49.2624 31.68C49.4864 32.064 49.7904 32.368 50.1744 32.592C50.569 32.8053 51.0224 32.912 51.5344 32.912ZM57.2181 34V25.52H58.6261V31.92L63.0101 25.52H64.4181V34H63.0101V27.6L58.6261 34H57.2181ZM66.8238 34V25.52H68.2318V29.072H69.3518L72.5198 25.52H74.1838L70.5038 29.584L74.3438 34H72.5518L69.3518 30.288H68.2318V34H66.8238ZM75.8669 34V25.52H77.2749V31.92L81.6589 25.52H83.0669V34H81.6589V27.6L77.2749 34H75.8669ZM89.3125 34V25.52H92.9925C93.6965 25.52 94.2725 25.6213 94.7205 25.824C95.1685 26.016 95.4992 26.288 95.7125 26.64C95.9258 26.9813 96.0325 27.3813 96.0325 27.84C96.0325 28.2133 95.9098 28.5707 95.6645 28.912C95.4298 29.2427 95.1258 29.472 94.7525 29.6C95.2752 29.728 95.6698 29.9733 95.9365 30.336C96.2138 30.688 96.3525 31.104 96.3525 31.584C96.3525 32.32 96.1072 32.9067 95.6165 33.344C95.1258 33.7813 94.3578 34 93.3125 34H89.3125ZM90.7205 32.752H93.3125C93.9098 32.752 94.3312 32.6453 94.5765 32.432C94.8218 32.2187 94.9445 31.9147 94.9445 31.52C94.9445 31.1147 94.8218 30.8053 94.5765 30.592C94.3312 30.368 93.9098 30.256 93.3125 30.256H90.7205V32.752ZM90.7205 29.104H92.9925C93.6005 29.104 94.0218 28.9973 94.2565 28.784C94.5018 28.5707 94.6245 28.2773 94.6245 27.904C94.6245 27.552 94.5018 27.2747 94.2565 27.072C94.0218 26.8693 93.6005 26.768 92.9925 26.768H90.7205V29.104ZM97.7994 34.16C97.7247 34.16 97.6447 34.1547 97.5594 34.144C97.4847 34.1333 97.4047 34.1227 97.3194 34.112V32.704C97.3514 32.7147 97.4314 32.72 97.5594 32.72C97.8794 32.72 98.1407 32.5813 98.3434 32.304C98.546 32.016 98.69 31.5147 98.7754 30.8C98.8714 30.0747 98.9194 29.0613 98.9194 27.76V25.52H104.999V34H103.591V26.768H100.327V28.08C100.327 29.264 100.274 30.2507 100.167 31.04C100.061 31.8187 99.9007 32.4373 99.6874 32.896C99.4847 33.3547 99.2234 33.68 98.9034 33.872C98.5834 34.064 98.2154 34.16 97.7994 34.16ZM107.399 34V25.52H108.807V31.92L113.191 25.52H114.599V34H113.191V27.6L108.807 34H107.399ZM116.364 34L118.668 30.64C117.964 30.48 117.458 30.192 117.148 29.776C116.839 29.3493 116.684 28.8053 116.684 28.144C116.684 27.5893 116.796 27.12 117.02 26.736C117.244 26.3413 117.591 26.0427 118.06 25.84C118.53 25.6267 119.138 25.52 119.884 25.52H123.564V34H122.156V30.768H119.996L117.932 34H116.364ZM118.092 28.144C118.092 28.592 118.22 28.9333 118.476 29.168C118.743 29.4027 119.186 29.52 119.804 29.52H122.156V26.768H119.804C119.186 26.768 118.743 26.8853 118.476 27.12C118.22 27.3547 118.092 27.696 118.092 28.144ZM125.969 34V25.52H127.377V29.056H131.761V25.52H133.169V34H131.761V30.304H127.377V34H125.969ZM135.575 34V25.52H136.983V31.92L141.367 25.52H142.775V34H141.367V27.6L136.983 34H135.575ZM144.541 34L146.845 30.64C146.141 30.48 145.634 30.192 145.325 29.776C145.015 29.3493 144.861 28.8053 144.861 28.144C144.861 27.5893 144.973 27.12 145.197 26.736C145.421 26.3413 145.767 26.0427 146.237 25.84C146.706 25.6267 147.314 25.52 148.061 25.52H151.741V34H150.333V30.768H148.173L146.109 34H144.541ZM146.269 28.144C146.269 28.592 146.397 28.9333 146.653 29.168C146.919 29.4027 147.362 29.52 147.981 29.52H150.333V26.768H147.981C147.362 26.768 146.919 26.8853 146.653 27.12C146.397 27.3547 146.269 27.696 146.269 28.144Z" fill="#4B4A4A"/>
</g>
<defs>
<filter id="filter0_f_3990_55440" x="202" y="-128" width="1021" height="1021" filterUnits="userSpaceOnUse" color-interpolation-filters="sRGB">
<feFlood flood-opacity="0" result="BackgroundImageFix"/>
<feBlend mode="normal" in="SourceGraphic" in2="BackgroundImageFix" result="shape"/>
<feGaussianBlur stdDeviation="86" result="effect1_foregroundBlur_3990_55440"/>
</filter>
<clipPath id="clip0_3990_55440">
<rect width="510" height="144" fill="white"/>
</clipPath>
</defs>
</svg>
