<svg xmlns="http://www.w3.org/2000/svg" viewBox="0 0 24 24" fill="none">
  <rect width="24" height="24" rx="4" fill="#ffffff"/>
  <path d="M10.1473 19.7377C10.1427 18.4543 10.2345 16.7226 10.6655 15.1207C11.249 12.9528 13.4942 11.677 15.6931 12.2634C17.318 12.6971 18.8882 13.4842 20.0146 14.1303C20.5865 14.4583 21.0634 14.7619 21.3989 14.9838C21.5666 15.0947 21.7001 15.1856 21.7932 15.2504C21.8398 15.2829 21.8766 15.3095 21.9024 15.3279C21.9153 15.337 21.926 15.344 21.9334 15.3494C21.9371 15.352 21.94 15.3549 21.9423 15.3566L21.9453 15.358L21.9467 15.3595L20.1083 17.7489C20.1083 17.7489 20.1067 17.7484 20.1054 17.7475C20.1018 17.7449 20.095 17.7394 20.0862 17.7331C20.0686 17.7205 20.041 17.7004 20.0035 17.6743C19.9283 17.6219 19.8145 17.5445 19.6683 17.4478C19.3749 17.2537 18.9517 16.9852 18.445 16.6945C17.4145 16.1034 16.1068 15.4618 14.8515 15.1267C14.2925 14.9775 13.7552 15.2828 13.6066 15.834C13.2734 17.0722 13.1836 18.5094 13.1879 19.6838C13.19 20.261 13.2139 20.7548 13.2377 21.1019C13.2496 21.2752 13.2618 21.4112 13.2703 21.5016C13.2745 21.5465 13.2777 21.5802 13.2799 21.6015C13.281 21.6122 13.2822 21.6203 13.2827 21.6247L13.2827 21.6276L10.2605 22L10.2605 21.9942C10.2602 21.9913 10.2596 21.9872 10.2591 21.9826C10.2581 21.9737 10.2565 21.9616 10.2549 21.9464C10.2517 21.9152 10.2478 21.8706 10.2426 21.8147C10.2322 21.7028 10.2183 21.5429 10.2047 21.3441C10.1774 20.9471 10.1497 20.389 10.1473 19.7377ZM10.2671 4.26422C10.2796 3.61255 10.3158 3.05423 10.3493 2.65682C10.366 2.45777 10.3823 2.29764 10.3945 2.18561C10.4006 2.12973 10.4051 2.0849 10.4089 2.05365C10.4107 2.03845 10.4125 2.02635 10.4136 2.0174C10.4142 2.01285 10.4148 2.00866 10.4152 2.0058L10.4152 2C10.4152 2 10.432 2.00122 11.9236 2.16443C13.394 2.32531 13.432 2.3303 13.432 2.3303L13.4319 2.3332C13.4314 2.33743 13.43 2.34469 13.4288 2.35495C13.4262 2.37631 13.4226 2.41122 13.4176 2.45645C13.4078 2.54698 13.3935 2.68341 13.3789 2.85662C13.3496 3.20419 13.3182 3.6985 13.3071 4.2756C13.2845 5.45013 13.3506 6.88506 13.6648 8.11834C13.8047 8.66763 14.3386 8.96525 14.9004 8.80778C16.161 8.45436 17.4787 7.79379 18.5186 7.18789C19.0299 6.88995 19.4571 6.61515 19.7537 6.41686C19.9014 6.31807 20.0164 6.23895 20.0924 6.18549C20.1303 6.15887 20.1582 6.13831 20.176 6.12549C20.1849 6.11909 20.1918 6.11492 20.1954 6.11231L20.1984 6.10939C20.1984 6.10939 20.1981 6.10963 21.0992 7.29097C22.0005 8.47254 22 8.47399 22 8.47399L21.9985 8.474L21.9955 8.47692C21.9931 8.47866 21.9903 8.48149 21.9866 8.48423C21.979 8.48973 21.9683 8.49681 21.9552 8.50619C21.9291 8.52495 21.8918 8.55074 21.8448 8.58378C21.7506 8.64997 21.616 8.7441 21.4463 8.85759C21.1073 9.08427 20.6257 9.39353 20.0487 9.72977C18.9122 10.392 17.3307 11.2018 15.6992 11.6592C13.4911 12.2781 11.2641 11.0344 10.7138 8.87423C10.3073 7.27813 10.2424 5.54775 10.2671 4.26422ZM4.27984 5.48828L4.28132 5.48827L4.28428 5.4897C4.28684 5.49076 4.29065 5.4923 4.29464 5.49397C4.30321 5.49755 4.31543 5.50342 4.33014 5.50965C4.35949 5.52209 4.40082 5.53964 4.45294 5.56237C4.55746 5.60798 4.70613 5.674 4.88932 5.75917C5.25555 5.92945 5.76491 6.17805 6.34431 6.49339C7.48558 7.11453 8.97502 8.03614 10.1756 9.18093C11.8002 10.7302 11.7807 13.25 10.1319 14.8232C8.9135 15.9856 7.40964 16.9288 6.25864 17.5663C5.67431 17.89 5.16104 18.1461 4.79213 18.3217C4.60761 18.4094 4.45789 18.4777 4.35265 18.5248C4.30017 18.5483 4.25857 18.5664 4.22902 18.5793C4.21421 18.5857 4.20192 18.5903 4.19328 18.594C4.18904 18.5958 4.18555 18.5973 4.18286 18.5984L4.17988 18.5999L4.17838 18.6014L3 15.8831C3 15.8831 3.00242 15.8825 3.00447 15.8816C3.00858 15.8798 3.01534 15.8757 3.02533 15.8713C3.04554 15.8625 3.07818 15.8491 3.12065 15.8301C3.20575 15.792 3.33241 15.7328 3.4931 15.6564C3.81576 15.5029 4.2705 15.2774 4.78821 14.9907C5.84153 14.4073 7.08258 13.6141 8.02403 12.7158C8.44298 12.3159 8.44763 11.7131 8.03484 11.319C7.10715 10.4344 5.87818 9.65894 4.83386 9.09054C4.32044 8.81111 3.86928 8.59098 3.54891 8.44203C3.3891 8.36772 3.26216 8.31062 3.17763 8.27374C3.13587 8.25553 3.10439 8.24231 3.08442 8.23384C3.07438 8.22959 3.06629 8.22701 3.06222 8.22531L3.05926 8.22388L4.27984 5.48828Z" fill="#283BA8"/>
</svg>
