<svg width="414" height="565" viewBox="0 0 414 565" fill="none" xmlns="http://www.w3.org/2000/svg">
<path d="M3.78951 0C5.44637 0 6.78951 1.34315 6.78951 3C6.78951 4.31641 5.94064 5.43192 4.76119 5.83594C4.31629 22.1952 -1.68766 90.1167 5.53561 168.432C13.0314 249.701 34.7586 341.766 91.4965 398.504C205.291 512.297 337.465 559.158 407.174 559.21V558.908L407.309 555.139L413.901 559.907L407.174 564.639V561.21C336.823 561.158 204.164 513.999 90.0825 399.918C32.8195 342.655 11.0471 249.97 3.54342 168.615C-3.68793 90.2126 2.31459 21.9632 2.76119 5.81543C1.61144 5.39538 0.789513 4.29516 0.789513 3C0.789513 1.34315 2.13266 0 3.78951 0Z" fill="#E07E92" stroke="#E07E92" stroke-width="0.875" stroke-linejoin="round"/>
</svg>
