<svg width="923" height="164" viewBox="0 0 923 164" fill="none" xmlns="http://www.w3.org/2000/svg">
<g clip-path="url(#clip0_3972_12851)">
<rect width="923" height="164" fill="#F7EBEE"/>
<g filter="url(#filter0_f_3972_12851)">
<path d="M1046 392.5C1046 579.448 894.448 731 707.5 731C520.552 731 369 579.448 369 392.5C369 205.552 520.552 54 707.5 54C894.448 54 1046 205.552 1046 392.5Z" fill="#F7F1EB"/>
</g>
<g class="flow-step reveal reveal--fade" data-delay="0">
<rect x="24" y="24" width="180" height="76" rx="4" fill="white" fill-opacity="0.72"/>
<path d="M38.128 62.48V61.312C37.04 61.312 36.1013 61.1093 35.312 60.704C34.5333 60.288 33.9307 59.712 33.504 58.976C33.088 58.24 32.88 57.3813 32.88 56.4V56.08C32.88 55.2053 33.088 54.4213 33.504 53.728C33.9307 53.0347 34.5333 52.4907 35.312 52.096C36.1013 51.6907 37.04 51.488 38.128 51.488V50.32H39.632V51.488C40.7307 51.488 41.6693 51.6907 42.448 52.096C43.2267 52.4907 43.824 53.0347 44.24 53.728C44.6667 54.4213 44.88 55.2053 44.88 56.08V56.4C44.88 57.3813 44.6667 58.24 44.24 58.976C43.824 59.712 43.2267 60.288 42.448 60.704C41.6693 61.1093 40.7307 61.312 39.632 61.312V62.48H38.128ZM43.28 56.4V56.08C43.28 55.4613 43.136 54.912 42.848 54.432C42.5707 53.9413 42.16 53.552 41.616 53.264C41.0827 52.976 40.4213 52.832 39.632 52.832V59.968C40.4213 59.968 41.0827 59.824 41.616 59.536C42.16 59.2373 42.5707 58.8213 42.848 58.288C43.136 57.744 43.28 57.1147 43.28 56.4ZM34.48 56.08V56.4C34.48 57.1147 34.6187 57.744 34.896 58.288C35.184 58.8213 35.6 59.2373 36.144 59.536C36.688 59.824 37.3493 59.968 38.128 59.968V52.832C37.3493 52.832 36.688 52.976 36.144 53.264C35.6 53.552 35.184 53.9413 34.896 54.432C34.6187 54.912 34.48 55.4613 34.48 56.08ZM50.4056 62.16C49.691 62.16 49.019 62.0053 48.3896 61.696C47.771 61.376 47.2696 60.896 46.8856 60.256C46.5123 59.616 46.3256 58.8107 46.3256 57.84V57.52C46.3256 56.6027 46.5123 55.8347 46.8856 55.216C47.2696 54.5973 47.771 54.1333 48.3896 53.824C49.019 53.5147 49.691 53.36 50.4056 53.36C51.131 53.36 51.803 53.5147 52.4216 53.824C53.0403 54.1333 53.5363 54.5973 53.9096 55.216C54.2936 55.8347 54.4856 56.6027 54.4856 57.52V57.84C54.4856 58.8107 54.2936 59.616 53.9096 60.256C53.5363 60.896 53.0403 61.376 52.4216 61.696C51.803 62.0053 51.131 62.16 50.4056 62.16ZM50.4056 60.88C50.843 60.88 51.259 60.784 51.6536 60.592C52.059 60.3893 52.3896 60.064 52.6456 59.616C52.9123 59.168 53.0456 58.576 53.0456 57.84V57.52C53.0456 56.8373 52.9123 56.288 52.6456 55.872C52.3896 55.4453 52.059 55.136 51.6536 54.944C51.259 54.7413 50.843 54.64 50.4056 54.64C49.979 54.64 49.563 54.7413 49.1576 54.944C48.7523 55.136 48.4163 55.4453 48.1496 55.872C47.8936 56.288 47.7656 56.8373 47.7656 57.52V57.84C47.7656 58.576 47.8936 59.168 48.1496 59.616C48.4163 60.064 48.7523 60.3893 49.1576 60.592C49.563 60.784 49.979 60.88 50.4056 60.88ZM56.3194 65.2V53.52H57.6314V55.12C57.9194 54.5547 58.3194 54.1227 58.8314 53.824C59.354 53.5147 59.9567 53.36 60.6394 53.36C61.706 53.36 62.5594 53.712 63.1994 54.416C63.8394 55.1093 64.1594 56.144 64.1594 57.52V57.84C64.1594 58.8 64.01 59.6 63.7114 60.24C63.4234 60.88 63.0127 61.36 62.4794 61.68C61.9567 62 61.3434 62.16 60.6394 62.16C59.914 62.16 59.306 62 58.8154 61.68C58.3354 61.36 57.9727 60.96 57.7274 60.48V65.2H56.3194ZM60.3194 60.912C61.0127 60.912 61.5887 60.6507 62.0474 60.128C62.5167 59.6053 62.7514 58.8427 62.7514 57.84V57.52C62.7514 56.592 62.5167 55.8773 62.0474 55.376C61.5887 54.864 61.0127 54.608 60.3194 54.608C59.8074 54.608 59.354 54.7147 58.9594 54.928C58.5754 55.1413 58.2714 55.4347 58.0474 55.808C57.834 56.1707 57.7274 56.5813 57.7274 57.04V58.32C57.7274 58.832 57.834 59.2853 58.0474 59.68C58.2714 60.064 58.5754 60.368 58.9594 60.592C59.354 60.8053 59.8074 60.912 60.3194 60.912ZM66.0031 62V53.52H67.5071L70.5311 58.8L73.5551 53.52H74.9631V62H73.5551V55.84L71.0431 60.16H69.9231L67.4111 55.84V62H66.0031ZM79.7748 62.16C79.1561 62.16 78.6281 62.048 78.1908 61.824C77.7641 61.5893 77.4388 61.2747 77.2148 60.88C76.9908 60.4747 76.8788 60.0213 76.8788 59.52C76.8788 58.6773 77.1241 58.0693 77.6148 57.696C78.1161 57.3227 78.8308 57.136 79.7588 57.136H82.5108V56.56C82.5108 55.8347 82.3454 55.3333 82.0148 55.056C81.6948 54.7787 81.2094 54.64 80.5588 54.64C79.9508 54.64 79.5081 54.7573 79.2308 54.992C78.9534 55.216 78.7988 55.472 78.7668 55.76H77.3588C77.3908 55.3013 77.5454 54.896 77.8228 54.544C78.1001 54.1813 78.4788 53.8933 78.9588 53.68C79.4388 53.4667 79.9988 53.36 80.6388 53.36C81.3108 53.36 81.8921 53.4667 82.3828 53.68C82.8734 53.8827 83.2521 54.208 83.5188 54.656C83.7854 55.0933 83.9188 55.6747 83.9188 56.4V59.84C83.9188 60.288 83.9188 60.6827 83.9188 61.024C83.9294 61.3547 83.9561 61.68 83.9988 62H82.7668C82.7348 61.7547 82.7134 61.5253 82.7028 61.312C82.6921 61.088 82.6868 60.8373 82.6868 60.56C82.4628 61.008 82.1001 61.3867 81.5988 61.696C81.0974 62.0053 80.4894 62.16 79.7748 62.16ZM80.0788 60.88C80.5268 60.88 80.9321 60.8 81.2948 60.64C81.6681 60.48 81.9614 60.2453 82.1748 59.936C82.3988 59.6267 82.5108 59.248 82.5108 58.8V58.224H79.9988C79.4761 58.224 79.0654 58.3307 78.7668 58.544C78.4681 58.7467 78.3188 59.072 78.3188 59.52C78.3188 59.9147 78.4574 60.24 78.7348 60.496C79.0228 60.752 79.4708 60.88 80.0788 60.88ZM36.56 86.16C35.8347 86.16 35.1787 86.0053 34.592 85.696C34.016 85.376 33.5573 84.896 33.216 84.256C32.8853 83.616 32.72 82.8107 32.72 81.84V81.52C32.72 80.6027 32.9013 79.8347 33.264 79.216C33.6267 78.5973 34.1013 78.1333 34.688 77.824C35.2747 77.5147 35.8987 77.36 36.56 77.36C37.232 77.36 37.808 77.4827 38.288 77.728C38.7787 77.9627 39.1733 78.288 39.472 78.704C39.7707 79.1093 39.9733 79.568 40.08 80.08H38.64C38.4693 79.6747 38.2293 79.3333 37.92 79.056C37.6213 78.7787 37.168 78.64 36.56 78.64C36.144 78.64 35.7547 78.7413 35.392 78.944C35.0293 79.136 34.7307 79.4453 34.496 79.872C34.272 80.288 34.16 80.8373 34.16 81.52V81.84C34.16 82.5653 34.272 83.152 34.496 83.6C34.7307 84.048 35.0293 84.3733 35.392 84.576C35.7547 84.7787 36.144 84.88 36.56 84.88C37.0827 84.88 37.52 84.752 37.872 84.496C38.2347 84.24 38.4907 83.888 38.64 83.44H40.08C39.952 83.9947 39.7227 84.48 39.392 84.896C39.0613 85.3013 38.656 85.616 38.176 85.84C37.696 86.0533 37.1573 86.16 36.56 86.16ZM45.3588 86.16C44.6441 86.16 43.9721 86.0053 43.3428 85.696C42.7241 85.376 42.2228 84.896 41.8388 84.256C41.4654 83.616 41.2788 82.8107 41.2788 81.84V81.52C41.2788 80.6027 41.4654 79.8347 41.8388 79.216C42.2228 78.5973 42.7241 78.1333 43.3428 77.824C43.9721 77.5147 44.6441 77.36 45.3588 77.36C46.0841 77.36 46.7561 77.5147 47.3748 77.824C47.9934 78.1333 48.4894 78.5973 48.8628 79.216C49.2468 79.8347 49.4388 80.6027 49.4388 81.52V81.84C49.4388 82.8107 49.2468 83.616 48.8628 84.256C48.4894 84.896 47.9934 85.376 47.3748 85.696C46.7561 86.0053 46.0841 86.16 45.3588 86.16ZM45.3588 84.88C45.7961 84.88 46.2121 84.784 46.6068 84.592C47.0121 84.3893 47.3428 84.064 47.5988 83.616C47.8654 83.168 47.9988 82.576 47.9988 81.84V81.52C47.9988 80.8373 47.8654 80.288 47.5988 79.872C47.3428 79.4453 47.0121 79.136 46.6068 78.944C46.2121 78.7413 45.7961 78.64 45.3588 78.64C44.9321 78.64 44.5161 78.7413 44.1108 78.944C43.7054 79.136 43.3694 79.4453 43.1028 79.872C42.8468 80.288 42.7188 80.8373 42.7188 81.52V81.84C42.7188 82.576 42.8468 83.168 43.1028 83.616C43.3694 84.064 43.7054 84.3893 44.1108 84.592C44.5161 84.784 44.9321 84.88 45.3588 84.88ZM54.1525 86.16C53.4485 86.16 52.8405 86.0587 52.3285 85.856C51.8165 85.6533 51.4165 85.36 51.1285 84.976C50.8405 84.592 50.6752 84.1333 50.6325 83.6H52.0405C52.0938 83.8773 52.2112 84.112 52.3925 84.304C52.5738 84.496 52.8138 84.64 53.1125 84.736C53.4112 84.832 53.7578 84.88 54.1525 84.88C54.8885 84.88 55.4218 84.7573 55.7525 84.512C56.0938 84.256 56.2645 83.952 56.2645 83.6C56.2645 83.184 56.1258 82.8587 55.8485 82.624C55.5712 82.3787 55.0912 82.256 54.4085 82.256H52.9525V81.104H54.3125C54.8992 81.104 55.3152 80.992 55.5605 80.768C55.8165 80.544 55.9445 80.2293 55.9445 79.824C55.9445 79.504 55.7952 79.2267 55.4965 78.992C55.1978 78.7573 54.7498 78.64 54.1525 78.64C53.5018 78.64 53.0272 78.7467 52.7285 78.96C52.4405 79.1627 52.2645 79.456 52.2005 79.84H50.7925C50.8352 79.36 50.9952 78.9333 51.2725 78.56C51.5498 78.1867 51.9338 77.8933 52.4245 77.68C52.9152 77.4667 53.4912 77.36 54.1525 77.36C55.2405 77.36 56.0458 77.5893 56.5685 78.048C57.0912 78.5067 57.3525 79.0987 57.3525 79.824C57.3525 80.2293 57.2512 80.5867 57.0485 80.896C56.8458 81.1947 56.5205 81.4293 56.0725 81.6C56.6698 81.76 57.0858 82.016 57.3205 82.368C57.5552 82.72 57.6725 83.1307 57.6725 83.6C57.6725 84.0587 57.5392 84.4853 57.2725 84.88C57.0058 85.264 56.6112 85.5733 56.0885 85.808C55.5765 86.0427 54.9312 86.16 54.1525 86.16ZM58.5588 88V84.752H59.5988C59.7588 84.5387 59.8974 84.1813 60.0148 83.68C60.1321 83.168 60.2228 82.5707 60.2868 81.888C60.3614 81.2053 60.3988 80.496 60.3988 79.76V77.52H66.3188V84.752H67.5188V88H66.1748V86H59.9028V88H58.5588ZM61.0388 84.752H64.9108V78.768H61.7748V80.08C61.7748 80.976 61.7108 81.8453 61.5828 82.688C61.4654 83.52 61.2841 84.208 61.0388 84.752ZM71.6185 86.16C70.9998 86.16 70.4718 86.048 70.0345 85.824C69.6078 85.5893 69.2825 85.2747 69.0585 84.88C68.8345 84.4747 68.7225 84.0213 68.7225 83.52C68.7225 82.6773 68.9678 82.0693 69.4585 81.696C69.9598 81.3227 70.6745 81.136 71.6025 81.136H74.3545V80.56C74.3545 79.8347 74.1892 79.3333 73.8585 79.056C73.5385 78.7787 73.0532 78.64 72.4025 78.64C71.7945 78.64 71.3518 78.7573 71.0745 78.992C70.7972 79.216 70.6425 79.472 70.6105 79.76H69.2025C69.2345 79.3013 69.3892 78.896 69.6665 78.544C69.9438 78.1813 70.3225 77.8933 70.8025 77.68C71.2825 77.4667 71.8425 77.36 72.4825 77.36C73.1545 77.36 73.7358 77.4667 74.2265 77.68C74.7172 77.8827 75.0958 78.208 75.3625 78.656C75.6292 79.0933 75.7625 79.6747 75.7625 80.4V83.84C75.7625 84.288 75.7625 84.6827 75.7625 85.024C75.7732 85.3547 75.7998 85.68 75.8425 86H74.6105C74.5785 85.7547 74.5572 85.5253 74.5465 85.312C74.5358 85.088 74.5305 84.8373 74.5305 84.56C74.3065 85.008 73.9438 85.3867 73.4425 85.696C72.9412 86.0053 72.3332 86.16 71.6185 86.16ZM71.9225 84.88C72.3705 84.88 72.7758 84.8 73.1385 84.64C73.5118 84.48 73.8052 84.2453 74.0185 83.936C74.2425 83.6267 74.3545 83.248 74.3545 82.8V82.224H71.8425C71.3198 82.224 70.9092 82.3307 70.6105 82.544C70.3118 82.7467 70.1625 83.072 70.1625 83.52C70.1625 83.9147 70.3012 84.24 70.5785 84.496C70.8665 84.752 71.3145 84.88 71.9225 84.88ZM78.0894 86V77.52H79.4974V81.056H83.8814V77.52H85.2894V86H83.8814V82.304H79.4974V86H78.0894ZM87.695 86V77.52H89.103V83.92L93.487 77.52H94.895V86H93.487V79.6L89.103 86H87.695ZM96.6606 86L98.9646 82.64C98.2606 82.48 97.754 82.192 97.4446 81.776C97.1353 81.3493 96.9806 80.8053 96.9806 80.144C96.9806 79.5893 97.0926 79.12 97.3166 78.736C97.5406 78.3413 97.8873 78.0427 98.3566 77.84C98.826 77.6267 99.434 77.52 100.181 77.52H103.861V86H102.453V82.768H100.293L98.2286 86H96.6606ZM98.3886 80.144C98.3886 80.592 98.5166 80.9333 98.7726 81.168C99.0393 81.4027 99.482 81.52 100.101 81.52H102.453V78.768H100.101C99.482 78.768 99.0393 78.8853 98.7726 79.12C98.5166 79.3547 98.3886 79.696 98.3886 80.144ZM112.522 86.16C111.903 86.16 111.375 86.048 110.938 85.824C110.511 85.5893 110.186 85.2747 109.962 84.88C109.738 84.4747 109.626 84.0213 109.626 83.52C109.626 82.6773 109.871 82.0693 110.362 81.696C110.863 81.3227 111.578 81.136 112.506 81.136H115.258V80.56C115.258 79.8347 115.092 79.3333 114.762 79.056C114.442 78.7787 113.956 78.64 113.306 78.64C112.698 78.64 112.255 78.7573 111.978 78.992C111.7 79.216 111.546 79.472 111.514 79.76H110.106C110.138 79.3013 110.292 78.896 110.57 78.544C110.847 78.1813 111.226 77.8933 111.706 77.68C112.186 77.4667 112.746 77.36 113.386 77.36C114.058 77.36 114.639 77.4667 115.13 77.68C115.62 77.8827 115.999 78.208 116.266 78.656C116.532 79.0933 116.666 79.6747 116.666 80.4V83.84C116.666 84.288 116.666 84.6827 116.666 85.024C116.676 85.3547 116.703 85.68 116.746 86H115.514C115.482 85.7547 115.46 85.5253 115.45 85.312C115.439 85.088 115.434 84.8373 115.434 84.56C115.21 85.008 114.847 85.3867 114.346 85.696C113.844 86.0053 113.236 86.16 112.522 86.16ZM112.826 84.88C113.274 84.88 113.679 84.8 114.042 84.64C114.415 84.48 114.708 84.2453 114.922 83.936C115.146 83.6267 115.258 83.248 115.258 82.8V82.224H112.746C112.223 82.224 111.812 82.3307 111.514 82.544C111.215 82.7467 111.066 83.072 111.066 83.52C111.066 83.9147 111.204 84.24 111.482 84.496C111.77 84.752 112.218 84.88 112.826 84.88ZM118.993 86V77.52H120.401V81.072H121.521L124.689 77.52H126.353L122.673 81.584L126.513 86H124.721L121.521 82.288H120.401V86H118.993ZM134.932 88V86H128.036V77.52H129.444V84.752H133.508V77.52H134.916V84.752H136.276V88H134.932ZM137.798 86V77.52H139.206V83.92L143.59 77.52H144.998V86H143.59V79.6L139.206 86H137.798ZM147.403 86V77.52H148.811V83.92L153.195 77.52H154.603V86H153.195V79.6L148.811 86H147.403Z" fill="#21201F"/>
</g>
<g class="flow-step reveal reveal--fade" data-delay="2">
<rect x="236" y="24" width="180" height="76" rx="4" fill="white" fill-opacity="0.72"/>
<path d="M245.6 86V74.8H252.88V76.096H247.104V79.28H249.6C251.083 79.28 252.171 79.5893 252.864 80.208C253.568 80.8267 253.92 81.6373 253.92 82.64C253.92 83.6427 253.568 84.4533 252.864 85.072C252.171 85.6907 251.083 86 249.6 86H245.6ZM247.104 84.688H249.52C250.587 84.688 251.333 84.512 251.76 84.16C252.197 83.7973 252.416 83.2907 252.416 82.64C252.416 81.9893 252.197 81.488 251.76 81.136C251.333 80.7733 250.587 80.592 249.52 80.592H247.104V84.688ZM255.204 86.16C255.13 86.16 255.05 86.1547 254.964 86.144C254.89 86.1333 254.81 86.1227 254.724 86.112V84.704C254.756 84.7147 254.836 84.72 254.964 84.72C255.284 84.72 255.546 84.5813 255.748 84.304C255.951 84.016 256.095 83.5147 256.18 82.8C256.276 82.0747 256.324 81.0613 256.324 79.76V77.52H262.404V86H260.996V78.768H257.732V80.08C257.732 81.264 257.679 82.2507 257.572 83.04C257.466 83.8187 257.306 84.4373 257.092 84.896C256.89 85.3547 256.628 85.68 256.308 85.872C255.988 86.064 255.62 86.16 255.204 86.16ZM268.324 86.16C267.609 86.16 266.937 86.0053 266.308 85.696C265.689 85.376 265.188 84.896 264.804 84.256C264.43 83.616 264.244 82.8107 264.244 81.84V81.52C264.244 80.6027 264.43 79.8347 264.804 79.216C265.188 78.5973 265.689 78.1333 266.308 77.824C266.937 77.5147 267.609 77.36 268.324 77.36C269.049 77.36 269.721 77.5147 270.34 77.824C270.958 78.1333 271.454 78.5973 271.828 79.216C272.212 79.8347 272.404 80.6027 272.404 81.52V81.84C272.404 82.8107 272.212 83.616 271.828 84.256C271.454 84.896 270.958 85.376 270.34 85.696C269.721 86.0053 269.049 86.16 268.324 86.16ZM268.324 84.88C268.761 84.88 269.177 84.784 269.572 84.592C269.977 84.3893 270.308 84.064 270.564 83.616C270.83 83.168 270.964 82.576 270.964 81.84V81.52C270.964 80.8373 270.83 80.288 270.564 79.872C270.308 79.4453 269.977 79.136 269.572 78.944C269.177 78.7413 268.761 78.64 268.324 78.64C267.897 78.64 267.481 78.7413 267.076 78.944C266.67 79.136 266.334 79.4453 266.068 79.872C265.812 80.288 265.684 80.8373 265.684 81.52V81.84C265.684 82.576 265.812 83.168 266.068 83.616C266.334 84.064 266.67 84.3893 267.076 84.592C267.481 84.784 267.897 84.88 268.324 84.88ZM274.238 86V77.52H275.646V81.072H276.766L279.934 77.52H281.598L277.918 81.584L281.758 86H279.966L276.766 82.288H275.646V86H274.238ZM290.001 85.2L286.481 82.224V80.976L290.001 78V79.568L287.601 81.568L290.001 83.568V85.2ZM293.681 85.2L290.161 82.224V80.976L293.681 78V79.568L291.281 81.568L293.681 83.568V85.2ZM296.078 86V74.8H303.118V76.112H297.582V86H296.078ZM306.305 86.16C305.59 86.16 304.918 86.0053 304.289 85.696C303.67 85.3867 303.169 84.912 302.785 84.272C302.412 83.632 302.225 82.8213 302.225 81.84V81.52C302.225 80.5813 302.406 79.808 302.769 79.2C303.132 78.5813 303.612 78.1227 304.209 77.824C304.806 77.5147 305.452 77.36 306.145 77.36C307.393 77.36 308.358 77.7013 309.041 78.384C309.724 79.0667 310.065 80.032 310.065 81.28V82.176H303.633C303.633 82.8373 303.766 83.3653 304.033 83.76C304.31 84.1547 304.652 84.4427 305.057 84.624C305.473 84.7947 305.889 84.88 306.305 84.88C306.945 84.88 307.436 84.7733 307.777 84.56C308.129 84.3467 308.38 84.0533 308.529 83.68H309.905C309.734 84.4907 309.313 85.1093 308.641 85.536C307.98 85.952 307.201 86.16 306.305 86.16ZM306.225 78.64C305.788 78.64 305.372 78.7253 304.977 78.896C304.582 79.056 304.257 79.312 304.001 79.664C303.756 80.016 303.633 80.4693 303.633 81.024H308.737C308.726 80.4373 308.604 79.9733 308.369 79.632C308.145 79.28 307.846 79.0293 307.473 78.88C307.1 78.72 306.684 78.64 306.225 78.64ZM315.426 86.16C314.712 86.16 314.04 86.0053 313.41 85.696C312.792 85.376 312.29 84.896 311.906 84.256C311.533 83.616 311.346 82.8107 311.346 81.84V81.52C311.346 80.6027 311.533 79.8347 311.906 79.216C312.29 78.5973 312.792 78.1333 313.41 77.824C314.04 77.5147 314.712 77.36 315.426 77.36C316.152 77.36 316.824 77.5147 317.442 77.824C318.061 78.1333 318.557 78.5973 318.93 79.216C319.314 79.8347 319.506 80.6027 319.506 81.52V81.84C319.506 82.8107 319.314 83.616 318.93 84.256C318.557 84.896 318.061 85.376 317.442 85.696C316.824 86.0053 316.152 86.16 315.426 86.16ZM315.426 84.88C315.864 84.88 316.28 84.784 316.674 84.592C317.08 84.3893 317.41 84.064 317.666 83.616C317.933 83.168 318.066 82.576 318.066 81.84V81.52C318.066 80.8373 317.933 80.288 317.666 79.872C317.41 79.4453 317.08 79.136 316.674 78.944C316.28 78.7413 315.864 78.64 315.426 78.64C315 78.64 314.584 78.7413 314.178 78.944C313.773 79.136 313.437 79.4453 313.17 79.872C312.914 80.288 312.786 80.8373 312.786 81.52V81.84C312.786 82.576 312.914 83.168 313.17 83.616C313.437 84.064 313.773 84.3893 314.178 84.592C314.584 84.784 315 84.88 315.426 84.88ZM321.34 89.2V77.52H322.652V79.12C322.94 78.5547 323.34 78.1227 323.852 77.824C324.375 77.5147 324.977 77.36 325.66 77.36C326.727 77.36 327.58 77.712 328.22 78.416C328.86 79.1093 329.18 80.144 329.18 81.52V81.84C329.18 82.8 329.031 83.6 328.732 84.24C328.444 84.88 328.033 85.36 327.5 85.68C326.977 86 326.364 86.16 325.66 86.16C324.935 86.16 324.327 86 323.836 85.68C323.356 85.36 322.993 84.96 322.748 84.48V89.2H321.34ZM325.34 84.912C326.033 84.912 326.609 84.6507 327.068 84.128C327.537 83.6053 327.772 82.8427 327.772 81.84V81.52C327.772 80.592 327.537 79.8773 327.068 79.376C326.609 78.864 326.033 78.608 325.34 78.608C324.828 78.608 324.375 78.7147 323.98 78.928C323.596 79.1413 323.292 79.4347 323.068 79.808C322.855 80.1707 322.748 80.5813 322.748 81.04V82.32C322.748 82.832 322.855 83.2853 323.068 83.68C323.292 84.064 323.596 84.368 323.98 84.592C324.375 84.8053 324.828 84.912 325.34 84.912ZM331.024 86V77.52H336.784V78.768H332.432V86H331.024ZM340.327 86.16C339.708 86.16 339.18 86.048 338.743 85.824C338.316 85.5893 337.991 85.2747 337.767 84.88C337.543 84.4747 337.431 84.0213 337.431 83.52C337.431 82.6773 337.676 82.0693 338.167 81.696C338.668 81.3227 339.383 81.136 340.311 81.136H343.063V80.56C343.063 79.8347 342.897 79.3333 342.567 79.056C342.247 78.7787 341.761 78.64 341.111 78.64C340.503 78.64 340.06 78.7573 339.783 78.992C339.505 79.216 339.351 79.472 339.319 79.76H337.911C337.943 79.3013 338.097 78.896 338.375 78.544C338.652 78.1813 339.031 77.8933 339.511 77.68C339.991 77.4667 340.551 77.36 341.191 77.36C341.863 77.36 342.444 77.4667 342.935 77.68C343.425 77.8827 343.804 78.208 344.071 78.656C344.337 79.0933 344.471 79.6747 344.471 80.4V83.84C344.471 84.288 344.471 84.6827 344.471 85.024C344.481 85.3547 344.508 85.68 344.551 86H343.319C343.287 85.7547 343.265 85.5253 343.255 85.312C343.244 85.088 343.239 84.8373 343.239 84.56C343.015 85.008 342.652 85.3867 342.151 85.696C341.649 86.0053 341.041 86.16 340.327 86.16ZM340.631 84.88C341.079 84.88 341.484 84.8 341.847 84.64C342.22 84.48 342.513 84.2453 342.727 83.936C342.951 83.6267 343.063 83.248 343.063 82.8V82.224H340.551C340.028 82.224 339.617 82.3307 339.319 82.544C339.02 82.7467 338.871 83.072 338.871 83.52C338.871 83.9147 339.009 84.24 339.287 84.496C339.575 84.752 340.023 84.88 340.631 84.88ZM350.734 89.2V86.16C349.262 86.16 348.142 85.7867 347.374 85.04C346.616 84.2933 346.238 83.232 346.238 81.856V81.536C346.238 80.224 346.616 79.2 347.374 78.464C348.142 77.728 349.262 77.36 350.734 77.36V74.8H352.142V77.36C353.614 77.36 354.728 77.728 355.486 78.464C356.254 79.2 356.638 80.224 356.638 81.536V81.856C356.638 83.232 356.254 84.2933 355.486 85.04C354.728 85.7867 353.614 86.16 352.142 86.16V89.2H350.734ZM355.198 81.856V81.536C355.198 80.5653 354.947 79.84 354.446 79.36C353.955 78.88 353.182 78.64 352.126 78.64V84.88C353.182 84.88 353.955 84.6347 354.446 84.144C354.947 83.6533 355.198 82.8907 355.198 81.856ZM347.678 81.536V81.856C347.678 82.8907 347.923 83.6533 348.414 84.144C348.915 84.6347 349.694 84.88 350.75 84.88V78.64C349.694 78.64 348.915 78.88 348.414 79.36C347.923 79.84 347.678 80.5653 347.678 81.536ZM358.481 86V77.52H359.889V83.92L364.273 77.52H365.681V86H364.273V79.6L359.889 86H358.481ZM367.447 86L369.751 82.64C369.047 82.48 368.54 82.192 368.231 81.776C367.922 81.3493 367.767 80.8053 367.767 80.144C367.767 79.5893 367.879 79.12 368.103 78.736C368.327 78.3413 368.674 78.0427 369.143 77.84C369.612 77.6267 370.22 77.52 370.967 77.52H374.647V86H373.239V82.768H371.079L369.015 86H367.447ZM369.175 80.144C369.175 80.592 369.303 80.9333 369.559 81.168C369.826 81.4027 370.268 81.52 370.887 81.52H373.239V78.768H370.887C370.268 78.768 369.826 78.8853 369.559 79.12C369.303 79.3547 369.175 79.696 369.175 80.144ZM376.732 78L380.252 80.976V82.224L376.732 85.2V83.632L379.132 81.632L376.732 79.632V78ZM380.412 78L383.932 80.976V82.224L380.412 85.2V83.632L382.812 81.632L380.412 79.632V78Z" fill="#21201F"/>
</g>
<g class="flow-step reveal reveal--fade" data-delay="4">
<rect x="448" y="24" width="206" height="76" rx="4" fill="white" fill-opacity="0.72"/>
<path d="M461.2 62.16C460.635 62.16 460.101 62.096 459.6 61.968C459.109 61.8293 458.667 61.6213 458.272 61.344C457.888 61.056 457.568 60.688 457.312 60.24C457.056 59.792 456.885 59.2587 456.8 58.64H458.4C458.496 59.28 458.779 59.8027 459.248 60.208C459.717 60.6133 460.368 60.816 461.2 60.816C461.531 60.816 461.872 60.7573 462.224 60.64C462.576 60.512 462.901 60.304 463.2 60.016C463.509 59.728 463.76 59.3333 463.952 58.832C464.155 58.3307 464.272 57.7067 464.304 56.96H459.84V55.68H464.304C464.261 54.7307 464.085 53.9893 463.776 53.456C463.467 52.9227 463.083 52.544 462.624 52.32C462.176 52.096 461.701 51.984 461.2 51.984C460.443 51.984 459.824 52.1653 459.344 52.528C458.864 52.8907 458.549 53.4347 458.4 54.16H456.8C456.864 53.6053 457.013 53.1093 457.248 52.672C457.493 52.2347 457.808 51.8667 458.192 51.568C458.576 51.2693 459.019 51.04 459.52 50.88C460.032 50.72 460.592 50.64 461.2 50.64C461.829 50.64 462.427 50.7413 462.992 50.944C463.557 51.1467 464.059 51.4667 464.496 51.904C464.933 52.3413 465.28 52.912 465.536 53.616C465.792 54.32 465.92 55.168 465.92 56.16V56.48C465.92 57.5147 465.792 58.3947 465.536 59.12C465.28 59.8453 464.933 60.432 464.496 60.88C464.059 61.328 463.557 61.6533 462.992 61.856C462.427 62.0587 461.829 62.16 461.2 62.16ZM467.995 62V53.52H469.403V57.072H470.523L473.691 53.52H475.355L471.675 57.584L475.515 62H473.723L470.523 58.288H469.403V62H467.995ZM477.038 65.2V53.52H478.35V55.12C478.638 54.5547 479.038 54.1227 479.55 53.824C480.073 53.5147 480.675 53.36 481.358 53.36C482.425 53.36 483.278 53.712 483.918 54.416C484.558 55.1093 484.878 56.144 484.878 57.52V57.84C484.878 58.8 484.729 59.6 484.43 60.24C484.142 60.88 483.731 61.36 483.198 61.68C482.675 62 482.062 62.16 481.358 62.16C480.633 62.16 480.025 62 479.534 61.68C479.054 61.36 478.691 60.96 478.446 60.48V65.2H477.038ZM481.038 60.912C481.731 60.912 482.307 60.6507 482.766 60.128C483.235 59.6053 483.47 58.8427 483.47 57.84V57.52C483.47 56.592 483.235 55.8773 482.766 55.376C482.307 54.864 481.731 54.608 481.038 54.608C480.526 54.608 480.073 54.7147 479.678 54.928C479.294 55.1413 478.99 55.4347 478.766 55.808C478.553 56.1707 478.446 56.5813 478.446 57.04V58.32C478.446 58.832 478.553 59.2853 478.766 59.68C478.99 60.064 479.294 60.368 479.678 60.592C480.073 60.8053 480.526 60.912 481.038 60.912ZM489.138 62.16C488.519 62.16 487.991 62.048 487.554 61.824C487.127 61.5893 486.802 61.2747 486.578 60.88C486.354 60.4747 486.242 60.0213 486.242 59.52C486.242 58.6773 486.487 58.0693 486.978 57.696C487.479 57.3227 488.194 57.136 489.122 57.136H491.874V56.56C491.874 55.8347 491.709 55.3333 491.378 55.056C491.058 54.7787 490.573 54.64 489.922 54.64C489.314 54.64 488.871 54.7573 488.594 54.992C488.317 55.216 488.162 55.472 488.13 55.76H486.722C486.754 55.3013 486.909 54.896 487.186 54.544C487.463 54.1813 487.842 53.8933 488.322 53.68C488.802 53.4667 489.362 53.36 490.002 53.36C490.674 53.36 491.255 53.4667 491.746 53.68C492.237 53.8827 492.615 54.208 492.882 54.656C493.149 55.0933 493.282 55.6747 493.282 56.4V59.84C493.282 60.288 493.282 60.6827 493.282 61.024C493.293 61.3547 493.319 61.68 493.362 62H492.13C492.098 61.7547 492.077 61.5253 492.066 61.312C492.055 61.088 492.05 60.8373 492.05 60.56C491.826 61.008 491.463 61.3867 490.962 61.696C490.461 62.0053 489.853 62.16 489.138 62.16ZM489.442 60.88C489.89 60.88 490.295 60.8 490.658 60.64C491.031 60.48 491.325 60.2453 491.538 59.936C491.762 59.6267 491.874 59.248 491.874 58.8V58.224H489.362C488.839 58.224 488.429 58.3307 488.13 58.544C487.831 58.7467 487.682 59.072 487.682 59.52C487.682 59.9147 487.821 60.24 488.098 60.496C488.386 60.752 488.834 60.88 489.442 60.88ZM495.609 62V53.52H497.017V57.056H501.401V53.52H502.809V62H501.401V58.304H497.017V62H495.609ZM456.32 88V84.752H457.36C457.52 84.5387 457.659 84.1813 457.776 83.68C457.893 83.168 457.984 82.5707 458.048 81.888C458.123 81.2053 458.16 80.496 458.16 79.76V77.52H464.08V84.752H465.28V88H463.936V86H457.664V88H456.32ZM458.8 84.752H462.672V78.768H459.536V80.08C459.536 80.976 459.472 81.8453 459.344 82.688C459.227 83.52 459.045 84.208 458.8 84.752ZM470.328 86.16C469.613 86.16 468.941 86.0053 468.312 85.696C467.693 85.376 467.192 84.896 466.808 84.256C466.434 83.616 466.248 82.8107 466.248 81.84V81.52C466.248 80.6027 466.434 79.8347 466.808 79.216C467.192 78.5973 467.693 78.1333 468.312 77.824C468.941 77.5147 469.613 77.36 470.328 77.36C471.053 77.36 471.725 77.5147 472.344 77.824C472.962 78.1333 473.458 78.5973 473.832 79.216C474.216 79.8347 474.408 80.6027 474.408 81.52V81.84C474.408 82.8107 474.216 83.616 473.832 84.256C473.458 84.896 472.962 85.376 472.344 85.696C471.725 86.0053 471.053 86.16 470.328 86.16ZM470.328 84.88C470.765 84.88 471.181 84.784 471.576 84.592C471.981 84.3893 472.312 84.064 472.568 83.616C472.834 83.168 472.968 82.576 472.968 81.84V81.52C472.968 80.8373 472.834 80.288 472.568 79.872C472.312 79.4453 471.981 79.136 471.576 78.944C471.181 78.7413 470.765 78.64 470.328 78.64C469.901 78.64 469.485 78.7413 469.08 78.944C468.674 79.136 468.338 79.4453 468.072 79.872C467.816 80.288 467.688 80.8373 467.688 81.52V81.84C467.688 82.576 467.816 83.168 468.072 83.616C468.338 84.064 468.674 84.3893 469.08 84.592C469.485 84.784 469.901 84.88 470.328 84.88ZM479.761 86.16C479.015 86.16 478.337 85.9733 477.729 85.6C477.132 85.216 476.652 84.6667 476.289 83.952C475.937 83.2373 475.761 82.3733 475.761 81.36V81.04C475.761 79.76 475.889 78.6667 476.145 77.76C476.412 76.8533 476.86 76.1493 477.489 75.648C478.119 75.136 478.983 74.8533 480.081 74.8C480.529 74.7787 480.94 74.7627 481.313 74.752C481.687 74.7307 482.023 74.6987 482.321 74.656C482.62 74.6027 482.887 74.5173 483.121 74.4V75.76C483.015 75.824 482.839 75.8773 482.593 75.92C482.359 75.9627 482.055 76 481.681 76.032C481.308 76.0533 480.855 76.0747 480.321 76.096C479.639 76.1067 479.063 76.2187 478.593 76.432C478.135 76.6453 477.777 76.9867 477.521 77.456C477.265 77.9253 477.105 78.56 477.041 79.36C477.212 78.976 477.447 78.6507 477.745 78.384C478.044 78.1067 478.391 77.8933 478.785 77.744C479.18 77.5947 479.612 77.52 480.081 77.52C480.807 77.52 481.441 77.68 481.985 78C482.54 78.32 482.972 78.7787 483.281 79.376C483.601 79.9733 483.761 80.688 483.761 81.52V81.84C483.761 82.7147 483.585 83.4773 483.233 84.128C482.892 84.768 482.417 85.2693 481.809 85.632C481.212 85.984 480.529 86.16 479.761 86.16ZM479.761 84.88C480.508 84.88 481.121 84.624 481.601 84.112C482.081 83.5893 482.321 82.832 482.321 81.84V81.52C482.321 80.6987 482.081 80.0427 481.601 79.552C481.121 79.0507 480.508 78.8 479.761 78.8C479.015 78.8 478.401 79.0507 477.921 79.552C477.441 80.0427 477.201 80.6987 477.201 81.52V81.84C477.201 82.4693 477.313 83.0133 477.537 83.472C477.772 83.92 478.081 84.2667 478.465 84.512C478.86 84.7573 479.292 84.88 479.761 84.88ZM488.013 86.16C487.394 86.16 486.866 86.048 486.429 85.824C486.002 85.5893 485.677 85.2747 485.453 84.88C485.229 84.4747 485.117 84.0213 485.117 83.52C485.117 82.6773 485.362 82.0693 485.853 81.696C486.354 81.3227 487.069 81.136 487.997 81.136H490.749V80.56C490.749 79.8347 490.584 79.3333 490.253 79.056C489.933 78.7787 489.448 78.64 488.797 78.64C488.189 78.64 487.746 78.7573 487.469 78.992C487.192 79.216 487.037 79.472 487.005 79.76H485.597C485.629 79.3013 485.784 78.896 486.061 78.544C486.338 78.1813 486.717 77.8933 487.197 77.68C487.677 77.4667 488.237 77.36 488.877 77.36C489.549 77.36 490.13 77.4667 490.621 77.68C491.112 77.8827 491.49 78.208 491.757 78.656C492.024 79.0933 492.157 79.6747 492.157 80.4V83.84C492.157 84.288 492.157 84.6827 492.157 85.024C492.168 85.3547 492.194 85.68 492.237 86H491.005C490.973 85.7547 490.952 85.5253 490.941 85.312C490.93 85.088 490.925 84.8373 490.925 84.56C490.701 85.008 490.338 85.3867 489.837 85.696C489.336 86.0053 488.728 86.16 488.013 86.16ZM488.317 84.88C488.765 84.88 489.17 84.8 489.533 84.64C489.906 84.48 490.2 84.2453 490.413 83.936C490.637 83.6267 490.749 83.248 490.749 82.8V82.224H488.237C487.714 82.224 487.304 82.3307 487.005 82.544C486.706 82.7467 486.557 83.072 486.557 83.52C486.557 83.9147 486.696 84.24 486.973 84.496C487.261 84.752 487.709 84.88 488.317 84.88ZM494.484 86V77.52H498.164C498.868 77.52 499.444 77.6213 499.892 77.824C500.34 78.016 500.67 78.288 500.884 78.64C501.097 78.9813 501.204 79.3813 501.204 79.84C501.204 80.2133 501.081 80.5707 500.836 80.912C500.601 81.2427 500.297 81.472 499.924 81.6C500.446 81.728 500.841 81.9733 501.108 82.336C501.385 82.688 501.524 83.104 501.524 83.584C501.524 84.32 501.278 84.9067 500.788 85.344C500.297 85.7813 499.529 86 498.484 86H494.484ZM495.892 84.752H498.484C499.081 84.752 499.502 84.6453 499.748 84.432C499.993 84.2187 500.116 83.9147 500.116 83.52C500.116 83.1147 499.993 82.8053 499.748 82.592C499.502 82.368 499.081 82.256 498.484 82.256H495.892V84.752ZM495.892 81.104H498.164C498.772 81.104 499.193 80.9973 499.428 80.784C499.673 80.5707 499.796 80.2773 499.796 79.904C499.796 79.552 499.673 79.2747 499.428 79.072C499.193 78.8693 498.772 78.768 498.164 78.768H495.892V81.104ZM502.971 86.16C502.896 86.16 502.816 86.1547 502.731 86.144C502.656 86.1333 502.576 86.1227 502.491 86.112V84.704C502.523 84.7147 502.603 84.72 502.731 84.72C503.051 84.72 503.312 84.5813 503.515 84.304C503.717 84.016 503.861 83.5147 503.947 82.8C504.043 82.0747 504.091 81.0613 504.091 79.76V77.52H510.171V86H508.763V78.768H505.499V80.08C505.499 81.264 505.445 82.2507 505.339 83.04C505.232 83.8187 505.072 84.4373 504.859 84.896C504.656 85.3547 504.395 85.68 504.075 85.872C503.755 86.064 503.387 86.16 502.971 86.16ZM516.09 86.16C515.375 86.16 514.703 86.0053 514.074 85.696C513.455 85.3867 512.954 84.912 512.57 84.272C512.197 83.632 512.01 82.8213 512.01 81.84V81.52C512.01 80.5813 512.191 79.808 512.554 79.2C512.917 78.5813 513.397 78.1227 513.994 77.824C514.591 77.5147 515.237 77.36 515.93 77.36C517.178 77.36 518.143 77.7013 518.826 78.384C519.509 79.0667 519.85 80.032 519.85 81.28V82.176H513.418C513.418 82.8373 513.551 83.3653 513.818 83.76C514.095 84.1547 514.437 84.4427 514.842 84.624C515.258 84.7947 515.674 84.88 516.09 84.88C516.73 84.88 517.221 84.7733 517.562 84.56C517.914 84.3467 518.165 84.0533 518.314 83.68H519.69C519.519 84.4907 519.098 85.1093 518.426 85.536C517.765 85.952 516.986 86.16 516.09 86.16ZM516.01 78.64C515.573 78.64 515.157 78.7253 514.762 78.896C514.367 79.056 514.042 79.312 513.786 79.664C513.541 80.016 513.418 80.4693 513.418 81.024H518.522C518.511 80.4373 518.389 79.9733 518.154 79.632C517.93 79.28 517.631 79.0293 517.258 78.88C516.885 78.72 516.469 78.64 516.01 78.64ZM521.691 86V77.52H523.099V81.056H527.483V77.52H528.891V86H527.483V82.304H523.099V86H521.691ZM531.297 86V77.52H532.705V83.92L537.089 77.52H538.497V86H537.089V79.6L532.705 86H531.297ZM540.262 86L542.566 82.64C541.862 82.48 541.356 82.192 541.046 81.776C540.737 81.3493 540.582 80.8053 540.582 80.144C540.582 79.5893 540.694 79.12 540.918 78.736C541.142 78.3413 541.489 78.0427 541.958 77.84C542.428 77.6267 543.036 77.52 543.782 77.52H547.462V86H546.054V82.768H543.894L541.83 86H540.262ZM541.99 80.144C541.99 80.592 542.118 80.9333 542.374 81.168C542.641 81.4027 543.084 81.52 543.702 81.52H546.054V78.768H543.702C543.084 78.768 542.641 78.8853 542.374 79.12C542.118 79.3547 541.99 79.696 541.99 80.144ZM552.747 88V84.752H553.787C553.947 84.5387 554.086 84.1813 554.203 83.68C554.321 83.168 554.411 82.5707 554.475 81.888C554.55 81.2053 554.587 80.496 554.587 79.76V77.52H560.507V84.752H561.707V88H560.363V86H554.091V88H552.747ZM555.227 84.752H559.099V78.768H555.963V80.08C555.963 80.976 555.899 81.8453 555.771 82.688C555.654 83.52 555.473 84.208 555.227 84.752ZM565.807 86.16C565.189 86.16 564.661 86.048 564.223 85.824C563.797 85.5893 563.471 85.2747 563.247 84.88C563.023 84.4747 562.911 84.0213 562.911 83.52C562.911 82.6773 563.157 82.0693 563.647 81.696C564.149 81.3227 564.863 81.136 565.791 81.136H568.543V80.56C568.543 79.8347 568.378 79.3333 568.047 79.056C567.727 78.7787 567.242 78.64 566.591 78.64C565.983 78.64 565.541 78.7573 565.263 78.992C564.986 79.216 564.831 79.472 564.799 79.76H563.391C563.423 79.3013 563.578 78.896 563.855 78.544C564.133 78.1813 564.511 77.8933 564.991 77.68C565.471 77.4667 566.031 77.36 566.671 77.36C567.343 77.36 567.925 77.4667 568.415 77.68C568.906 77.8827 569.285 78.208 569.551 78.656C569.818 79.0933 569.951 79.6747 569.951 80.4V83.84C569.951 84.288 569.951 84.6827 569.951 85.024C569.962 85.3547 569.989 85.68 570.031 86H568.799C568.767 85.7547 568.746 85.5253 568.735 85.312C568.725 85.088 568.719 84.8373 568.719 84.56C568.495 85.008 568.133 85.3867 567.631 85.696C567.13 86.0053 566.522 86.16 565.807 86.16ZM566.111 84.88C566.559 84.88 566.965 84.8 567.327 84.64C567.701 84.48 567.994 84.2453 568.207 83.936C568.431 83.6267 568.543 83.248 568.543 82.8V82.224H566.031C565.509 82.224 565.098 82.3307 564.799 82.544C564.501 82.7467 564.351 83.072 564.351 83.52C564.351 83.9147 564.49 84.24 564.767 84.496C565.055 84.752 565.503 84.88 566.111 84.88ZM572.278 89.2V77.52H573.59V79.12C573.878 78.5547 574.278 78.1227 574.79 77.824C575.313 77.5147 575.915 77.36 576.598 77.36C577.665 77.36 578.518 77.712 579.158 78.416C579.798 79.1093 580.118 80.144 580.118 81.52V81.84C580.118 82.8 579.969 83.6 579.67 84.24C579.382 84.88 578.971 85.36 578.438 85.68C577.915 86 577.302 86.16 576.598 86.16C575.873 86.16 575.265 86 574.774 85.68C574.294 85.36 573.931 84.96 573.686 84.48V89.2H572.278ZM576.278 84.912C576.971 84.912 577.547 84.6507 578.006 84.128C578.475 83.6053 578.71 82.8427 578.71 81.84V81.52C578.71 80.592 578.475 79.8773 578.006 79.376C577.547 78.864 576.971 78.608 576.278 78.608C575.766 78.608 575.313 78.7147 574.918 78.928C574.534 79.1413 574.23 79.4347 574.006 79.808C573.793 80.1707 573.686 80.5813 573.686 81.04V82.32C573.686 82.832 573.793 83.2853 574.006 83.68C574.23 84.064 574.534 84.368 574.918 84.592C575.313 84.8053 575.766 84.912 576.278 84.912ZM581.962 86V77.52H583.37V81.072H584.49L587.658 77.52H589.322L585.642 81.584L589.482 86H587.69L584.49 82.288H583.37V86H581.962ZM593.973 86.16C593.247 86.16 592.591 86.0053 592.005 85.696C591.429 85.376 590.97 84.896 590.629 84.256C590.298 83.616 590.133 82.8107 590.133 81.84V81.52C590.133 80.6027 590.314 79.8347 590.677 79.216C591.039 78.5973 591.514 78.1333 592.101 77.824C592.687 77.5147 593.311 77.36 593.973 77.36C594.645 77.36 595.221 77.4827 595.701 77.728C596.191 77.9627 596.586 78.288 596.885 78.704C597.183 79.1093 597.386 79.568 597.493 80.08H596.053C595.882 79.6747 595.642 79.3333 595.333 79.056C595.034 78.7787 594.581 78.64 593.973 78.64C593.557 78.64 593.167 78.7413 592.805 78.944C592.442 79.136 592.143 79.4453 591.909 79.872C591.685 80.288 591.573 80.8373 591.573 81.52V81.84C591.573 82.5653 591.685 83.152 591.909 83.6C592.143 84.048 592.442 84.3733 592.805 84.576C593.167 84.7787 593.557 84.88 593.973 84.88C594.495 84.88 594.933 84.752 595.285 84.496C595.647 84.24 595.903 83.888 596.053 83.44H597.493C597.365 83.9947 597.135 84.48 596.805 84.896C596.474 85.3013 596.069 85.616 595.589 85.84C595.109 86.0533 594.57 86.16 593.973 86.16ZM601.187 86V78.768H598.291V77.52H605.491V78.768H602.595V86H601.187ZM610.299 86.16C609.584 86.16 608.912 86.0053 608.283 85.696C607.664 85.376 607.163 84.896 606.779 84.256C606.405 83.616 606.219 82.8107 606.219 81.84V81.52C606.219 80.6027 606.405 79.8347 606.779 79.216C607.163 78.5973 607.664 78.1333 608.283 77.824C608.912 77.5147 609.584 77.36 610.299 77.36C611.024 77.36 611.696 77.5147 612.315 77.824C612.933 78.1333 613.429 78.5973 613.803 79.216C614.187 79.8347 614.379 80.6027 614.379 81.52V81.84C614.379 82.8107 614.187 83.616 613.803 84.256C613.429 84.896 612.933 85.376 612.315 85.696C611.696 86.0053 611.024 86.16 610.299 86.16ZM610.299 84.88C610.736 84.88 611.152 84.784 611.547 84.592C611.952 84.3893 612.283 84.064 612.539 83.616C612.805 83.168 612.939 82.576 612.939 81.84V81.52C612.939 80.8373 612.805 80.288 612.539 79.872C612.283 79.4453 611.952 79.136 611.547 78.944C611.152 78.7413 610.736 78.64 610.299 78.64C609.872 78.64 609.456 78.7413 609.051 78.944C608.645 79.136 608.309 79.4453 608.043 79.872C607.787 80.288 607.659 80.8373 607.659 81.52V81.84C607.659 82.576 607.787 83.168 608.043 83.616C608.309 84.064 608.645 84.3893 609.051 84.592C609.456 84.784 609.872 84.88 610.299 84.88ZM616.212 89.2V77.52H617.524V79.12C617.812 78.5547 618.212 78.1227 618.724 77.824C619.247 77.5147 619.85 77.36 620.532 77.36C621.599 77.36 622.452 77.712 623.092 78.416C623.732 79.1093 624.052 80.144 624.052 81.52V81.84C624.052 82.8 623.903 83.6 623.604 84.24C623.316 84.88 622.906 85.36 622.372 85.68C621.85 86 621.236 86.16 620.532 86.16C619.807 86.16 619.199 86 618.708 85.68C618.228 85.36 617.866 84.96 617.62 84.48V89.2H616.212ZM620.212 84.912C620.906 84.912 621.482 84.6507 621.94 84.128C622.41 83.6053 622.644 82.8427 622.644 81.84V81.52C622.644 80.592 622.41 79.8773 621.94 79.376C621.482 78.864 620.906 78.608 620.212 78.608C619.7 78.608 619.247 78.7147 618.852 78.928C618.468 79.1413 618.164 79.4347 617.94 79.808C617.727 80.1707 617.62 80.5813 617.62 81.04V82.32C617.62 82.832 617.727 83.2853 617.94 83.68C618.164 84.064 618.468 84.368 618.852 84.592C619.247 84.8053 619.7 84.912 620.212 84.912ZM629.416 86.16C628.702 86.16 628.03 86.0053 627.4 85.696C626.782 85.376 626.28 84.896 625.896 84.256C625.523 83.616 625.336 82.8107 625.336 81.84V81.52C625.336 80.6027 625.523 79.8347 625.896 79.216C626.28 78.5973 626.782 78.1333 627.4 77.824C628.03 77.5147 628.702 77.36 629.416 77.36C630.142 77.36 630.814 77.5147 631.432 77.824C632.051 78.1333 632.547 78.5973 632.92 79.216C633.304 79.8347 633.496 80.6027 633.496 81.52V81.84C633.496 82.8107 633.304 83.616 632.92 84.256C632.547 84.896 632.051 85.376 631.432 85.696C630.814 86.0053 630.142 86.16 629.416 86.16ZM629.416 84.88C629.854 84.88 630.27 84.784 630.664 84.592C631.07 84.3893 631.4 84.064 631.656 83.616C631.923 83.168 632.056 82.576 632.056 81.84V81.52C632.056 80.8373 631.923 80.288 631.656 79.872C631.4 79.4453 631.07 79.136 630.664 78.944C630.27 78.7413 629.854 78.64 629.416 78.64C628.99 78.64 628.574 78.7413 628.168 78.944C627.763 79.136 627.427 79.4453 627.16 79.872C626.904 80.288 626.776 80.8373 626.776 81.52V81.84C626.776 82.576 626.904 83.168 627.16 83.616C627.427 84.064 627.763 84.3893 628.168 84.592C628.574 84.784 628.99 84.88 629.416 84.88ZM635.33 86V77.52H639.01C639.714 77.52 640.29 77.6213 640.738 77.824C641.186 78.016 641.517 78.288 641.73 78.64C641.943 78.9813 642.05 79.3813 642.05 79.84C642.05 80.2133 641.927 80.5707 641.682 80.912C641.447 81.2427 641.143 81.472 640.77 81.6C641.293 81.728 641.687 81.9733 641.954 82.336C642.231 82.688 642.37 83.104 642.37 83.584C642.37 84.32 642.125 84.9067 641.634 85.344C641.143 85.7813 640.375 86 639.33 86H635.33ZM636.738 84.752H639.33C639.927 84.752 640.349 84.6453 640.594 84.432C640.839 84.2187 640.962 83.9147 640.962 83.52C640.962 83.1147 640.839 82.8053 640.594 82.592C640.349 82.368 639.927 82.256 639.33 82.256H636.738V84.752ZM636.738 81.104H639.01C639.618 81.104 640.039 80.9973 640.274 80.784C640.519 80.5707 640.642 80.2773 640.642 79.904C640.642 79.552 640.519 79.2747 640.274 79.072C640.039 78.8693 639.618 78.768 639.01 78.768H636.738V81.104Z" fill="#21201F"/>
</g>
<g class="flow-step reveal reveal--fade" data-delay="1">
<circle cx="204" cy="80.3301" r="3" fill="#E07E92"/>
<path d="M237 80.3301L229.5 84.6602V81.3301L205 81.33V79.33L229.5 79.3301V76L237 80.3301Z" fill="#E07E92"/>
</g>
<g class="flow-step reveal reveal--fade" data-delay="3">
<circle cx="416" cy="80.3301" r="3" fill="#E07E92"/>
<path d="M449 80.3301L441.5 84.6602V81.3301L417 81.33V79.33L441.5 79.3301V76L449 80.3301Z" fill="#E07E92"/>
<path d="M25.6 134V122.8H32.88V124.096H27.104V127.28H29.6C31.0827 127.28 32.1707 127.589 32.864 128.208C33.568 128.827 33.92 129.637 33.92 130.64C33.92 131.643 33.568 132.453 32.864 133.072C32.1707 133.691 31.0827 134 29.6 134H25.6ZM27.104 132.688H29.52C30.5867 132.688 31.3333 132.512 31.76 132.16C32.1973 131.797 32.416 131.291 32.416 130.64C32.416 129.989 32.1973 129.488 31.76 129.136C31.3333 128.773 30.5867 128.592 29.52 128.592H27.104V132.688ZM35.2044 134.16C35.1297 134.16 35.0497 134.155 34.9644 134.144C34.8897 134.133 34.8097 134.123 34.7244 134.112V132.704C34.7564 132.715 34.8364 132.72 34.9644 132.72C35.2844 132.72 35.5457 132.581 35.7484 132.304C35.951 132.016 36.095 131.515 36.1804 130.8C36.2764 130.075 36.3244 129.061 36.3244 127.76V125.52H42.4044V134H40.9964V126.768H37.7324V128.08C37.7324 129.264 37.679 130.251 37.5724 131.04C37.4657 131.819 37.3057 132.437 37.0924 132.896C36.8897 133.355 36.6284 133.68 36.3084 133.872C35.9884 134.064 35.6204 134.16 35.2044 134.16ZM48.3238 134.16C47.6091 134.16 46.9371 134.005 46.3078 133.696C45.6891 133.376 45.1878 132.896 44.8038 132.256C44.4304 131.616 44.2438 130.811 44.2438 129.84V129.52C44.2438 128.603 44.4304 127.835 44.8038 127.216C45.1878 126.597 45.6891 126.133 46.3078 125.824C46.9371 125.515 47.6091 125.36 48.3238 125.36C49.0491 125.36 49.7211 125.515 50.3398 125.824C50.9584 126.133 51.4544 126.597 51.8278 127.216C52.2118 127.835 52.4038 128.603 52.4038 129.52V129.84C52.4038 130.811 52.2118 131.616 51.8278 132.256C51.4544 132.896 50.9584 133.376 50.3398 133.696C49.7211 134.005 49.0491 134.16 48.3238 134.16ZM48.3238 132.88C48.7611 132.88 49.1771 132.784 49.5718 132.592C49.9771 132.389 50.3078 132.064 50.5638 131.616C50.8304 131.168 50.9638 130.576 50.9638 129.84V129.52C50.9638 128.837 50.8304 128.288 50.5638 127.872C50.3078 127.445 49.9771 127.136 49.5718 126.944C49.1771 126.741 48.7611 126.64 48.3238 126.64C47.8971 126.64 47.4811 126.741 47.0758 126.944C46.6704 127.136 46.3344 127.445 46.0678 127.872C45.8118 128.288 45.6838 128.837 45.6838 129.52V129.84C45.6838 130.576 45.8118 131.168 46.0678 131.616C46.3344 132.064 46.6704 132.389 47.0758 132.592C47.4811 132.784 47.8971 132.88 48.3238 132.88ZM54.2375 134V125.52H55.6455V129.072H56.7655L59.9335 125.52H61.5975L57.9175 129.584L61.7575 134H59.9655L56.7655 130.288H55.6455V134H54.2375ZM62 130.176V128.864H66.8V130.176H62ZM71.8381 134.16C71.1128 134.16 70.4568 134.005 69.8701 133.696C69.2941 133.376 68.8355 132.896 68.4941 132.256C68.1635 131.616 67.9981 130.811 67.9981 129.84V129.52C67.9981 128.603 68.1795 127.835 68.5421 127.216C68.9048 126.597 69.3795 126.133 69.9661 125.824C70.5528 125.515 71.1768 125.36 71.8381 125.36C72.5101 125.36 73.0861 125.483 73.5661 125.728C74.0568 125.963 74.4515 126.288 74.7501 126.704C75.0488 127.109 75.2515 127.568 75.3581 128.08H73.9181C73.7475 127.675 73.5075 127.333 73.1981 127.056C72.8995 126.779 72.4461 126.64 71.8381 126.64C71.4221 126.64 71.0328 126.741 70.6701 126.944C70.3075 127.136 70.0088 127.445 69.7741 127.872C69.5501 128.288 69.4381 128.837 69.4381 129.52V129.84C69.4381 130.565 69.5501 131.152 69.7741 131.6C70.0088 132.048 70.3075 132.373 70.6701 132.576C71.0328 132.779 71.4221 132.88 71.8381 132.88C72.3608 132.88 72.7981 132.752 73.1501 132.496C73.5128 132.24 73.7688 131.888 73.9181 131.44H75.3581C75.2301 131.995 75.0008 132.48 74.6701 132.896C74.3395 133.301 73.9341 133.616 73.4541 133.84C72.9741 134.053 72.4355 134.16 71.8381 134.16ZM76.0806 134L79.2646 129.696L76.2406 125.52H77.8726L80.1126 128.608L82.3526 125.52H83.9206L80.8966 129.616L84.0806 134H82.4166L80.0486 130.688L77.6806 134H76.0806ZM88.805 134.16C88.0903 134.16 87.4183 134.005 86.789 133.696C86.1703 133.387 85.669 132.912 85.285 132.272C84.9117 131.632 84.725 130.821 84.725 129.84V129.52C84.725 128.581 84.9063 127.808 85.269 127.2C85.6317 126.581 86.1117 126.123 86.709 125.824C87.3063 125.515 87.9517 125.36 88.645 125.36C89.893 125.36 90.8583 125.701 91.541 126.384C92.2237 127.067 92.565 128.032 92.565 129.28V130.176H86.133C86.133 130.837 86.2663 131.365 86.533 131.76C86.8103 132.155 87.1517 132.443 87.557 132.624C87.973 132.795 88.389 132.88 88.805 132.88C89.445 132.88 89.9357 132.773 90.277 132.56C90.629 132.347 90.8797 132.053 91.029 131.68H92.405C92.2343 132.491 91.813 133.109 91.141 133.536C90.4797 133.952 89.701 134.16 88.805 134.16ZM88.725 126.64C88.2877 126.64 87.8717 126.725 87.477 126.896C87.0823 127.056 86.757 127.312 86.501 127.664C86.2557 128.016 86.133 128.469 86.133 129.024H91.237C91.2263 128.437 91.1037 127.973 90.869 127.632C90.645 127.28 90.3463 127.029 89.973 126.88C89.5997 126.72 89.1837 126.64 88.725 126.64ZM94.4063 134V125.52H95.9103L98.9343 130.8L101.958 125.52H103.366V134H101.958V127.84L99.4463 132.16H98.3263L95.8143 127.84V134H94.4063ZM108.178 134.16C107.559 134.16 107.031 134.048 106.594 133.824C106.167 133.589 105.842 133.275 105.618 132.88C105.394 132.475 105.282 132.021 105.282 131.52C105.282 130.677 105.527 130.069 106.018 129.696C106.519 129.323 107.234 129.136 108.162 129.136H110.914V128.56C110.914 127.835 110.749 127.333 110.418 127.056C110.098 126.779 109.613 126.64 108.962 126.64C108.354 126.64 107.911 126.757 107.634 126.992C107.357 127.216 107.202 127.472 107.17 127.76H105.762C105.794 127.301 105.949 126.896 106.226 126.544C106.503 126.181 106.882 125.893 107.362 125.68C107.842 125.467 108.402 125.36 109.042 125.36C109.714 125.36 110.295 125.467 110.786 125.68C111.277 125.883 111.655 126.208 111.922 126.656C112.189 127.093 112.322 127.675 112.322 128.4V131.84C112.322 132.288 112.322 132.683 112.322 133.024C112.333 133.355 112.359 133.68 112.402 134H111.17C111.138 133.755 111.117 133.525 111.106 133.312C111.095 133.088 111.09 132.837 111.09 132.56C110.866 133.008 110.503 133.387 110.002 133.696C109.501 134.005 108.893 134.16 108.178 134.16ZM108.482 132.88C108.93 132.88 109.335 132.8 109.698 132.64C110.071 132.48 110.365 132.245 110.578 131.936C110.802 131.627 110.914 131.248 110.914 130.8V130.224H108.402C107.879 130.224 107.469 130.331 107.17 130.544C106.871 130.747 106.722 131.072 106.722 131.52C106.722 131.915 106.861 132.24 107.138 132.496C107.426 132.752 107.874 132.88 108.482 132.88ZM118.489 134V125.52H125.529V134H124.121V126.768H119.897V134H118.489ZM129.043 137.36C128.883 137.36 128.723 137.344 128.563 137.312V136.032C128.723 136.064 128.883 136.08 129.043 136.08C129.256 136.08 129.432 136.027 129.571 135.92C129.72 135.824 129.869 135.627 130.019 135.328C130.168 135.029 130.349 134.587 130.563 134L126.963 125.52H128.531L131.283 132.4L133.779 125.52H135.283L132.083 134C131.784 134.8 131.496 135.445 131.219 135.936C130.952 136.427 130.648 136.784 130.307 137.008C129.976 137.243 129.555 137.36 129.043 137.36ZM138.964 134V126.768H136.068V125.52H143.268V126.768H140.372V134H138.964ZM144.712 134V125.52H146.12V128.72H148.152C149.219 128.72 150.003 128.955 150.504 129.424C151.016 129.893 151.272 130.544 151.272 131.376C151.272 131.909 151.16 132.373 150.936 132.768C150.712 133.163 150.371 133.467 149.912 133.68C149.453 133.893 148.867 134 148.152 134H144.712ZM146.12 132.752H148.072C148.733 132.752 149.197 132.635 149.464 132.4C149.731 132.165 149.864 131.819 149.864 131.36C149.864 130.901 149.731 130.555 149.464 130.32C149.197 130.085 148.733 129.968 148.072 129.968H146.12V132.752ZM155.838 136V132.752H156.878C157.038 132.539 157.177 132.181 157.294 131.68C157.411 131.168 157.502 130.571 157.566 129.888C157.641 129.205 157.678 128.496 157.678 127.76V125.52H163.598V132.752H164.798V136H163.454V134H157.182V136H155.838ZM158.318 132.752H162.19V126.768H159.054V128.08C159.054 128.976 158.99 129.845 158.862 130.688C158.745 131.52 158.563 132.208 158.318 132.752ZM169.846 134.16C169.131 134.16 168.459 134.005 167.83 133.696C167.211 133.376 166.71 132.896 166.326 132.256C165.952 131.616 165.766 130.811 165.766 129.84V129.52C165.766 128.603 165.952 127.835 166.326 127.216C166.71 126.597 167.211 126.133 167.83 125.824C168.459 125.515 169.131 125.36 169.846 125.36C170.571 125.36 171.243 125.515 171.862 125.824C172.48 126.133 172.976 126.597 173.35 127.216C173.734 127.835 173.926 128.603 173.926 129.52V129.84C173.926 130.811 173.734 131.616 173.35 132.256C172.976 132.896 172.48 133.376 171.862 133.696C171.243 134.005 170.571 134.16 169.846 134.16ZM169.846 132.88C170.283 132.88 170.699 132.784 171.094 132.592C171.499 132.389 171.83 132.064 172.086 131.616C172.352 131.168 172.486 130.576 172.486 129.84V129.52C172.486 128.837 172.352 128.288 172.086 127.872C171.83 127.445 171.499 127.136 171.094 126.944C170.699 126.741 170.283 126.64 169.846 126.64C169.419 126.64 169.003 126.741 168.598 126.944C168.192 127.136 167.856 127.445 167.59 127.872C167.334 128.288 167.206 128.837 167.206 129.52V129.84C167.206 130.576 167.334 131.168 167.59 131.616C167.856 132.064 168.192 132.389 168.598 132.592C169.003 132.784 169.419 132.88 169.846 132.88ZM179.279 134.16C178.533 134.16 177.855 133.973 177.247 133.6C176.65 133.216 176.17 132.667 175.807 131.952C175.455 131.237 175.279 130.373 175.279 129.36V129.04C175.279 127.76 175.407 126.667 175.663 125.76C175.93 124.853 176.378 124.149 177.007 123.648C177.637 123.136 178.501 122.853 179.599 122.8C180.047 122.779 180.458 122.763 180.831 122.752C181.205 122.731 181.541 122.699 181.839 122.656C182.138 122.603 182.405 122.517 182.639 122.4V123.76C182.533 123.824 182.357 123.877 182.111 123.92C181.877 123.963 181.573 124 181.199 124.032C180.826 124.053 180.373 124.075 179.839 124.096C179.157 124.107 178.581 124.219 178.111 124.432C177.653 124.645 177.295 124.987 177.039 125.456C176.783 125.925 176.623 126.56 176.559 127.36C176.73 126.976 176.965 126.651 177.263 126.384C177.562 126.107 177.909 125.893 178.303 125.744C178.698 125.595 179.13 125.52 179.599 125.52C180.325 125.52 180.959 125.68 181.503 126C182.058 126.32 182.49 126.779 182.799 127.376C183.119 127.973 183.279 128.688 183.279 129.52V129.84C183.279 130.715 183.103 131.477 182.751 132.128C182.41 132.768 181.935 133.269 181.327 133.632C180.73 133.984 180.047 134.16 179.279 134.16ZM179.279 132.88C180.026 132.88 180.639 132.624 181.119 132.112C181.599 131.589 181.839 130.832 181.839 129.84V129.52C181.839 128.699 181.599 128.043 181.119 127.552C180.639 127.051 180.026 126.8 179.279 126.8C178.533 126.8 177.919 127.051 177.439 127.552C176.959 128.043 176.719 128.699 176.719 129.52V129.84C176.719 130.469 176.831 131.013 177.055 131.472C177.29 131.92 177.599 132.267 177.983 132.512C178.378 132.757 178.81 132.88 179.279 132.88ZM187.531 134.16C186.912 134.16 186.384 134.048 185.947 133.824C185.52 133.589 185.195 133.275 184.971 132.88C184.747 132.475 184.635 132.021 184.635 131.52C184.635 130.677 184.88 130.069 185.371 129.696C185.872 129.323 186.587 129.136 187.515 129.136H190.267V128.56C190.267 127.835 190.102 127.333 189.771 127.056C189.451 126.779 188.966 126.64 188.315 126.64C187.707 126.64 187.264 126.757 186.987 126.992C186.71 127.216 186.555 127.472 186.523 127.76H185.115C185.147 127.301 185.302 126.896 185.579 126.544C185.856 126.181 186.235 125.893 186.715 125.68C187.195 125.467 187.755 125.36 188.395 125.36C189.067 125.36 189.648 125.467 190.139 125.68C190.63 125.883 191.008 126.208 191.275 126.656C191.542 127.093 191.675 127.675 191.675 128.4V131.84C191.675 132.288 191.675 132.683 191.675 133.024C191.686 133.355 191.712 133.68 191.755 134H190.523C190.491 133.755 190.47 133.525 190.459 133.312C190.448 133.088 190.443 132.837 190.443 132.56C190.219 133.008 189.856 133.387 189.355 133.696C188.854 134.005 188.246 134.16 187.531 134.16ZM187.835 132.88C188.283 132.88 188.688 132.8 189.051 132.64C189.424 132.48 189.718 132.245 189.931 131.936C190.155 131.627 190.267 131.248 190.267 130.8V130.224H187.755C187.232 130.224 186.822 130.331 186.523 130.544C186.224 130.747 186.075 131.072 186.075 131.52C186.075 131.915 186.214 132.24 186.491 132.496C186.779 132.752 187.227 132.88 187.835 132.88ZM194.002 134V125.52H197.682C198.386 125.52 198.962 125.621 199.41 125.824C199.858 126.016 200.189 126.288 200.402 126.64C200.615 126.981 200.722 127.381 200.722 127.84C200.722 128.213 200.599 128.571 200.354 128.912C200.119 129.243 199.815 129.472 199.442 129.6C199.965 129.728 200.359 129.973 200.626 130.336C200.903 130.688 201.042 131.104 201.042 131.584C201.042 132.32 200.797 132.907 200.306 133.344C199.815 133.781 199.047 134 198.002 134H194.002ZM195.41 132.752H198.002C198.599 132.752 199.021 132.645 199.266 132.432C199.511 132.219 199.634 131.915 199.634 131.52C199.634 131.115 199.511 130.805 199.266 130.592C199.021 130.368 198.599 130.256 198.002 130.256H195.41V132.752ZM195.41 129.104H197.682C198.29 129.104 198.711 128.997 198.946 128.784C199.191 128.571 199.314 128.277 199.314 127.904C199.314 127.552 199.191 127.275 198.946 127.072C198.711 126.869 198.29 126.768 197.682 126.768H195.41V129.104ZM202.489 134.16C202.414 134.16 202.334 134.155 202.249 134.144C202.174 134.133 202.094 134.123 202.009 134.112V132.704C202.041 132.715 202.121 132.72 202.249 132.72C202.569 132.72 202.83 132.581 203.033 132.304C203.235 132.016 203.379 131.515 203.465 130.8C203.561 130.075 203.609 129.061 203.609 127.76V125.52H209.689V134H208.281V126.768H205.017V128.08C205.017 129.264 204.963 130.251 204.857 131.04C204.75 131.819 204.59 132.437 204.377 132.896C204.174 133.355 203.913 133.68 203.593 133.872C203.273 134.064 202.905 134.16 202.489 134.16ZM215.608 134.16C214.893 134.16 214.221 134.005 213.592 133.696C212.973 133.387 212.472 132.912 212.088 132.272C211.715 131.632 211.528 130.821 211.528 129.84V129.52C211.528 128.581 211.709 127.808 212.072 127.2C212.435 126.581 212.915 126.123 213.512 125.824C214.109 125.515 214.755 125.36 215.448 125.36C216.696 125.36 217.661 125.701 218.344 126.384C219.027 127.067 219.368 128.032 219.368 129.28V130.176H212.936C212.936 130.837 213.069 131.365 213.336 131.76C213.613 132.155 213.955 132.443 214.36 132.624C214.776 132.795 215.192 132.88 215.608 132.88C216.248 132.88 216.739 132.773 217.08 132.56C217.432 132.347 217.683 132.053 217.832 131.68H219.208C219.037 132.491 218.616 133.109 217.944 133.536C217.283 133.952 216.504 134.16 215.608 134.16ZM215.528 126.64C215.091 126.64 214.675 126.725 214.28 126.896C213.885 127.056 213.56 127.312 213.304 127.664C213.059 128.016 212.936 128.469 212.936 129.024H218.04C218.029 128.437 217.907 127.973 217.672 127.632C217.448 127.28 217.149 127.029 216.776 126.88C216.403 126.72 215.987 126.64 215.528 126.64ZM221.209 134V125.52H222.617V129.056H227.001V125.52H228.409V134H227.001V130.304H222.617V134H221.209ZM230.815 134V125.52H232.223V131.92L236.607 125.52H238.015V134H236.607V127.6L232.223 134H230.815ZM239.781 134L242.085 130.64C241.381 130.48 240.874 130.192 240.565 129.776C240.255 129.349 240.101 128.805 240.101 128.144C240.101 127.589 240.213 127.12 240.437 126.736C240.661 126.341 241.007 126.043 241.477 125.84C241.946 125.627 242.554 125.52 243.301 125.52H246.981V134H245.573V130.768H243.413L241.349 134H239.781ZM241.509 128.144C241.509 128.592 241.637 128.933 241.893 129.168C242.159 129.403 242.602 129.52 243.221 129.52H245.573V126.768H243.221C242.602 126.768 242.159 126.885 241.893 127.12C241.637 127.355 241.509 127.696 241.509 128.144ZM252.266 136V132.752H253.306C253.466 132.539 253.604 132.181 253.722 131.68C253.839 131.168 253.93 130.571 253.994 129.888C254.068 129.205 254.106 128.496 254.106 127.76V125.52H260.026V132.752H261.226V136H259.882V134H253.61V136H252.266ZM254.746 132.752H258.618V126.768H255.482V128.08C255.482 128.976 255.418 129.845 255.29 130.688C255.172 131.52 254.991 132.208 254.746 132.752ZM265.325 134.16C264.707 134.16 264.179 134.048 263.741 133.824C263.315 133.589 262.989 133.275 262.765 132.88C262.541 132.475 262.429 132.021 262.429 131.52C262.429 130.677 262.675 130.069 263.165 129.696C263.667 129.323 264.381 129.136 265.309 129.136H268.061V128.56C268.061 127.835 267.896 127.333 267.565 127.056C267.245 126.779 266.76 126.64 266.109 126.64C265.501 126.64 265.059 126.757 264.781 126.992C264.504 127.216 264.349 127.472 264.317 127.76H262.909C262.941 127.301 263.096 126.896 263.373 126.544C263.651 126.181 264.029 125.893 264.509 125.68C264.989 125.467 265.549 125.36 266.189 125.36C266.861 125.36 267.443 125.467 267.933 125.68C268.424 125.883 268.803 126.208 269.069 126.656C269.336 127.093 269.469 127.675 269.469 128.4V131.84C269.469 132.288 269.469 132.683 269.469 133.024C269.48 133.355 269.507 133.68 269.549 134H268.317C268.285 133.755 268.264 133.525 268.253 133.312C268.243 133.088 268.237 132.837 268.237 132.56C268.013 133.008 267.651 133.387 267.149 133.696C266.648 134.005 266.04 134.16 265.325 134.16ZM265.629 132.88C266.077 132.88 266.483 132.8 266.845 132.64C267.219 132.48 267.512 132.245 267.725 131.936C267.949 131.627 268.061 131.248 268.061 130.8V130.224H265.549C265.027 130.224 264.616 130.331 264.317 130.544C264.019 130.747 263.869 131.072 263.869 131.52C263.869 131.915 264.008 132.24 264.285 132.496C264.573 132.752 265.021 132.88 265.629 132.88ZM271.796 137.2V125.52H273.108V127.12C273.396 126.555 273.796 126.123 274.308 125.824C274.831 125.515 275.434 125.36 276.116 125.36C277.183 125.36 278.036 125.712 278.676 126.416C279.316 127.109 279.636 128.144 279.636 129.52V129.84C279.636 130.8 279.487 131.6 279.188 132.24C278.9 132.88 278.49 133.36 277.956 133.68C277.434 134 276.82 134.16 276.116 134.16C275.391 134.16 274.783 134 274.292 133.68C273.812 133.36 273.45 132.96 273.204 132.48V137.2H271.796ZM275.796 132.912C276.49 132.912 277.066 132.651 277.524 132.128C277.994 131.605 278.228 130.843 278.228 129.84V129.52C278.228 128.592 277.994 127.877 277.524 127.376C277.066 126.864 276.49 126.608 275.796 126.608C275.284 126.608 274.831 126.715 274.436 126.928C274.052 127.141 273.748 127.435 273.524 127.808C273.311 128.171 273.204 128.581 273.204 129.04V130.32C273.204 130.832 273.311 131.285 273.524 131.68C273.748 132.064 274.052 132.368 274.436 132.592C274.831 132.805 275.284 132.912 275.796 132.912ZM281.48 134V125.52H282.888V129.072H284.008L287.176 125.52H288.84L285.16 129.584L289 134H287.208L284.008 130.288H282.888V134H281.48ZM293.491 134.16C292.765 134.16 292.109 134.005 291.523 133.696C290.947 133.376 290.488 132.896 290.147 132.256C289.816 131.616 289.651 130.811 289.651 129.84V129.52C289.651 128.603 289.832 127.835 290.195 127.216C290.557 126.597 291.032 126.133 291.619 125.824C292.205 125.515 292.829 125.36 293.491 125.36C294.163 125.36 294.739 125.483 295.219 125.728C295.709 125.963 296.104 126.288 296.403 126.704C296.701 127.109 296.904 127.568 297.011 128.08H295.571C295.4 127.675 295.16 127.333 294.851 127.056C294.552 126.779 294.099 126.64 293.491 126.64C293.075 126.64 292.685 126.741 292.323 126.944C291.96 127.136 291.661 127.445 291.427 127.872C291.203 128.288 291.091 128.837 291.091 129.52V129.84C291.091 130.565 291.203 131.152 291.427 131.6C291.661 132.048 291.96 132.373 292.323 132.576C292.685 132.779 293.075 132.88 293.491 132.88C294.013 132.88 294.451 132.752 294.803 132.496C295.165 132.24 295.421 131.888 295.571 131.44H297.011C296.883 131.995 296.653 132.48 296.323 132.896C295.992 133.301 295.587 133.616 295.107 133.84C294.627 134.053 294.088 134.16 293.491 134.16ZM300.705 134V126.768H297.809V125.52H305.009V126.768H302.113V134H300.705ZM309.817 134.16C309.102 134.16 308.43 134.005 307.801 133.696C307.182 133.376 306.681 132.896 306.297 132.256C305.924 131.616 305.737 130.811 305.737 129.84V129.52C305.737 128.603 305.924 127.835 306.297 127.216C306.681 126.597 307.182 126.133 307.801 125.824C308.43 125.515 309.102 125.36 309.817 125.36C310.542 125.36 311.214 125.515 311.833 125.824C312.452 126.133 312.948 126.597 313.321 127.216C313.705 127.835 313.897 128.603 313.897 129.52V129.84C313.897 130.811 313.705 131.616 313.321 132.256C312.948 132.896 312.452 133.376 311.833 133.696C311.214 134.005 310.542 134.16 309.817 134.16ZM309.817 132.88C310.254 132.88 310.67 132.784 311.065 132.592C311.47 132.389 311.801 132.064 312.057 131.616C312.324 131.168 312.457 130.576 312.457 129.84V129.52C312.457 128.837 312.324 128.288 312.057 127.872C311.801 127.445 311.47 127.136 311.065 126.944C310.67 126.741 310.254 126.64 309.817 126.64C309.39 126.64 308.974 126.741 308.569 126.944C308.164 127.136 307.828 127.445 307.561 127.872C307.305 128.288 307.177 128.837 307.177 129.52V129.84C307.177 130.576 307.305 131.168 307.561 131.616C307.828 132.064 308.164 132.389 308.569 132.592C308.974 132.784 309.39 132.88 309.817 132.88ZM315.731 137.2V125.52H317.043V127.12C317.331 126.555 317.731 126.123 318.243 125.824C318.765 125.515 319.368 125.36 320.051 125.36C321.117 125.36 321.971 125.712 322.611 126.416C323.251 127.109 323.571 128.144 323.571 129.52V129.84C323.571 130.8 323.421 131.6 323.123 132.24C322.835 132.88 322.424 133.36 321.891 133.68C321.368 134 320.755 134.16 320.051 134.16C319.325 134.16 318.717 134 318.227 133.68C317.747 133.36 317.384 132.96 317.139 132.48V137.2H315.731ZM319.731 132.912C320.424 132.912 321 132.651 321.459 132.128C321.928 131.605 322.163 130.843 322.163 129.84V129.52C322.163 128.592 321.928 127.877 321.459 127.376C321 126.864 320.424 126.608 319.731 126.608C319.219 126.608 318.765 126.715 318.371 126.928C317.987 127.141 317.683 127.435 317.459 127.808C317.245 128.171 317.139 128.581 317.139 129.04V130.32C317.139 130.832 317.245 131.285 317.459 131.68C317.683 132.064 317.987 132.368 318.371 132.592C318.765 132.805 319.219 132.912 319.731 132.912ZM327.83 134.16C327.212 134.16 326.684 134.048 326.246 133.824C325.82 133.589 325.494 133.275 325.27 132.88C325.046 132.475 324.934 132.021 324.934 131.52C324.934 130.677 325.18 130.069 325.67 129.696C326.172 129.323 326.886 129.136 327.814 129.136H330.566V128.56C330.566 127.835 330.401 127.333 330.07 127.056C329.75 126.779 329.265 126.64 328.614 126.64C328.006 126.64 327.564 126.757 327.286 126.992C327.009 127.216 326.854 127.472 326.822 127.76H325.414C325.446 127.301 325.601 126.896 325.878 126.544C326.156 126.181 326.534 125.893 327.014 125.68C327.494 125.467 328.054 125.36 328.694 125.36C329.366 125.36 329.948 125.467 330.438 125.68C330.929 125.883 331.308 126.208 331.574 126.656C331.841 127.093 331.974 127.675 331.974 128.4V131.84C331.974 132.288 331.974 132.683 331.974 133.024C331.985 133.355 332.012 133.68 332.054 134H330.822C330.79 133.755 330.769 133.525 330.758 133.312C330.748 133.088 330.742 132.837 330.742 132.56C330.518 133.008 330.156 133.387 329.654 133.696C329.153 134.005 328.545 134.16 327.83 134.16ZM328.134 132.88C328.582 132.88 328.988 132.8 329.35 132.64C329.724 132.48 330.017 132.245 330.23 131.936C330.454 131.627 330.566 131.248 330.566 130.8V130.224H328.054C327.532 130.224 327.121 130.331 326.822 130.544C326.524 130.747 326.374 131.072 326.374 131.52C326.374 131.915 326.513 132.24 326.79 132.496C327.078 132.752 327.526 132.88 328.134 132.88ZM338.141 134V125.52H341.821C342.525 125.52 343.101 125.621 343.549 125.824C343.997 126.016 344.328 126.288 344.541 126.64C344.755 126.981 344.861 127.381 344.861 127.84C344.861 128.213 344.739 128.571 344.493 128.912C344.259 129.243 343.955 129.472 343.581 129.6C344.104 129.728 344.499 129.973 344.765 130.336C345.043 130.688 345.181 131.104 345.181 131.584C345.181 132.32 344.936 132.907 344.445 133.344C343.955 133.781 343.187 134 342.141 134H338.141ZM339.549 132.752H342.141C342.739 132.752 343.16 132.645 343.405 132.432C343.651 132.219 343.773 131.915 343.773 131.52C343.773 131.115 343.651 130.805 343.405 130.592C343.16 130.368 342.739 130.256 342.141 130.256H339.549V132.752ZM339.549 129.104H341.821C342.429 129.104 342.851 128.997 343.085 128.784C343.331 128.571 343.453 128.277 343.453 127.904C343.453 127.552 343.331 127.275 343.085 127.072C342.851 126.869 342.429 126.768 341.821 126.768H339.549V129.104ZM353.284 134.16C352.665 134.16 352.137 134.048 351.7 133.824C351.273 133.589 350.948 133.275 350.724 132.88C350.5 132.475 350.388 132.021 350.388 131.52C350.388 130.677 350.633 130.069 351.124 129.696C351.625 129.323 352.34 129.136 353.268 129.136H356.02V128.56C356.02 127.835 355.855 127.333 355.524 127.056C355.204 126.779 354.719 126.64 354.068 126.64C353.46 126.64 353.017 126.757 352.74 126.992C352.463 127.216 352.308 127.472 352.276 127.76H350.868C350.9 127.301 351.055 126.896 351.332 126.544C351.609 126.181 351.988 125.893 352.468 125.68C352.948 125.467 353.508 125.36 354.148 125.36C354.82 125.36 355.401 125.467 355.892 125.68C356.383 125.883 356.761 126.208 357.028 126.656C357.295 127.093 357.428 127.675 357.428 128.4V131.84C357.428 132.288 357.428 132.683 357.428 133.024C357.439 133.355 357.465 133.68 357.508 134H356.276C356.244 133.755 356.223 133.525 356.212 133.312C356.201 133.088 356.196 132.837 356.196 132.56C355.972 133.008 355.609 133.387 355.108 133.696C354.607 134.005 353.999 134.16 353.284 134.16ZM353.588 132.88C354.036 132.88 354.441 132.8 354.804 132.64C355.177 132.48 355.471 132.245 355.684 131.936C355.908 131.627 356.02 131.248 356.02 130.8V130.224H353.508C352.985 130.224 352.575 130.331 352.276 130.544C351.977 130.747 351.828 131.072 351.828 131.52C351.828 131.915 351.967 132.24 352.244 132.496C352.532 132.752 352.98 132.88 353.588 132.88ZM359.755 134V125.52H361.163V129.072H362.283L365.451 125.52H367.115L363.435 129.584L367.275 134H365.483L362.283 130.288H361.163V134H359.755ZM375.694 136V134H368.798V125.52H370.206V132.752H374.27V125.52H375.678V132.752H377.038V136H375.694ZM378.56 134V125.52H379.968V131.92L384.352 125.52H385.76V134H384.352V127.6L379.968 134H378.56ZM388.166 134V125.52H389.574V129.056H390.774C390.838 128.235 391.051 127.552 391.414 127.008C391.776 126.464 392.24 126.053 392.806 125.776C393.371 125.499 393.984 125.36 394.646 125.36C395.371 125.36 396.027 125.515 396.614 125.824C397.211 126.133 397.686 126.597 398.038 127.216C398.39 127.835 398.566 128.603 398.566 129.52V129.84C398.566 130.811 398.39 131.616 398.038 132.256C397.686 132.896 397.211 133.376 396.614 133.696C396.027 134.005 395.371 134.16 394.646 134.16C393.974 134.16 393.355 134.021 392.79 133.744C392.224 133.467 391.76 133.045 391.398 132.48C391.046 131.904 390.838 131.179 390.774 130.304H389.574V134H388.166ZM394.646 132.88C395.072 132.88 395.472 132.784 395.846 132.592C396.23 132.389 396.539 132.064 396.774 131.616C397.008 131.168 397.126 130.576 397.126 129.84V129.52C397.126 128.837 397.008 128.288 396.774 127.872C396.539 127.445 396.23 127.136 395.846 126.944C395.472 126.741 395.072 126.64 394.646 126.64C394.219 126.64 393.814 126.741 393.43 126.944C393.056 127.136 392.752 127.445 392.518 127.872C392.283 128.288 392.166 128.837 392.166 129.52V129.84C392.166 130.576 392.283 131.168 392.518 131.616C392.752 132.064 393.056 132.389 393.43 132.592C393.814 132.784 394.219 132.88 394.646 132.88ZM403.292 134L407.58 122.8H409.084L413.372 134H411.74L410.668 131.216H405.932L404.86 134H403.292ZM406.428 129.904H410.172L408.3 124.72L406.428 129.904ZM418.494 134.16C417.598 134.16 416.852 134.021 416.254 133.744C415.668 133.467 415.214 133.093 414.894 132.624C414.574 132.144 414.361 131.616 414.254 131.04H415.758C415.876 131.531 416.142 131.952 416.558 132.304C416.974 132.645 417.62 132.816 418.494 132.816C419.39 132.816 420.068 132.645 420.526 132.304C420.996 131.963 421.23 131.541 421.23 131.04C421.23 130.624 421.134 130.293 420.942 130.048C420.75 129.792 420.43 129.579 419.982 129.408C419.545 129.227 418.948 129.051 418.19 128.88C417.358 128.699 416.676 128.485 416.142 128.24C415.609 127.995 415.214 127.664 414.958 127.248C414.702 126.832 414.574 126.283 414.574 125.6C414.574 125.045 414.729 124.549 415.038 124.112C415.358 123.664 415.812 123.307 416.398 123.04C416.985 122.773 417.684 122.64 418.494 122.64C419.294 122.64 419.961 122.773 420.494 123.04C421.028 123.307 421.444 123.664 421.742 124.112C422.041 124.549 422.238 125.045 422.334 125.6H420.83C420.724 125.152 420.494 124.773 420.142 124.464C419.801 124.144 419.252 123.984 418.494 123.984C417.726 123.984 417.129 124.144 416.702 124.464C416.286 124.773 416.078 125.152 416.078 125.6C416.078 126.187 416.297 126.619 416.734 126.896C417.172 127.163 417.87 127.403 418.83 127.616C419.524 127.765 420.116 127.936 420.606 128.128C421.108 128.32 421.513 128.549 421.822 128.816C422.142 129.072 422.372 129.381 422.51 129.744C422.66 130.107 422.734 130.539 422.734 131.04C422.734 131.616 422.564 132.144 422.222 132.624C421.892 133.093 421.412 133.467 420.782 133.744C420.153 134.021 419.39 134.16 418.494 134.16ZM429.049 134V122.8H430.553V134H429.049ZM437.28 134.16C436.384 134.16 435.637 134.021 435.04 133.744C434.453 133.467 434 133.093 433.68 132.624C433.36 132.144 433.147 131.616 433.04 131.04H434.544C434.661 131.531 434.928 131.952 435.344 132.304C435.76 132.645 436.405 132.816 437.28 132.816C438.176 132.816 438.853 132.645 439.312 132.304C439.781 131.963 440.016 131.541 440.016 131.04C440.016 130.624 439.92 130.293 439.728 130.048C439.536 129.792 439.216 129.579 438.768 129.408C438.331 129.227 437.733 129.051 436.976 128.88C436.144 128.699 435.461 128.485 434.928 128.24C434.395 127.995 434 127.664 433.744 127.248C433.488 126.832 433.36 126.283 433.36 125.6C433.36 125.045 433.515 124.549 433.824 124.112C434.144 123.664 434.597 123.307 435.184 123.04C435.771 122.773 436.469 122.64 437.28 122.64C438.08 122.64 438.747 122.773 439.28 123.04C439.813 123.307 440.229 123.664 440.528 124.112C440.827 124.549 441.024 125.045 441.12 125.6H439.616C439.509 125.152 439.28 124.773 438.928 124.464C438.587 124.144 438.037 123.984 437.28 123.984C436.512 123.984 435.915 124.144 435.488 124.464C435.072 124.773 434.864 125.152 434.864 125.6C434.864 126.187 435.083 126.619 435.52 126.896C435.957 127.163 436.656 127.403 437.616 127.616C438.309 127.765 438.901 127.936 439.392 128.128C439.893 128.32 440.299 128.549 440.608 128.816C440.928 129.072 441.157 129.381 441.296 129.744C441.445 130.107 441.52 130.539 441.52 131.04C441.52 131.616 441.349 132.144 441.008 132.624C440.677 133.093 440.197 133.467 439.568 133.744C438.939 134.021 438.176 134.16 437.28 134.16Z" fill="#4B4A4A"/>
</g>
</g>
<defs>
<filter id="filter0_f_3972_12851" x="197" y="-118" width="1021" height="1021" filterUnits="userSpaceOnUse" color-interpolation-filters="sRGB">
<feFlood flood-opacity="0" result="BackgroundImageFix"/>
<feBlend mode="normal" in="SourceGraphic" in2="BackgroundImageFix" result="shape"/>
<feGaussianBlur stdDeviation="86" result="effect1_foregroundBlur_3972_12851"/>
</filter>
<clipPath id="clip0_3972_12851">
<rect width="923" height="164" fill="white"/>
</clipPath>
</defs>
</svg>
