<svg width="923" height="164" viewBox="0 0 923 164" fill="none" xmlns="http://www.w3.org/2000/svg">
<g clip-path="url(#clip0_3954_129412)">
<rect width="923" height="164" fill="#F0DFE3"/>
<g filter="url(#filter0_f_3954_129412)">
<circle cx="681.5" cy="134.5" r="116.5" fill="#E8E2DD"/>
</g>
<g class="flow-step reveal reveal--fade" data-delay="0">
<rect x="24" y="24" width="180" height="76" rx="4" fill="white" fill-opacity="0.5"/>
<path d="M38.128 62.48V61.312C37.04 61.312 36.1013 61.1093 35.312 60.704C34.5333 60.288 33.9307 59.712 33.504 58.976C33.088 58.24 32.88 57.3813 32.88 56.4V56.08C32.88 55.2053 33.088 54.4213 33.504 53.728C33.9307 53.0347 34.5333 52.4907 35.312 52.096C36.1013 51.6907 37.04 51.488 38.128 51.488V50.32H39.632V51.488C40.7307 51.488 41.6693 51.6907 42.448 52.096C43.2267 52.4907 43.824 53.0347 44.24 53.728C44.6667 54.4213 44.88 55.2053 44.88 56.08V56.4C44.88 57.3813 44.6667 58.24 44.24 58.976C43.824 59.712 43.2267 60.288 42.448 60.704C41.6693 61.1093 40.7307 61.312 39.632 61.312V62.48H38.128ZM43.28 56.4V56.08C43.28 55.4613 43.136 54.912 42.848 54.432C42.5707 53.9413 42.16 53.552 41.616 53.264C41.0827 52.976 40.4213 52.832 39.632 52.832V59.968C40.4213 59.968 41.0827 59.824 41.616 59.536C42.16 59.2373 42.5707 58.8213 42.848 58.288C43.136 57.744 43.28 57.1147 43.28 56.4ZM34.48 56.08V56.4C34.48 57.1147 34.6187 57.744 34.896 58.288C35.184 58.8213 35.6 59.2373 36.144 59.536C36.688 59.824 37.3493 59.968 38.128 59.968V52.832C37.3493 52.832 36.688 52.976 36.144 53.264C35.6 53.552 35.184 53.9413 34.896 54.432C34.6187 54.912 34.48 55.4613 34.48 56.08ZM50.4056 62.16C49.691 62.16 49.019 62.0053 48.3896 61.696C47.771 61.376 47.2696 60.896 46.8856 60.256C46.5123 59.616 46.3256 58.8107 46.3256 57.84V57.52C46.3256 56.6027 46.5123 55.8347 46.8856 55.216C47.2696 54.5973 47.771 54.1333 48.3896 53.824C49.019 53.5147 49.691 53.36 50.4056 53.36C51.131 53.36 51.803 53.5147 52.4216 53.824C53.0403 54.1333 53.5363 54.5973 53.9096 55.216C54.2936 55.8347 54.4856 56.6027 54.4856 57.52V57.84C54.4856 58.8107 54.2936 59.616 53.9096 60.256C53.5363 60.896 53.0403 61.376 52.4216 61.696C51.803 62.0053 51.131 62.16 50.4056 62.16ZM50.4056 60.88C50.843 60.88 51.259 60.784 51.6536 60.592C52.059 60.3893 52.3896 60.064 52.6456 59.616C52.9123 59.168 53.0456 58.576 53.0456 57.84V57.52C53.0456 56.8373 52.9123 56.288 52.6456 55.872C52.3896 55.4453 52.059 55.136 51.6536 54.944C51.259 54.7413 50.843 54.64 50.4056 54.64C49.979 54.64 49.563 54.7413 49.1576 54.944C48.7523 55.136 48.4163 55.4453 48.1496 55.872C47.8936 56.288 47.7656 56.8373 47.7656 57.52V57.84C47.7656 58.576 47.8936 59.168 48.1496 59.616C48.4163 60.064 48.7523 60.3893 49.1576 60.592C49.563 60.784 49.979 60.88 50.4056 60.88ZM56.3194 65.2V53.52H57.6314V55.12C57.9194 54.5547 58.3194 54.1227 58.8314 53.824C59.354 53.5147 59.9567 53.36 60.6394 53.36C61.706 53.36 62.5594 53.712 63.1994 54.416C63.8394 55.1093 64.1594 56.144 64.1594 57.52V57.84C64.1594 58.8 64.01 59.6 63.7114 60.24C63.4234 60.88 63.0127 61.36 62.4794 61.68C61.9567 62 61.3434 62.16 60.6394 62.16C59.914 62.16 59.306 62 58.8154 61.68C58.3354 61.36 57.9727 60.96 57.7274 60.48V65.2H56.3194ZM60.3194 60.912C61.0127 60.912 61.5887 60.6507 62.0474 60.128C62.5167 59.6053 62.7514 58.8427 62.7514 57.84V57.52C62.7514 56.592 62.5167 55.8773 62.0474 55.376C61.5887 54.864 61.0127 54.608 60.3194 54.608C59.8074 54.608 59.354 54.7147 58.9594 54.928C58.5754 55.1413 58.2714 55.4347 58.0474 55.808C57.834 56.1707 57.7274 56.5813 57.7274 57.04V58.32C57.7274 58.832 57.834 59.2853 58.0474 59.68C58.2714 60.064 58.5754 60.368 58.9594 60.592C59.354 60.8053 59.8074 60.912 60.3194 60.912ZM66.0031 62V53.52H67.5071L70.5311 58.8L73.5551 53.52H74.9631V62H73.5551V55.84L71.0431 60.16H69.9231L67.4111 55.84V62H66.0031ZM79.7748 62.16C79.1561 62.16 78.6281 62.048 78.1908 61.824C77.7641 61.5893 77.4388 61.2747 77.2148 60.88C76.9908 60.4747 76.8788 60.0213 76.8788 59.52C76.8788 58.6773 77.1241 58.0693 77.6148 57.696C78.1161 57.3227 78.8308 57.136 79.7588 57.136H82.5108V56.56C82.5108 55.8347 82.3454 55.3333 82.0148 55.056C81.6948 54.7787 81.2094 54.64 80.5588 54.64C79.9508 54.64 79.5081 54.7573 79.2308 54.992C78.9534 55.216 78.7988 55.472 78.7668 55.76H77.3588C77.3908 55.3013 77.5454 54.896 77.8228 54.544C78.1001 54.1813 78.4788 53.8933 78.9588 53.68C79.4388 53.4667 79.9988 53.36 80.6388 53.36C81.3108 53.36 81.8921 53.4667 82.3828 53.68C82.8734 53.8827 83.2521 54.208 83.5188 54.656C83.7854 55.0933 83.9188 55.6747 83.9188 56.4V59.84C83.9188 60.288 83.9188 60.6827 83.9188 61.024C83.9294 61.3547 83.9561 61.68 83.9988 62H82.7668C82.7348 61.7547 82.7134 61.5253 82.7028 61.312C82.6921 61.088 82.6868 60.8373 82.6868 60.56C82.4628 61.008 82.1001 61.3867 81.5988 61.696C81.0974 62.0053 80.4894 62.16 79.7748 62.16ZM80.0788 60.88C80.5268 60.88 80.9321 60.8 81.2948 60.64C81.6681 60.48 81.9614 60.2453 82.1748 59.936C82.3988 59.6267 82.5108 59.248 82.5108 58.8V58.224H79.9988C79.4761 58.224 79.0654 58.3307 78.7668 58.544C78.4681 58.7467 78.3188 59.072 78.3188 59.52C78.3188 59.9147 78.4574 60.24 78.7348 60.496C79.0228 60.752 79.4708 60.88 80.0788 60.88ZM36.56 86.16C35.8347 86.16 35.1787 86.0053 34.592 85.696C34.016 85.376 33.5573 84.896 33.216 84.256C32.8853 83.616 32.72 82.8107 32.72 81.84V81.52C32.72 80.6027 32.9013 79.8347 33.264 79.216C33.6267 78.5973 34.1013 78.1333 34.688 77.824C35.2747 77.5147 35.8987 77.36 36.56 77.36C37.232 77.36 37.808 77.4827 38.288 77.728C38.7787 77.9627 39.1733 78.288 39.472 78.704C39.7707 79.1093 39.9733 79.568 40.08 80.08H38.64C38.4693 79.6747 38.2293 79.3333 37.92 79.056C37.6213 78.7787 37.168 78.64 36.56 78.64C36.144 78.64 35.7547 78.7413 35.392 78.944C35.0293 79.136 34.7307 79.4453 34.496 79.872C34.272 80.288 34.16 80.8373 34.16 81.52V81.84C34.16 82.5653 34.272 83.152 34.496 83.6C34.7307 84.048 35.0293 84.3733 35.392 84.576C35.7547 84.7787 36.144 84.88 36.56 84.88C37.0827 84.88 37.52 84.752 37.872 84.496C38.2347 84.24 38.4907 83.888 38.64 83.44H40.08C39.952 83.9947 39.7227 84.48 39.392 84.896C39.0613 85.3013 38.656 85.616 38.176 85.84C37.696 86.0533 37.1573 86.16 36.56 86.16ZM45.3588 86.16C44.6441 86.16 43.9721 86.0053 43.3428 85.696C42.7241 85.376 42.2228 84.896 41.8388 84.256C41.4654 83.616 41.2788 82.8107 41.2788 81.84V81.52C41.2788 80.6027 41.4654 79.8347 41.8388 79.216C42.2228 78.5973 42.7241 78.1333 43.3428 77.824C43.9721 77.5147 44.6441 77.36 45.3588 77.36C46.0841 77.36 46.7561 77.5147 47.3748 77.824C47.9934 78.1333 48.4894 78.5973 48.8628 79.216C49.2468 79.8347 49.4388 80.6027 49.4388 81.52V81.84C49.4388 82.8107 49.2468 83.616 48.8628 84.256C48.4894 84.896 47.9934 85.376 47.3748 85.696C46.7561 86.0053 46.0841 86.16 45.3588 86.16ZM45.3588 84.88C45.7961 84.88 46.2121 84.784 46.6068 84.592C47.0121 84.3893 47.3428 84.064 47.5988 83.616C47.8654 83.168 47.9988 82.576 47.9988 81.84V81.52C47.9988 80.8373 47.8654 80.288 47.5988 79.872C47.3428 79.4453 47.0121 79.136 46.6068 78.944C46.2121 78.7413 45.7961 78.64 45.3588 78.64C44.9321 78.64 44.5161 78.7413 44.1108 78.944C43.7054 79.136 43.3694 79.4453 43.1028 79.872C42.8468 80.288 42.7188 80.8373 42.7188 81.52V81.84C42.7188 82.576 42.8468 83.168 43.1028 83.616C43.3694 84.064 43.7054 84.3893 44.1108 84.592C44.5161 84.784 44.9321 84.88 45.3588 84.88ZM54.1525 86.16C53.4485 86.16 52.8405 86.0587 52.3285 85.856C51.8165 85.6533 51.4165 85.36 51.1285 84.976C50.8405 84.592 50.6752 84.1333 50.6325 83.6H52.0405C52.0938 83.8773 52.2112 84.112 52.3925 84.304C52.5738 84.496 52.8138 84.64 53.1125 84.736C53.4112 84.832 53.7578 84.88 54.1525 84.88C54.8885 84.88 55.4218 84.7573 55.7525 84.512C56.0938 84.256 56.2645 83.952 56.2645 83.6C56.2645 83.184 56.1258 82.8587 55.8485 82.624C55.5712 82.3787 55.0912 82.256 54.4085 82.256H52.9525V81.104H54.3125C54.8992 81.104 55.3152 80.992 55.5605 80.768C55.8165 80.544 55.9445 80.2293 55.9445 79.824C55.9445 79.504 55.7952 79.2267 55.4965 78.992C55.1978 78.7573 54.7498 78.64 54.1525 78.64C53.5018 78.64 53.0272 78.7467 52.7285 78.96C52.4405 79.1627 52.2645 79.456 52.2005 79.84H50.7925C50.8352 79.36 50.9952 78.9333 51.2725 78.56C51.5498 78.1867 51.9338 77.8933 52.4245 77.68C52.9152 77.4667 53.4912 77.36 54.1525 77.36C55.2405 77.36 56.0458 77.5893 56.5685 78.048C57.0912 78.5067 57.3525 79.0987 57.3525 79.824C57.3525 80.2293 57.2512 80.5867 57.0485 80.896C56.8458 81.1947 56.5205 81.4293 56.0725 81.6C56.6698 81.76 57.0858 82.016 57.3205 82.368C57.5552 82.72 57.6725 83.1307 57.6725 83.6C57.6725 84.0587 57.5392 84.4853 57.2725 84.88C57.0058 85.264 56.6112 85.5733 56.0885 85.808C55.5765 86.0427 54.9312 86.16 54.1525 86.16ZM58.5588 88V84.752H59.5988C59.7588 84.5387 59.8974 84.1813 60.0148 83.68C60.1321 83.168 60.2228 82.5707 60.2868 81.888C60.3614 81.2053 60.3988 80.496 60.3988 79.76V77.52H66.3188V84.752H67.5188V88H66.1748V86H59.9028V88H58.5588ZM61.0388 84.752H64.9108V78.768H61.7748V80.08C61.7748 80.976 61.7108 81.8453 61.5828 82.688C61.4654 83.52 61.2841 84.208 61.0388 84.752ZM71.6185 86.16C70.9998 86.16 70.4718 86.048 70.0345 85.824C69.6078 85.5893 69.2825 85.2747 69.0585 84.88C68.8345 84.4747 68.7225 84.0213 68.7225 83.52C68.7225 82.6773 68.9678 82.0693 69.4585 81.696C69.9598 81.3227 70.6745 81.136 71.6025 81.136H74.3545V80.56C74.3545 79.8347 74.1892 79.3333 73.8585 79.056C73.5385 78.7787 73.0532 78.64 72.4025 78.64C71.7945 78.64 71.3518 78.7573 71.0745 78.992C70.7972 79.216 70.6425 79.472 70.6105 79.76H69.2025C69.2345 79.3013 69.3892 78.896 69.6665 78.544C69.9438 78.1813 70.3225 77.8933 70.8025 77.68C71.2825 77.4667 71.8425 77.36 72.4825 77.36C73.1545 77.36 73.7358 77.4667 74.2265 77.68C74.7172 77.8827 75.0958 78.208 75.3625 78.656C75.6292 79.0933 75.7625 79.6747 75.7625 80.4V83.84C75.7625 84.288 75.7625 84.6827 75.7625 85.024C75.7732 85.3547 75.7998 85.68 75.8425 86H74.6105C74.5785 85.7547 74.5572 85.5253 74.5465 85.312C74.5358 85.088 74.5305 84.8373 74.5305 84.56C74.3065 85.008 73.9438 85.3867 73.4425 85.696C72.9412 86.0053 72.3332 86.16 71.6185 86.16ZM71.9225 84.88C72.3705 84.88 72.7758 84.8 73.1385 84.64C73.5118 84.48 73.8052 84.2453 74.0185 83.936C74.2425 83.6267 74.3545 83.248 74.3545 82.8V82.224H71.8425C71.3198 82.224 70.9092 82.3307 70.6105 82.544C70.3118 82.7467 70.1625 83.072 70.1625 83.52C70.1625 83.9147 70.3012 84.24 70.5785 84.496C70.8665 84.752 71.3145 84.88 71.9225 84.88ZM78.0894 86V77.52H79.4974V81.056H83.8814V77.52H85.2894V86H83.8814V82.304H79.4974V86H78.0894ZM87.695 86V77.52H89.103V83.92L93.487 77.52H94.895V86H93.487V79.6L89.103 86H87.695ZM96.6606 86L98.9646 82.64C98.2606 82.48 97.754 82.192 97.4446 81.776C97.1353 81.3493 96.9806 80.8053 96.9806 80.144C96.9806 79.5893 97.0926 79.12 97.3166 78.736C97.5406 78.3413 97.8873 78.0427 98.3566 77.84C98.826 77.6267 99.434 77.52 100.181 77.52H103.861V86H102.453V82.768H100.293L98.2286 86H96.6606ZM98.3886 80.144C98.3886 80.592 98.5166 80.9333 98.7726 81.168C99.0393 81.4027 99.482 81.52 100.101 81.52H102.453V78.768H100.101C99.482 78.768 99.0393 78.8853 98.7726 79.12C98.5166 79.3547 98.3886 79.696 98.3886 80.144ZM112.522 86.16C111.903 86.16 111.375 86.048 110.938 85.824C110.511 85.5893 110.186 85.2747 109.962 84.88C109.738 84.4747 109.626 84.0213 109.626 83.52C109.626 82.6773 109.871 82.0693 110.362 81.696C110.863 81.3227 111.578 81.136 112.506 81.136H115.258V80.56C115.258 79.8347 115.092 79.3333 114.762 79.056C114.442 78.7787 113.956 78.64 113.306 78.64C112.698 78.64 112.255 78.7573 111.978 78.992C111.7 79.216 111.546 79.472 111.514 79.76H110.106C110.138 79.3013 110.292 78.896 110.57 78.544C110.847 78.1813 111.226 77.8933 111.706 77.68C112.186 77.4667 112.746 77.36 113.386 77.36C114.058 77.36 114.639 77.4667 115.13 77.68C115.62 77.8827 115.999 78.208 116.266 78.656C116.532 79.0933 116.666 79.6747 116.666 80.4V83.84C116.666 84.288 116.666 84.6827 116.666 85.024C116.676 85.3547 116.703 85.68 116.746 86H115.514C115.482 85.7547 115.46 85.5253 115.45 85.312C115.439 85.088 115.434 84.8373 115.434 84.56C115.21 85.008 114.847 85.3867 114.346 85.696C113.844 86.0053 113.236 86.16 112.522 86.16ZM112.826 84.88C113.274 84.88 113.679 84.8 114.042 84.64C114.415 84.48 114.708 84.2453 114.922 83.936C115.146 83.6267 115.258 83.248 115.258 82.8V82.224H112.746C112.223 82.224 111.812 82.3307 111.514 82.544C111.215 82.7467 111.066 83.072 111.066 83.52C111.066 83.9147 111.204 84.24 111.482 84.496C111.77 84.752 112.218 84.88 112.826 84.88ZM118.993 86V77.52H120.401V81.072H121.521L124.689 77.52H126.353L122.673 81.584L126.513 86H124.721L121.521 82.288H120.401V86H118.993ZM134.932 88V86H128.036V77.52H129.444V84.752H133.508V77.52H134.916V84.752H136.276V88H134.932ZM137.798 86V77.52H139.206V83.92L143.59 77.52H144.998V86H143.59V79.6L139.206 86H137.798ZM147.403 86V77.52H148.811V83.92L153.195 77.52H154.603V86H153.195V79.6L148.811 86H147.403Z" fill="#21201F"/>
</g>
<g class="flow-step reveal reveal--fade" data-delay="2">
<rect x="236" y="24" width="180" height="76" rx="4" fill="white" fill-opacity="0.5"/>
<path d="M245.6 86V74.8H252.88V76.096H247.104V79.28H249.6C251.083 79.28 252.171 79.5893 252.864 80.208C253.568 80.8267 253.92 81.6373 253.92 82.64C253.92 83.6427 253.568 84.4533 252.864 85.072C252.171 85.6907 251.083 86 249.6 86H245.6ZM247.104 84.688H249.52C250.587 84.688 251.333 84.512 251.76 84.16C252.197 83.7973 252.416 83.2907 252.416 82.64C252.416 81.9893 252.197 81.488 251.76 81.136C251.333 80.7733 250.587 80.592 249.52 80.592H247.104V84.688ZM255.204 86.16C255.13 86.16 255.05 86.1547 254.964 86.144C254.89 86.1333 254.81 86.1227 254.724 86.112V84.704C254.756 84.7147 254.836 84.72 254.964 84.72C255.284 84.72 255.546 84.5813 255.748 84.304C255.951 84.016 256.095 83.5147 256.18 82.8C256.276 82.0747 256.324 81.0613 256.324 79.76V77.52H262.404V86H260.996V78.768H257.732V80.08C257.732 81.264 257.679 82.2507 257.572 83.04C257.466 83.8187 257.306 84.4373 257.092 84.896C256.89 85.3547 256.628 85.68 256.308 85.872C255.988 86.064 255.62 86.16 255.204 86.16ZM268.324 86.16C267.609 86.16 266.937 86.0053 266.308 85.696C265.689 85.376 265.188 84.896 264.804 84.256C264.43 83.616 264.244 82.8107 264.244 81.84V81.52C264.244 80.6027 264.43 79.8347 264.804 79.216C265.188 78.5973 265.689 78.1333 266.308 77.824C266.937 77.5147 267.609 77.36 268.324 77.36C269.049 77.36 269.721 77.5147 270.34 77.824C270.958 78.1333 271.454 78.5973 271.828 79.216C272.212 79.8347 272.404 80.6027 272.404 81.52V81.84C272.404 82.8107 272.212 83.616 271.828 84.256C271.454 84.896 270.958 85.376 270.34 85.696C269.721 86.0053 269.049 86.16 268.324 86.16ZM268.324 84.88C268.761 84.88 269.177 84.784 269.572 84.592C269.977 84.3893 270.308 84.064 270.564 83.616C270.83 83.168 270.964 82.576 270.964 81.84V81.52C270.964 80.8373 270.83 80.288 270.564 79.872C270.308 79.4453 269.977 79.136 269.572 78.944C269.177 78.7413 268.761 78.64 268.324 78.64C267.897 78.64 267.481 78.7413 267.076 78.944C266.67 79.136 266.334 79.4453 266.068 79.872C265.812 80.288 265.684 80.8373 265.684 81.52V81.84C265.684 82.576 265.812 83.168 266.068 83.616C266.334 84.064 266.67 84.3893 267.076 84.592C267.481 84.784 267.897 84.88 268.324 84.88ZM274.238 86V77.52H275.646V81.072H276.766L279.934 77.52H281.598L277.918 81.584L281.758 86H279.966L276.766 82.288H275.646V86H274.238ZM290.001 85.2L286.481 82.224V80.976L290.001 78V79.568L287.601 81.568L290.001 83.568V85.2ZM293.681 85.2L290.161 82.224V80.976L293.681 78V79.568L291.281 81.568L293.681 83.568V85.2ZM296.078 86V74.8H303.118V76.112H297.582V86H296.078ZM306.305 86.16C305.59 86.16 304.918 86.0053 304.289 85.696C303.67 85.3867 303.169 84.912 302.785 84.272C302.412 83.632 302.225 82.8213 302.225 81.84V81.52C302.225 80.5813 302.406 79.808 302.769 79.2C303.132 78.5813 303.612 78.1227 304.209 77.824C304.806 77.5147 305.452 77.36 306.145 77.36C307.393 77.36 308.358 77.7013 309.041 78.384C309.724 79.0667 310.065 80.032 310.065 81.28V82.176H303.633C303.633 82.8373 303.766 83.3653 304.033 83.76C304.31 84.1547 304.652 84.4427 305.057 84.624C305.473 84.7947 305.889 84.88 306.305 84.88C306.945 84.88 307.436 84.7733 307.777 84.56C308.129 84.3467 308.38 84.0533 308.529 83.68H309.905C309.734 84.4907 309.313 85.1093 308.641 85.536C307.98 85.952 307.201 86.16 306.305 86.16ZM306.225 78.64C305.788 78.64 305.372 78.7253 304.977 78.896C304.582 79.056 304.257 79.312 304.001 79.664C303.756 80.016 303.633 80.4693 303.633 81.024H308.737C308.726 80.4373 308.604 79.9733 308.369 79.632C308.145 79.28 307.846 79.0293 307.473 78.88C307.1 78.72 306.684 78.64 306.225 78.64ZM315.426 86.16C314.712 86.16 314.04 86.0053 313.41 85.696C312.792 85.376 312.29 84.896 311.906 84.256C311.533 83.616 311.346 82.8107 311.346 81.84V81.52C311.346 80.6027 311.533 79.8347 311.906 79.216C312.29 78.5973 312.792 78.1333 313.41 77.824C314.04 77.5147 314.712 77.36 315.426 77.36C316.152 77.36 316.824 77.5147 317.442 77.824C318.061 78.1333 318.557 78.5973 318.93 79.216C319.314 79.8347 319.506 80.6027 319.506 81.52V81.84C319.506 82.8107 319.314 83.616 318.93 84.256C318.557 84.896 318.061 85.376 317.442 85.696C316.824 86.0053 316.152 86.16 315.426 86.16ZM315.426 84.88C315.864 84.88 316.28 84.784 316.674 84.592C317.08 84.3893 317.41 84.064 317.666 83.616C317.933 83.168 318.066 82.576 318.066 81.84V81.52C318.066 80.8373 317.933 80.288 317.666 79.872C317.41 79.4453 317.08 79.136 316.674 78.944C316.28 78.7413 315.864 78.64 315.426 78.64C315 78.64 314.584 78.7413 314.178 78.944C313.773 79.136 313.437 79.4453 313.17 79.872C312.914 80.288 312.786 80.8373 312.786 81.52V81.84C312.786 82.576 312.914 83.168 313.17 83.616C313.437 84.064 313.773 84.3893 314.178 84.592C314.584 84.784 315 84.88 315.426 84.88ZM321.34 89.2V77.52H322.652V79.12C322.94 78.5547 323.34 78.1227 323.852 77.824C324.375 77.5147 324.977 77.36 325.66 77.36C326.727 77.36 327.58 77.712 328.22 78.416C328.86 79.1093 329.18 80.144 329.18 81.52V81.84C329.18 82.8 329.031 83.6 328.732 84.24C328.444 84.88 328.033 85.36 327.5 85.68C326.977 86 326.364 86.16 325.66 86.16C324.935 86.16 324.327 86 323.836 85.68C323.356 85.36 322.993 84.96 322.748 84.48V89.2H321.34ZM325.34 84.912C326.033 84.912 326.609 84.6507 327.068 84.128C327.537 83.6053 327.772 82.8427 327.772 81.84V81.52C327.772 80.592 327.537 79.8773 327.068 79.376C326.609 78.864 326.033 78.608 325.34 78.608C324.828 78.608 324.375 78.7147 323.98 78.928C323.596 79.1413 323.292 79.4347 323.068 79.808C322.855 80.1707 322.748 80.5813 322.748 81.04V82.32C322.748 82.832 322.855 83.2853 323.068 83.68C323.292 84.064 323.596 84.368 323.98 84.592C324.375 84.8053 324.828 84.912 325.34 84.912ZM331.024 86V77.52H336.784V78.768H332.432V86H331.024ZM340.327 86.16C339.708 86.16 339.18 86.048 338.743 85.824C338.316 85.5893 337.991 85.2747 337.767 84.88C337.543 84.4747 337.431 84.0213 337.431 83.52C337.431 82.6773 337.676 82.0693 338.167 81.696C338.668 81.3227 339.383 81.136 340.311 81.136H343.063V80.56C343.063 79.8347 342.897 79.3333 342.567 79.056C342.247 78.7787 341.761 78.64 341.111 78.64C340.503 78.64 340.06 78.7573 339.783 78.992C339.505 79.216 339.351 79.472 339.319 79.76H337.911C337.943 79.3013 338.097 78.896 338.375 78.544C338.652 78.1813 339.031 77.8933 339.511 77.68C339.991 77.4667 340.551 77.36 341.191 77.36C341.863 77.36 342.444 77.4667 342.935 77.68C343.425 77.8827 343.804 78.208 344.071 78.656C344.337 79.0933 344.471 79.6747 344.471 80.4V83.84C344.471 84.288 344.471 84.6827 344.471 85.024C344.481 85.3547 344.508 85.68 344.551 86H343.319C343.287 85.7547 343.265 85.5253 343.255 85.312C343.244 85.088 343.239 84.8373 343.239 84.56C343.015 85.008 342.652 85.3867 342.151 85.696C341.649 86.0053 341.041 86.16 340.327 86.16ZM340.631 84.88C341.079 84.88 341.484 84.8 341.847 84.64C342.22 84.48 342.513 84.2453 342.727 83.936C342.951 83.6267 343.063 83.248 343.063 82.8V82.224H340.551C340.028 82.224 339.617 82.3307 339.319 82.544C339.02 82.7467 338.871 83.072 338.871 83.52C338.871 83.9147 339.009 84.24 339.287 84.496C339.575 84.752 340.023 84.88 340.631 84.88ZM350.734 89.2V86.16C349.262 86.16 348.142 85.7867 347.374 85.04C346.616 84.2933 346.238 83.232 346.238 81.856V81.536C346.238 80.224 346.616 79.2 347.374 78.464C348.142 77.728 349.262 77.36 350.734 77.36V74.8H352.142V77.36C353.614 77.36 354.728 77.728 355.486 78.464C356.254 79.2 356.638 80.224 356.638 81.536V81.856C356.638 83.232 356.254 84.2933 355.486 85.04C354.728 85.7867 353.614 86.16 352.142 86.16V89.2H350.734ZM355.198 81.856V81.536C355.198 80.5653 354.947 79.84 354.446 79.36C353.955 78.88 353.182 78.64 352.126 78.64V84.88C353.182 84.88 353.955 84.6347 354.446 84.144C354.947 83.6533 355.198 82.8907 355.198 81.856ZM347.678 81.536V81.856C347.678 82.8907 347.923 83.6533 348.414 84.144C348.915 84.6347 349.694 84.88 350.75 84.88V78.64C349.694 78.64 348.915 78.88 348.414 79.36C347.923 79.84 347.678 80.5653 347.678 81.536ZM358.481 86V77.52H359.889V83.92L364.273 77.52H365.681V86H364.273V79.6L359.889 86H358.481ZM367.447 86L369.751 82.64C369.047 82.48 368.54 82.192 368.231 81.776C367.922 81.3493 367.767 80.8053 367.767 80.144C367.767 79.5893 367.879 79.12 368.103 78.736C368.327 78.3413 368.674 78.0427 369.143 77.84C369.612 77.6267 370.22 77.52 370.967 77.52H374.647V86H373.239V82.768H371.079L369.015 86H367.447ZM369.175 80.144C369.175 80.592 369.303 80.9333 369.559 81.168C369.826 81.4027 370.268 81.52 370.887 81.52H373.239V78.768H370.887C370.268 78.768 369.826 78.8853 369.559 79.12C369.303 79.3547 369.175 79.696 369.175 80.144ZM376.732 78L380.252 80.976V82.224L376.732 85.2V83.632L379.132 81.632L376.732 79.632V78ZM380.412 78L383.932 80.976V82.224L380.412 85.2V83.632L382.812 81.632L380.412 79.632V78Z" fill="#21201F"/>
</g>
<g class="flow-step reveal reveal--fade" data-delay="4">
<rect x="448" y="24" width="237" height="76" rx="4" fill="white" fill-opacity="0.5"/>
<path d="M460.208 62V52.112H456.32V50.8H465.6V52.112H461.712V62H460.208ZM465.604 62V53.52H467.012V59.92L471.396 53.52H472.804V62H471.396V55.6L467.012 62H465.604ZM475.21 62V53.52H482.25V62H480.842V54.768H476.618V62H475.21ZM487.06 62.16C486.441 62.16 485.913 62.048 485.476 61.824C485.049 61.5893 484.724 61.2747 484.5 60.88C484.276 60.4747 484.164 60.0213 484.164 59.52C484.164 58.6773 484.409 58.0693 484.9 57.696C485.401 57.3227 486.116 57.136 487.044 57.136H489.796V56.56C489.796 55.8347 489.63 55.3333 489.3 55.056C488.98 54.7787 488.494 54.64 487.844 54.64C487.236 54.64 486.793 54.7573 486.516 54.992C486.238 55.216 486.084 55.472 486.052 55.76H484.644C484.676 55.3013 484.83 54.896 485.108 54.544C485.385 54.1813 485.764 53.8933 486.244 53.68C486.724 53.4667 487.284 53.36 487.924 53.36C488.596 53.36 489.177 53.4667 489.668 53.68C490.158 53.8827 490.537 54.208 490.804 54.656C491.07 55.0933 491.204 55.6747 491.204 56.4V59.84C491.204 60.288 491.204 60.6827 491.204 61.024C491.214 61.3547 491.241 61.68 491.284 62H490.052C490.02 61.7547 489.998 61.5253 489.988 61.312C489.977 61.088 489.972 60.8373 489.972 60.56C489.748 61.008 489.385 61.3867 488.884 61.696C488.382 62.0053 487.774 62.16 487.06 62.16ZM487.364 60.88C487.812 60.88 488.217 60.8 488.58 60.64C488.953 60.48 489.246 60.2453 489.46 59.936C489.684 59.6267 489.796 59.248 489.796 58.8V58.224H487.284C486.761 58.224 486.35 58.3307 486.052 58.544C485.753 58.7467 485.604 59.072 485.604 59.52C485.604 59.9147 485.742 60.24 486.02 60.496C486.308 60.752 486.756 60.88 487.364 60.88ZM496.411 64V60.752H497.451C497.611 60.5387 497.749 60.1813 497.867 59.68C497.984 59.168 498.075 58.5707 498.139 57.888C498.213 57.2053 498.251 56.496 498.251 55.76V53.52H504.171V60.752H505.371V64H504.027V62H497.755V64H496.411ZM498.891 60.752H502.763V54.768H499.627V56.08C499.627 56.976 499.563 57.8453 499.435 58.688C499.317 59.52 499.136 60.208 498.891 60.752ZM510.418 62.16C509.703 62.16 509.031 62.0053 508.402 61.696C507.783 61.376 507.282 60.896 506.898 60.256C506.525 59.616 506.338 58.8107 506.338 57.84V57.52C506.338 56.6027 506.525 55.8347 506.898 55.216C507.282 54.5973 507.783 54.1333 508.402 53.824C509.031 53.5147 509.703 53.36 510.418 53.36C511.143 53.36 511.815 53.5147 512.434 53.824C513.053 54.1333 513.549 54.5973 513.922 55.216C514.306 55.8347 514.498 56.6027 514.498 57.52V57.84C514.498 58.8107 514.306 59.616 513.922 60.256C513.549 60.896 513.053 61.376 512.434 61.696C511.815 62.0053 511.143 62.16 510.418 62.16ZM510.418 60.88C510.855 60.88 511.271 60.784 511.666 60.592C512.071 60.3893 512.402 60.064 512.658 59.616C512.925 59.168 513.058 58.576 513.058 57.84V57.52C513.058 56.8373 512.925 56.288 512.658 55.872C512.402 55.4453 512.071 55.136 511.666 54.944C511.271 54.7413 510.855 54.64 510.418 54.64C509.991 54.64 509.575 54.7413 509.17 54.944C508.765 55.136 508.429 55.4453 508.162 55.872C507.906 56.288 507.778 56.8373 507.778 57.52V57.84C507.778 58.576 507.906 59.168 508.162 59.616C508.429 60.064 508.765 60.3893 509.17 60.592C509.575 60.784 509.991 60.88 510.418 60.88ZM519.852 62.16C519.105 62.16 518.428 61.9733 517.82 61.6C517.223 61.216 516.743 60.6667 516.38 59.952C516.028 59.2373 515.852 58.3733 515.852 57.36V57.04C515.852 55.76 515.98 54.6667 516.236 53.76C516.503 52.8533 516.951 52.1493 517.58 51.648C518.209 51.136 519.073 50.8533 520.172 50.8C520.62 50.7787 521.031 50.7627 521.404 50.752C521.777 50.7307 522.113 50.6987 522.412 50.656C522.711 50.6027 522.977 50.5173 523.212 50.4V51.76C523.105 51.824 522.929 51.8773 522.684 51.92C522.449 51.9627 522.145 52 521.772 52.032C521.399 52.0533 520.945 52.0747 520.412 52.096C519.729 52.1067 519.153 52.2187 518.684 52.432C518.225 52.6453 517.868 52.9867 517.612 53.456C517.356 53.9253 517.196 54.56 517.132 55.36C517.303 54.976 517.537 54.6507 517.836 54.384C518.135 54.1067 518.481 53.8933 518.876 53.744C519.271 53.5947 519.703 53.52 520.172 53.52C520.897 53.52 521.532 53.68 522.076 54C522.631 54.32 523.063 54.7787 523.372 55.376C523.692 55.9733 523.852 56.688 523.852 57.52V57.84C523.852 58.7147 523.676 59.4773 523.324 60.128C522.983 60.768 522.508 61.2693 521.9 61.632C521.303 61.984 520.62 62.16 519.852 62.16ZM519.852 60.88C520.599 60.88 521.212 60.624 521.692 60.112C522.172 59.5893 522.412 58.832 522.412 57.84V57.52C522.412 56.6987 522.172 56.0427 521.692 55.552C521.212 55.0507 520.599 54.8 519.852 54.8C519.105 54.8 518.492 55.0507 518.012 55.552C517.532 56.0427 517.292 56.6987 517.292 57.52V57.84C517.292 58.4693 517.404 59.0133 517.628 59.472C517.863 59.92 518.172 60.2667 518.556 60.512C518.951 60.7573 519.383 60.88 519.852 60.88ZM528.104 62.16C527.485 62.16 526.957 62.048 526.52 61.824C526.093 61.5893 525.768 61.2747 525.544 60.88C525.32 60.4747 525.208 60.0213 525.208 59.52C525.208 58.6773 525.453 58.0693 525.944 57.696C526.445 57.3227 527.16 57.136 528.088 57.136H530.84V56.56C530.84 55.8347 530.674 55.3333 530.344 55.056C530.024 54.7787 529.538 54.64 528.888 54.64C528.28 54.64 527.837 54.7573 527.56 54.992C527.282 55.216 527.128 55.472 527.096 55.76H525.688C525.72 55.3013 525.874 54.896 526.152 54.544C526.429 54.1813 526.808 53.8933 527.288 53.68C527.768 53.4667 528.328 53.36 528.968 53.36C529.64 53.36 530.221 53.4667 530.712 53.68C531.202 53.8827 531.581 54.208 531.848 54.656C532.114 55.0933 532.248 55.6747 532.248 56.4V59.84C532.248 60.288 532.248 60.6827 532.248 61.024C532.258 61.3547 532.285 61.68 532.328 62H531.096C531.064 61.7547 531.042 61.5253 531.032 61.312C531.021 61.088 531.016 60.8373 531.016 60.56C530.792 61.008 530.429 61.3867 529.928 61.696C529.426 62.0053 528.818 62.16 528.104 62.16ZM528.408 60.88C528.856 60.88 529.261 60.8 529.624 60.64C529.997 60.48 530.29 60.2453 530.504 59.936C530.728 59.6267 530.84 59.248 530.84 58.8V58.224H528.328C527.805 58.224 527.394 58.3307 527.096 58.544C526.797 58.7467 526.648 59.072 526.648 59.52C526.648 59.9147 526.786 60.24 527.064 60.496C527.352 60.752 527.8 60.88 528.408 60.88ZM534.574 62V53.52H538.254C538.958 53.52 539.534 53.6213 539.982 53.824C540.43 54.016 540.761 54.288 540.974 54.64C541.188 54.9813 541.294 55.3813 541.294 55.84C541.294 56.2133 541.172 56.5707 540.926 56.912C540.692 57.2427 540.388 57.472 540.014 57.6C540.537 57.728 540.932 57.9733 541.198 58.336C541.476 58.688 541.614 59.104 541.614 59.584C541.614 60.32 541.369 60.9067 540.878 61.344C540.388 61.7813 539.62 62 538.574 62H534.574ZM535.982 60.752H538.574C539.172 60.752 539.593 60.6453 539.838 60.432C540.084 60.2187 540.206 59.9147 540.206 59.52C540.206 59.1147 540.084 58.8053 539.838 58.592C539.593 58.368 539.172 58.256 538.574 58.256H535.982V60.752ZM535.982 57.104H538.254C538.862 57.104 539.284 56.9973 539.518 56.784C539.764 56.5707 539.886 56.2773 539.886 55.904C539.886 55.552 539.764 55.2747 539.518 55.072C539.284 54.8693 538.862 54.768 538.254 54.768H535.982V57.104ZM543.061 62.16C542.987 62.16 542.907 62.1547 542.821 62.144C542.747 62.1333 542.667 62.1227 542.581 62.112V60.704C542.613 60.7147 542.693 60.72 542.821 60.72C543.141 60.72 543.403 60.5813 543.605 60.304C543.808 60.016 543.952 59.5147 544.037 58.8C544.133 58.0747 544.181 57.0613 544.181 55.76V53.52H550.261V62H548.853V54.768H545.589V56.08C545.589 57.264 545.536 58.2507 545.429 59.04C545.323 59.8187 545.163 60.4373 544.949 60.896C544.747 61.3547 544.485 61.68 544.165 61.872C543.845 62.064 543.477 62.16 543.061 62.16ZM556.181 62.16C555.466 62.16 554.794 62.0053 554.165 61.696C553.546 61.3867 553.045 60.912 552.661 60.272C552.287 59.632 552.101 58.8213 552.101 57.84V57.52C552.101 56.5813 552.282 55.808 552.645 55.2C553.007 54.5813 553.487 54.1227 554.085 53.824C554.682 53.5147 555.327 53.36 556.021 53.36C557.269 53.36 558.234 53.7013 558.917 54.384C559.599 55.0667 559.941 56.032 559.941 57.28V58.176H553.509C553.509 58.8373 553.642 59.3653 553.909 59.76C554.186 60.1547 554.527 60.4427 554.933 60.624C555.349 60.7947 555.765 60.88 556.181 60.88C556.821 60.88 557.311 60.7733 557.653 60.56C558.005 60.3467 558.255 60.0533 558.405 59.68H559.781C559.61 60.4907 559.189 61.1093 558.517 61.536C557.855 61.952 557.077 62.16 556.181 62.16ZM556.101 54.64C555.663 54.64 555.247 54.7253 554.853 54.896C554.458 55.056 554.133 55.312 553.877 55.664C553.631 56.016 553.509 56.4693 553.509 57.024H558.613C558.602 56.4373 558.479 55.9733 558.245 55.632C558.021 55.28 557.722 55.0293 557.349 54.88C556.975 54.72 556.559 54.64 556.101 54.64ZM561.782 62V53.52H563.19V57.056H567.574V53.52H568.982V62H567.574V58.304H563.19V62H561.782ZM571.387 62V53.52H572.795V59.92L577.179 53.52H578.587V62H577.179V55.6L572.795 62H571.387ZM580.353 62L582.657 58.64C581.953 58.48 581.446 58.192 581.137 57.776C580.828 57.3493 580.673 56.8053 580.673 56.144C580.673 55.5893 580.785 55.12 581.009 54.736C581.233 54.3413 581.58 54.0427 582.049 53.84C582.518 53.6267 583.126 53.52 583.873 53.52H587.553V62H586.145V58.768H583.985L581.921 62H580.353ZM582.081 56.144C582.081 56.592 582.209 56.9333 582.465 57.168C582.732 57.4027 583.174 57.52 583.793 57.52H586.145V54.768H583.793C583.174 54.768 582.732 54.8853 582.465 55.12C582.209 55.3547 582.081 55.696 582.081 56.144ZM591.078 62.16C590.875 62.16 590.689 62.1067 590.518 62C590.347 61.904 590.209 61.7707 590.102 61.6C590.006 61.4293 589.958 61.2427 589.958 61.04C589.958 60.72 590.065 60.4533 590.278 60.24C590.502 60.0267 590.769 59.92 591.078 59.92C591.387 59.92 591.649 60.0267 591.862 60.24C592.086 60.4533 592.198 60.72 592.198 61.04C592.198 61.2427 592.145 61.4293 592.038 61.6C591.942 61.7707 591.809 61.904 591.638 62C591.478 62.1067 591.291 62.16 591.078 62.16ZM591.078 55.6C590.875 55.6 590.689 55.552 590.518 55.456C590.347 55.3493 590.209 55.2107 590.102 55.04C590.006 54.8693 589.958 54.6827 589.958 54.48C589.958 54.16 590.065 53.8933 590.278 53.68C590.502 53.4667 590.769 53.36 591.078 53.36C591.387 53.36 591.649 53.4667 591.862 53.68C592.086 53.8933 592.198 54.16 592.198 54.48C592.198 54.6827 592.145 54.8693 592.038 55.04C591.942 55.2107 591.809 55.3493 591.638 55.456C591.478 55.552 591.291 55.6 591.078 55.6ZM457.28 86V77.52H464.32V86H462.912V78.768H458.688V86H457.28ZM470.234 86.16C469.519 86.16 468.847 86.0053 468.218 85.696C467.599 85.376 467.098 84.896 466.714 84.256C466.34 83.616 466.154 82.8107 466.154 81.84V81.52C466.154 80.6027 466.34 79.8347 466.714 79.216C467.098 78.5973 467.599 78.1333 468.218 77.824C468.847 77.5147 469.519 77.36 470.234 77.36C470.959 77.36 471.631 77.5147 472.25 77.824C472.868 78.1333 473.364 78.5973 473.738 79.216C474.122 79.8347 474.314 80.6027 474.314 81.52V81.84C474.314 82.8107 474.122 83.616 473.738 84.256C473.364 84.896 472.868 85.376 472.25 85.696C471.631 86.0053 470.959 86.16 470.234 86.16ZM470.234 84.88C470.671 84.88 471.087 84.784 471.482 84.592C471.887 84.3893 472.218 84.064 472.474 83.616C472.74 83.168 472.874 82.576 472.874 81.84V81.52C472.874 80.8373 472.74 80.288 472.474 79.872C472.218 79.4453 471.887 79.136 471.482 78.944C471.087 78.7413 470.671 78.64 470.234 78.64C469.807 78.64 469.391 78.7413 468.986 78.944C468.58 79.136 468.244 79.4453 467.978 79.872C467.722 80.288 467.594 80.8373 467.594 81.52V81.84C467.594 82.576 467.722 83.168 467.978 83.616C468.244 84.064 468.58 84.3893 468.986 84.592C469.391 84.784 469.807 84.88 470.234 84.88ZM479.988 86V77.52H485.748V78.768H481.396V86H479.988ZM490.551 86.16C489.836 86.16 489.164 86.0053 488.535 85.696C487.916 85.376 487.415 84.896 487.031 84.256C486.657 83.616 486.471 82.8107 486.471 81.84V81.52C486.471 80.6027 486.657 79.8347 487.031 79.216C487.415 78.5973 487.916 78.1333 488.535 77.824C489.164 77.5147 489.836 77.36 490.551 77.36C491.276 77.36 491.948 77.5147 492.567 77.824C493.185 78.1333 493.681 78.5973 494.055 79.216C494.439 79.8347 494.631 80.6027 494.631 81.52V81.84C494.631 82.8107 494.439 83.616 494.055 84.256C493.681 84.896 493.185 85.376 492.567 85.696C491.948 86.0053 491.276 86.16 490.551 86.16ZM490.551 84.88C490.988 84.88 491.404 84.784 491.799 84.592C492.204 84.3893 492.535 84.064 492.791 83.616C493.057 83.168 493.191 82.576 493.191 81.84V81.52C493.191 80.8373 493.057 80.288 492.791 79.872C492.535 79.4453 492.204 79.136 491.799 78.944C491.404 78.7413 490.988 78.64 490.551 78.64C490.124 78.64 489.708 78.7413 489.303 78.944C488.897 79.136 488.561 79.4453 488.295 79.872C488.039 80.288 487.911 80.8373 487.911 81.52V81.84C487.911 82.576 488.039 83.168 488.295 83.616C488.561 84.064 488.897 84.3893 489.303 84.592C489.708 84.784 490.124 84.88 490.551 84.88ZM496.464 89.2V77.52H497.776V79.12C498.064 78.5547 498.464 78.1227 498.976 77.824C499.499 77.5147 500.102 77.36 500.784 77.36C501.851 77.36 502.704 77.712 503.344 78.416C503.984 79.1093 504.304 80.144 504.304 81.52V81.84C504.304 82.8 504.155 83.6 503.856 84.24C503.568 84.88 503.158 85.36 502.624 85.68C502.102 86 501.488 86.16 500.784 86.16C500.059 86.16 499.451 86 498.96 85.68C498.48 85.36 498.118 84.96 497.872 84.48V89.2H496.464ZM500.464 84.912C501.158 84.912 501.734 84.6507 502.192 84.128C502.662 83.6053 502.896 82.8427 502.896 81.84V81.52C502.896 80.592 502.662 79.8773 502.192 79.376C501.734 78.864 501.158 78.608 500.464 78.608C499.952 78.608 499.499 78.7147 499.104 78.928C498.72 79.1413 498.416 79.4347 498.192 79.808C497.979 80.1707 497.872 80.5813 497.872 81.04V82.32C497.872 82.832 497.979 83.2853 498.192 83.68C498.416 84.064 498.72 84.368 499.104 84.592C499.499 84.8053 499.952 84.912 500.464 84.912ZM509.668 86.16C508.953 86.16 508.281 86.0053 507.652 85.696C507.033 85.376 506.532 84.896 506.148 84.256C505.775 83.616 505.588 82.8107 505.588 81.84V81.52C505.588 80.6027 505.775 79.8347 506.148 79.216C506.532 78.5973 507.033 78.1333 507.652 77.824C508.281 77.5147 508.953 77.36 509.668 77.36C510.393 77.36 511.065 77.5147 511.684 77.824C512.303 78.1333 512.799 78.5973 513.172 79.216C513.556 79.8347 513.748 80.6027 513.748 81.52V81.84C513.748 82.8107 513.556 83.616 513.172 84.256C512.799 84.896 512.303 85.376 511.684 85.696C511.065 86.0053 510.393 86.16 509.668 86.16ZM509.668 84.88C510.105 84.88 510.521 84.784 510.916 84.592C511.321 84.3893 511.652 84.064 511.908 83.616C512.175 83.168 512.308 82.576 512.308 81.84V81.52C512.308 80.8373 512.175 80.288 511.908 79.872C511.652 79.4453 511.321 79.136 510.916 78.944C510.521 78.7413 510.105 78.64 509.668 78.64C509.241 78.64 508.825 78.7413 508.42 78.944C508.015 79.136 507.679 79.4453 507.412 79.872C507.156 80.288 507.028 80.8373 507.028 81.52V81.84C507.028 82.576 507.156 83.168 507.412 83.616C507.679 84.064 508.015 84.3893 508.42 84.592C508.825 84.784 509.241 84.88 509.668 84.88ZM514.466 88V84.752H515.506C515.666 84.5387 515.804 84.1813 515.922 83.68C516.039 83.168 516.13 82.5707 516.194 81.888C516.268 81.2053 516.306 80.496 516.306 79.76V77.52H522.226V84.752H523.426V88H522.082V86H515.81V88H514.466ZM516.946 84.752H520.818V78.768H517.682V80.08C517.682 80.976 517.618 81.8453 517.49 82.688C517.372 83.52 517.191 84.208 516.946 84.752ZM527.525 86.16C526.907 86.16 526.379 86.048 525.941 85.824C525.515 85.5893 525.189 85.2747 524.965 84.88C524.741 84.4747 524.629 84.0213 524.629 83.52C524.629 82.6773 524.875 82.0693 525.365 81.696C525.867 81.3227 526.581 81.136 527.509 81.136H530.261V80.56C530.261 79.8347 530.096 79.3333 529.765 79.056C529.445 78.7787 528.96 78.64 528.309 78.64C527.701 78.64 527.259 78.7573 526.981 78.992C526.704 79.216 526.549 79.472 526.517 79.76H525.109C525.141 79.3013 525.296 78.896 525.573 78.544C525.851 78.1813 526.229 77.8933 526.709 77.68C527.189 77.4667 527.749 77.36 528.389 77.36C529.061 77.36 529.643 77.4667 530.133 77.68C530.624 77.8827 531.003 78.208 531.269 78.656C531.536 79.0933 531.669 79.6747 531.669 80.4V83.84C531.669 84.288 531.669 84.6827 531.669 85.024C531.68 85.3547 531.707 85.68 531.749 86H530.517C530.485 85.7547 530.464 85.5253 530.453 85.312C530.443 85.088 530.437 84.8373 530.437 84.56C530.213 85.008 529.851 85.3867 529.349 85.696C528.848 86.0053 528.24 86.16 527.525 86.16ZM527.829 84.88C528.277 84.88 528.683 84.8 529.045 84.64C529.419 84.48 529.712 84.2453 529.925 83.936C530.149 83.6267 530.261 83.248 530.261 82.8V82.224H527.749C527.227 82.224 526.816 82.3307 526.517 82.544C526.219 82.7467 526.069 83.072 526.069 83.52C526.069 83.9147 526.208 84.24 526.485 84.496C526.773 84.752 527.221 84.88 527.829 84.88ZM533.996 86V77.52H535.5L538.524 82.8L541.548 77.52H542.956V86H541.548V79.84L539.036 84.16H537.916L535.404 79.84V86H533.996ZM548.552 89.2L553.608 74.8H554.952L549.896 89.2H548.552ZM560.559 86V77.52H567.599V86H566.191V78.768H561.967V86H560.559ZM573.513 86.16C572.798 86.16 572.126 86.0053 571.497 85.696C570.878 85.376 570.377 84.896 569.993 84.256C569.62 83.616 569.433 82.8107 569.433 81.84V81.52C569.433 80.6027 569.62 79.8347 569.993 79.216C570.377 78.5973 570.878 78.1333 571.497 77.824C572.126 77.5147 572.798 77.36 573.513 77.36C574.238 77.36 574.91 77.5147 575.529 77.824C576.148 78.1333 576.644 78.5973 577.017 79.216C577.401 79.8347 577.593 80.6027 577.593 81.52V81.84C577.593 82.8107 577.401 83.616 577.017 84.256C576.644 84.896 576.148 85.376 575.529 85.696C574.91 86.0053 574.238 86.16 573.513 86.16ZM573.513 84.88C573.95 84.88 574.366 84.784 574.761 84.592C575.166 84.3893 575.497 84.064 575.753 83.616C576.02 83.168 576.153 82.576 576.153 81.84V81.52C576.153 80.8373 576.02 80.288 575.753 79.872C575.497 79.4453 575.166 79.136 574.761 78.944C574.366 78.7413 573.95 78.64 573.513 78.64C573.086 78.64 572.67 78.7413 572.265 78.944C571.86 79.136 571.524 79.4453 571.257 79.872C571.001 80.288 570.873 80.8373 570.873 81.52V81.84C570.873 82.576 571.001 83.168 571.257 83.616C571.524 84.064 571.86 84.3893 572.265 84.592C572.67 84.784 573.086 84.88 573.513 84.88ZM582.307 88V84.752H583.347C583.507 84.5387 583.646 84.1813 583.763 83.68C583.88 83.168 583.971 82.5707 584.035 81.888C584.11 81.2053 584.147 80.496 584.147 79.76V77.52H590.067V84.752H591.267V88H589.923V86H583.651V88H582.307ZM584.787 84.752H588.659V78.768H585.523V80.08C585.523 80.976 585.459 81.8453 585.331 82.688C585.214 83.52 585.032 84.208 584.787 84.752ZM595.367 86.16C594.748 86.16 594.22 86.048 593.783 85.824C593.356 85.5893 593.031 85.2747 592.807 84.88C592.583 84.4747 592.471 84.0213 592.471 83.52C592.471 82.6773 592.716 82.0693 593.207 81.696C593.708 81.3227 594.423 81.136 595.351 81.136H598.103V80.56C598.103 79.8347 597.937 79.3333 597.607 79.056C597.287 78.7787 596.801 78.64 596.151 78.64C595.543 78.64 595.1 78.7573 594.823 78.992C594.545 79.216 594.391 79.472 594.359 79.76H592.951C592.983 79.3013 593.137 78.896 593.415 78.544C593.692 78.1813 594.071 77.8933 594.551 77.68C595.031 77.4667 595.591 77.36 596.231 77.36C596.903 77.36 597.484 77.4667 597.975 77.68C598.465 77.8827 598.844 78.208 599.111 78.656C599.377 79.0933 599.511 79.6747 599.511 80.4V83.84C599.511 84.288 599.511 84.6827 599.511 85.024C599.521 85.3547 599.548 85.68 599.591 86H598.359C598.327 85.7547 598.305 85.5253 598.295 85.312C598.284 85.088 598.279 84.8373 598.279 84.56C598.055 85.008 597.692 85.3867 597.191 85.696C596.689 86.0053 596.081 86.16 595.367 86.16ZM595.671 84.88C596.119 84.88 596.524 84.8 596.887 84.64C597.26 84.48 597.553 84.2453 597.767 83.936C597.991 83.6267 598.103 83.248 598.103 82.8V82.224H595.591C595.068 82.224 594.657 82.3307 594.359 82.544C594.06 82.7467 593.911 83.072 593.911 83.52C593.911 83.9147 594.049 84.24 594.327 84.496C594.615 84.752 595.063 84.88 595.671 84.88ZM601.837 86V77.52H603.245V81.072H604.365L607.533 77.52H609.197L605.517 81.584L609.357 86H607.565L604.365 82.288H603.245V86H601.837ZM610.881 89.2V77.52H612.193V79.12C612.481 78.5547 612.881 78.1227 613.393 77.824C613.915 77.5147 614.518 77.36 615.201 77.36C616.267 77.36 617.121 77.712 617.761 78.416C618.401 79.1093 618.721 80.144 618.721 81.52V81.84C618.721 82.8 618.571 83.6 618.273 84.24C617.985 84.88 617.574 85.36 617.041 85.68C616.518 86 615.905 86.16 615.201 86.16C614.475 86.16 613.867 86 613.377 85.68C612.897 85.36 612.534 84.96 612.289 84.48V89.2H610.881ZM614.881 84.912C615.574 84.912 616.15 84.6507 616.609 84.128C617.078 83.6053 617.313 82.8427 617.313 81.84V81.52C617.313 80.592 617.078 79.8773 616.609 79.376C616.15 78.864 615.574 78.608 614.881 78.608C614.369 78.608 613.915 78.7147 613.521 78.928C613.137 79.1413 612.833 79.4347 612.609 79.808C612.395 80.1707 612.289 80.5813 612.289 81.04V82.32C612.289 82.832 612.395 83.2853 612.609 83.68C612.833 84.064 613.137 84.368 613.521 84.592C613.915 84.8053 614.369 84.912 614.881 84.912ZM623.844 86.16C623.119 86.16 622.463 86.0053 621.876 85.696C621.3 85.376 620.842 84.896 620.5 84.256C620.17 83.616 620.004 82.8107 620.004 81.84V81.52C620.004 80.6027 620.186 79.8347 620.548 79.216C620.911 78.5973 621.386 78.1333 621.972 77.824C622.559 77.5147 623.183 77.36 623.844 77.36C624.516 77.36 625.092 77.4827 625.572 77.728C626.063 77.9627 626.458 78.288 626.756 78.704C627.055 79.1093 627.258 79.568 627.364 80.08H625.924C625.754 79.6747 625.514 79.3333 625.204 79.056C624.906 78.7787 624.452 78.64 623.844 78.64C623.428 78.64 623.039 78.7413 622.676 78.944C622.314 79.136 622.015 79.4453 621.78 79.872C621.556 80.288 621.444 80.8373 621.444 81.52V81.84C621.444 82.5653 621.556 83.152 621.78 83.6C622.015 84.048 622.314 84.3733 622.676 84.576C623.039 84.7787 623.428 84.88 623.844 84.88C624.367 84.88 624.804 84.752 625.156 84.496C625.519 84.24 625.775 83.888 625.924 83.44H627.364C627.236 83.9947 627.007 84.48 626.676 84.896C626.346 85.3013 625.94 85.616 625.46 85.84C624.98 86.0533 624.442 86.16 623.844 86.16ZM631.059 86V78.768H628.163V77.52H635.363V78.768H632.467V86H631.059ZM640.171 86.16C639.456 86.16 638.784 86.0053 638.155 85.696C637.536 85.376 637.035 84.896 636.651 84.256C636.277 83.616 636.091 82.8107 636.091 81.84V81.52C636.091 80.6027 636.277 79.8347 636.651 79.216C637.035 78.5973 637.536 78.1333 638.155 77.824C638.784 77.5147 639.456 77.36 640.171 77.36C640.896 77.36 641.568 77.5147 642.187 77.824C642.805 78.1333 643.301 78.5973 643.675 79.216C644.059 79.8347 644.251 80.6027 644.251 81.52V81.84C644.251 82.8107 644.059 83.616 643.675 84.256C643.301 84.896 642.805 85.376 642.187 85.696C641.568 86.0053 640.896 86.16 640.171 86.16ZM640.171 84.88C640.608 84.88 641.024 84.784 641.419 84.592C641.824 84.3893 642.155 84.064 642.411 83.616C642.677 83.168 642.811 82.576 642.811 81.84V81.52C642.811 80.8373 642.677 80.288 642.411 79.872C642.155 79.4453 641.824 79.136 641.419 78.944C641.024 78.7413 640.608 78.64 640.171 78.64C639.744 78.64 639.328 78.7413 638.923 78.944C638.517 79.136 638.181 79.4453 637.915 79.872C637.659 80.288 637.531 80.8373 637.531 81.52V81.84C637.531 82.576 637.659 83.168 637.915 83.616C638.181 84.064 638.517 84.3893 638.923 84.592C639.328 84.784 639.744 84.88 640.171 84.88ZM646.084 89.2V77.52H647.396V79.12C647.684 78.5547 648.084 78.1227 648.596 77.824C649.119 77.5147 649.722 77.36 650.404 77.36C651.471 77.36 652.324 77.712 652.964 78.416C653.604 79.1093 653.924 80.144 653.924 81.52V81.84C653.924 82.8 653.775 83.6 653.476 84.24C653.188 84.88 652.778 85.36 652.244 85.68C651.722 86 651.108 86.16 650.404 86.16C649.679 86.16 649.071 86 648.58 85.68C648.1 85.36 647.738 84.96 647.492 84.48V89.2H646.084ZM650.084 84.912C650.778 84.912 651.354 84.6507 651.812 84.128C652.282 83.6053 652.516 82.8427 652.516 81.84V81.52C652.516 80.592 652.282 79.8773 651.812 79.376C651.354 78.864 650.778 78.608 650.084 78.608C649.572 78.608 649.119 78.7147 648.724 78.928C648.34 79.1413 648.036 79.4347 647.812 79.808C647.599 80.1707 647.492 80.5813 647.492 81.04V82.32C647.492 82.832 647.599 83.2853 647.812 83.68C648.036 84.064 648.34 84.368 648.724 84.592C649.119 84.8053 649.572 84.912 650.084 84.912ZM658.184 86.16C657.565 86.16 657.037 86.048 656.6 85.824C656.173 85.5893 655.848 85.2747 655.624 84.88C655.4 84.4747 655.288 84.0213 655.288 83.52C655.288 82.6773 655.533 82.0693 656.024 81.696C656.525 81.3227 657.24 81.136 658.168 81.136H660.92V80.56C660.92 79.8347 660.755 79.3333 660.424 79.056C660.104 78.7787 659.619 78.64 658.968 78.64C658.36 78.64 657.917 78.7573 657.64 78.992C657.363 79.216 657.208 79.472 657.176 79.76H655.768C655.8 79.3013 655.955 78.896 656.232 78.544C656.509 78.1813 656.888 77.8933 657.368 77.68C657.848 77.4667 658.408 77.36 659.048 77.36C659.72 77.36 660.301 77.4667 660.792 77.68C661.283 77.8827 661.661 78.208 661.928 78.656C662.195 79.0933 662.328 79.6747 662.328 80.4V83.84C662.328 84.288 662.328 84.6827 662.328 85.024C662.339 85.3547 662.365 85.68 662.408 86H661.176C661.144 85.7547 661.123 85.5253 661.112 85.312C661.101 85.088 661.096 84.8373 661.096 84.56C660.872 85.008 660.509 85.3867 660.008 85.696C659.507 86.0053 658.899 86.16 658.184 86.16ZM658.488 84.88C658.936 84.88 659.341 84.8 659.704 84.64C660.077 84.48 660.371 84.2453 660.584 83.936C660.808 83.6267 660.92 83.248 660.92 82.8V82.224H658.408C657.885 82.224 657.475 82.3307 657.176 82.544C656.877 82.7467 656.728 83.072 656.728 83.52C656.728 83.9147 656.867 84.24 657.144 84.496C657.432 84.752 657.88 84.88 658.488 84.88ZM664.655 86V77.52H666.159L669.183 82.8L672.207 77.52H673.615V86H672.207V79.84L669.695 84.16H668.575L666.063 79.84V86H664.655Z" fill="#21201F"/>
</g>
<g class="flow-step reveal reveal--fade" data-delay="1">
<circle cx="204" cy="80.3301" r="3" fill="#E07E92"/>
<path d="M237 80.3301L229.5 84.6602V81.3301L205 81.33V79.33L229.5 79.3301V76L237 80.3301Z" fill="#E07E92"/>
</g>
<g class="flow-step reveal reveal--fade" data-delay="3">
<circle cx="416" cy="80.3301" r="3" fill="#E07E92"/>
<path d="M449 80.3301L441.5 84.6602V81.3301L417 81.33V79.33L441.5 79.3301V76L449 80.3301Z" fill="#E07E92"/>
</g>
<g class="flow-step reveal reveal--fade" data-delay="5">
<circle cx="684" cy="80.3301" r="3" fill="#E07E92"/>
<path d="M717 80.3301L709.5 84.6602V81.3301L685 81.33V79.33L709.5 79.3301V76L717 80.3301Z" fill="#E07E92"/>
</g>
<g class="flow-step reveal reveal--fade" data-delay="6">
<rect x="717" y="24" width="180" height="76" rx="4" fill="white" fill-opacity="0.5"/>
<path d="M725.32 64.08V60.688H726.52C726.723 60.2827 726.888 59.7867 727.016 59.2C727.155 58.6027 727.261 57.9573 727.336 57.264C727.421 56.56 727.48 55.8507 727.512 55.136C727.544 54.4107 727.56 53.712 727.56 53.04V50.8H734.84V60.688H736.2V64.08H734.76V62H726.76V64.08H725.32ZM728.12 60.688H733.336V52.112H729.032V53.36C729.032 54.9813 728.957 56.384 728.808 57.568C728.669 58.752 728.44 59.792 728.12 60.688ZM741.171 62.16C740.457 62.16 739.785 62.0053 739.155 61.696C738.537 61.376 738.035 60.896 737.651 60.256C737.278 59.616 737.091 58.8107 737.091 57.84V57.52C737.091 56.6027 737.278 55.8347 737.651 55.216C738.035 54.5973 738.537 54.1333 739.155 53.824C739.785 53.5147 740.457 53.36 741.171 53.36C741.897 53.36 742.569 53.5147 743.187 53.824C743.806 54.1333 744.302 54.5973 744.675 55.216C745.059 55.8347 745.251 56.6027 745.251 57.52V57.84C745.251 58.8107 745.059 59.616 744.675 60.256C744.302 60.896 743.806 61.376 743.187 61.696C742.569 62.0053 741.897 62.16 741.171 62.16ZM741.171 60.88C741.609 60.88 742.025 60.784 742.419 60.592C742.825 60.3893 743.155 60.064 743.411 59.616C743.678 59.168 743.811 58.576 743.811 57.84V57.52C743.811 56.8373 743.678 56.288 743.411 55.872C743.155 55.4453 742.825 55.136 742.419 54.944C742.025 54.7413 741.609 54.64 741.171 54.64C740.745 54.64 740.329 54.7413 739.923 54.944C739.518 55.136 739.182 55.4453 738.915 55.872C738.659 56.288 738.531 56.8373 738.531 57.52V57.84C738.531 58.576 738.659 59.168 738.915 59.616C739.182 60.064 739.518 60.3893 739.923 60.592C740.329 60.784 740.745 60.88 741.171 60.88ZM750.605 62.16C749.858 62.16 749.181 61.9733 748.573 61.6C747.976 61.216 747.496 60.6667 747.133 59.952C746.781 59.2373 746.605 58.3733 746.605 57.36V57.04C746.605 55.76 746.733 54.6667 746.989 53.76C747.256 52.8533 747.704 52.1493 748.333 51.648C748.962 51.136 749.826 50.8533 750.925 50.8C751.373 50.7787 751.784 50.7627 752.157 50.752C752.53 50.7307 752.866 50.6987 753.165 50.656C753.464 50.6027 753.73 50.5173 753.965 50.4V51.76C753.858 51.824 753.682 51.8773 753.437 51.92C753.202 51.9627 752.898 52 752.525 52.032C752.152 52.0533 751.698 52.0747 751.165 52.096C750.482 52.1067 749.906 52.2187 749.437 52.432C748.978 52.6453 748.621 52.9867 748.365 53.456C748.109 53.9253 747.949 54.56 747.885 55.36C748.056 54.976 748.29 54.6507 748.589 54.384C748.888 54.1067 749.234 53.8933 749.629 53.744C750.024 53.5947 750.456 53.52 750.925 53.52C751.65 53.52 752.285 53.68 752.829 54C753.384 54.32 753.816 54.7787 754.125 55.376C754.445 55.9733 754.605 56.688 754.605 57.52V57.84C754.605 58.7147 754.429 59.4773 754.077 60.128C753.736 60.768 753.261 61.2693 752.653 61.632C752.056 61.984 751.373 62.16 750.605 62.16ZM750.605 60.88C751.352 60.88 751.965 60.624 752.445 60.112C752.925 59.5893 753.165 58.832 753.165 57.84V57.52C753.165 56.6987 752.925 56.0427 752.445 55.552C751.965 55.0507 751.352 54.8 750.605 54.8C749.858 54.8 749.245 55.0507 748.765 55.552C748.285 56.0427 748.045 56.6987 748.045 57.52V57.84C748.045 58.4693 748.157 59.0133 748.381 59.472C748.616 59.92 748.925 60.2667 749.309 60.512C749.704 60.7573 750.136 60.88 750.605 60.88ZM758.857 62.16C758.238 62.16 757.71 62.048 757.273 61.824C756.846 61.5893 756.521 61.2747 756.297 60.88C756.073 60.4747 755.961 60.0213 755.961 59.52C755.961 58.6773 756.206 58.0693 756.697 57.696C757.198 57.3227 757.913 57.136 758.841 57.136H761.593V56.56C761.593 55.8347 761.427 55.3333 761.097 55.056C760.777 54.7787 760.291 54.64 759.641 54.64C759.033 54.64 758.59 54.7573 758.313 54.992C758.035 55.216 757.881 55.472 757.849 55.76H756.441C756.473 55.3013 756.627 54.896 756.905 54.544C757.182 54.1813 757.561 53.8933 758.041 53.68C758.521 53.4667 759.081 53.36 759.721 53.36C760.393 53.36 760.974 53.4667 761.465 53.68C761.955 53.8827 762.334 54.208 762.601 54.656C762.867 55.0933 763.001 55.6747 763.001 56.4V59.84C763.001 60.288 763.001 60.6827 763.001 61.024C763.011 61.3547 763.038 61.68 763.081 62H761.849C761.817 61.7547 761.795 61.5253 761.785 61.312C761.774 61.088 761.769 60.8373 761.769 60.56C761.545 61.008 761.182 61.3867 760.681 61.696C760.179 62.0053 759.571 62.16 758.857 62.16ZM759.161 60.88C759.609 60.88 760.014 60.8 760.377 60.64C760.75 60.48 761.043 60.2453 761.257 59.936C761.481 59.6267 761.593 59.248 761.593 58.8V58.224H759.081C758.558 58.224 758.147 58.3307 757.849 58.544C757.55 58.7467 757.401 59.072 757.401 59.52C757.401 59.9147 757.539 60.24 757.817 60.496C758.105 60.752 758.553 60.88 759.161 60.88ZM765.328 62V53.52H769.008C769.712 53.52 770.288 53.6213 770.736 53.824C771.184 54.016 771.514 54.288 771.728 54.64C771.941 54.9813 772.048 55.3813 772.048 55.84C772.048 56.2133 771.925 56.5707 771.68 56.912C771.445 57.2427 771.141 57.472 770.768 57.6C771.29 57.728 771.685 57.9733 771.952 58.336C772.229 58.688 772.368 59.104 772.368 59.584C772.368 60.32 772.122 60.9067 771.632 61.344C771.141 61.7813 770.373 62 769.328 62H765.328ZM766.736 60.752H769.328C769.925 60.752 770.346 60.6453 770.592 60.432C770.837 60.2187 770.96 59.9147 770.96 59.52C770.96 59.1147 770.837 58.8053 770.592 58.592C770.346 58.368 769.925 58.256 769.328 58.256H766.736V60.752ZM766.736 57.104H769.008C769.616 57.104 770.037 56.9973 770.272 56.784C770.517 56.5707 770.64 56.2773 770.64 55.904C770.64 55.552 770.517 55.2747 770.272 55.072C770.037 54.8693 769.616 54.768 769.008 54.768H766.736V57.104ZM773.814 62.16C773.74 62.16 773.66 62.1547 773.574 62.144C773.5 62.1333 773.42 62.1227 773.334 62.112V60.704C773.366 60.7147 773.446 60.72 773.574 60.72C773.894 60.72 774.156 60.5813 774.358 60.304C774.561 60.016 774.705 59.5147 774.79 58.8C774.886 58.0747 774.934 57.0613 774.934 55.76V53.52H781.014V62H779.606V54.768H776.342V56.08C776.342 57.264 776.289 58.2507 776.182 59.04C776.076 59.8187 775.916 60.4373 775.702 60.896C775.5 61.3547 775.238 61.68 774.918 61.872C774.598 62.064 774.23 62.16 773.814 62.16ZM786.934 62.16C786.219 62.16 785.547 62.0053 784.918 61.696C784.299 61.3867 783.798 60.912 783.414 60.272C783.04 59.632 782.854 58.8213 782.854 57.84V57.52C782.854 56.5813 783.035 55.808 783.398 55.2C783.76 54.5813 784.24 54.1227 784.838 53.824C785.435 53.5147 786.08 53.36 786.774 53.36C788.022 53.36 788.987 53.7013 789.67 54.384C790.352 55.0667 790.694 56.032 790.694 57.28V58.176H784.262C784.262 58.8373 784.395 59.3653 784.662 59.76C784.939 60.1547 785.28 60.4427 785.686 60.624C786.102 60.7947 786.518 60.88 786.934 60.88C787.574 60.88 788.064 60.7733 788.406 60.56C788.758 60.3467 789.008 60.0533 789.158 59.68H790.534C790.363 60.4907 789.942 61.1093 789.27 61.536C788.608 61.952 787.83 62.16 786.934 62.16ZM786.854 54.64C786.416 54.64 786 54.7253 785.606 54.896C785.211 55.056 784.886 55.312 784.63 55.664C784.384 56.016 784.262 56.4693 784.262 57.024H789.366C789.355 56.4373 789.232 55.9733 788.998 55.632C788.774 55.28 788.475 55.0293 788.102 54.88C787.728 54.72 787.312 54.64 786.854 54.64ZM792.535 62V53.52H793.943V57.056H798.327V53.52H799.735V62H798.327V58.304H793.943V62H792.535ZM802.141 62V53.52H803.549V59.92L807.933 53.52H809.341V62H807.933V55.6L803.549 62H802.141ZM815.266 62.16C814.552 62.16 813.88 62.0053 813.25 61.696C812.632 61.3867 812.13 60.912 811.746 60.272C811.373 59.632 811.186 58.8213 811.186 57.84V57.52C811.186 56.5813 811.368 55.808 811.73 55.2C812.093 54.5813 812.573 54.1227 813.17 53.824C813.768 53.5147 814.413 53.36 815.106 53.36C816.354 53.36 817.32 53.7013 818.002 54.384C818.685 55.0667 819.026 56.032 819.026 57.28V58.176H812.594C812.594 58.8373 812.728 59.3653 812.994 59.76C813.272 60.1547 813.613 60.4427 814.018 60.624C814.434 60.7947 814.85 60.88 815.266 60.88C815.906 60.88 816.397 60.7733 816.738 60.56C817.09 60.3467 817.341 60.0533 817.49 59.68H818.866C818.696 60.4907 818.274 61.1093 817.602 61.536C816.941 61.952 816.162 62.16 815.266 62.16ZM815.186 54.64C814.749 54.64 814.333 54.7253 813.938 54.896C813.544 55.056 813.218 55.312 812.962 55.664C812.717 56.016 812.594 56.4693 812.594 57.024H817.698C817.688 56.4373 817.565 55.9733 817.33 55.632C817.106 55.28 816.808 55.0293 816.434 54.88C816.061 54.72 815.645 54.64 815.186 54.64ZM729.16 86.16C728.456 86.16 727.848 86.0587 727.336 85.856C726.824 85.6533 726.424 85.36 726.136 84.976C725.848 84.592 725.683 84.1333 725.64 83.6H727.048C727.101 83.8773 727.219 84.112 727.4 84.304C727.581 84.496 727.821 84.64 728.12 84.736C728.419 84.832 728.765 84.88 729.16 84.88C729.896 84.88 730.429 84.7573 730.76 84.512C731.101 84.256 731.272 83.952 731.272 83.6C731.272 83.184 731.133 82.8587 730.856 82.624C730.579 82.3787 730.099 82.256 729.416 82.256H727.96V81.104H729.32C729.907 81.104 730.323 80.992 730.568 80.768C730.824 80.544 730.952 80.2293 730.952 79.824C730.952 79.504 730.803 79.2267 730.504 78.992C730.205 78.7573 729.757 78.64 729.16 78.64C728.509 78.64 728.035 78.7467 727.736 78.96C727.448 79.1627 727.272 79.456 727.208 79.84H725.8C725.843 79.36 726.003 78.9333 726.28 78.56C726.557 78.1867 726.941 77.8933 727.432 77.68C727.923 77.4667 728.499 77.36 729.16 77.36C730.248 77.36 731.053 77.5893 731.576 78.048C732.099 78.5067 732.36 79.0987 732.36 79.824C732.36 80.2293 732.259 80.5867 732.056 80.896C731.853 81.1947 731.528 81.4293 731.08 81.6C731.677 81.76 732.093 82.016 732.328 82.368C732.563 82.72 732.68 83.1307 732.68 83.6C732.68 84.0587 732.547 84.4853 732.28 84.88C732.013 85.264 731.619 85.5733 731.096 85.808C730.584 86.0427 729.939 86.16 729.16 86.16ZM734.526 86V77.52H735.934V81.056H740.318V77.52H741.726V86H740.318V82.304H735.934V86H734.526ZM746.548 86.16C745.929 86.16 745.401 86.048 744.964 85.824C744.537 85.5893 744.212 85.2747 743.988 84.88C743.764 84.4747 743.652 84.0213 743.652 83.52C743.652 82.6773 743.897 82.0693 744.388 81.696C744.889 81.3227 745.604 81.136 746.532 81.136H749.284V80.56C749.284 79.8347 749.119 79.3333 748.788 79.056C748.468 78.7787 747.983 78.64 747.332 78.64C746.724 78.64 746.281 78.7573 746.004 78.992C745.727 79.216 745.572 79.472 745.54 79.76H744.132C744.164 79.3013 744.319 78.896 744.596 78.544C744.873 78.1813 745.252 77.8933 745.732 77.68C746.212 77.4667 746.772 77.36 747.412 77.36C748.084 77.36 748.665 77.4667 749.156 77.68C749.647 77.8827 750.025 78.208 750.292 78.656C750.559 79.0933 750.692 79.6747 750.692 80.4V83.84C750.692 84.288 750.692 84.6827 750.692 85.024C750.703 85.3547 750.729 85.68 750.772 86H749.54C749.508 85.7547 749.487 85.5253 749.476 85.312C749.465 85.088 749.46 84.8373 749.46 84.56C749.236 85.008 748.873 85.3867 748.372 85.696C747.871 86.0053 747.263 86.16 746.548 86.16ZM746.852 84.88C747.3 84.88 747.705 84.8 748.068 84.64C748.441 84.48 748.735 84.2453 748.948 83.936C749.172 83.6267 749.284 83.248 749.284 82.8V82.224H746.772C746.249 82.224 745.839 82.3307 745.54 82.544C745.241 82.7467 745.092 83.072 745.092 83.52C745.092 83.9147 745.231 84.24 745.508 84.496C745.796 84.752 746.244 84.88 746.852 84.88ZM757.931 86V82.624C757.685 82.7733 757.387 82.9067 757.035 83.024C756.693 83.1413 756.261 83.2 755.739 83.2C754.747 83.2 753.979 82.976 753.435 82.528C752.891 82.08 752.619 81.3173 752.619 80.24V77.52H754.027V80C754.027 80.7253 754.176 81.2267 754.475 81.504C754.773 81.7813 755.275 81.92 755.979 81.92C756.459 81.92 756.869 81.872 757.211 81.776C757.552 81.68 757.792 81.5787 757.931 81.472V77.52H759.339V86H757.931ZM765.254 86.16C764.539 86.16 763.867 86.0053 763.238 85.696C762.619 85.3867 762.118 84.912 761.734 84.272C761.36 83.632 761.174 82.8213 761.174 81.84V81.52C761.174 80.5813 761.355 79.808 761.718 79.2C762.08 78.5813 762.56 78.1227 763.158 77.824C763.755 77.5147 764.4 77.36 765.094 77.36C766.342 77.36 767.307 77.7013 767.99 78.384C768.672 79.0667 769.014 80.032 769.014 81.28V82.176H762.582C762.582 82.8373 762.715 83.3653 762.982 83.76C763.259 84.1547 763.6 84.4427 764.006 84.624C764.422 84.7947 764.838 84.88 765.254 84.88C765.894 84.88 766.384 84.7733 766.726 84.56C767.078 84.3467 767.328 84.0533 767.478 83.68H768.854C768.683 84.4907 768.262 85.1093 767.59 85.536C766.928 85.952 766.15 86.16 765.254 86.16ZM765.174 78.64C764.736 78.64 764.32 78.7253 763.926 78.896C763.531 79.056 763.206 79.312 762.95 79.664C762.704 80.016 762.582 80.4693 762.582 81.024H767.686C767.675 80.4373 767.552 79.9733 767.318 79.632C767.094 79.28 766.795 79.0293 766.422 78.88C766.048 78.72 765.632 78.64 765.174 78.64ZM770.855 86V77.52H772.263V81.056H776.647V77.52H778.055V86H776.647V82.304H772.263V86H770.855ZM780.461 86V77.52H781.869V83.92L786.253 77.52H787.661V86H786.253V79.6L781.869 86H780.461ZM790.066 86V77.52H791.474V83.92L795.858 77.52H797.266V86H795.858V79.6L791.474 86H790.066ZM793.666 76.48C792.834 76.48 792.226 76.304 791.842 75.952C791.458 75.5893 791.266 75.072 791.266 74.4H792.642C792.642 74.7627 792.728 75.0347 792.898 75.216C793.069 75.3973 793.325 75.488 793.666 75.488C794.018 75.488 794.28 75.3973 794.45 75.216C794.632 75.0347 794.722 74.7627 794.722 74.4H796.066C796.066 75.072 795.874 75.5893 795.49 75.952C795.106 76.304 794.498 76.48 793.666 76.48Z" fill="#21201F"/>
<path d="M25.6 134V122.8H32.88V124.096H27.104V127.28H29.6C31.0827 127.28 32.1707 127.589 32.864 128.208C33.568 128.827 33.92 129.637 33.92 130.64C33.92 131.643 33.568 132.453 32.864 133.072C32.1707 133.691 31.0827 134 29.6 134H25.6ZM27.104 132.688H29.52C30.5867 132.688 31.3333 132.512 31.76 132.16C32.1973 131.797 32.416 131.291 32.416 130.64C32.416 129.989 32.1973 129.488 31.76 129.136C31.3333 128.773 30.5867 128.592 29.52 128.592H27.104V132.688ZM35.2044 134.16C35.1297 134.16 35.0497 134.155 34.9644 134.144C34.8897 134.133 34.8097 134.123 34.7244 134.112V132.704C34.7564 132.715 34.8364 132.72 34.9644 132.72C35.2844 132.72 35.5457 132.581 35.7484 132.304C35.951 132.016 36.095 131.515 36.1804 130.8C36.2764 130.075 36.3244 129.061 36.3244 127.76V125.52H42.4044V134H40.9964V126.768H37.7324V128.08C37.7324 129.264 37.679 130.251 37.5724 131.04C37.4657 131.819 37.3057 132.437 37.0924 132.896C36.8897 133.355 36.6284 133.68 36.3084 133.872C35.9884 134.064 35.6204 134.16 35.2044 134.16ZM48.3238 134.16C47.6091 134.16 46.9371 134.005 46.3078 133.696C45.6891 133.376 45.1878 132.896 44.8038 132.256C44.4304 131.616 44.2438 130.811 44.2438 129.84V129.52C44.2438 128.603 44.4304 127.835 44.8038 127.216C45.1878 126.597 45.6891 126.133 46.3078 125.824C46.9371 125.515 47.6091 125.36 48.3238 125.36C49.0491 125.36 49.7211 125.515 50.3398 125.824C50.9584 126.133 51.4544 126.597 51.8278 127.216C52.2118 127.835 52.4038 128.603 52.4038 129.52V129.84C52.4038 130.811 52.2118 131.616 51.8278 132.256C51.4544 132.896 50.9584 133.376 50.3398 133.696C49.7211 134.005 49.0491 134.16 48.3238 134.16ZM48.3238 132.88C48.7611 132.88 49.1771 132.784 49.5718 132.592C49.9771 132.389 50.3078 132.064 50.5638 131.616C50.8304 131.168 50.9638 130.576 50.9638 129.84V129.52C50.9638 128.837 50.8304 128.288 50.5638 127.872C50.3078 127.445 49.9771 127.136 49.5718 126.944C49.1771 126.741 48.7611 126.64 48.3238 126.64C47.8971 126.64 47.4811 126.741 47.0758 126.944C46.6704 127.136 46.3344 127.445 46.0678 127.872C45.8118 128.288 45.6838 128.837 45.6838 129.52V129.84C45.6838 130.576 45.8118 131.168 46.0678 131.616C46.3344 132.064 46.6704 132.389 47.0758 132.592C47.4811 132.784 47.8971 132.88 48.3238 132.88ZM54.2375 134V125.52H55.6455V129.072H56.7655L59.9335 125.52H61.5975L57.9175 129.584L61.7575 134H59.9655L56.7655 130.288H55.6455V134H54.2375ZM62 130.176V128.864H66.8V130.176H62ZM71.8381 134.16C71.1128 134.16 70.4568 134.005 69.8701 133.696C69.2941 133.376 68.8355 132.896 68.4941 132.256C68.1635 131.616 67.9981 130.811 67.9981 129.84V129.52C67.9981 128.603 68.1795 127.835 68.5421 127.216C68.9048 126.597 69.3795 126.133 69.9661 125.824C70.5528 125.515 71.1768 125.36 71.8381 125.36C72.5101 125.36 73.0861 125.483 73.5661 125.728C74.0568 125.963 74.4515 126.288 74.7501 126.704C75.0488 127.109 75.2515 127.568 75.3581 128.08H73.9181C73.7475 127.675 73.5075 127.333 73.1981 127.056C72.8995 126.779 72.4461 126.64 71.8381 126.64C71.4221 126.64 71.0328 126.741 70.6701 126.944C70.3075 127.136 70.0088 127.445 69.7741 127.872C69.5501 128.288 69.4381 128.837 69.4381 129.52V129.84C69.4381 130.565 69.5501 131.152 69.7741 131.6C70.0088 132.048 70.3075 132.373 70.6701 132.576C71.0328 132.779 71.4221 132.88 71.8381 132.88C72.3608 132.88 72.7981 132.752 73.1501 132.496C73.5128 132.24 73.7688 131.888 73.9181 131.44H75.3581C75.2301 131.995 75.0008 132.48 74.6701 132.896C74.3395 133.301 73.9341 133.616 73.4541 133.84C72.9741 134.053 72.4355 134.16 71.8381 134.16ZM76.0806 134L79.2646 129.696L76.2406 125.52H77.8726L80.1126 128.608L82.3526 125.52H83.9206L80.8966 129.616L84.0806 134H82.4166L80.0486 130.688L77.6806 134H76.0806ZM88.805 134.16C88.0903 134.16 87.4183 134.005 86.789 133.696C86.1703 133.387 85.669 132.912 85.285 132.272C84.9117 131.632 84.725 130.821 84.725 129.84V129.52C84.725 128.581 84.9063 127.808 85.269 127.2C85.6317 126.581 86.1117 126.123 86.709 125.824C87.3063 125.515 87.9517 125.36 88.645 125.36C89.893 125.36 90.8583 125.701 91.541 126.384C92.2237 127.067 92.565 128.032 92.565 129.28V130.176H86.133C86.133 130.837 86.2663 131.365 86.533 131.76C86.8103 132.155 87.1517 132.443 87.557 132.624C87.973 132.795 88.389 132.88 88.805 132.88C89.445 132.88 89.9357 132.773 90.277 132.56C90.629 132.347 90.8797 132.053 91.029 131.68H92.405C92.2343 132.491 91.813 133.109 91.141 133.536C90.4797 133.952 89.701 134.16 88.805 134.16ZM88.725 126.64C88.2877 126.64 87.8717 126.725 87.477 126.896C87.0823 127.056 86.757 127.312 86.501 127.664C86.2557 128.016 86.133 128.469 86.133 129.024H91.237C91.2263 128.437 91.1037 127.973 90.869 127.632C90.645 127.28 90.3463 127.029 89.973 126.88C89.5997 126.72 89.1837 126.64 88.725 126.64ZM94.4063 134V125.52H95.9103L98.9343 130.8L101.958 125.52H103.366V134H101.958V127.84L99.4463 132.16H98.3263L95.8143 127.84V134H94.4063ZM108.178 134.16C107.559 134.16 107.031 134.048 106.594 133.824C106.167 133.589 105.842 133.275 105.618 132.88C105.394 132.475 105.282 132.021 105.282 131.52C105.282 130.677 105.527 130.069 106.018 129.696C106.519 129.323 107.234 129.136 108.162 129.136H110.914V128.56C110.914 127.835 110.749 127.333 110.418 127.056C110.098 126.779 109.613 126.64 108.962 126.64C108.354 126.64 107.911 126.757 107.634 126.992C107.357 127.216 107.202 127.472 107.17 127.76H105.762C105.794 127.301 105.949 126.896 106.226 126.544C106.503 126.181 106.882 125.893 107.362 125.68C107.842 125.467 108.402 125.36 109.042 125.36C109.714 125.36 110.295 125.467 110.786 125.68C111.277 125.883 111.655 126.208 111.922 126.656C112.189 127.093 112.322 127.675 112.322 128.4V131.84C112.322 132.288 112.322 132.683 112.322 133.024C112.333 133.355 112.359 133.68 112.402 134H111.17C111.138 133.755 111.117 133.525 111.106 133.312C111.095 133.088 111.09 132.837 111.09 132.56C110.866 133.008 110.503 133.387 110.002 133.696C109.501 134.005 108.893 134.16 108.178 134.16ZM108.482 132.88C108.93 132.88 109.335 132.8 109.698 132.64C110.071 132.48 110.365 132.245 110.578 131.936C110.802 131.627 110.914 131.248 110.914 130.8V130.224H108.402C107.879 130.224 107.469 130.331 107.17 130.544C106.871 130.747 106.722 131.072 106.722 131.52C106.722 131.915 106.861 132.24 107.138 132.496C107.426 132.752 107.874 132.88 108.482 132.88ZM118.489 137.2V125.52H119.801V127.12C120.089 126.555 120.489 126.123 121.001 125.824C121.523 125.515 122.126 125.36 122.809 125.36C123.875 125.36 124.729 125.712 125.369 126.416C126.009 127.109 126.329 128.144 126.329 129.52V129.84C126.329 130.8 126.179 131.6 125.881 132.24C125.593 132.88 125.182 133.36 124.649 133.68C124.126 134 123.513 134.16 122.809 134.16C122.083 134.16 121.475 134 120.985 133.68C120.505 133.36 120.142 132.96 119.897 132.48V137.2H118.489ZM122.489 132.912C123.182 132.912 123.758 132.651 124.217 132.128C124.686 131.605 124.921 130.843 124.921 129.84V129.52C124.921 128.592 124.686 127.877 124.217 127.376C123.758 126.864 123.182 126.608 122.489 126.608C121.977 126.608 121.523 126.715 121.129 126.928C120.745 127.141 120.441 127.435 120.217 127.808C120.003 128.171 119.897 128.581 119.897 129.04V130.32C119.897 130.832 120.003 131.285 120.217 131.68C120.441 132.064 120.745 132.368 121.129 132.592C121.523 132.805 121.977 132.912 122.489 132.912ZM131.693 134.16C130.978 134.16 130.306 134.005 129.677 133.696C129.058 133.387 128.557 132.912 128.173 132.272C127.799 131.632 127.613 130.821 127.613 129.84V129.52C127.613 128.581 127.794 127.808 128.157 127.2C128.519 126.581 128.999 126.123 129.597 125.824C130.194 125.515 130.839 125.36 131.533 125.36C132.781 125.36 133.746 125.701 134.429 126.384C135.111 127.067 135.453 128.032 135.453 129.28V130.176H129.021C129.021 130.837 129.154 131.365 129.421 131.76C129.698 132.155 130.039 132.443 130.445 132.624C130.861 132.795 131.277 132.88 131.693 132.88C132.333 132.88 132.823 132.773 133.165 132.56C133.517 132.347 133.767 132.053 133.917 131.68H135.293C135.122 132.491 134.701 133.109 134.029 133.536C133.367 133.952 132.589 134.16 131.693 134.16ZM131.613 126.64C131.175 126.64 130.759 126.725 130.365 126.896C129.97 127.056 129.645 127.312 129.389 127.664C129.143 128.016 129.021 128.469 129.021 129.024H134.125C134.114 128.437 133.991 127.973 133.757 127.632C133.533 127.28 133.234 127.029 132.861 126.88C132.487 126.72 132.071 126.64 131.613 126.64ZM137.294 134V125.52H138.702V132.752H141.79V125.52H143.198V132.752H146.286V125.52H147.694V134H137.294ZM153.607 134.16C152.892 134.16 152.22 134.005 151.591 133.696C150.972 133.387 150.471 132.912 150.087 132.272C149.714 131.632 149.527 130.821 149.527 129.84V129.52C149.527 128.581 149.708 127.808 150.071 127.2C150.434 126.581 150.914 126.123 151.511 125.824C152.108 125.515 152.754 125.36 153.447 125.36C154.695 125.36 155.66 125.701 156.343 126.384C157.026 127.067 157.367 128.032 157.367 129.28V130.176H150.935C150.935 130.837 151.068 131.365 151.335 131.76C151.612 132.155 151.954 132.443 152.359 132.624C152.775 132.795 153.191 132.88 153.607 132.88C154.247 132.88 154.738 132.773 155.079 132.56C155.431 132.347 155.682 132.053 155.831 131.68H157.207C157.036 132.491 156.615 133.109 155.943 133.536C155.282 133.952 154.503 134.16 153.607 134.16ZM153.527 126.64C153.09 126.64 152.674 126.725 152.279 126.896C151.884 127.056 151.559 127.312 151.303 127.664C151.058 128.016 150.935 128.469 150.935 129.024H156.039C156.028 128.437 155.906 127.973 155.671 127.632C155.447 127.28 155.148 127.029 154.775 126.88C154.402 126.72 153.986 126.64 153.527 126.64ZM159.208 134V125.52H160.616V129.056H165V125.52H166.408V134H165V130.304H160.616V134H159.208ZM168.814 134V125.52H170.222V131.92L174.606 125.52H176.014V134H174.606V127.6L170.222 134H168.814ZM177.779 134L180.083 130.64C179.379 130.48 178.873 130.192 178.563 129.776C178.254 129.349 178.099 128.805 178.099 128.144C178.099 127.589 178.211 127.12 178.435 126.736C178.659 126.341 179.006 126.043 179.475 125.84C179.945 125.627 180.553 125.52 181.299 125.52H184.979V134H183.571V130.768H181.411L179.347 134H177.779ZM179.507 128.144C179.507 128.592 179.635 128.933 179.891 129.168C180.158 129.403 180.601 129.52 181.219 129.52H183.571V126.768H181.219C180.601 126.768 180.158 126.885 179.891 127.12C179.635 127.355 179.507 127.696 179.507 128.144ZM194.152 134V124.112H190.264V122.8H199.544V124.112H195.656V134H194.152ZM205.314 134.16C204.674 134.16 204.055 134.053 203.458 133.84C202.871 133.616 202.343 133.275 201.874 132.816C201.404 132.357 201.031 131.771 200.754 131.056C200.487 130.341 200.354 129.483 200.354 128.48V128.16C200.354 127.2 200.487 126.373 200.754 125.68C201.031 124.987 201.404 124.416 201.874 123.968C202.343 123.509 202.871 123.173 203.458 122.96C204.055 122.747 204.674 122.64 205.314 122.64C205.954 122.64 206.567 122.747 207.154 122.96C207.751 123.173 208.284 123.509 208.754 123.968C209.223 124.416 209.591 124.987 209.858 125.68C210.135 126.373 210.274 127.2 210.274 128.16V128.48C210.274 129.483 210.135 130.341 209.858 131.056C209.591 131.771 209.223 132.357 208.754 132.816C208.284 133.275 207.751 133.616 207.154 133.84C206.567 134.053 205.954 134.16 205.314 134.16ZM205.314 132.816C205.9 132.816 206.444 132.672 206.946 132.384C207.458 132.096 207.874 131.632 208.194 130.992C208.514 130.352 208.674 129.515 208.674 128.48V128.16C208.674 127.179 208.514 126.384 208.194 125.776C207.874 125.157 207.458 124.704 206.946 124.416C206.444 124.128 205.9 123.984 205.314 123.984C204.738 123.984 204.194 124.128 203.682 124.416C203.17 124.704 202.754 125.157 202.434 125.776C202.114 126.384 201.954 127.179 201.954 128.16V128.48C201.954 129.515 202.114 130.352 202.434 130.992C202.754 131.632 203.17 132.096 203.682 132.384C204.194 132.672 204.738 132.816 205.314 132.816ZM216.517 134V122.8H220.517C221.851 122.8 222.821 123.083 223.429 123.648C224.048 124.203 224.357 124.917 224.357 125.792C224.357 126.368 224.197 126.864 223.877 127.28C223.557 127.685 223.163 127.979 222.693 128.16C223.355 128.309 223.877 128.613 224.261 129.072C224.645 129.52 224.837 130.107 224.837 130.832C224.837 131.44 224.704 131.984 224.437 132.464C224.171 132.933 223.744 133.307 223.157 133.584C222.571 133.861 221.797 134 220.837 134H216.517ZM218.021 132.688H220.837C221.797 132.688 222.453 132.517 222.805 132.176C223.157 131.824 223.333 131.36 223.333 130.784C223.333 130.197 223.157 129.733 222.805 129.392C222.453 129.04 221.792 128.864 220.821 128.864H218.021V132.688ZM218.021 127.616H220.517C221.413 127.616 222.027 127.451 222.357 127.12C222.688 126.789 222.853 126.368 222.853 125.856C222.853 125.333 222.688 124.912 222.357 124.592C222.027 124.272 221.413 124.112 220.517 124.112H218.021V127.616ZM227.076 134V122.8H234.276V124.112H228.58V127.584H233.796V128.896H228.58V132.688H234.276V134H227.076Z" fill="#4B4A4A"/>
</g>
</g>
<defs>
<filter id="filter0_f_3954_129412" x="393" y="-154" width="577" height="577" filterUnits="userSpaceOnUse" color-interpolation-filters="sRGB">
<feFlood flood-opacity="0" result="BackgroundImageFix"/>
<feBlend mode="normal" in="SourceGraphic" in2="BackgroundImageFix" result="shape"/>
<feGaussianBlur stdDeviation="86" result="effect1_foregroundBlur_3954_129412"/>
</filter>
<clipPath id="clip0_3954_129412">
<rect width="923" height="164" fill="white"/>
</clipPath>
</defs>
</svg>
