<svg width="439" height="144" viewBox="0 0 439 144" fill="none" xmlns="http://www.w3.org/2000/svg">
<g clip-path="url(#clip0_3972_45232)">
<rect width="439" height="144" fill="#F7F1EB"/>
<path d="M0 0H925V176H0V0Z" fill="#F7EBEE"/>
<g filter="url(#filter0_f_3972_45232)">
<circle cx="432" cy="257" r="221" fill="#F7F1EB"/>
</g>
<rect x="16" y="16" width="407" height="112" rx="4" fill="white" fill-opacity="0.8"/>
<path d="M36.72 54L39.792 49.296C38.928 49.0613 38.2773 48.6667 37.84 48.112C37.4133 47.5467 37.2 46.896 37.2 46.16C37.2 45.52 37.36 44.9493 37.68 44.448C38 43.936 38.4747 43.536 39.104 43.248C39.7333 42.9493 40.512 42.8 41.44 42.8H45.36V54H43.856V49.488H41.264L38.416 54H36.72ZM38.704 46.16C38.704 46.768 38.928 47.264 39.376 47.648C39.824 48.0213 40.5653 48.208 41.6 48.208H43.856V44.112H41.6C40.5653 44.112 39.824 44.304 39.376 44.688C38.928 45.0613 38.704 45.552 38.704 46.16ZM51.9131 54V45.52H58.9531V54H57.5451V46.768H53.3211V54H51.9131ZM64.8669 54.16C64.1522 54.16 63.4802 54.0053 62.8509 53.696C62.2322 53.3867 61.7309 52.912 61.3469 52.272C60.9735 51.632 60.7869 50.8213 60.7869 49.84V49.52C60.7869 48.5813 60.9682 47.808 61.3309 47.2C61.6935 46.5813 62.1735 46.1227 62.7709 45.824C63.3682 45.5147 64.0135 45.36 64.7069 45.36C65.9549 45.36 66.9202 45.7013 67.6029 46.384C68.2855 47.0667 68.6269 48.032 68.6269 49.28V50.176H62.1949C62.1949 50.8373 62.3282 51.3653 62.5949 51.76C62.8722 52.1547 63.2135 52.4427 63.6189 52.624C64.0349 52.7947 64.4509 52.88 64.8669 52.88C65.5069 52.88 65.9975 52.7733 66.3389 52.56C66.6909 52.3467 66.9415 52.0533 67.0909 51.68H68.4669C68.2962 52.4907 67.8749 53.1093 67.2029 53.536C66.5415 53.952 65.7629 54.16 64.8669 54.16ZM64.7869 46.64C64.3495 46.64 63.9335 46.7253 63.5389 46.896C63.1442 47.056 62.8189 47.312 62.5629 47.664C62.3175 48.016 62.1949 48.4693 62.1949 49.024H67.2989C67.2882 48.4373 67.1655 47.9733 66.9309 47.632C66.7069 47.28 66.4082 47.0293 66.0349 46.88C65.6615 46.72 65.2455 46.64 64.7869 46.64ZM70.4681 57.2V45.52H71.7801V47.12C72.0681 46.5547 72.4681 46.1227 72.9801 45.824C73.5028 45.5147 74.1055 45.36 74.7881 45.36C75.8548 45.36 76.7081 45.712 77.3481 46.416C77.9881 47.1093 78.3081 48.144 78.3081 49.52V49.84C78.3081 50.8 78.1588 51.6 77.8601 52.24C77.5721 52.88 77.1615 53.36 76.6281 53.68C76.1055 54 75.4921 54.16 74.7881 54.16C74.0628 54.16 73.4548 54 72.9641 53.68C72.4841 53.36 72.1215 52.96 71.8761 52.48V57.2H70.4681ZM74.4681 52.912C75.1615 52.912 75.7375 52.6507 76.1961 52.128C76.6655 51.6053 76.9001 50.8427 76.9001 49.84V49.52C76.9001 48.592 76.6655 47.8773 76.1961 47.376C75.7375 46.864 75.1615 46.608 74.4681 46.608C73.9561 46.608 73.5028 46.7147 73.1081 46.928C72.7241 47.1413 72.4201 47.4347 72.1961 47.808C71.9828 48.1707 71.8761 48.5813 71.8761 49.04V50.32C71.8761 50.832 71.9828 51.2853 72.1961 51.68C72.4201 52.064 72.7241 52.368 73.1081 52.592C73.5028 52.8053 73.9561 52.912 74.4681 52.912ZM83.6719 54.16C82.9572 54.16 82.2852 54.0053 81.6559 53.696C81.0372 53.3867 80.5359 52.912 80.1519 52.272C79.7785 51.632 79.5919 50.8213 79.5919 49.84V49.52C79.5919 48.5813 79.7732 47.808 80.1359 47.2C80.4985 46.5813 80.9785 46.1227 81.5759 45.824C82.1732 45.5147 82.8185 45.36 83.5119 45.36C84.7599 45.36 85.7252 45.7013 86.4079 46.384C87.0905 47.0667 87.4319 48.032 87.4319 49.28V50.176H80.9999C80.9999 50.8373 81.1332 51.3653 81.3999 51.76C81.6772 52.1547 82.0185 52.4427 82.4239 52.624C82.8399 52.7947 83.2559 52.88 83.6719 52.88C84.3119 52.88 84.8025 52.7733 85.1439 52.56C85.4959 52.3467 85.7465 52.0533 85.8959 51.68H87.2719C87.1012 52.4907 86.6799 53.1093 86.0079 53.536C85.3465 53.952 84.5679 54.16 83.6719 54.16ZM83.5919 46.64C83.1545 46.64 82.7385 46.7253 82.3439 46.896C81.9492 47.056 81.6239 47.312 81.3679 47.664C81.1225 48.016 80.9999 48.4693 80.9999 49.024H86.1039C86.0932 48.4373 85.9705 47.9733 85.7359 47.632C85.5119 47.28 85.2132 47.0293 84.8399 46.88C84.4665 46.72 84.0505 46.64 83.5919 46.64ZM89.2731 54V45.52H92.9531C93.6571 45.52 94.2331 45.6213 94.6811 45.824C95.1291 46.016 95.4598 46.288 95.6731 46.64C95.8865 46.9813 95.9931 47.3813 95.9931 47.84C95.9931 48.2133 95.8705 48.5707 95.6251 48.912C95.3905 49.2427 95.0865 49.472 94.7131 49.6C95.2358 49.728 95.6305 49.9733 95.8971 50.336C96.1745 50.688 96.3131 51.104 96.3131 51.584C96.3131 52.32 96.0678 52.9067 95.5771 53.344C95.0865 53.7813 94.3185 54 93.2731 54H89.2731ZM90.6811 52.752H93.2731C93.8705 52.752 94.2918 52.6453 94.5371 52.432C94.7825 52.2187 94.9051 51.9147 94.9051 51.52C94.9051 51.1147 94.7825 50.8053 94.5371 50.592C94.2918 50.368 93.8705 50.256 93.2731 50.256H90.6811V52.752ZM90.6811 49.104H92.9531C93.5611 49.104 93.9825 48.9973 94.2171 48.784C94.4625 48.5707 94.5851 48.2773 94.5851 47.904C94.5851 47.552 94.4625 47.2747 94.2171 47.072C93.9825 46.8693 93.5611 46.768 92.9531 46.768H90.6811V49.104ZM101.68 54.16C100.965 54.16 100.293 54.0053 99.664 53.696C99.0453 53.3867 98.544 52.912 98.16 52.272C97.7867 51.632 97.6 50.8213 97.6 49.84V49.52C97.6 48.5813 97.7813 47.808 98.144 47.2C98.5067 46.5813 98.9867 46.1227 99.584 45.824C100.181 45.5147 100.827 45.36 101.52 45.36C102.768 45.36 103.733 45.7013 104.416 46.384C105.099 47.0667 105.44 48.032 105.44 49.28V50.176H99.008C99.008 50.8373 99.1413 51.3653 99.408 51.76C99.6853 52.1547 100.027 52.4427 100.432 52.624C100.848 52.7947 101.264 52.88 101.68 52.88C102.32 52.88 102.811 52.7733 103.152 52.56C103.504 52.3467 103.755 52.0533 103.904 51.68H105.28C105.109 52.4907 104.688 53.1093 104.016 53.536C103.355 53.952 102.576 54.16 101.68 54.16ZM101.6 46.64C101.163 46.64 100.747 46.7253 100.352 46.896C99.9573 47.056 99.632 47.312 99.376 47.664C99.1307 48.016 99.008 48.4693 99.008 49.024H104.112C104.101 48.4373 103.979 47.9733 103.744 47.632C103.52 47.28 103.221 47.0293 102.848 46.88C102.475 46.72 102.059 46.64 101.6 46.64ZM106.725 54.16C106.65 54.16 106.57 54.1547 106.485 54.144C106.41 54.1333 106.33 54.1227 106.245 54.112V52.704C106.277 52.7147 106.357 52.72 106.485 52.72C106.805 52.72 107.066 52.5813 107.269 52.304C107.472 52.016 107.616 51.5147 107.701 50.8C107.797 50.0747 107.845 49.0613 107.845 47.76V45.52H113.925V54H112.517V46.768H109.253V48.08C109.253 49.264 109.2 50.2507 109.093 51.04C108.986 51.8187 108.826 52.4373 108.613 52.896C108.41 53.3547 108.149 53.68 107.829 53.872C107.509 54.064 107.141 54.16 106.725 54.16ZM118.74 54.16C118.122 54.16 117.594 54.048 117.156 53.824C116.73 53.5893 116.404 53.2747 116.18 52.88C115.956 52.4747 115.844 52.0213 115.844 51.52C115.844 50.6773 116.09 50.0693 116.58 49.696C117.082 49.3227 117.796 49.136 118.724 49.136H121.476V48.56C121.476 47.8347 121.311 47.3333 120.98 47.056C120.66 46.7787 120.175 46.64 119.524 46.64C118.916 46.64 118.474 46.7573 118.196 46.992C117.919 47.216 117.764 47.472 117.732 47.76H116.324C116.356 47.3013 116.511 46.896 116.788 46.544C117.066 46.1813 117.444 45.8933 117.924 45.68C118.404 45.4667 118.964 45.36 119.604 45.36C120.276 45.36 120.858 45.4667 121.348 45.68C121.839 45.8827 122.218 46.208 122.484 46.656C122.751 47.0933 122.884 47.6747 122.884 48.4V51.84C122.884 52.288 122.884 52.6827 122.884 53.024C122.895 53.3547 122.922 53.68 122.964 54H121.732C121.7 53.7547 121.679 53.5253 121.668 53.312C121.658 53.088 121.652 52.8373 121.652 52.56C121.428 53.008 121.066 53.3867 120.564 53.696C120.063 54.0053 119.455 54.16 118.74 54.16ZM119.044 52.88C119.492 52.88 119.898 52.8 120.26 52.64C120.634 52.48 120.927 52.2453 121.14 51.936C121.364 51.6267 121.476 51.248 121.476 50.8V50.224H118.964C118.442 50.224 118.031 50.3307 117.732 50.544C117.434 50.7467 117.284 51.072 117.284 51.52C117.284 51.9147 117.423 52.24 117.7 52.496C117.988 52.752 118.436 52.88 119.044 52.88ZM131.931 54.16C131.227 54.16 130.619 54.0587 130.107 53.856C129.595 53.6533 129.195 53.36 128.907 52.976C128.619 52.592 128.454 52.1333 128.411 51.6H129.819C129.873 51.8773 129.99 52.112 130.171 52.304C130.353 52.496 130.593 52.64 130.891 52.736C131.19 52.832 131.537 52.88 131.931 52.88C132.667 52.88 133.201 52.7573 133.531 52.512C133.873 52.256 134.043 51.952 134.043 51.6C134.043 51.184 133.905 50.8587 133.627 50.624C133.35 50.3787 132.87 50.256 132.187 50.256H130.731V49.104H132.091C132.678 49.104 133.094 48.992 133.339 48.768C133.595 48.544 133.723 48.2293 133.723 47.824C133.723 47.504 133.574 47.2267 133.275 46.992C132.977 46.7573 132.529 46.64 131.931 46.64C131.281 46.64 130.806 46.7467 130.507 46.96C130.219 47.1627 130.043 47.456 129.979 47.84H128.571C128.614 47.36 128.774 46.9333 129.051 46.56C129.329 46.1867 129.713 45.8933 130.203 45.68C130.694 45.4667 131.27 45.36 131.931 45.36C133.019 45.36 133.825 45.5893 134.347 46.048C134.87 46.5067 135.131 47.0987 135.131 47.824C135.131 48.2293 135.03 48.5867 134.827 48.896C134.625 49.1947 134.299 49.4293 133.851 49.6C134.449 49.76 134.865 50.016 135.099 50.368C135.334 50.72 135.451 51.1307 135.451 51.6C135.451 52.0587 135.318 52.4853 135.051 52.88C134.785 53.264 134.39 53.5733 133.867 53.808C133.355 54.0427 132.71 54.16 131.931 54.16ZM139.714 54.16C139.095 54.16 138.567 54.048 138.13 53.824C137.703 53.5893 137.378 53.2747 137.154 52.88C136.93 52.4747 136.818 52.0213 136.818 51.52C136.818 50.6773 137.063 50.0693 137.554 49.696C138.055 49.3227 138.77 49.136 139.698 49.136H142.45V48.56C142.45 47.8347 142.284 47.3333 141.954 47.056C141.634 46.7787 141.148 46.64 140.498 46.64C139.89 46.64 139.447 46.7573 139.17 46.992C138.892 47.216 138.738 47.472 138.706 47.76H137.298C137.33 47.3013 137.484 46.896 137.762 46.544C138.039 46.1813 138.418 45.8933 138.898 45.68C139.378 45.4667 139.938 45.36 140.578 45.36C141.25 45.36 141.831 45.4667 142.322 45.68C142.812 45.8827 143.191 46.208 143.458 46.656C143.724 47.0933 143.858 47.6747 143.858 48.4V51.84C143.858 52.288 143.858 52.6827 143.858 53.024C143.868 53.3547 143.895 53.68 143.938 54H142.706C142.674 53.7547 142.652 53.5253 142.642 53.312C142.631 53.088 142.626 52.8373 142.626 52.56C142.402 53.008 142.039 53.3867 141.538 53.696C141.036 54.0053 140.428 54.16 139.714 54.16ZM140.018 52.88C140.466 52.88 140.871 52.8 141.234 52.64C141.607 52.48 141.9 52.2453 142.114 51.936C142.338 51.6267 142.45 51.248 142.45 50.8V50.224H139.938C139.415 50.224 139.004 50.3307 138.706 50.544C138.407 50.7467 138.258 51.072 138.258 51.52C138.258 51.9147 138.396 52.24 138.674 52.496C138.962 52.752 139.41 52.88 140.018 52.88ZM145.224 56V52.752H146.264C146.424 52.5387 146.563 52.1813 146.68 51.68C146.798 51.168 146.888 50.5707 146.952 49.888C147.027 49.2053 147.064 48.496 147.064 47.76V45.52H152.984V52.752H154.184V56H152.84V54H146.568V56H145.224ZM147.704 52.752H151.576V46.768H148.44V48.08C148.44 48.976 148.376 49.8453 148.248 50.688C148.131 51.52 147.95 52.208 147.704 52.752ZM158.284 54.16C157.665 54.16 157.137 54.048 156.7 53.824C156.273 53.5893 155.948 53.2747 155.724 52.88C155.5 52.4747 155.388 52.0213 155.388 51.52C155.388 50.6773 155.633 50.0693 156.124 49.696C156.625 49.3227 157.34 49.136 158.268 49.136H161.02V48.56C161.02 47.8347 160.855 47.3333 160.524 47.056C160.204 46.7787 159.719 46.64 159.068 46.64C158.46 46.64 158.017 46.7573 157.74 46.992C157.463 47.216 157.308 47.472 157.276 47.76H155.868C155.9 47.3013 156.055 46.896 156.332 46.544C156.609 46.1813 156.988 45.8933 157.468 45.68C157.948 45.4667 158.508 45.36 159.148 45.36C159.82 45.36 160.401 45.4667 160.892 45.68C161.383 45.8827 161.761 46.208 162.028 46.656C162.295 47.0933 162.428 47.6747 162.428 48.4V51.84C162.428 52.288 162.428 52.6827 162.428 53.024C162.439 53.3547 162.465 53.68 162.508 54H161.276C161.244 53.7547 161.223 53.5253 161.212 53.312C161.201 53.088 161.196 52.8373 161.196 52.56C160.972 53.008 160.609 53.3867 160.108 53.696C159.607 54.0053 158.999 54.16 158.284 54.16ZM158.588 52.88C159.036 52.88 159.441 52.8 159.804 52.64C160.177 52.48 160.471 52.2453 160.684 51.936C160.908 51.6267 161.02 51.248 161.02 50.8V50.224H158.508C157.985 50.224 157.575 50.3307 157.276 50.544C156.977 50.7467 156.828 51.072 156.828 51.52C156.828 51.9147 156.967 52.24 157.244 52.496C157.532 52.752 157.98 52.88 158.588 52.88ZM169.667 54V50.624C169.422 50.7733 169.123 50.9067 168.771 51.024C168.43 51.1413 167.998 51.2 167.475 51.2C166.483 51.2 165.715 50.976 165.171 50.528C164.627 50.08 164.355 49.3173 164.355 48.24V45.52H165.763V48C165.763 48.7253 165.912 49.2267 166.211 49.504C166.51 49.7813 167.011 49.92 167.715 49.92C168.195 49.92 168.606 49.872 168.947 49.776C169.288 49.68 169.528 49.5787 169.667 49.472V45.52H171.075V54H169.667ZM174.59 57.36C174.43 57.36 174.27 57.344 174.11 57.312V56.032C174.27 56.064 174.43 56.08 174.59 56.08C174.803 56.08 174.979 56.0267 175.118 55.92C175.267 55.824 175.417 55.6267 175.566 55.328C175.715 55.0293 175.897 54.5867 176.11 54L172.51 45.52H174.078L176.83 52.4L179.326 45.52H180.83L177.63 54C177.331 54.8 177.043 55.4453 176.766 55.936C176.499 56.4267 176.195 56.784 175.854 57.008C175.523 57.2427 175.102 57.36 174.59 57.36ZM189.383 54.16C188.658 54.16 188.002 54.0053 187.415 53.696C186.839 53.376 186.38 52.896 186.039 52.256C185.708 51.616 185.543 50.8107 185.543 49.84V49.52C185.543 48.6027 185.724 47.8347 186.087 47.216C186.45 46.5973 186.924 46.1333 187.511 45.824C188.098 45.5147 188.722 45.36 189.383 45.36C190.055 45.36 190.631 45.4827 191.111 45.728C191.602 45.9627 191.996 46.288 192.295 46.704C192.594 47.1093 192.796 47.568 192.903 48.08H191.463C191.292 47.6747 191.052 47.3333 190.743 47.056C190.444 46.7787 189.991 46.64 189.383 46.64C188.967 46.64 188.578 46.7413 188.215 46.944C187.852 47.136 187.554 47.4453 187.319 47.872C187.095 48.288 186.983 48.8373 186.983 49.52V49.84C186.983 50.5653 187.095 51.152 187.319 51.6C187.554 52.048 187.852 52.3733 188.215 52.576C188.578 52.7787 188.967 52.88 189.383 52.88C189.906 52.88 190.343 52.752 190.695 52.496C191.058 52.24 191.314 51.888 191.463 51.44H192.903C192.775 51.9947 192.546 52.48 192.215 52.896C191.884 53.3013 191.479 53.616 190.999 53.84C190.519 54.0533 189.98 54.16 189.383 54.16ZM201.382 53.2L197.862 50.224V48.976L201.382 46V47.568L198.982 49.568L201.382 51.568V53.2ZM205.062 53.2L201.542 50.224V48.976L205.062 46V47.568L202.662 49.568L205.062 51.568V53.2ZM206.179 56V52.752H207.219C207.379 52.5387 207.517 52.1813 207.635 51.68C207.752 51.168 207.843 50.5707 207.907 49.888C207.981 49.2053 208.019 48.496 208.019 47.76V45.52H213.939V52.752H215.139V56H213.795V54H207.523V56H206.179ZM208.659 52.752H212.531V46.768H209.395V48.08C209.395 48.976 209.331 49.8453 209.203 50.688C209.085 51.52 208.904 52.208 208.659 52.752ZM220.186 54.16C219.472 54.16 218.8 54.0053 218.17 53.696C217.552 53.376 217.05 52.896 216.666 52.256C216.293 51.616 216.106 50.8107 216.106 49.84V49.52C216.106 48.6027 216.293 47.8347 216.666 47.216C217.05 46.5973 217.552 46.1333 218.17 45.824C218.8 45.5147 219.472 45.36 220.186 45.36C220.912 45.36 221.584 45.5147 222.202 45.824C222.821 46.1333 223.317 46.5973 223.69 47.216C224.074 47.8347 224.266 48.6027 224.266 49.52V49.84C224.266 50.8107 224.074 51.616 223.69 52.256C223.317 52.896 222.821 53.376 222.202 53.696C221.584 54.0053 220.912 54.16 220.186 54.16ZM220.186 52.88C220.624 52.88 221.04 52.784 221.434 52.592C221.84 52.3893 222.17 52.064 222.426 51.616C222.693 51.168 222.826 50.576 222.826 49.84V49.52C222.826 48.8373 222.693 48.288 222.426 47.872C222.17 47.4453 221.84 47.136 221.434 46.944C221.04 46.7413 220.624 46.64 220.186 46.64C219.76 46.64 219.344 46.7413 218.938 46.944C218.533 47.136 218.197 47.4453 217.93 47.872C217.674 48.288 217.546 48.8373 217.546 49.52V49.84C217.546 50.576 217.674 51.168 217.93 51.616C218.197 52.064 218.533 52.3893 218.938 52.592C219.344 52.784 219.76 52.88 220.186 52.88ZM229.62 54.16C228.873 54.16 228.196 53.9733 227.588 53.6C226.991 53.216 226.511 52.6667 226.148 51.952C225.796 51.2373 225.62 50.3733 225.62 49.36V49.04C225.62 47.76 225.748 46.6667 226.004 45.76C226.271 44.8533 226.719 44.1493 227.348 43.648C227.977 43.136 228.841 42.8533 229.94 42.8C230.388 42.7787 230.799 42.7627 231.172 42.752C231.545 42.7307 231.881 42.6987 232.18 42.656C232.479 42.6027 232.745 42.5173 232.98 42.4V43.76C232.873 43.824 232.697 43.8773 232.452 43.92C232.217 43.9627 231.913 44 231.54 44.032C231.167 44.0533 230.713 44.0747 230.18 44.096C229.497 44.1067 228.921 44.2187 228.452 44.432C227.993 44.6453 227.636 44.9867 227.38 45.456C227.124 45.9253 226.964 46.56 226.9 47.36C227.071 46.976 227.305 46.6507 227.604 46.384C227.903 46.1067 228.249 45.8933 228.644 45.744C229.039 45.5947 229.471 45.52 229.94 45.52C230.665 45.52 231.3 45.68 231.844 46C232.399 46.32 232.831 46.7787 233.14 47.376C233.46 47.9733 233.62 48.688 233.62 49.52V49.84C233.62 50.7147 233.444 51.4773 233.092 52.128C232.751 52.768 232.276 53.2693 231.668 53.632C231.071 53.984 230.388 54.16 229.62 54.16ZM229.62 52.88C230.367 52.88 230.98 52.624 231.46 52.112C231.94 51.5893 232.18 50.832 232.18 49.84V49.52C232.18 48.6987 231.94 48.0427 231.46 47.552C230.98 47.0507 230.367 46.8 229.62 46.8C228.873 46.8 228.26 47.0507 227.78 47.552C227.3 48.0427 227.06 48.6987 227.06 49.52V49.84C227.06 50.4693 227.172 51.0133 227.396 51.472C227.631 51.92 227.94 52.2667 228.324 52.512C228.719 52.7573 229.151 52.88 229.62 52.88ZM237.872 54.16C237.253 54.16 236.725 54.048 236.288 53.824C235.861 53.5893 235.536 53.2747 235.312 52.88C235.088 52.4747 234.976 52.0213 234.976 51.52C234.976 50.6773 235.221 50.0693 235.712 49.696C236.213 49.3227 236.928 49.136 237.856 49.136H240.608V48.56C240.608 47.8347 240.442 47.3333 240.112 47.056C239.792 46.7787 239.306 46.64 238.656 46.64C238.048 46.64 237.605 46.7573 237.328 46.992C237.05 47.216 236.896 47.472 236.864 47.76H235.456C235.488 47.3013 235.642 46.896 235.92 46.544C236.197 46.1813 236.576 45.8933 237.056 45.68C237.536 45.4667 238.096 45.36 238.736 45.36C239.408 45.36 239.989 45.4667 240.48 45.68C240.97 45.8827 241.349 46.208 241.616 46.656C241.882 47.0933 242.016 47.6747 242.016 48.4V51.84C242.016 52.288 242.016 52.6827 242.016 53.024C242.026 53.3547 242.053 53.68 242.096 54H240.864C240.832 53.7547 240.81 53.5253 240.8 53.312C240.789 53.088 240.784 52.8373 240.784 52.56C240.56 53.008 240.197 53.3867 239.696 53.696C239.194 54.0053 238.586 54.16 237.872 54.16ZM238.176 52.88C238.624 52.88 239.029 52.8 239.392 52.64C239.765 52.48 240.058 52.2453 240.272 51.936C240.496 51.6267 240.608 51.248 240.608 50.8V50.224H238.096C237.573 50.224 237.162 50.3307 236.864 50.544C236.565 50.7467 236.416 51.072 236.416 51.52C236.416 51.9147 236.554 52.24 236.832 52.496C237.12 52.752 237.568 52.88 238.176 52.88ZM244.343 54V45.52H248.023C248.727 45.52 249.303 45.6213 249.751 45.824C250.199 46.016 250.529 46.288 250.743 46.64C250.956 46.9813 251.062 47.3813 251.062 47.84C251.062 48.2133 250.94 48.5707 250.695 48.912C250.46 49.2427 250.156 49.472 249.783 49.6C250.305 49.728 250.7 49.9733 250.967 50.336C251.244 50.688 251.383 51.104 251.383 51.584C251.383 52.32 251.137 52.9067 250.647 53.344C250.156 53.7813 249.388 54 248.343 54H244.343ZM245.751 52.752H248.343C248.94 52.752 249.361 52.6453 249.607 52.432C249.852 52.2187 249.975 51.9147 249.975 51.52C249.975 51.1147 249.852 50.8053 249.607 50.592C249.361 50.368 248.94 50.256 248.343 50.256H245.751V52.752ZM245.751 49.104H248.023C248.631 49.104 249.052 48.9973 249.287 48.784C249.532 48.5707 249.655 48.2773 249.655 47.904C249.655 47.552 249.532 47.2747 249.287 47.072C249.052 46.8693 248.631 46.768 248.023 46.768H245.751V49.104ZM253.229 54V45.52H254.637V51.92L259.021 45.52H260.429V54H259.021V47.6L254.637 54H253.229ZM264.771 54V46.768H261.875V45.52H269.075V46.768H266.179V54H264.771ZM270.519 54V45.52H271.927V48.72H273.959C275.025 48.72 275.809 48.9547 276.311 49.424C276.823 49.8933 277.079 50.544 277.079 51.376C277.079 51.9093 276.967 52.3733 276.743 52.768C276.519 53.1627 276.177 53.4667 275.719 53.68C275.26 53.8933 274.673 54 273.959 54H270.519ZM271.927 52.752H273.879C274.54 52.752 275.004 52.6347 275.271 52.4C275.537 52.1653 275.671 51.8187 275.671 51.36C275.671 50.9013 275.537 50.5547 275.271 50.32C275.004 50.0853 274.54 49.968 273.879 49.968H271.927V52.752ZM287.517 54V50.624C287.272 50.7733 286.973 50.9067 286.621 51.024C286.28 51.1413 285.848 51.2 285.325 51.2C284.333 51.2 283.565 50.976 283.021 50.528C282.477 50.08 282.205 49.3173 282.205 48.24V45.52H283.613V48C283.613 48.7253 283.762 49.2267 284.061 49.504C284.36 49.7813 284.861 49.92 285.565 49.92C286.045 49.92 286.456 49.872 286.797 49.776C287.138 49.68 287.378 49.5787 287.517 49.472V45.52H288.925V54H287.517ZM294.84 54.16C294.125 54.16 293.453 54.0053 292.824 53.696C292.205 53.3867 291.704 52.912 291.32 52.272C290.947 51.632 290.76 50.8213 290.76 49.84V49.52C290.76 48.5813 290.941 47.808 291.304 47.2C291.667 46.5813 292.147 46.1227 292.744 45.824C293.341 45.5147 293.987 45.36 294.68 45.36C295.928 45.36 296.893 45.7013 297.576 46.384C298.259 47.0667 298.6 48.032 298.6 49.28V50.176H292.168C292.168 50.8373 292.301 51.3653 292.568 51.76C292.845 52.1547 293.187 52.4427 293.592 52.624C294.008 52.7947 294.424 52.88 294.84 52.88C295.48 52.88 295.971 52.7733 296.312 52.56C296.664 52.3467 296.915 52.0533 297.064 51.68H298.44C298.269 52.4907 297.848 53.1093 297.176 53.536C296.515 53.952 295.736 54.16 294.84 54.16ZM294.76 46.64C294.323 46.64 293.907 46.7253 293.512 46.896C293.117 47.056 292.792 47.312 292.536 47.664C292.291 48.016 292.168 48.4693 292.168 49.024H297.272C297.261 48.4373 297.139 47.9733 296.904 47.632C296.68 47.28 296.381 47.0293 296.008 46.88C295.635 46.72 295.219 46.64 294.76 46.64ZM300.441 54V45.52H301.849V49.072H302.969L306.137 45.52H307.801L304.121 49.584L307.961 54H306.169L302.969 50.288H301.849V54H300.441ZM312.848 54.16C312.101 54.16 311.424 53.9733 310.816 53.6C310.219 53.216 309.739 52.6667 309.376 51.952C309.024 51.2373 308.848 50.3733 308.848 49.36V49.04C308.848 47.76 308.976 46.6667 309.232 45.76C309.499 44.8533 309.947 44.1493 310.576 43.648C311.205 43.136 312.069 42.8533 313.168 42.8C313.616 42.7787 314.027 42.7627 314.4 42.752C314.773 42.7307 315.109 42.6987 315.408 42.656C315.707 42.6027 315.973 42.5173 316.208 42.4V43.76C316.101 43.824 315.925 43.8773 315.68 43.92C315.445 43.9627 315.141 44 314.768 44.032C314.395 44.0533 313.941 44.0747 313.408 44.096C312.725 44.1067 312.149 44.2187 311.68 44.432C311.221 44.6453 310.864 44.9867 310.608 45.456C310.352 45.9253 310.192 46.56 310.128 47.36C310.299 46.976 310.533 46.6507 310.832 46.384C311.131 46.1067 311.477 45.8933 311.872 45.744C312.267 45.5947 312.699 45.52 313.168 45.52C313.893 45.52 314.528 45.68 315.072 46C315.627 46.32 316.059 46.7787 316.368 47.376C316.688 47.9733 316.848 48.688 316.848 49.52V49.84C316.848 50.7147 316.672 51.4773 316.32 52.128C315.979 52.768 315.504 53.2693 314.896 53.632C314.299 53.984 313.616 54.16 312.848 54.16ZM312.848 52.88C313.595 52.88 314.208 52.624 314.688 52.112C315.168 51.5893 315.408 50.832 315.408 49.84V49.52C315.408 48.6987 315.168 48.0427 314.688 47.552C314.208 47.0507 313.595 46.8 312.848 46.8C312.101 46.8 311.488 47.0507 311.008 47.552C310.528 48.0427 310.288 48.6987 310.288 49.52V49.84C310.288 50.4693 310.4 51.0133 310.624 51.472C310.859 51.92 311.168 52.2667 311.552 52.512C311.947 52.7573 312.379 52.88 312.848 52.88ZM322.204 54.16C321.489 54.16 320.817 54.0053 320.188 53.696C319.569 53.376 319.068 52.896 318.684 52.256C318.31 51.616 318.124 50.8107 318.124 49.84V49.52C318.124 48.6027 318.31 47.8347 318.684 47.216C319.068 46.5973 319.569 46.1333 320.188 45.824C320.817 45.5147 321.489 45.36 322.204 45.36C322.929 45.36 323.601 45.5147 324.22 45.824C324.838 46.1333 325.334 46.5973 325.708 47.216C326.092 47.8347 326.284 48.6027 326.284 49.52V49.84C326.284 50.8107 326.092 51.616 325.708 52.256C325.334 52.896 324.838 53.376 324.22 53.696C323.601 54.0053 322.929 54.16 322.204 54.16ZM322.204 52.88C322.641 52.88 323.057 52.784 323.452 52.592C323.857 52.3893 324.188 52.064 324.444 51.616C324.71 51.168 324.844 50.576 324.844 49.84V49.52C324.844 48.8373 324.71 48.288 324.444 47.872C324.188 47.4453 323.857 47.136 323.452 46.944C323.057 46.7413 322.641 46.64 322.204 46.64C321.777 46.64 321.361 46.7413 320.956 46.944C320.55 47.136 320.214 47.4453 319.948 47.872C319.692 48.288 319.564 48.8373 319.564 49.52V49.84C319.564 50.576 319.692 51.168 319.948 51.616C320.214 52.064 320.55 52.3893 320.956 52.592C321.361 52.784 321.777 52.88 322.204 52.88ZM328.117 54V45.52H329.525V49.072H330.645L333.813 45.52H335.477L331.797 49.584L335.637 54H333.845L330.645 50.288H329.525V54H328.117ZM340.128 54.16C339.403 54.16 338.747 54.0053 338.16 53.696C337.584 53.376 337.125 52.896 336.784 52.256C336.453 51.616 336.288 50.8107 336.288 49.84V49.52C336.288 48.6027 336.469 47.8347 336.832 47.216C337.195 46.5973 337.669 46.1333 338.256 45.824C338.843 45.5147 339.467 45.36 340.128 45.36C340.8 45.36 341.376 45.4827 341.856 45.728C342.347 45.9627 342.741 46.288 343.04 46.704C343.339 47.1093 343.541 47.568 343.648 48.08H342.208C342.037 47.6747 341.797 47.3333 341.488 47.056C341.189 46.7787 340.736 46.64 340.128 46.64C339.712 46.64 339.323 46.7413 338.96 46.944C338.597 47.136 338.299 47.4453 338.064 47.872C337.84 48.288 337.728 48.8373 337.728 49.52V49.84C337.728 50.5653 337.84 51.152 338.064 51.6C338.299 52.048 338.597 52.3733 338.96 52.576C339.323 52.7787 339.712 52.88 340.128 52.88C340.651 52.88 341.088 52.752 341.44 52.496C341.803 52.24 342.059 51.888 342.208 51.44H343.648C343.52 51.9947 343.291 52.48 342.96 52.896C342.629 53.3013 342.224 53.616 341.744 53.84C341.264 54.0533 340.725 54.16 340.128 54.16ZM345.087 46L348.607 48.976V50.224L345.087 53.2V51.632L347.487 49.632L345.087 47.632V46ZM348.767 46L352.287 48.976V50.224L348.767 53.2V51.632L351.167 49.632L348.767 47.632V46ZM37.28 78V69.52H38.688V73.056H43.072V69.52H44.48V78H43.072V74.304H38.688V78H37.28ZM49.3016 78.16C48.683 78.16 48.155 78.048 47.7176 77.824C47.291 77.5893 46.9656 77.2747 46.7416 76.88C46.5176 76.4747 46.4056 76.0213 46.4056 75.52C46.4056 74.6773 46.651 74.0693 47.1416 73.696C47.643 73.3227 48.3576 73.136 49.2856 73.136H52.0376V72.56C52.0376 71.8347 51.8723 71.3333 51.5416 71.056C51.2216 70.7787 50.7363 70.64 50.0856 70.64C49.4776 70.64 49.035 70.7573 48.7576 70.992C48.4803 71.216 48.3256 71.472 48.2936 71.76H46.8856C46.9176 71.3013 47.0723 70.896 47.3496 70.544C47.627 70.1813 48.0056 69.8933 48.4856 69.68C48.9656 69.4667 49.5256 69.36 50.1656 69.36C50.8376 69.36 51.419 69.4667 51.9096 69.68C52.4003 69.8827 52.779 70.208 53.0456 70.656C53.3123 71.0933 53.4456 71.6747 53.4456 72.4V75.84C53.4456 76.288 53.4456 76.6827 53.4456 77.024C53.4563 77.3547 53.483 77.68 53.5256 78H52.2936C52.2616 77.7547 52.2403 77.5253 52.2296 77.312C52.219 77.088 52.2136 76.8373 52.2136 76.56C51.9896 77.008 51.627 77.3867 51.1256 77.696C50.6243 78.0053 50.0163 78.16 49.3016 78.16ZM49.6056 76.88C50.0536 76.88 50.459 76.8 50.8216 76.64C51.195 76.48 51.4883 76.2453 51.7016 75.936C51.9256 75.6267 52.0376 75.248 52.0376 74.8V74.224H49.5256C49.003 74.224 48.5923 74.3307 48.2936 74.544C47.995 74.7467 47.8456 75.072 47.8456 75.52C47.8456 75.9147 47.9843 76.24 48.2616 76.496C48.5496 76.752 48.9976 76.88 49.6056 76.88ZM56.8925 78.16C56.6898 78.16 56.5032 78.1067 56.3325 78C56.1618 77.904 56.0232 77.7707 55.9165 77.6C55.8205 77.4293 55.7725 77.2427 55.7725 77.04C55.7725 76.72 55.8792 76.4533 56.0925 76.24C56.3165 76.0267 56.5832 75.92 56.8925 75.92C57.2018 75.92 57.4632 76.0267 57.6765 76.24C57.9005 76.4533 58.0125 76.72 58.0125 77.04C58.0125 77.2427 57.9592 77.4293 57.8525 77.6C57.7565 77.7707 57.6232 77.904 57.4525 78C57.2925 78.1067 57.1058 78.16 56.8925 78.16ZM56.8925 71.6C56.6898 71.6 56.5032 71.552 56.3325 71.456C56.1618 71.3493 56.0232 71.2107 55.9165 71.04C55.8205 70.8693 55.7725 70.6827 55.7725 70.48C55.7725 70.16 55.8792 69.8933 56.0925 69.68C56.3165 69.4667 56.5832 69.36 56.8925 69.36C57.2018 69.36 57.4632 69.4667 57.6765 69.68C57.9005 69.8933 58.0125 70.16 58.0125 70.48C58.0125 70.6827 57.9592 70.8693 57.8525 71.04C57.7565 71.2107 57.6232 71.3493 57.4525 71.456C57.2925 71.552 57.1058 71.6 56.8925 71.6ZM65.3694 81.36C65.2094 81.36 65.0494 81.344 64.8894 81.312V80.032C65.0494 80.064 65.2094 80.08 65.3694 80.08C65.5827 80.08 65.7587 80.0267 65.8974 79.92C66.0467 79.824 66.196 79.6267 66.3454 79.328C66.4947 79.0293 66.676 78.5867 66.8894 78L63.2894 69.52H64.8574L67.6094 76.4L70.1054 69.52H71.6094L68.4094 78C68.1107 78.8 67.8227 79.4453 67.5454 79.936C67.2787 80.4267 66.9747 80.784 66.6334 81.008C66.3027 81.2427 65.8814 81.36 65.3694 81.36ZM73.0425 78V69.52H80.0825V78H78.6745V70.768H74.4505V78H73.0425ZM82.4763 81.2V69.52H83.7883V71.12C84.0763 70.5547 84.4763 70.1227 84.9883 69.824C85.5109 69.5147 86.1136 69.36 86.7963 69.36C87.8629 69.36 88.7163 69.712 89.3563 70.416C89.9963 71.1093 90.3163 72.144 90.3163 73.52V73.84C90.3163 74.8 90.1669 75.6 89.8683 76.24C89.5803 76.88 89.1696 77.36 88.6363 77.68C88.1136 78 87.5003 78.16 86.7963 78.16C86.0709 78.16 85.4629 78 84.9723 77.68C84.4923 77.36 84.1296 76.96 83.8843 76.48V81.2H82.4763ZM86.4763 76.912C87.1696 76.912 87.7456 76.6507 88.2043 76.128C88.6736 75.6053 88.9083 74.8427 88.9083 73.84V73.52C88.9083 72.592 88.6736 71.8773 88.2043 71.376C87.7456 70.864 87.1696 70.608 86.4763 70.608C85.9643 70.608 85.5109 70.7147 85.1163 70.928C84.7323 71.1413 84.4283 71.4347 84.2043 71.808C83.9909 72.1707 83.8843 72.5813 83.8843 73.04V74.32C83.8843 74.832 83.9909 75.2853 84.2043 75.68C84.4283 76.064 84.7323 76.368 85.1163 76.592C85.5109 76.8053 85.9643 76.912 86.4763 76.912ZM95.68 78.16C94.9653 78.16 94.2933 78.0053 93.664 77.696C93.0453 77.376 92.544 76.896 92.16 76.256C91.7867 75.616 91.6 74.8107 91.6 73.84V73.52C91.6 72.6027 91.7867 71.8347 92.16 71.216C92.544 70.5973 93.0453 70.1333 93.664 69.824C94.2933 69.5147 94.9653 69.36 95.68 69.36C96.4053 69.36 97.0773 69.5147 97.696 69.824C98.3147 70.1333 98.8107 70.5973 99.184 71.216C99.568 71.8347 99.76 72.6027 99.76 73.52V73.84C99.76 74.8107 99.568 75.616 99.184 76.256C98.8107 76.896 98.3147 77.376 97.696 77.696C97.0773 78.0053 96.4053 78.16 95.68 78.16ZM95.68 76.88C96.1173 76.88 96.5333 76.784 96.928 76.592C97.3333 76.3893 97.664 76.064 97.92 75.616C98.1867 75.168 98.32 74.576 98.32 73.84V73.52C98.32 72.8373 98.1867 72.288 97.92 71.872C97.664 71.4453 97.3333 71.136 96.928 70.944C96.5333 70.7413 96.1173 70.64 95.68 70.64C95.2533 70.64 94.8373 70.7413 94.432 70.944C94.0267 71.136 93.6907 71.4453 93.424 71.872C93.168 72.288 93.04 72.8373 93.04 73.52V73.84C93.04 74.576 93.168 75.168 93.424 75.616C93.6907 76.064 94.0267 76.3893 94.432 76.592C94.8373 76.784 95.2533 76.88 95.68 76.88ZM104.874 78.16C104.148 78.16 103.492 78.0053 102.906 77.696C102.33 77.376 101.871 76.896 101.53 76.256C101.199 75.616 101.034 74.8107 101.034 73.84V73.52C101.034 72.6027 101.215 71.8347 101.578 71.216C101.94 70.5973 102.415 70.1333 103.002 69.824C103.588 69.5147 104.212 69.36 104.874 69.36C105.546 69.36 106.122 69.4827 106.602 69.728C107.092 69.9627 107.487 70.288 107.786 70.704C108.084 71.1093 108.287 71.568 108.394 72.08H106.954C106.783 71.6747 106.543 71.3333 106.234 71.056C105.935 70.7787 105.482 70.64 104.874 70.64C104.458 70.64 104.068 70.7413 103.706 70.944C103.343 71.136 103.044 71.4453 102.81 71.872C102.586 72.288 102.474 72.8373 102.474 73.52V73.84C102.474 74.5653 102.586 75.152 102.81 75.6C103.044 76.048 103.343 76.3733 103.706 76.576C104.068 76.7787 104.458 76.88 104.874 76.88C105.396 76.88 105.834 76.752 106.186 76.496C106.548 76.24 106.804 75.888 106.954 75.44H108.394C108.266 75.9947 108.036 76.48 107.706 76.896C107.375 77.3013 106.97 77.616 106.49 77.84C106.01 78.0533 105.471 78.16 104.874 78.16ZM112.088 78V70.768H109.192V69.52H116.392V70.768H113.496V78H112.088ZM117.836 78V69.52H119.244V75.92L123.628 69.52H125.036V78H123.628V71.6L119.244 78H117.836ZM129.378 78V70.768H126.482V69.52H133.682V70.768H130.786V78H129.378ZM135.126 78V69.52H136.534V72.72H138.566C139.632 72.72 140.416 72.9547 140.918 73.424C141.43 73.8933 141.686 74.544 141.686 75.376C141.686 75.9093 141.574 76.3733 141.35 76.768C141.126 77.1627 140.784 77.4667 140.326 77.68C139.867 77.8933 139.28 78 138.566 78H135.126ZM136.534 76.752H138.486C139.147 76.752 139.611 76.6347 139.878 76.4C140.144 76.1653 140.278 75.8187 140.278 75.36C140.278 74.9013 140.144 74.5547 139.878 74.32C139.611 74.0853 139.147 73.968 138.486 73.968H136.534V76.752ZM147.212 78V69.52H148.62V73.056H153.004V69.52H154.412V78H153.004V74.304H148.62V78H147.212ZM159.233 78.16C158.615 78.16 158.087 78.048 157.649 77.824C157.223 77.5893 156.897 77.2747 156.673 76.88C156.449 76.4747 156.337 76.0213 156.337 75.52C156.337 74.6773 156.583 74.0693 157.073 73.696C157.575 73.3227 158.289 73.136 159.217 73.136H161.969V72.56C161.969 71.8347 161.804 71.3333 161.473 71.056C161.153 70.7787 160.668 70.64 160.017 70.64C159.409 70.64 158.967 70.7573 158.689 70.992C158.412 71.216 158.257 71.472 158.225 71.76H156.817C156.849 71.3013 157.004 70.896 157.281 70.544C157.559 70.1813 157.937 69.8933 158.417 69.68C158.897 69.4667 159.457 69.36 160.097 69.36C160.769 69.36 161.351 69.4667 161.841 69.68C162.332 69.8827 162.711 70.208 162.977 70.656C163.244 71.0933 163.377 71.6747 163.377 72.4V75.84C163.377 76.288 163.377 76.6827 163.377 77.024C163.388 77.3547 163.415 77.68 163.457 78H162.225C162.193 77.7547 162.172 77.5253 162.161 77.312C162.151 77.088 162.145 76.8373 162.145 76.56C161.921 77.008 161.559 77.3867 161.057 77.696C160.556 78.0053 159.948 78.16 159.233 78.16ZM159.537 76.88C159.985 76.88 160.391 76.8 160.753 76.64C161.127 76.48 161.42 76.2453 161.633 75.936C161.857 75.6267 161.969 75.248 161.969 74.8V74.224H159.457C158.935 74.224 158.524 74.3307 158.225 74.544C157.927 74.7467 157.777 75.072 157.777 75.52C157.777 75.9147 157.916 76.24 158.193 76.496C158.481 76.752 158.929 76.88 159.537 76.88ZM168.984 78.16C168.259 78.16 167.603 78.0053 167.016 77.696C166.44 77.376 165.982 76.896 165.64 76.256C165.31 75.616 165.144 74.8107 165.144 73.84V73.52C165.144 72.6027 165.326 71.8347 165.688 71.216C166.051 70.5973 166.526 70.1333 167.112 69.824C167.699 69.5147 168.323 69.36 168.984 69.36C169.656 69.36 170.232 69.4827 170.712 69.728C171.203 69.9627 171.598 70.288 171.896 70.704C172.195 71.1093 172.398 71.568 172.504 72.08H171.064C170.894 71.6747 170.654 71.3333 170.344 71.056C170.046 70.7787 169.592 70.64 168.984 70.64C168.568 70.64 168.179 70.7413 167.816 70.944C167.454 71.136 167.155 71.4453 166.92 71.872C166.696 72.288 166.584 72.8373 166.584 73.52V73.84C166.584 74.5653 166.696 75.152 166.92 75.6C167.155 76.048 167.454 76.3733 167.816 76.576C168.179 76.7787 168.568 76.88 168.984 76.88C169.507 76.88 169.944 76.752 170.296 76.496C170.659 76.24 170.915 75.888 171.064 75.44H172.504C172.376 75.9947 172.147 76.48 171.816 76.896C171.486 77.3013 171.08 77.616 170.6 77.84C170.12 78.0533 169.582 78.16 168.984 78.16ZM176.199 78V70.768H173.303V69.52H180.503V70.768H177.607V78H176.199ZM181.947 81.2V69.52H183.259V71.12C183.547 70.5547 183.947 70.1227 184.459 69.824C184.982 69.5147 185.584 69.36 186.267 69.36C187.334 69.36 188.187 69.712 188.827 70.416C189.467 71.1093 189.787 72.144 189.787 73.52V73.84C189.787 74.8 189.638 75.6 189.339 76.24C189.051 76.88 188.64 77.36 188.107 77.68C187.584 78 186.971 78.16 186.267 78.16C185.542 78.16 184.934 78 184.443 77.68C183.963 77.36 183.6 76.96 183.355 76.48V81.2H181.947ZM185.947 76.912C186.64 76.912 187.216 76.6507 187.675 76.128C188.144 75.6053 188.379 74.8427 188.379 73.84V73.52C188.379 72.592 188.144 71.8773 187.675 71.376C187.216 70.864 186.64 70.608 185.947 70.608C185.435 70.608 184.982 70.7147 184.587 70.928C184.203 71.1413 183.899 71.4347 183.675 71.808C183.462 72.1707 183.355 72.5813 183.355 73.04V74.32C183.355 74.832 183.462 75.2853 183.675 75.68C183.899 76.064 184.203 76.368 184.587 76.592C184.982 76.8053 185.435 76.912 185.947 76.912ZM195.151 78.16C194.436 78.16 193.764 78.0053 193.135 77.696C192.516 77.376 192.015 76.896 191.631 76.256C191.257 75.616 191.071 74.8107 191.071 73.84V73.52C191.071 72.6027 191.257 71.8347 191.631 71.216C192.015 70.5973 192.516 70.1333 193.135 69.824C193.764 69.5147 194.436 69.36 195.151 69.36C195.876 69.36 196.548 69.5147 197.167 69.824C197.785 70.1333 198.281 70.5973 198.655 71.216C199.039 71.8347 199.231 72.6027 199.231 73.52V73.84C199.231 74.8107 199.039 75.616 198.655 76.256C198.281 76.896 197.785 77.376 197.167 77.696C196.548 78.0053 195.876 78.16 195.151 78.16ZM195.151 76.88C195.588 76.88 196.004 76.784 196.399 76.592C196.804 76.3893 197.135 76.064 197.391 75.616C197.657 75.168 197.791 74.576 197.791 73.84V73.52C197.791 72.8373 197.657 72.288 197.391 71.872C197.135 71.4453 196.804 71.136 196.399 70.944C196.004 70.7413 195.588 70.64 195.151 70.64C194.724 70.64 194.308 70.7413 193.903 70.944C193.497 71.136 193.161 71.4453 192.895 71.872C192.639 72.288 192.511 72.8373 192.511 73.52V73.84C192.511 74.576 192.639 75.168 192.895 75.616C193.161 76.064 193.497 76.3893 193.903 76.592C194.308 76.784 194.724 76.88 195.151 76.88ZM201.064 78V69.52H202.472V75.92L206.856 69.52H208.264V78H206.856V71.6L202.472 78H201.064ZM204.664 68.48C203.832 68.48 203.224 68.304 202.84 67.952C202.456 67.5893 202.264 67.072 202.264 66.4H203.64C203.64 66.7627 203.726 67.0347 203.896 67.216C204.067 67.3973 204.323 67.488 204.664 67.488C205.016 67.488 205.278 67.3973 205.448 67.216C205.63 67.0347 205.72 66.7627 205.72 66.4H207.064C207.064 67.072 206.872 67.5893 206.488 67.952C206.104 68.304 205.496 68.48 204.664 68.48ZM210.67 78V69.52H212.078V73.072H213.198L216.366 69.52H218.03L214.35 73.584L218.19 78H216.398L213.198 74.288H212.078V78H210.67ZM220.989 81.36C220.829 81.36 220.669 81.344 220.509 81.312V80.032C220.669 80.064 220.829 80.08 220.989 80.08C221.203 80.08 221.379 80.0267 221.517 79.92C221.667 79.824 221.816 79.6267 221.965 79.328C222.115 79.0293 222.296 78.5867 222.509 78L218.909 69.52H220.477L223.229 76.4L225.725 69.52H227.229L224.029 78C223.731 78.8 223.443 79.4453 223.165 79.936C222.899 80.4267 222.595 80.784 222.253 81.008C221.923 81.2427 221.501 81.36 220.989 81.36ZM232.503 78V69.52H238.263V70.768H233.911V78H232.503ZM243.066 78.16C242.351 78.16 241.679 78.0053 241.05 77.696C240.431 77.3867 239.93 76.912 239.546 76.272C239.172 75.632 238.986 74.8213 238.986 73.84V73.52C238.986 72.5813 239.167 71.808 239.53 71.2C239.892 70.5813 240.372 70.1227 240.97 69.824C241.567 69.5147 242.212 69.36 242.906 69.36C244.154 69.36 245.119 69.7013 245.802 70.384C246.484 71.0667 246.826 72.032 246.826 73.28V74.176H240.394C240.394 74.8373 240.527 75.3653 240.794 75.76C241.071 76.1547 241.412 76.4427 241.818 76.624C242.234 76.7947 242.65 76.88 243.066 76.88C243.706 76.88 244.196 76.7733 244.538 76.56C244.89 76.3467 245.14 76.0533 245.29 75.68H246.666C246.495 76.4907 246.074 77.1093 245.402 77.536C244.74 77.952 243.962 78.16 243.066 78.16ZM242.986 70.64C242.548 70.64 242.132 70.7253 241.738 70.896C241.343 71.056 241.018 71.312 240.762 71.664C240.516 72.016 240.394 72.4693 240.394 73.024H245.498C245.487 72.4373 245.364 71.9733 245.13 71.632C244.906 71.28 244.607 71.0293 244.234 70.88C243.86 70.72 243.444 70.64 242.986 70.64ZM252.187 78.16C251.472 78.16 250.8 78.0053 250.171 77.696C249.552 77.376 249.051 76.896 248.667 76.256C248.294 75.616 248.107 74.8107 248.107 73.84V73.52C248.107 72.6027 248.294 71.8347 248.667 71.216C249.051 70.5973 249.552 70.1333 250.171 69.824C250.8 69.5147 251.472 69.36 252.187 69.36C252.912 69.36 253.584 69.5147 254.203 69.824C254.822 70.1333 255.318 70.5973 255.691 71.216C256.075 71.8347 256.267 72.6027 256.267 73.52V73.84C256.267 74.8107 256.075 75.616 255.691 76.256C255.318 76.896 254.822 77.376 254.203 77.696C253.584 78.0053 252.912 78.16 252.187 78.16ZM252.187 76.88C252.624 76.88 253.04 76.784 253.435 76.592C253.84 76.3893 254.171 76.064 254.427 75.616C254.694 75.168 254.827 74.576 254.827 73.84V73.52C254.827 72.8373 254.694 72.288 254.427 71.872C254.171 71.4453 253.84 71.136 253.435 70.944C253.04 70.7413 252.624 70.64 252.187 70.64C251.76 70.64 251.344 70.7413 250.939 70.944C250.534 71.136 250.198 71.4453 249.931 71.872C249.675 72.288 249.547 72.8373 249.547 73.52V73.84C249.547 74.576 249.675 75.168 249.931 75.616C250.198 76.064 250.534 76.3893 250.939 76.592C251.344 76.784 251.76 76.88 252.187 76.88ZM258.101 78V69.52H263.861V70.768H259.509V78H258.101ZM265.3 81.2V69.52H266.612V71.12C266.9 70.5547 267.3 70.1227 267.812 69.824C268.335 69.5147 268.937 69.36 269.62 69.36C270.687 69.36 271.54 69.712 272.18 70.416C272.82 71.1093 273.14 72.144 273.14 73.52V73.84C273.14 74.8 272.991 75.6 272.692 76.24C272.404 76.88 271.993 77.36 271.46 77.68C270.937 78 270.324 78.16 269.62 78.16C268.895 78.16 268.287 78 267.796 77.68C267.316 77.36 266.953 76.96 266.708 76.48V81.2H265.3ZM269.3 76.912C269.993 76.912 270.569 76.6507 271.028 76.128C271.497 75.6053 271.732 74.8427 271.732 73.84V73.52C271.732 72.592 271.497 71.8773 271.028 71.376C270.569 70.864 269.993 70.608 269.3 70.608C268.788 70.608 268.335 70.7147 267.94 70.928C267.556 71.1413 267.252 71.4347 267.028 71.808C266.815 72.1707 266.708 72.5813 266.708 73.04V74.32C266.708 74.832 266.815 75.2853 267.028 75.68C267.252 76.064 267.556 76.368 267.94 76.592C268.335 76.8053 268.788 76.912 269.3 76.912ZM277.4 78.16C276.781 78.16 276.253 78.048 275.816 77.824C275.389 77.5893 275.064 77.2747 274.84 76.88C274.616 76.4747 274.504 76.0213 274.504 75.52C274.504 74.6773 274.749 74.0693 275.24 73.696C275.741 73.3227 276.456 73.136 277.384 73.136H280.136V72.56C280.136 71.8347 279.97 71.3333 279.64 71.056C279.32 70.7787 278.834 70.64 278.184 70.64C277.576 70.64 277.133 70.7573 276.856 70.992C276.578 71.216 276.424 71.472 276.392 71.76H274.984C275.016 71.3013 275.17 70.896 275.448 70.544C275.725 70.1813 276.104 69.8933 276.584 69.68C277.064 69.4667 277.624 69.36 278.264 69.36C278.936 69.36 279.517 69.4667 280.008 69.68C280.498 69.8827 280.877 70.208 281.144 70.656C281.41 71.0933 281.544 71.6747 281.544 72.4V75.84C281.544 76.288 281.544 76.6827 281.544 77.024C281.554 77.3547 281.581 77.68 281.624 78H280.392C280.36 77.7547 280.338 77.5253 280.328 77.312C280.317 77.088 280.312 76.8373 280.312 76.56C280.088 77.008 279.725 77.3867 279.224 77.696C278.722 78.0053 278.114 78.16 277.4 78.16ZM277.704 76.88C278.152 76.88 278.557 76.8 278.92 76.64C279.293 76.48 279.586 76.2453 279.8 75.936C280.024 75.6267 280.136 75.248 280.136 74.8V74.224H277.624C277.101 74.224 276.69 74.3307 276.392 74.544C276.093 74.7467 275.944 75.072 275.944 75.52C275.944 75.9147 276.082 76.24 276.36 76.496C276.648 76.752 277.096 76.88 277.704 76.88ZM287.807 81.2V78.16C286.335 78.16 285.215 77.7867 284.447 77.04C283.689 76.2933 283.311 75.232 283.311 73.856V73.536C283.311 72.224 283.689 71.2 284.447 70.464C285.215 69.728 286.335 69.36 287.807 69.36V66.8H289.215V69.36C290.687 69.36 291.801 69.728 292.559 70.464C293.327 71.2 293.711 72.224 293.711 73.536V73.856C293.711 75.232 293.327 76.2933 292.559 77.04C291.801 77.7867 290.687 78.16 289.215 78.16V81.2H287.807ZM292.271 73.856V73.536C292.271 72.5653 292.02 71.84 291.519 71.36C291.028 70.88 290.255 70.64 289.199 70.64V76.88C290.255 76.88 291.028 76.6347 291.519 76.144C292.02 75.6533 292.271 74.8907 292.271 73.856ZM284.751 73.536V73.856C284.751 74.8907 284.996 75.6533 285.487 76.144C285.988 76.6347 286.767 76.88 287.823 76.88V70.64C286.767 70.64 285.988 70.88 285.487 71.36C284.996 71.84 284.751 72.5653 284.751 73.536ZM295.554 78V69.52H296.962V75.92L301.346 69.52H302.754V78H301.346V71.6L296.962 78H295.554ZM305.16 78V69.52H306.568V75.92L310.952 69.52H312.36V78H310.952V71.6L306.568 78H305.16ZM318.606 78V69.52H325.646V78H324.238V70.768H320.014V78H318.606ZM331.559 78.16C330.845 78.16 330.173 78.0053 329.543 77.696C328.925 77.376 328.423 76.896 328.039 76.256C327.666 75.616 327.479 74.8107 327.479 73.84V73.52C327.479 72.6027 327.666 71.8347 328.039 71.216C328.423 70.5973 328.925 70.1333 329.543 69.824C330.173 69.5147 330.845 69.36 331.559 69.36C332.285 69.36 332.957 69.5147 333.575 69.824C334.194 70.1333 334.69 70.5973 335.063 71.216C335.447 71.8347 335.639 72.6027 335.639 73.52V73.84C335.639 74.8107 335.447 75.616 335.063 76.256C334.69 76.896 334.194 77.376 333.575 77.696C332.957 78.0053 332.285 78.16 331.559 78.16ZM331.559 76.88C331.997 76.88 332.413 76.784 332.807 76.592C333.213 76.3893 333.543 76.064 333.799 75.616C334.066 75.168 334.199 74.576 334.199 73.84V73.52C334.199 72.8373 334.066 72.288 333.799 71.872C333.543 71.4453 333.213 71.136 332.807 70.944C332.413 70.7413 331.997 70.64 331.559 70.64C331.133 70.64 330.717 70.7413 330.311 70.944C329.906 71.136 329.57 71.4453 329.303 71.872C329.047 72.288 328.919 72.8373 328.919 73.52V73.84C328.919 74.576 329.047 75.168 329.303 75.616C329.57 76.064 329.906 76.3893 330.311 76.592C330.717 76.784 331.133 76.88 331.559 76.88ZM336.357 80V76.752H337.397C337.557 76.5387 337.696 76.1813 337.813 75.68C337.93 75.168 338.021 74.5707 338.085 73.888C338.16 73.2053 338.197 72.496 338.197 71.76V69.52H344.117V76.752H345.317V80H343.973V78H337.701V80H336.357ZM338.837 76.752H342.709V70.768H339.573V72.08C339.573 72.976 339.509 73.8453 339.381 74.688C339.264 75.52 339.082 76.208 338.837 76.752ZM350.684 78V69.52H352.092V73.056H356.476V69.52H357.884V78H356.476V74.304H352.092V78H350.684ZM363.81 78.16C363.095 78.16 362.423 78.0053 361.794 77.696C361.175 77.376 360.674 76.896 360.29 76.256C359.917 75.616 359.73 74.8107 359.73 73.84V73.52C359.73 72.6027 359.917 71.8347 360.29 71.216C360.674 70.5973 361.175 70.1333 361.794 69.824C362.423 69.5147 363.095 69.36 363.81 69.36C364.535 69.36 365.207 69.5147 365.826 69.824C366.445 70.1333 366.941 70.5973 367.314 71.216C367.698 71.8347 367.89 72.6027 367.89 73.52V73.84C367.89 74.8107 367.698 75.616 367.314 76.256C366.941 76.896 366.445 77.376 365.826 77.696C365.207 78.0053 364.535 78.16 363.81 78.16ZM363.81 76.88C364.247 76.88 364.663 76.784 365.058 76.592C365.463 76.3893 365.794 76.064 366.05 75.616C366.317 75.168 366.45 74.576 366.45 73.84V73.52C366.45 72.8373 366.317 72.288 366.05 71.872C365.794 71.4453 365.463 71.136 365.058 70.944C364.663 70.7413 364.247 70.64 363.81 70.64C363.383 70.64 362.967 70.7413 362.562 70.944C362.157 71.136 361.821 71.4453 361.554 71.872C361.298 72.288 361.17 72.8373 361.17 73.52V73.84C361.17 74.576 361.298 75.168 361.554 75.616C361.821 76.064 362.157 76.3893 362.562 76.592C362.967 76.784 363.383 76.88 363.81 76.88ZM369.724 78V69.52H373.404C374.108 69.52 374.684 69.6213 375.132 69.824C375.58 70.016 375.91 70.288 376.124 70.64C376.337 70.9813 376.444 71.3813 376.444 71.84C376.444 72.2133 376.321 72.5707 376.076 72.912C375.841 73.2427 375.537 73.472 375.164 73.6C375.686 73.728 376.081 73.9733 376.348 74.336C376.625 74.688 376.764 75.104 376.764 75.584C376.764 76.32 376.518 76.9067 376.028 77.344C375.537 77.7813 374.769 78 373.724 78H369.724ZM371.132 76.752H373.724C374.321 76.752 374.742 76.6453 374.988 76.432C375.233 76.2187 375.356 75.9147 375.356 75.52C375.356 75.1147 375.233 74.8053 374.988 74.592C374.742 74.368 374.321 74.256 373.724 74.256H371.132V76.752ZM371.132 73.104H373.404C374.012 73.104 374.433 72.9973 374.668 72.784C374.913 72.5707 375.036 72.2773 375.036 71.904C375.036 71.552 374.913 71.2747 374.668 71.072C374.433 70.8693 374.012 70.768 373.404 70.768H371.132V73.104ZM378.611 78V69.52H380.019V72.72H381.731C382.797 72.72 383.581 72.9547 384.083 73.424C384.595 73.8933 384.851 74.544 384.851 75.376C384.851 75.9093 384.739 76.3733 384.515 76.768C384.291 77.1627 383.949 77.4667 383.491 77.68C383.032 77.8933 382.445 78 381.731 78H378.611ZM380.019 76.752H381.651C382.312 76.752 382.776 76.6347 383.043 76.4C383.309 76.1653 383.443 75.8187 383.443 75.36C383.443 74.9013 383.309 74.5547 383.043 74.32C382.776 74.0853 382.312 73.968 381.651 73.968H380.019V76.752ZM386.163 78V69.52H387.571V78H386.163ZM390.138 78V69.52H391.546V75.92L395.93 69.52H397.338V78H395.93V71.6L391.546 78H390.138ZM393.738 68.48C392.906 68.48 392.298 68.304 391.914 67.952C391.53 67.5893 391.338 67.072 391.338 66.4H392.714C392.714 66.7627 392.799 67.0347 392.97 67.216C393.141 67.3973 393.397 67.488 393.738 67.488C394.09 67.488 394.351 67.3973 394.522 67.216C394.703 67.0347 394.794 66.7627 394.794 66.4H396.138C396.138 67.072 395.946 67.5893 395.562 67.952C395.178 68.304 394.57 68.48 393.738 68.48ZM40.56 102.16C39.8347 102.16 39.1787 102.005 38.592 101.696C38.016 101.376 37.5573 100.896 37.216 100.256C36.8853 99.616 36.72 98.8107 36.72 97.84V97.52C36.72 96.6027 36.9013 95.8347 37.264 95.216C37.6267 94.5973 38.1013 94.1333 38.688 93.824C39.2747 93.5147 39.8987 93.36 40.56 93.36C41.232 93.36 41.808 93.4827 42.288 93.728C42.7787 93.9627 43.1733 94.288 43.472 94.704C43.7707 95.1093 43.9733 95.568 44.08 96.08H42.64C42.4693 95.6747 42.2293 95.3333 41.92 95.056C41.6213 94.7787 41.168 94.64 40.56 94.64C40.144 94.64 39.7547 94.7413 39.392 94.944C39.0293 95.136 38.7307 95.4453 38.496 95.872C38.272 96.288 38.16 96.8373 38.16 97.52V97.84C38.16 98.5653 38.272 99.152 38.496 99.6C38.7307 100.048 39.0293 100.373 39.392 100.576C39.7547 100.779 40.144 100.88 40.56 100.88C41.0827 100.88 41.52 100.752 41.872 100.496C42.2347 100.24 42.4907 99.888 42.64 99.44H44.08C43.952 99.9947 43.7227 100.48 43.392 100.896C43.0613 101.301 42.656 101.616 42.176 101.84C41.696 102.053 41.1573 102.16 40.56 102.16ZM52.7348 104V102H45.8388V93.52H47.2468V100.752H51.3108V93.52H52.7188V100.752H54.0788V104H52.7348ZM59.1206 102.16C58.406 102.16 57.734 102.005 57.1046 101.696C56.486 101.387 55.9846 100.912 55.6006 100.272C55.2273 99.632 55.0406 98.8213 55.0406 97.84V97.52C55.0406 96.5813 55.222 95.808 55.5846 95.2C55.9473 94.5813 56.4273 94.1227 57.0246 93.824C57.622 93.5147 58.2673 93.36 58.9606 93.36C60.2086 93.36 61.174 93.7013 61.8566 94.384C62.5393 95.0667 62.8806 96.032 62.8806 97.28V98.176H56.4486C56.4486 98.8373 56.582 99.3653 56.8486 99.76C57.126 100.155 57.4673 100.443 57.8726 100.624C58.2886 100.795 58.7046 100.88 59.1206 100.88C59.7606 100.88 60.2513 100.773 60.5926 100.56C60.9446 100.347 61.1953 100.053 61.3446 99.68H62.7206C62.55 100.491 62.1286 101.109 61.4566 101.536C60.7953 101.952 60.0166 102.16 59.1206 102.16ZM59.0406 94.64C58.6033 94.64 58.1873 94.7253 57.7926 94.896C57.398 95.056 57.0726 95.312 56.8166 95.664C56.5713 96.016 56.4486 96.4693 56.4486 97.024H61.5526C61.542 96.4373 61.4193 95.9733 61.1846 95.632C60.9606 95.28 60.662 95.0293 60.2886 94.88C59.9153 94.72 59.4993 94.64 59.0406 94.64ZM64.7219 102V93.52H66.1299V97.056H70.5139V93.52H71.9219V102H70.5139V98.304H66.1299V102H64.7219ZM76.7435 102.16C76.1248 102.16 75.5968 102.048 75.1595 101.824C74.7328 101.589 74.4075 101.275 74.1835 100.88C73.9595 100.475 73.8475 100.021 73.8475 99.52C73.8475 98.6773 74.0928 98.0693 74.5835 97.696C75.0848 97.3227 75.7995 97.136 76.7275 97.136H79.4795V96.56C79.4795 95.8347 79.3142 95.3333 78.9835 95.056C78.6635 94.7787 78.1782 94.64 77.5275 94.64C76.9195 94.64 76.4768 94.7573 76.1995 94.992C75.9222 95.216 75.7675 95.472 75.7355 95.76H74.3275C74.3595 95.3013 74.5142 94.896 74.7915 94.544C75.0688 94.1813 75.4475 93.8933 75.9275 93.68C76.4075 93.4667 76.9675 93.36 77.6075 93.36C78.2795 93.36 78.8608 93.4667 79.3515 93.68C79.8422 93.8827 80.2208 94.208 80.4875 94.656C80.7542 95.0933 80.8875 95.6747 80.8875 96.4V99.84C80.8875 100.288 80.8875 100.683 80.8875 101.024C80.8982 101.355 80.9248 101.68 80.9675 102H79.7355C79.7035 101.755 79.6822 101.525 79.6715 101.312C79.6608 101.088 79.6555 100.837 79.6555 100.56C79.4315 101.008 79.0688 101.387 78.5675 101.696C78.0662 102.005 77.4582 102.16 76.7435 102.16ZM77.0475 100.88C77.4955 100.88 77.9008 100.8 78.2635 100.64C78.6368 100.48 78.9302 100.245 79.1435 99.936C79.3675 99.6267 79.4795 99.248 79.4795 98.8V98.224H76.9675C76.4448 98.224 76.0342 98.3307 75.7355 98.544C75.4368 98.7467 75.2875 99.072 75.2875 99.52C75.2875 99.9147 75.4262 100.24 75.7035 100.496C75.9915 100.752 76.4395 100.88 77.0475 100.88ZM83.2144 105.2V93.52H84.5264V95.12C84.8144 94.5547 85.2144 94.1227 85.7264 93.824C86.249 93.5147 86.8517 93.36 87.5344 93.36C88.601 93.36 89.4544 93.712 90.0944 94.416C90.7344 95.1093 91.0544 96.144 91.0544 97.52V97.84C91.0544 98.8 90.905 99.6 90.6064 100.24C90.3184 100.88 89.9077 101.36 89.3744 101.68C88.8517 102 88.2384 102.16 87.5344 102.16C86.809 102.16 86.201 102 85.7104 101.68C85.2304 101.36 84.8677 100.96 84.6224 100.48V105.2H83.2144ZM87.2144 100.912C87.9077 100.912 88.4837 100.651 88.9424 100.128C89.4117 99.6053 89.6464 98.8427 89.6464 97.84V97.52C89.6464 96.592 89.4117 95.8773 88.9424 95.376C88.4837 94.864 87.9077 94.608 87.2144 94.608C86.7024 94.608 86.249 94.7147 85.8544 94.928C85.4704 95.1413 85.1664 95.4347 84.9424 95.808C84.729 96.1707 84.6224 96.5813 84.6224 97.04V98.32C84.6224 98.832 84.729 99.2853 84.9424 99.68C85.1664 100.064 85.4704 100.368 85.8544 100.592C86.249 100.805 86.7024 100.912 87.2144 100.912ZM92.8981 102V93.52H94.3061V99.92L98.6901 93.52H100.098V102H98.6901V95.6L94.3061 102H92.8981ZM102.504 102V93.52H103.912V99.92L108.296 93.52H109.704V102H108.296V95.6L103.912 102H102.504ZM106.104 92.48C105.272 92.48 104.664 92.304 104.28 91.952C103.896 91.5893 103.704 91.072 103.704 90.4H105.08C105.08 90.7627 105.165 91.0347 105.336 91.216C105.506 91.3973 105.762 91.488 106.104 91.488C106.456 91.488 106.717 91.3973 106.888 91.216C107.069 91.0347 107.16 90.7627 107.16 90.4H108.504C108.504 91.072 108.312 91.5893 107.928 91.952C107.544 92.304 106.936 92.48 106.104 92.48ZM118.829 101.2L115.309 98.224V96.976L118.829 94V95.568L116.429 97.568L118.829 99.568V101.2ZM122.509 101.2L118.989 98.224V96.976L122.509 94V95.568L120.109 97.568L122.509 99.568V101.2ZM127.002 102.16C126.384 102.16 125.856 102.048 125.418 101.824C124.992 101.589 124.666 101.275 124.442 100.88C124.218 100.475 124.106 100.021 124.106 99.52C124.106 98.6773 124.352 98.0693 124.842 97.696C125.344 97.3227 126.058 97.136 126.986 97.136H129.738V96.56C129.738 95.8347 129.573 95.3333 129.242 95.056C128.922 94.7787 128.437 94.64 127.786 94.64C127.178 94.64 126.736 94.7573 126.458 94.992C126.181 95.216 126.026 95.472 125.994 95.76H124.586C124.618 95.3013 124.773 94.896 125.05 94.544C125.328 94.1813 125.706 93.8933 126.186 93.68C126.666 93.4667 127.226 93.36 127.866 93.36C128.538 93.36 129.12 93.4667 129.61 93.68C130.101 93.8827 130.48 94.208 130.746 94.656C131.013 95.0933 131.146 95.6747 131.146 96.4V99.84C131.146 100.288 131.146 100.683 131.146 101.024C131.157 101.355 131.184 101.68 131.226 102H129.994C129.962 101.755 129.941 101.525 129.93 101.312C129.92 101.088 129.914 100.837 129.914 100.56C129.69 101.008 129.328 101.387 128.826 101.696C128.325 102.005 127.717 102.16 127.002 102.16ZM127.306 100.88C127.754 100.88 128.16 100.8 128.522 100.64C128.896 100.48 129.189 100.245 129.402 99.936C129.626 99.6267 129.738 99.248 129.738 98.8V98.224H127.226C126.704 98.224 126.293 98.3307 125.994 98.544C125.696 98.7467 125.546 99.072 125.546 99.52C125.546 99.9147 125.685 100.24 125.962 100.496C126.25 100.752 126.698 100.88 127.306 100.88ZM133.473 102V93.52H134.881V97.072H136.001L139.169 93.52H140.833L137.153 97.584L140.993 102H139.201L136.001 98.288H134.881V102H133.473ZM149.412 104V102H142.516V93.52H143.924V100.752H147.988V93.52H149.396V100.752H150.756V104H149.412ZM152.278 102V93.52H153.686V99.92L158.07 93.52H159.478V102H158.07V95.6L153.686 102H152.278ZM161.244 102L163.548 98.64C162.844 98.48 162.337 98.192 162.028 97.776C161.718 97.3493 161.564 96.8053 161.564 96.144C161.564 95.5893 161.676 95.12 161.9 94.736C162.124 94.3413 162.47 94.0427 162.94 93.84C163.409 93.6267 164.017 93.52 164.764 93.52H168.444V102H167.036V98.768H164.876L162.812 102H161.244ZM162.972 96.144C162.972 96.592 163.1 96.9333 163.356 97.168C163.622 97.4027 164.065 97.52 164.684 97.52H167.036V94.768H164.684C164.065 94.768 163.622 94.8853 163.356 95.12C163.1 95.3547 162.972 95.696 162.972 96.144ZM174.689 102V93.52H176.097V97.056H180.481V93.52H181.889V102H180.481V98.304H176.097V102H174.689ZM186.71 102.16C186.092 102.16 185.564 102.048 185.126 101.824C184.7 101.589 184.374 101.275 184.15 100.88C183.926 100.475 183.814 100.021 183.814 99.52C183.814 98.6773 184.06 98.0693 184.55 97.696C185.052 97.3227 185.766 97.136 186.694 97.136H189.446V96.56C189.446 95.8347 189.281 95.3333 188.95 95.056C188.63 94.7787 188.145 94.64 187.494 94.64C186.886 94.64 186.444 94.7573 186.166 94.992C185.889 95.216 185.734 95.472 185.702 95.76H184.294C184.326 95.3013 184.481 94.896 184.758 94.544C185.036 94.1813 185.414 93.8933 185.894 93.68C186.374 93.4667 186.934 93.36 187.574 93.36C188.246 93.36 188.828 93.4667 189.318 93.68C189.809 93.8827 190.188 94.208 190.454 94.656C190.721 95.0933 190.854 95.6747 190.854 96.4V99.84C190.854 100.288 190.854 100.683 190.854 101.024C190.865 101.355 190.892 101.68 190.934 102H189.702C189.67 101.755 189.649 101.525 189.638 101.312C189.628 101.088 189.622 100.837 189.622 100.56C189.398 101.008 189.036 101.387 188.534 101.696C188.033 102.005 187.425 102.16 186.71 102.16ZM187.014 100.88C187.462 100.88 187.868 100.8 188.23 100.64C188.604 100.48 188.897 100.245 189.11 99.936C189.334 99.6267 189.446 99.248 189.446 98.8V98.224H186.934C186.412 98.224 186.001 98.3307 185.702 98.544C185.404 98.7467 185.254 99.072 185.254 99.52C185.254 99.9147 185.393 100.24 185.67 100.496C185.958 100.752 186.406 100.88 187.014 100.88ZM197.021 102V93.52H200.701C201.405 93.52 201.981 93.6213 202.429 93.824C202.877 94.016 203.208 94.288 203.421 94.64C203.635 94.9813 203.741 95.3813 203.741 95.84C203.741 96.2133 203.619 96.5707 203.373 96.912C203.139 97.2427 202.835 97.472 202.461 97.6C202.984 97.728 203.379 97.9733 203.645 98.336C203.923 98.688 204.061 99.104 204.061 99.584C204.061 100.32 203.816 100.907 203.325 101.344C202.835 101.781 202.067 102 201.021 102H197.021ZM198.429 100.752H201.021C201.619 100.752 202.04 100.645 202.285 100.432C202.531 100.219 202.653 99.9147 202.653 99.52C202.653 99.1147 202.531 98.8053 202.285 98.592C202.04 98.368 201.619 98.256 201.021 98.256H198.429V100.752ZM198.429 97.104H200.701C201.309 97.104 201.731 96.9973 201.965 96.784C202.211 96.5707 202.333 96.2773 202.333 95.904C202.333 95.552 202.211 95.2747 201.965 95.072C201.731 94.8693 201.309 94.768 200.701 94.768H198.429V97.104ZM209.428 102.16C208.713 102.16 208.041 102.005 207.412 101.696C206.793 101.387 206.292 100.912 205.908 100.272C205.535 99.632 205.348 98.8213 205.348 97.84V97.52C205.348 96.5813 205.529 95.808 205.892 95.2C206.255 94.5813 206.735 94.1227 207.332 93.824C207.929 93.5147 208.575 93.36 209.268 93.36C210.516 93.36 211.481 93.7013 212.164 94.384C212.847 95.0667 213.188 96.032 213.188 97.28V98.176H206.756C206.756 98.8373 206.889 99.3653 207.156 99.76C207.433 100.155 207.775 100.443 208.18 100.624C208.596 100.795 209.012 100.88 209.428 100.88C210.068 100.88 210.559 100.773 210.9 100.56C211.252 100.347 211.503 100.053 211.652 99.68H213.028C212.857 100.491 212.436 101.109 211.764 101.536C211.103 101.952 210.324 102.16 209.428 102.16ZM209.348 94.64C208.911 94.64 208.495 94.7253 208.1 94.896C207.705 95.056 207.38 95.312 207.124 95.664C206.879 96.016 206.756 96.4693 206.756 97.024H211.86C211.849 96.4373 211.727 95.9733 211.492 95.632C211.268 95.28 210.969 95.0293 210.596 94.88C210.223 94.72 209.807 94.64 209.348 94.64ZM218.309 102.16C217.584 102.16 216.928 102.005 216.341 101.696C215.765 101.376 215.307 100.896 214.965 100.256C214.635 99.616 214.469 98.8107 214.469 97.84V97.52C214.469 96.6027 214.651 95.8347 215.013 95.216C215.376 94.5973 215.851 94.1333 216.437 93.824C217.024 93.5147 217.648 93.36 218.309 93.36C218.981 93.36 219.557 93.4827 220.037 93.728C220.528 93.9627 220.923 94.288 221.221 94.704C221.52 95.1093 221.723 95.568 221.829 96.08H220.389C220.219 95.6747 219.979 95.3333 219.669 95.056C219.371 94.7787 218.917 94.64 218.309 94.64C217.893 94.64 217.504 94.7413 217.141 94.944C216.779 95.136 216.48 95.4453 216.245 95.872C216.021 96.288 215.909 96.8373 215.909 97.52V97.84C215.909 98.5653 216.021 99.152 216.245 99.6C216.48 100.048 216.779 100.373 217.141 100.576C217.504 100.779 217.893 100.88 218.309 100.88C218.832 100.88 219.269 100.752 219.621 100.496C219.984 100.24 220.24 99.888 220.389 99.44H221.829C221.701 99.9947 221.472 100.48 221.141 100.896C220.811 101.301 220.405 101.616 219.925 101.84C219.445 102.053 218.907 102.16 218.309 102.16ZM223.588 102V93.52H224.996V96.72H227.028C228.095 96.72 228.879 96.9547 229.38 97.424C229.892 97.8933 230.148 98.544 230.148 99.376C230.148 99.9093 230.036 100.373 229.812 100.768C229.588 101.163 229.247 101.467 228.788 101.68C228.329 101.893 227.743 102 227.028 102H223.588ZM224.996 100.752H226.948C227.609 100.752 228.073 100.635 228.34 100.4C228.607 100.165 228.74 99.8187 228.74 99.36C228.74 98.9013 228.607 98.5547 228.34 98.32C228.073 98.0853 227.609 97.968 226.948 97.968H224.996V100.752ZM235.674 102V93.52H241.434V94.768H237.082V102H235.674ZM246.238 102.16C245.523 102.16 244.851 102.005 244.222 101.696C243.603 101.376 243.102 100.896 242.718 100.256C242.344 99.616 242.158 98.8107 242.158 97.84V97.52C242.158 96.6027 242.344 95.8347 242.718 95.216C243.102 94.5973 243.603 94.1333 244.222 93.824C244.851 93.5147 245.523 93.36 246.238 93.36C246.963 93.36 247.635 93.5147 248.254 93.824C248.872 94.1333 249.368 94.5973 249.742 95.216C250.126 95.8347 250.318 96.6027 250.318 97.52V97.84C250.318 98.8107 250.126 99.616 249.742 100.256C249.368 100.896 248.872 101.376 248.254 101.696C247.635 102.005 246.963 102.16 246.238 102.16ZM246.238 100.88C246.675 100.88 247.091 100.784 247.486 100.592C247.891 100.389 248.222 100.064 248.478 99.616C248.744 99.168 248.878 98.576 248.878 97.84V97.52C248.878 96.8373 248.744 96.288 248.478 95.872C248.222 95.4453 247.891 95.136 247.486 94.944C247.091 94.7413 246.675 94.64 246.238 94.64C245.811 94.64 245.395 94.7413 244.99 94.944C244.584 95.136 244.248 95.4453 243.982 95.872C243.726 96.288 243.598 96.8373 243.598 97.52V97.84C243.598 98.576 243.726 99.168 243.982 99.616C244.248 100.064 244.584 100.389 244.99 100.592C245.395 100.784 245.811 100.88 246.238 100.88ZM252.151 105.2V93.52H253.463V95.12C253.751 94.5547 254.151 94.1227 254.663 93.824C255.186 93.5147 255.789 93.36 256.471 93.36C257.538 93.36 258.391 93.712 259.031 94.416C259.671 95.1093 259.991 96.144 259.991 97.52V97.84C259.991 98.8 259.842 99.6 259.543 100.24C259.255 100.88 258.845 101.36 258.311 101.68C257.789 102 257.175 102.16 256.471 102.16C255.746 102.16 255.138 102 254.647 101.68C254.167 101.36 253.805 100.96 253.559 100.48V105.2H252.151ZM256.151 100.912C256.845 100.912 257.421 100.651 257.879 100.128C258.349 99.6053 258.583 98.8427 258.583 97.84V97.52C258.583 96.592 258.349 95.8773 257.879 95.376C257.421 94.864 256.845 94.608 256.151 94.608C255.639 94.608 255.186 94.7147 254.791 94.928C254.407 95.1413 254.103 95.4347 253.879 95.808C253.666 96.1707 253.559 96.5813 253.559 97.04V98.32C253.559 98.832 253.666 99.2853 253.879 99.68C254.103 100.064 254.407 100.368 254.791 100.592C255.186 100.805 255.639 100.912 256.151 100.912ZM265.355 102.16C264.64 102.16 263.968 102.005 263.339 101.696C262.72 101.376 262.219 100.896 261.835 100.256C261.462 99.616 261.275 98.8107 261.275 97.84V97.52C261.275 96.6027 261.462 95.8347 261.835 95.216C262.219 94.5973 262.72 94.1333 263.339 93.824C263.968 93.5147 264.64 93.36 265.355 93.36C266.08 93.36 266.752 93.5147 267.371 93.824C267.99 94.1333 268.486 94.5973 268.859 95.216C269.243 95.8347 269.435 96.6027 269.435 97.52V97.84C269.435 98.8107 269.243 99.616 268.859 100.256C268.486 100.896 267.99 101.376 267.371 101.696C266.752 102.005 266.08 102.16 265.355 102.16ZM265.355 100.88C265.792 100.88 266.208 100.784 266.603 100.592C267.008 100.389 267.339 100.064 267.595 99.616C267.862 99.168 267.995 98.576 267.995 97.84V97.52C267.995 96.8373 267.862 96.288 267.595 95.872C267.339 95.4453 267.008 95.136 266.603 94.944C266.208 94.7413 265.792 94.64 265.355 94.64C264.928 94.64 264.512 94.7413 264.107 94.944C263.702 95.136 263.366 95.4453 263.099 95.872C262.843 96.288 262.715 96.8373 262.715 97.52V97.84C262.715 98.576 262.843 99.168 263.099 99.616C263.366 100.064 263.702 100.389 264.107 100.592C264.512 100.784 264.928 100.88 265.355 100.88ZM270.153 104V100.752H271.193C271.353 100.539 271.491 100.181 271.609 99.68C271.726 99.168 271.817 98.5707 271.881 97.888C271.955 97.2053 271.993 96.496 271.993 95.76V93.52H277.913V100.752H279.113V104H277.769V102H271.497V104H270.153ZM272.633 100.752H276.505V94.768H273.369V96.08C273.369 96.976 273.305 97.8453 273.177 98.688C273.059 99.52 272.878 100.208 272.633 100.752ZM280.32 94L283.84 96.976V98.224L280.32 101.2V99.632L282.72 97.632L280.32 95.632V94ZM284 94L287.52 96.976V98.224L284 101.2V99.632L286.4 97.632L284 95.632V94ZM290.397 102.16C290.194 102.16 290.008 102.107 289.837 102C289.666 101.904 289.528 101.771 289.421 101.6C289.325 101.429 289.277 101.243 289.277 101.04C289.277 100.72 289.384 100.453 289.597 100.24C289.821 100.027 290.088 99.92 290.397 99.92C290.706 99.92 290.968 100.027 291.181 100.24C291.405 100.453 291.517 100.72 291.517 101.04C291.517 101.243 291.464 101.429 291.357 101.6C291.261 101.771 291.128 101.904 290.957 102C290.797 102.107 290.61 102.16 290.397 102.16Z" fill="#21201F"/>
</g>
<defs>
<filter id="filter0_f_3972_45232" x="39" y="-136" width="786" height="786" filterUnits="userSpaceOnUse" color-interpolation-filters="sRGB">
<feFlood flood-opacity="0" result="BackgroundImageFix"/>
<feBlend mode="normal" in="SourceGraphic" in2="BackgroundImageFix" result="shape"/>
<feGaussianBlur stdDeviation="86" result="effect1_foregroundBlur_3972_45232"/>
</filter>
<clipPath id="clip0_3972_45232">
<rect width="439" height="144" fill="white"/>
</clipPath>
</defs>
</svg>
