<svg width="925" height="176" viewBox="0 0 925 176" fill="none" xmlns="http://www.w3.org/2000/svg">
<g clip-path="url(#clip0_3954_132335)">
<rect width="925" height="176" fill="#F7F1EB"/>
<path d="M0 0H925V176H0V0Z" fill="#F7EBEE"/>
<g filter="url(#filter0_f_3954_132335)">
<circle cx="683" cy="216" r="221" fill="#F7F1EB"/>
</g>
<rect x="118" y="40" width="688" height="88" rx="4" fill="white" fill-opacity="0.8"/>
<path d="M138.72 78L141.792 73.296C140.928 73.0613 140.277 72.6667 139.84 72.112C139.413 71.5467 139.2 70.896 139.2 70.16C139.2 69.52 139.36 68.9493 139.68 68.448C140 67.936 140.475 67.536 141.104 67.248C141.733 66.9493 142.512 66.8 143.44 66.8H147.36V78H145.856V73.488H143.264L140.416 78H138.72ZM140.704 70.16C140.704 70.768 140.928 71.264 141.376 71.648C141.824 72.0213 142.565 72.208 143.6 72.208H145.856V68.112H143.6C142.565 68.112 141.824 68.304 141.376 68.688C140.928 69.0613 140.704 69.552 140.704 70.16ZM153.913 78V69.52H160.953V78H159.545V70.768H155.321V78H153.913ZM166.867 78.16C166.152 78.16 165.48 78.0053 164.851 77.696C164.232 77.3867 163.731 76.912 163.347 76.272C162.974 75.632 162.787 74.8213 162.787 73.84V73.52C162.787 72.5813 162.968 71.808 163.331 71.2C163.694 70.5813 164.174 70.1227 164.771 69.824C165.368 69.5147 166.014 69.36 166.707 69.36C167.955 69.36 168.92 69.7013 169.603 70.384C170.286 71.0667 170.627 72.032 170.627 73.28V74.176H164.195C164.195 74.8373 164.328 75.3653 164.595 75.76C164.872 76.1547 165.214 76.4427 165.619 76.624C166.035 76.7947 166.451 76.88 166.867 76.88C167.507 76.88 167.998 76.7733 168.339 76.56C168.691 76.3467 168.942 76.0533 169.091 75.68H170.467C170.296 76.4907 169.875 77.1093 169.203 77.536C168.542 77.952 167.763 78.16 166.867 78.16ZM166.787 70.64C166.35 70.64 165.934 70.7253 165.539 70.896C165.144 71.056 164.819 71.312 164.563 71.664C164.318 72.016 164.195 72.4693 164.195 73.024H169.299C169.288 72.4373 169.166 71.9733 168.931 71.632C168.707 71.28 168.408 71.0293 168.035 70.88C167.662 70.72 167.246 70.64 166.787 70.64ZM172.468 81.2V69.52H173.78V71.12C174.068 70.5547 174.468 70.1227 174.98 69.824C175.503 69.5147 176.105 69.36 176.788 69.36C177.855 69.36 178.708 69.712 179.348 70.416C179.988 71.1093 180.308 72.144 180.308 73.52V73.84C180.308 74.8 180.159 75.6 179.86 76.24C179.572 76.88 179.161 77.36 178.628 77.68C178.105 78 177.492 78.16 176.788 78.16C176.063 78.16 175.455 78 174.964 77.68C174.484 77.36 174.121 76.96 173.876 76.48V81.2H172.468ZM176.468 76.912C177.161 76.912 177.737 76.6507 178.196 76.128C178.665 75.6053 178.9 74.8427 178.9 73.84V73.52C178.9 72.592 178.665 71.8773 178.196 71.376C177.737 70.864 177.161 70.608 176.468 70.608C175.956 70.608 175.503 70.7147 175.108 70.928C174.724 71.1413 174.42 71.4347 174.196 71.808C173.983 72.1707 173.876 72.5813 173.876 73.04V74.32C173.876 74.832 173.983 75.2853 174.196 75.68C174.42 76.064 174.724 76.368 175.108 76.592C175.503 76.8053 175.956 76.912 176.468 76.912ZM185.672 78.16C184.957 78.16 184.285 78.0053 183.656 77.696C183.037 77.3867 182.536 76.912 182.152 76.272C181.779 75.632 181.592 74.8213 181.592 73.84V73.52C181.592 72.5813 181.773 71.808 182.136 71.2C182.499 70.5813 182.979 70.1227 183.576 69.824C184.173 69.5147 184.819 69.36 185.512 69.36C186.76 69.36 187.725 69.7013 188.408 70.384C189.091 71.0667 189.432 72.032 189.432 73.28V74.176H183C183 74.8373 183.133 75.3653 183.4 75.76C183.677 76.1547 184.019 76.4427 184.424 76.624C184.84 76.7947 185.256 76.88 185.672 76.88C186.312 76.88 186.803 76.7733 187.144 76.56C187.496 76.3467 187.747 76.0533 187.896 75.68H189.272C189.101 76.4907 188.68 77.1093 188.008 77.536C187.347 77.952 186.568 78.16 185.672 78.16ZM185.592 70.64C185.155 70.64 184.739 70.7253 184.344 70.896C183.949 71.056 183.624 71.312 183.368 71.664C183.123 72.016 183 72.4693 183 73.024H188.104C188.093 72.4373 187.971 71.9733 187.736 71.632C187.512 71.28 187.213 71.0293 186.84 70.88C186.467 70.72 186.051 70.64 185.592 70.64ZM191.273 78V69.52H194.953C195.657 69.52 196.233 69.6213 196.681 69.824C197.129 70.016 197.46 70.288 197.673 70.64C197.886 70.9813 197.993 71.3813 197.993 71.84C197.993 72.2133 197.87 72.5707 197.625 72.912C197.39 73.2427 197.086 73.472 196.713 73.6C197.236 73.728 197.63 73.9733 197.897 74.336C198.174 74.688 198.313 75.104 198.313 75.584C198.313 76.32 198.068 76.9067 197.577 77.344C197.086 77.7813 196.318 78 195.273 78H191.273ZM192.681 76.752H195.273C195.87 76.752 196.292 76.6453 196.537 76.432C196.782 76.2187 196.905 75.9147 196.905 75.52C196.905 75.1147 196.782 74.8053 196.537 74.592C196.292 74.368 195.87 74.256 195.273 74.256H192.681V76.752ZM192.681 73.104H194.953C195.561 73.104 195.982 72.9973 196.217 72.784C196.462 72.5707 196.585 72.2773 196.585 71.904C196.585 71.552 196.462 71.2747 196.217 71.072C195.982 70.8693 195.561 70.768 194.953 70.768H192.681V73.104ZM203.68 78.16C202.965 78.16 202.293 78.0053 201.664 77.696C201.045 77.3867 200.544 76.912 200.16 76.272C199.787 75.632 199.6 74.8213 199.6 73.84V73.52C199.6 72.5813 199.781 71.808 200.144 71.2C200.507 70.5813 200.987 70.1227 201.584 69.824C202.181 69.5147 202.827 69.36 203.52 69.36C204.768 69.36 205.733 69.7013 206.416 70.384C207.099 71.0667 207.44 72.032 207.44 73.28V74.176H201.008C201.008 74.8373 201.141 75.3653 201.408 75.76C201.685 76.1547 202.027 76.4427 202.432 76.624C202.848 76.7947 203.264 76.88 203.68 76.88C204.32 76.88 204.811 76.7733 205.152 76.56C205.504 76.3467 205.755 76.0533 205.904 75.68H207.28C207.109 76.4907 206.688 77.1093 206.016 77.536C205.355 77.952 204.576 78.16 203.68 78.16ZM203.6 70.64C203.163 70.64 202.747 70.7253 202.352 70.896C201.957 71.056 201.632 71.312 201.376 71.664C201.131 72.016 201.008 72.4693 201.008 73.024H206.112C206.101 72.4373 205.979 71.9733 205.744 71.632C205.52 71.28 205.221 71.0293 204.848 70.88C204.475 70.72 204.059 70.64 203.6 70.64ZM208.725 78.16C208.65 78.16 208.57 78.1547 208.485 78.144C208.41 78.1333 208.33 78.1227 208.245 78.112V76.704C208.277 76.7147 208.357 76.72 208.485 76.72C208.805 76.72 209.066 76.5813 209.269 76.304C209.472 76.016 209.616 75.5147 209.701 74.8C209.797 74.0747 209.845 73.0613 209.845 71.76V69.52H215.925V78H214.517V70.768H211.253V72.08C211.253 73.264 211.2 74.2507 211.093 75.04C210.986 75.8187 210.826 76.4373 210.613 76.896C210.41 77.3547 210.149 77.68 209.829 77.872C209.509 78.064 209.141 78.16 208.725 78.16ZM220.74 78.16C220.122 78.16 219.594 78.048 219.156 77.824C218.73 77.5893 218.404 77.2747 218.18 76.88C217.956 76.4747 217.844 76.0213 217.844 75.52C217.844 74.6773 218.09 74.0693 218.58 73.696C219.082 73.3227 219.796 73.136 220.724 73.136H223.476V72.56C223.476 71.8347 223.311 71.3333 222.98 71.056C222.66 70.7787 222.175 70.64 221.524 70.64C220.916 70.64 220.474 70.7573 220.196 70.992C219.919 71.216 219.764 71.472 219.732 71.76H218.324C218.356 71.3013 218.511 70.896 218.788 70.544C219.066 70.1813 219.444 69.8933 219.924 69.68C220.404 69.4667 220.964 69.36 221.604 69.36C222.276 69.36 222.858 69.4667 223.348 69.68C223.839 69.8827 224.218 70.208 224.484 70.656C224.751 71.0933 224.884 71.6747 224.884 72.4V75.84C224.884 76.288 224.884 76.6827 224.884 77.024C224.895 77.3547 224.922 77.68 224.964 78H223.732C223.7 77.7547 223.679 77.5253 223.668 77.312C223.658 77.088 223.652 76.8373 223.652 76.56C223.428 77.008 223.066 77.3867 222.564 77.696C222.063 78.0053 221.455 78.16 220.74 78.16ZM221.044 76.88C221.492 76.88 221.898 76.8 222.26 76.64C222.634 76.48 222.927 76.2453 223.14 75.936C223.364 75.6267 223.476 75.248 223.476 74.8V74.224H220.964C220.442 74.224 220.031 74.3307 219.732 74.544C219.434 74.7467 219.284 75.072 219.284 75.52C219.284 75.9147 219.423 76.24 219.7 76.496C219.988 76.752 220.436 76.88 221.044 76.88ZM233.931 78.16C233.227 78.16 232.619 78.0587 232.107 77.856C231.595 77.6533 231.195 77.36 230.907 76.976C230.619 76.592 230.454 76.1333 230.411 75.6H231.819C231.873 75.8773 231.99 76.112 232.171 76.304C232.353 76.496 232.593 76.64 232.891 76.736C233.19 76.832 233.537 76.88 233.931 76.88C234.667 76.88 235.201 76.7573 235.531 76.512C235.873 76.256 236.043 75.952 236.043 75.6C236.043 75.184 235.905 74.8587 235.627 74.624C235.35 74.3787 234.87 74.256 234.187 74.256H232.731V73.104H234.091C234.678 73.104 235.094 72.992 235.339 72.768C235.595 72.544 235.723 72.2293 235.723 71.824C235.723 71.504 235.574 71.2267 235.275 70.992C234.977 70.7573 234.529 70.64 233.931 70.64C233.281 70.64 232.806 70.7467 232.507 70.96C232.219 71.1627 232.043 71.456 231.979 71.84H230.571C230.614 71.36 230.774 70.9333 231.051 70.56C231.329 70.1867 231.713 69.8933 232.203 69.68C232.694 69.4667 233.27 69.36 233.931 69.36C235.019 69.36 235.825 69.5893 236.347 70.048C236.87 70.5067 237.131 71.0987 237.131 71.824C237.131 72.2293 237.03 72.5867 236.827 72.896C236.625 73.1947 236.299 73.4293 235.851 73.6C236.449 73.76 236.865 74.016 237.099 74.368C237.334 74.72 237.451 75.1307 237.451 75.6C237.451 76.0587 237.318 76.4853 237.051 76.88C236.785 77.264 236.39 77.5733 235.867 77.808C235.355 78.0427 234.71 78.16 233.931 78.16ZM241.714 78.16C241.095 78.16 240.567 78.048 240.13 77.824C239.703 77.5893 239.378 77.2747 239.154 76.88C238.93 76.4747 238.818 76.0213 238.818 75.52C238.818 74.6773 239.063 74.0693 239.554 73.696C240.055 73.3227 240.77 73.136 241.698 73.136H244.45V72.56C244.45 71.8347 244.284 71.3333 243.954 71.056C243.634 70.7787 243.148 70.64 242.498 70.64C241.89 70.64 241.447 70.7573 241.17 70.992C240.892 71.216 240.738 71.472 240.706 71.76H239.298C239.33 71.3013 239.484 70.896 239.762 70.544C240.039 70.1813 240.418 69.8933 240.898 69.68C241.378 69.4667 241.938 69.36 242.578 69.36C243.25 69.36 243.831 69.4667 244.322 69.68C244.812 69.8827 245.191 70.208 245.458 70.656C245.724 71.0933 245.858 71.6747 245.858 72.4V75.84C245.858 76.288 245.858 76.6827 245.858 77.024C245.868 77.3547 245.895 77.68 245.938 78H244.706C244.674 77.7547 244.652 77.5253 244.642 77.312C244.631 77.088 244.626 76.8373 244.626 76.56C244.402 77.008 244.039 77.3867 243.538 77.696C243.036 78.0053 242.428 78.16 241.714 78.16ZM242.018 76.88C242.466 76.88 242.871 76.8 243.234 76.64C243.607 76.48 243.9 76.2453 244.114 75.936C244.338 75.6267 244.45 75.248 244.45 74.8V74.224H241.938C241.415 74.224 241.004 74.3307 240.706 74.544C240.407 74.7467 240.258 75.072 240.258 75.52C240.258 75.9147 240.396 76.24 240.674 76.496C240.962 76.752 241.41 76.88 242.018 76.88ZM247.224 80V76.752H248.264C248.424 76.5387 248.563 76.1813 248.68 75.68C248.798 75.168 248.888 74.5707 248.952 73.888C249.027 73.2053 249.064 72.496 249.064 71.76V69.52H254.984V76.752H256.184V80H254.84V78H248.568V80H247.224ZM249.704 76.752H253.576V70.768H250.44V72.08C250.44 72.976 250.376 73.8453 250.248 74.688C250.131 75.52 249.95 76.208 249.704 76.752ZM260.284 78.16C259.665 78.16 259.137 78.048 258.7 77.824C258.273 77.5893 257.948 77.2747 257.724 76.88C257.5 76.4747 257.388 76.0213 257.388 75.52C257.388 74.6773 257.633 74.0693 258.124 73.696C258.625 73.3227 259.34 73.136 260.268 73.136H263.02V72.56C263.02 71.8347 262.855 71.3333 262.524 71.056C262.204 70.7787 261.719 70.64 261.068 70.64C260.46 70.64 260.017 70.7573 259.74 70.992C259.463 71.216 259.308 71.472 259.276 71.76H257.868C257.9 71.3013 258.055 70.896 258.332 70.544C258.609 70.1813 258.988 69.8933 259.468 69.68C259.948 69.4667 260.508 69.36 261.148 69.36C261.82 69.36 262.401 69.4667 262.892 69.68C263.383 69.8827 263.761 70.208 264.028 70.656C264.295 71.0933 264.428 71.6747 264.428 72.4V75.84C264.428 76.288 264.428 76.6827 264.428 77.024C264.439 77.3547 264.465 77.68 264.508 78H263.276C263.244 77.7547 263.223 77.5253 263.212 77.312C263.201 77.088 263.196 76.8373 263.196 76.56C262.972 77.008 262.609 77.3867 262.108 77.696C261.607 78.0053 260.999 78.16 260.284 78.16ZM260.588 76.88C261.036 76.88 261.441 76.8 261.804 76.64C262.177 76.48 262.471 76.2453 262.684 75.936C262.908 75.6267 263.02 75.248 263.02 74.8V74.224H260.508C259.985 74.224 259.575 74.3307 259.276 74.544C258.977 74.7467 258.828 75.072 258.828 75.52C258.828 75.9147 258.967 76.24 259.244 76.496C259.532 76.752 259.98 76.88 260.588 76.88ZM271.667 78V74.624C271.422 74.7733 271.123 74.9067 270.771 75.024C270.43 75.1413 269.998 75.2 269.475 75.2C268.483 75.2 267.715 74.976 267.171 74.528C266.627 74.08 266.355 73.3173 266.355 72.24V69.52H267.763V72C267.763 72.7253 267.912 73.2267 268.211 73.504C268.51 73.7813 269.011 73.92 269.715 73.92C270.195 73.92 270.606 73.872 270.947 73.776C271.288 73.68 271.528 73.5787 271.667 73.472V69.52H273.075V78H271.667ZM276.59 81.36C276.43 81.36 276.27 81.344 276.11 81.312V80.032C276.27 80.064 276.43 80.08 276.59 80.08C276.803 80.08 276.979 80.0267 277.118 79.92C277.267 79.824 277.417 79.6267 277.566 79.328C277.715 79.0293 277.897 78.5867 278.11 78L274.51 69.52H276.078L278.83 76.4L281.326 69.52H282.83L279.63 78C279.331 78.8 279.043 79.4453 278.766 79.936C278.499 80.4267 278.195 80.784 277.854 81.008C277.523 81.2427 277.102 81.36 276.59 81.36ZM291.383 78.16C290.658 78.16 290.002 78.0053 289.415 77.696C288.839 77.376 288.38 76.896 288.039 76.256C287.708 75.616 287.543 74.8107 287.543 73.84V73.52C287.543 72.6027 287.724 71.8347 288.087 71.216C288.45 70.5973 288.924 70.1333 289.511 69.824C290.098 69.5147 290.722 69.36 291.383 69.36C292.055 69.36 292.631 69.4827 293.111 69.728C293.602 69.9627 293.996 70.288 294.295 70.704C294.594 71.1093 294.796 71.568 294.903 72.08H293.463C293.292 71.6747 293.052 71.3333 292.743 71.056C292.444 70.7787 291.991 70.64 291.383 70.64C290.967 70.64 290.578 70.7413 290.215 70.944C289.852 71.136 289.554 71.4453 289.319 71.872C289.095 72.288 288.983 72.8373 288.983 73.52V73.84C288.983 74.5653 289.095 75.152 289.319 75.6C289.554 76.048 289.852 76.3733 290.215 76.576C290.578 76.7787 290.967 76.88 291.383 76.88C291.906 76.88 292.343 76.752 292.695 76.496C293.058 76.24 293.314 75.888 293.463 75.44H294.903C294.775 75.9947 294.546 76.48 294.215 76.896C293.884 77.3013 293.479 77.616 292.999 77.84C292.519 78.0533 291.98 78.16 291.383 78.16ZM303.382 77.2L299.862 74.224V72.976L303.382 70V71.568L300.982 73.568L303.382 75.568V77.2ZM307.062 77.2L303.542 74.224V72.976L307.062 70V71.568L304.662 73.568L307.062 75.568V77.2ZM308.179 80V76.752H309.219C309.379 76.5387 309.517 76.1813 309.635 75.68C309.752 75.168 309.843 74.5707 309.907 73.888C309.981 73.2053 310.019 72.496 310.019 71.76V69.52H315.939V76.752H317.139V80H315.795V78H309.523V80H308.179ZM310.659 76.752H314.531V70.768H311.395V72.08C311.395 72.976 311.331 73.8453 311.203 74.688C311.085 75.52 310.904 76.208 310.659 76.752ZM322.186 78.16C321.472 78.16 320.8 78.0053 320.17 77.696C319.552 77.376 319.05 76.896 318.666 76.256C318.293 75.616 318.106 74.8107 318.106 73.84V73.52C318.106 72.6027 318.293 71.8347 318.666 71.216C319.05 70.5973 319.552 70.1333 320.17 69.824C320.8 69.5147 321.472 69.36 322.186 69.36C322.912 69.36 323.584 69.5147 324.202 69.824C324.821 70.1333 325.317 70.5973 325.69 71.216C326.074 71.8347 326.266 72.6027 326.266 73.52V73.84C326.266 74.8107 326.074 75.616 325.69 76.256C325.317 76.896 324.821 77.376 324.202 77.696C323.584 78.0053 322.912 78.16 322.186 78.16ZM322.186 76.88C322.624 76.88 323.04 76.784 323.434 76.592C323.84 76.3893 324.17 76.064 324.426 75.616C324.693 75.168 324.826 74.576 324.826 73.84V73.52C324.826 72.8373 324.693 72.288 324.426 71.872C324.17 71.4453 323.84 71.136 323.434 70.944C323.04 70.7413 322.624 70.64 322.186 70.64C321.76 70.64 321.344 70.7413 320.938 70.944C320.533 71.136 320.197 71.4453 319.93 71.872C319.674 72.288 319.546 72.8373 319.546 73.52V73.84C319.546 74.576 319.674 75.168 319.93 75.616C320.197 76.064 320.533 76.3893 320.938 76.592C321.344 76.784 321.76 76.88 322.186 76.88ZM331.62 78.16C330.873 78.16 330.196 77.9733 329.588 77.6C328.991 77.216 328.511 76.6667 328.148 75.952C327.796 75.2373 327.62 74.3733 327.62 73.36V73.04C327.62 71.76 327.748 70.6667 328.004 69.76C328.271 68.8533 328.719 68.1493 329.348 67.648C329.977 67.136 330.841 66.8533 331.94 66.8C332.388 66.7787 332.799 66.7627 333.172 66.752C333.545 66.7307 333.881 66.6987 334.18 66.656C334.479 66.6027 334.745 66.5173 334.98 66.4V67.76C334.873 67.824 334.697 67.8773 334.452 67.92C334.217 67.9627 333.913 68 333.54 68.032C333.167 68.0533 332.713 68.0747 332.18 68.096C331.497 68.1067 330.921 68.2187 330.452 68.432C329.993 68.6453 329.636 68.9867 329.38 69.456C329.124 69.9253 328.964 70.56 328.9 71.36C329.071 70.976 329.305 70.6507 329.604 70.384C329.903 70.1067 330.249 69.8933 330.644 69.744C331.039 69.5947 331.471 69.52 331.94 69.52C332.665 69.52 333.3 69.68 333.844 70C334.399 70.32 334.831 70.7787 335.14 71.376C335.46 71.9733 335.62 72.688 335.62 73.52V73.84C335.62 74.7147 335.444 75.4773 335.092 76.128C334.751 76.768 334.276 77.2693 333.668 77.632C333.071 77.984 332.388 78.16 331.62 78.16ZM331.62 76.88C332.367 76.88 332.98 76.624 333.46 76.112C333.94 75.5893 334.18 74.832 334.18 73.84V73.52C334.18 72.6987 333.94 72.0427 333.46 71.552C332.98 71.0507 332.367 70.8 331.62 70.8C330.873 70.8 330.26 71.0507 329.78 71.552C329.3 72.0427 329.06 72.6987 329.06 73.52V73.84C329.06 74.4693 329.172 75.0133 329.396 75.472C329.631 75.92 329.94 76.2667 330.324 76.512C330.719 76.7573 331.151 76.88 331.62 76.88ZM339.872 78.16C339.253 78.16 338.725 78.048 338.288 77.824C337.861 77.5893 337.536 77.2747 337.312 76.88C337.088 76.4747 336.976 76.0213 336.976 75.52C336.976 74.6773 337.221 74.0693 337.712 73.696C338.213 73.3227 338.928 73.136 339.856 73.136H342.608V72.56C342.608 71.8347 342.442 71.3333 342.112 71.056C341.792 70.7787 341.306 70.64 340.656 70.64C340.048 70.64 339.605 70.7573 339.328 70.992C339.05 71.216 338.896 71.472 338.864 71.76H337.456C337.488 71.3013 337.642 70.896 337.92 70.544C338.197 70.1813 338.576 69.8933 339.056 69.68C339.536 69.4667 340.096 69.36 340.736 69.36C341.408 69.36 341.989 69.4667 342.48 69.68C342.97 69.8827 343.349 70.208 343.616 70.656C343.882 71.0933 344.016 71.6747 344.016 72.4V75.84C344.016 76.288 344.016 76.6827 344.016 77.024C344.026 77.3547 344.053 77.68 344.096 78H342.864C342.832 77.7547 342.81 77.5253 342.8 77.312C342.789 77.088 342.784 76.8373 342.784 76.56C342.56 77.008 342.197 77.3867 341.696 77.696C341.194 78.0053 340.586 78.16 339.872 78.16ZM340.176 76.88C340.624 76.88 341.029 76.8 341.392 76.64C341.765 76.48 342.058 76.2453 342.272 75.936C342.496 75.6267 342.608 75.248 342.608 74.8V74.224H340.096C339.573 74.224 339.162 74.3307 338.864 74.544C338.565 74.7467 338.416 75.072 338.416 75.52C338.416 75.9147 338.554 76.24 338.832 76.496C339.12 76.752 339.568 76.88 340.176 76.88ZM346.343 78V69.52H350.023C350.727 69.52 351.303 69.6213 351.751 69.824C352.199 70.016 352.529 70.288 352.743 70.64C352.956 70.9813 353.062 71.3813 353.062 71.84C353.062 72.2133 352.94 72.5707 352.695 72.912C352.46 73.2427 352.156 73.472 351.783 73.6C352.305 73.728 352.7 73.9733 352.967 74.336C353.244 74.688 353.383 75.104 353.383 75.584C353.383 76.32 353.137 76.9067 352.647 77.344C352.156 77.7813 351.388 78 350.343 78H346.343ZM347.751 76.752H350.343C350.94 76.752 351.361 76.6453 351.607 76.432C351.852 76.2187 351.975 75.9147 351.975 75.52C351.975 75.1147 351.852 74.8053 351.607 74.592C351.361 74.368 350.94 74.256 350.343 74.256H347.751V76.752ZM347.751 73.104H350.023C350.631 73.104 351.052 72.9973 351.287 72.784C351.532 72.5707 351.655 72.2773 351.655 71.904C351.655 71.552 351.532 71.2747 351.287 71.072C351.052 70.8693 350.631 70.768 350.023 70.768H347.751V73.104ZM355.229 78V69.52H356.637V75.92L361.021 69.52H362.429V78H361.021V71.6L356.637 78H355.229ZM366.771 78V70.768H363.875V69.52H371.075V70.768H368.179V78H366.771ZM372.519 78V69.52H373.927V72.72H375.959C377.025 72.72 377.809 72.9547 378.311 73.424C378.823 73.8933 379.079 74.544 379.079 75.376C379.079 75.9093 378.967 76.3733 378.743 76.768C378.519 77.1627 378.177 77.4667 377.719 77.68C377.26 77.8933 376.673 78 375.959 78H372.519ZM373.927 76.752H375.879C376.54 76.752 377.004 76.6347 377.271 76.4C377.537 76.1653 377.671 75.8187 377.671 75.36C377.671 74.9013 377.537 74.5547 377.271 74.32C377.004 74.0853 376.54 73.968 375.879 73.968H373.927V76.752ZM389.517 78V74.624C389.272 74.7733 388.973 74.9067 388.621 75.024C388.28 75.1413 387.848 75.2 387.325 75.2C386.333 75.2 385.565 74.976 385.021 74.528C384.477 74.08 384.205 73.3173 384.205 72.24V69.52H385.613V72C385.613 72.7253 385.762 73.2267 386.061 73.504C386.36 73.7813 386.861 73.92 387.565 73.92C388.045 73.92 388.456 73.872 388.797 73.776C389.138 73.68 389.378 73.5787 389.517 73.472V69.52H390.925V78H389.517ZM396.84 78.16C396.125 78.16 395.453 78.0053 394.824 77.696C394.205 77.3867 393.704 76.912 393.32 76.272C392.947 75.632 392.76 74.8213 392.76 73.84V73.52C392.76 72.5813 392.941 71.808 393.304 71.2C393.667 70.5813 394.147 70.1227 394.744 69.824C395.341 69.5147 395.987 69.36 396.68 69.36C397.928 69.36 398.893 69.7013 399.576 70.384C400.259 71.0667 400.6 72.032 400.6 73.28V74.176H394.168C394.168 74.8373 394.301 75.3653 394.568 75.76C394.845 76.1547 395.187 76.4427 395.592 76.624C396.008 76.7947 396.424 76.88 396.84 76.88C397.48 76.88 397.971 76.7733 398.312 76.56C398.664 76.3467 398.915 76.0533 399.064 75.68H400.44C400.269 76.4907 399.848 77.1093 399.176 77.536C398.515 77.952 397.736 78.16 396.84 78.16ZM396.76 70.64C396.323 70.64 395.907 70.7253 395.512 70.896C395.117 71.056 394.792 71.312 394.536 71.664C394.291 72.016 394.168 72.4693 394.168 73.024H399.272C399.261 72.4373 399.139 71.9733 398.904 71.632C398.68 71.28 398.381 71.0293 398.008 70.88C397.635 70.72 397.219 70.64 396.76 70.64ZM402.441 78V69.52H403.849V73.072H404.969L408.137 69.52H409.801L406.121 73.584L409.961 78H408.169L404.969 74.288H403.849V78H402.441ZM414.848 78.16C414.101 78.16 413.424 77.9733 412.816 77.6C412.219 77.216 411.739 76.6667 411.376 75.952C411.024 75.2373 410.848 74.3733 410.848 73.36V73.04C410.848 71.76 410.976 70.6667 411.232 69.76C411.499 68.8533 411.947 68.1493 412.576 67.648C413.205 67.136 414.069 66.8533 415.168 66.8C415.616 66.7787 416.027 66.7627 416.4 66.752C416.773 66.7307 417.109 66.6987 417.408 66.656C417.707 66.6027 417.973 66.5173 418.208 66.4V67.76C418.101 67.824 417.925 67.8773 417.68 67.92C417.445 67.9627 417.141 68 416.768 68.032C416.395 68.0533 415.941 68.0747 415.408 68.096C414.725 68.1067 414.149 68.2187 413.68 68.432C413.221 68.6453 412.864 68.9867 412.608 69.456C412.352 69.9253 412.192 70.56 412.128 71.36C412.299 70.976 412.533 70.6507 412.832 70.384C413.131 70.1067 413.477 69.8933 413.872 69.744C414.267 69.5947 414.699 69.52 415.168 69.52C415.893 69.52 416.528 69.68 417.072 70C417.627 70.32 418.059 70.7787 418.368 71.376C418.688 71.9733 418.848 72.688 418.848 73.52V73.84C418.848 74.7147 418.672 75.4773 418.32 76.128C417.979 76.768 417.504 77.2693 416.896 77.632C416.299 77.984 415.616 78.16 414.848 78.16ZM414.848 76.88C415.595 76.88 416.208 76.624 416.688 76.112C417.168 75.5893 417.408 74.832 417.408 73.84V73.52C417.408 72.6987 417.168 72.0427 416.688 71.552C416.208 71.0507 415.595 70.8 414.848 70.8C414.101 70.8 413.488 71.0507 413.008 71.552C412.528 72.0427 412.288 72.6987 412.288 73.52V73.84C412.288 74.4693 412.4 75.0133 412.624 75.472C412.859 75.92 413.168 76.2667 413.552 76.512C413.947 76.7573 414.379 76.88 414.848 76.88ZM424.204 78.16C423.489 78.16 422.817 78.0053 422.188 77.696C421.569 77.376 421.068 76.896 420.684 76.256C420.31 75.616 420.124 74.8107 420.124 73.84V73.52C420.124 72.6027 420.31 71.8347 420.684 71.216C421.068 70.5973 421.569 70.1333 422.188 69.824C422.817 69.5147 423.489 69.36 424.204 69.36C424.929 69.36 425.601 69.5147 426.22 69.824C426.838 70.1333 427.334 70.5973 427.708 71.216C428.092 71.8347 428.284 72.6027 428.284 73.52V73.84C428.284 74.8107 428.092 75.616 427.708 76.256C427.334 76.896 426.838 77.376 426.22 77.696C425.601 78.0053 424.929 78.16 424.204 78.16ZM424.204 76.88C424.641 76.88 425.057 76.784 425.452 76.592C425.857 76.3893 426.188 76.064 426.444 75.616C426.71 75.168 426.844 74.576 426.844 73.84V73.52C426.844 72.8373 426.71 72.288 426.444 71.872C426.188 71.4453 425.857 71.136 425.452 70.944C425.057 70.7413 424.641 70.64 424.204 70.64C423.777 70.64 423.361 70.7413 422.956 70.944C422.55 71.136 422.214 71.4453 421.948 71.872C421.692 72.288 421.564 72.8373 421.564 73.52V73.84C421.564 74.576 421.692 75.168 421.948 75.616C422.214 76.064 422.55 76.3893 422.956 76.592C423.361 76.784 423.777 76.88 424.204 76.88ZM430.117 78V69.52H431.525V73.072H432.645L435.813 69.52H437.477L433.797 73.584L437.637 78H435.845L432.645 74.288H431.525V78H430.117ZM442.128 78.16C441.403 78.16 440.747 78.0053 440.16 77.696C439.584 77.376 439.125 76.896 438.784 76.256C438.453 75.616 438.288 74.8107 438.288 73.84V73.52C438.288 72.6027 438.469 71.8347 438.832 71.216C439.195 70.5973 439.669 70.1333 440.256 69.824C440.843 69.5147 441.467 69.36 442.128 69.36C442.8 69.36 443.376 69.4827 443.856 69.728C444.347 69.9627 444.741 70.288 445.04 70.704C445.339 71.1093 445.541 71.568 445.648 72.08H444.208C444.037 71.6747 443.797 71.3333 443.488 71.056C443.189 70.7787 442.736 70.64 442.128 70.64C441.712 70.64 441.323 70.7413 440.96 70.944C440.597 71.136 440.299 71.4453 440.064 71.872C439.84 72.288 439.728 72.8373 439.728 73.52V73.84C439.728 74.5653 439.84 75.152 440.064 75.6C440.299 76.048 440.597 76.3733 440.96 76.576C441.323 76.7787 441.712 76.88 442.128 76.88C442.651 76.88 443.088 76.752 443.44 76.496C443.803 76.24 444.059 75.888 444.208 75.44H445.648C445.52 75.9947 445.291 76.48 444.96 76.896C444.629 77.3013 444.224 77.616 443.744 77.84C443.264 78.0533 442.725 78.16 442.128 78.16ZM447.087 70L450.607 72.976V74.224L447.087 77.2V75.632L449.487 73.632L447.087 71.632V70ZM450.767 70L454.287 72.976V74.224L450.767 77.2V75.632L453.167 73.632L450.767 71.632V70ZM459.884 78V69.52H461.292V73.056H465.676V69.52H467.084V78H465.676V74.304H461.292V78H459.884ZM471.905 78.16C471.287 78.16 470.759 78.048 470.321 77.824C469.895 77.5893 469.569 77.2747 469.345 76.88C469.121 76.4747 469.009 76.0213 469.009 75.52C469.009 74.6773 469.255 74.0693 469.745 73.696C470.247 73.3227 470.961 73.136 471.889 73.136H474.641V72.56C474.641 71.8347 474.476 71.3333 474.145 71.056C473.825 70.7787 473.34 70.64 472.689 70.64C472.081 70.64 471.639 70.7573 471.361 70.992C471.084 71.216 470.929 71.472 470.897 71.76H469.489C469.521 71.3013 469.676 70.896 469.953 70.544C470.231 70.1813 470.609 69.8933 471.089 69.68C471.569 69.4667 472.129 69.36 472.769 69.36C473.441 69.36 474.023 69.4667 474.513 69.68C475.004 69.8827 475.383 70.208 475.649 70.656C475.916 71.0933 476.049 71.6747 476.049 72.4V75.84C476.049 76.288 476.049 76.6827 476.049 77.024C476.06 77.3547 476.087 77.68 476.129 78H474.897C474.865 77.7547 474.844 77.5253 474.833 77.312C474.823 77.088 474.817 76.8373 474.817 76.56C474.593 77.008 474.231 77.3867 473.729 77.696C473.228 78.0053 472.62 78.16 471.905 78.16ZM472.209 76.88C472.657 76.88 473.063 76.8 473.425 76.64C473.799 76.48 474.092 76.2453 474.305 75.936C474.529 75.6267 474.641 75.248 474.641 74.8V74.224H472.129C471.607 74.224 471.196 74.3307 470.897 74.544C470.599 74.7467 470.449 75.072 470.449 75.52C470.449 75.9147 470.588 76.24 470.865 76.496C471.153 76.752 471.601 76.88 472.209 76.88ZM479.496 78.16C479.294 78.16 479.107 78.1067 478.936 78C478.766 77.904 478.627 77.7707 478.52 77.6C478.424 77.4293 478.376 77.2427 478.376 77.04C478.376 76.72 478.483 76.4533 478.696 76.24C478.92 76.0267 479.187 75.92 479.496 75.92C479.806 75.92 480.067 76.0267 480.28 76.24C480.504 76.4533 480.616 76.72 480.616 77.04C480.616 77.2427 480.563 77.4293 480.456 77.6C480.36 77.7707 480.227 77.904 480.056 78C479.896 78.1067 479.71 78.16 479.496 78.16ZM479.496 71.6C479.294 71.6 479.107 71.552 478.936 71.456C478.766 71.3493 478.627 71.2107 478.52 71.04C478.424 70.8693 478.376 70.6827 478.376 70.48C478.376 70.16 478.483 69.8933 478.696 69.68C478.92 69.4667 479.187 69.36 479.496 69.36C479.806 69.36 480.067 69.4667 480.28 69.68C480.504 69.8933 480.616 70.16 480.616 70.48C480.616 70.6827 480.563 70.8693 480.456 71.04C480.36 71.2107 480.227 71.3493 480.056 71.456C479.896 71.552 479.71 71.6 479.496 71.6ZM487.973 81.36C487.813 81.36 487.653 81.344 487.493 81.312V80.032C487.653 80.064 487.813 80.08 487.973 80.08C488.186 80.08 488.362 80.0267 488.501 79.92C488.65 79.824 488.8 79.6267 488.949 79.328C489.098 79.0293 489.28 78.5867 489.493 78L485.893 69.52H487.461L490.213 76.4L492.709 69.52H494.213L491.013 78C490.714 78.8 490.426 79.4453 490.149 79.936C489.882 80.4267 489.578 80.784 489.237 81.008C488.906 81.2427 488.485 81.36 487.973 81.36ZM495.646 78V69.52H502.686V78H501.278V70.768H497.054V78H495.646ZM505.08 81.2V69.52H506.392V71.12C506.68 70.5547 507.08 70.1227 507.592 69.824C508.115 69.5147 508.717 69.36 509.4 69.36C510.467 69.36 511.32 69.712 511.96 70.416C512.6 71.1093 512.92 72.144 512.92 73.52V73.84C512.92 74.8 512.771 75.6 512.472 76.24C512.184 76.88 511.773 77.36 511.24 77.68C510.717 78 510.104 78.16 509.4 78.16C508.675 78.16 508.067 78 507.576 77.68C507.096 77.36 506.733 76.96 506.488 76.48V81.2H505.08ZM509.08 76.912C509.773 76.912 510.349 76.6507 510.808 76.128C511.277 75.6053 511.512 74.8427 511.512 73.84V73.52C511.512 72.592 511.277 71.8773 510.808 71.376C510.349 70.864 509.773 70.608 509.08 70.608C508.568 70.608 508.115 70.7147 507.72 70.928C507.336 71.1413 507.032 71.4347 506.808 71.808C506.595 72.1707 506.488 72.5813 506.488 73.04V74.32C506.488 74.832 506.595 75.2853 506.808 75.68C507.032 76.064 507.336 76.368 507.72 76.592C508.115 76.8053 508.568 76.912 509.08 76.912ZM518.284 78.16C517.569 78.16 516.897 78.0053 516.268 77.696C515.649 77.376 515.148 76.896 514.764 76.256C514.39 75.616 514.204 74.8107 514.204 73.84V73.52C514.204 72.6027 514.39 71.8347 514.764 71.216C515.148 70.5973 515.649 70.1333 516.268 69.824C516.897 69.5147 517.569 69.36 518.284 69.36C519.009 69.36 519.681 69.5147 520.3 69.824C520.918 70.1333 521.414 70.5973 521.788 71.216C522.172 71.8347 522.364 72.6027 522.364 73.52V73.84C522.364 74.8107 522.172 75.616 521.788 76.256C521.414 76.896 520.918 77.376 520.3 77.696C519.681 78.0053 519.009 78.16 518.284 78.16ZM518.284 76.88C518.721 76.88 519.137 76.784 519.532 76.592C519.937 76.3893 520.268 76.064 520.524 75.616C520.79 75.168 520.924 74.576 520.924 73.84V73.52C520.924 72.8373 520.79 72.288 520.524 71.872C520.268 71.4453 519.937 71.136 519.532 70.944C519.137 70.7413 518.721 70.64 518.284 70.64C517.857 70.64 517.441 70.7413 517.036 70.944C516.63 71.136 516.294 71.4453 516.028 71.872C515.772 72.288 515.644 72.8373 515.644 73.52V73.84C515.644 74.576 515.772 75.168 516.028 75.616C516.294 76.064 516.63 76.3893 517.036 76.592C517.441 76.784 517.857 76.88 518.284 76.88ZM527.478 78.16C526.752 78.16 526.096 78.0053 525.51 77.696C524.934 77.376 524.475 76.896 524.134 76.256C523.803 75.616 523.638 74.8107 523.638 73.84V73.52C523.638 72.6027 523.819 71.8347 524.182 71.216C524.544 70.5973 525.019 70.1333 525.606 69.824C526.192 69.5147 526.816 69.36 527.478 69.36C528.15 69.36 528.726 69.4827 529.206 69.728C529.696 69.9627 530.091 70.288 530.39 70.704C530.688 71.1093 530.891 71.568 530.998 72.08H529.558C529.387 71.6747 529.147 71.3333 528.838 71.056C528.539 70.7787 528.086 70.64 527.478 70.64C527.062 70.64 526.672 70.7413 526.31 70.944C525.947 71.136 525.648 71.4453 525.414 71.872C525.19 72.288 525.078 72.8373 525.078 73.52V73.84C525.078 74.5653 525.19 75.152 525.414 75.6C525.648 76.048 525.947 76.3733 526.31 76.576C526.672 76.7787 527.062 76.88 527.478 76.88C528 76.88 528.438 76.752 528.79 76.496C529.152 76.24 529.408 75.888 529.558 75.44H530.998C530.87 75.9947 530.64 76.48 530.31 76.896C529.979 77.3013 529.574 77.616 529.094 77.84C528.614 78.0533 528.075 78.16 527.478 78.16ZM534.692 78V70.768H531.796V69.52H538.996V70.768H536.1V78H534.692ZM540.44 78V69.52H541.848V75.92L546.232 69.52H547.64V78H546.232V71.6L541.848 78H540.44ZM551.982 78V70.768H549.086V69.52H556.286V70.768H553.39V78H551.982ZM557.729 78V69.52H559.137V72.72H561.169C562.236 72.72 563.02 72.9547 563.521 73.424C564.033 73.8933 564.289 74.544 564.289 75.376C564.289 75.9093 564.177 76.3733 563.953 76.768C563.729 77.1627 563.388 77.4667 562.929 77.68C562.471 77.8933 561.884 78 561.169 78H557.729ZM559.137 76.752H561.089C561.751 76.752 562.215 76.6347 562.481 76.4C562.748 76.1653 562.881 75.8187 562.881 75.36C562.881 74.9013 562.748 74.5547 562.481 74.32C562.215 74.0853 561.751 73.968 561.089 73.968H559.137V76.752ZM569.816 78V69.52H571.224V73.056H575.608V69.52H577.016V78H575.608V74.304H571.224V78H569.816ZM581.837 78.16C581.219 78.16 580.691 78.048 580.253 77.824C579.827 77.5893 579.501 77.2747 579.277 76.88C579.053 76.4747 578.941 76.0213 578.941 75.52C578.941 74.6773 579.187 74.0693 579.677 73.696C580.179 73.3227 580.893 73.136 581.821 73.136H584.573V72.56C584.573 71.8347 584.408 71.3333 584.077 71.056C583.757 70.7787 583.272 70.64 582.621 70.64C582.013 70.64 581.571 70.7573 581.293 70.992C581.016 71.216 580.861 71.472 580.829 71.76H579.421C579.453 71.3013 579.608 70.896 579.885 70.544C580.163 70.1813 580.541 69.8933 581.021 69.68C581.501 69.4667 582.061 69.36 582.701 69.36C583.373 69.36 583.955 69.4667 584.445 69.68C584.936 69.8827 585.315 70.208 585.581 70.656C585.848 71.0933 585.981 71.6747 585.981 72.4V75.84C585.981 76.288 585.981 76.6827 585.981 77.024C585.992 77.3547 586.019 77.68 586.061 78H584.829C584.797 77.7547 584.776 77.5253 584.765 77.312C584.755 77.088 584.749 76.8373 584.749 76.56C584.525 77.008 584.163 77.3867 583.661 77.696C583.16 78.0053 582.552 78.16 581.837 78.16ZM582.141 76.88C582.589 76.88 582.995 76.8 583.357 76.64C583.731 76.48 584.024 76.2453 584.237 75.936C584.461 75.6267 584.573 75.248 584.573 74.8V74.224H582.061C581.539 74.224 581.128 74.3307 580.829 74.544C580.531 74.7467 580.381 75.072 580.381 75.52C580.381 75.9147 580.52 76.24 580.797 76.496C581.085 76.752 581.533 76.88 582.141 76.88ZM591.588 78.16C590.863 78.16 590.207 78.0053 589.62 77.696C589.044 77.376 588.585 76.896 588.244 76.256C587.913 75.616 587.748 74.8107 587.748 73.84V73.52C587.748 72.6027 587.929 71.8347 588.292 71.216C588.655 70.5973 589.129 70.1333 589.716 69.824C590.303 69.5147 590.927 69.36 591.588 69.36C592.26 69.36 592.836 69.4827 593.316 69.728C593.807 69.9627 594.201 70.288 594.5 70.704C594.799 71.1093 595.001 71.568 595.108 72.08H593.668C593.497 71.6747 593.257 71.3333 592.948 71.056C592.649 70.7787 592.196 70.64 591.588 70.64C591.172 70.64 590.783 70.7413 590.42 70.944C590.057 71.136 589.759 71.4453 589.524 71.872C589.3 72.288 589.188 72.8373 589.188 73.52V73.84C589.188 74.5653 589.3 75.152 589.524 75.6C589.759 76.048 590.057 76.3733 590.42 76.576C590.783 76.7787 591.172 76.88 591.588 76.88C592.111 76.88 592.548 76.752 592.9 76.496C593.263 76.24 593.519 75.888 593.668 75.44H595.108C594.98 75.9947 594.751 76.48 594.42 76.896C594.089 77.3013 593.684 77.616 593.204 77.84C592.724 78.0533 592.185 78.16 591.588 78.16ZM598.803 78V70.768H595.907V69.52H603.107V70.768H600.211V78H598.803ZM604.551 81.2V69.52H605.863V71.12C606.151 70.5547 606.551 70.1227 607.063 69.824C607.585 69.5147 608.188 69.36 608.871 69.36C609.937 69.36 610.791 69.712 611.431 70.416C612.071 71.1093 612.391 72.144 612.391 73.52V73.84C612.391 74.8 612.241 75.6 611.943 76.24C611.655 76.88 611.244 77.36 610.711 77.68C610.188 78 609.575 78.16 608.871 78.16C608.145 78.16 607.537 78 607.047 77.68C606.567 77.36 606.204 76.96 605.959 76.48V81.2H604.551ZM608.551 76.912C609.244 76.912 609.82 76.6507 610.279 76.128C610.748 75.6053 610.983 74.8427 610.983 73.84V73.52C610.983 72.592 610.748 71.8773 610.279 71.376C609.82 70.864 609.244 70.608 608.551 70.608C608.039 70.608 607.585 70.7147 607.191 70.928C606.807 71.1413 606.503 71.4347 606.279 71.808C606.065 72.1707 605.959 72.5813 605.959 73.04V74.32C605.959 74.832 606.065 75.2853 606.279 75.68C606.503 76.064 606.807 76.368 607.191 76.592C607.585 76.8053 608.039 76.912 608.551 76.912ZM617.754 78.16C617.04 78.16 616.368 78.0053 615.738 77.696C615.12 77.376 614.618 76.896 614.234 76.256C613.861 75.616 613.674 74.8107 613.674 73.84V73.52C613.674 72.6027 613.861 71.8347 614.234 71.216C614.618 70.5973 615.12 70.1333 615.738 69.824C616.368 69.5147 617.04 69.36 617.754 69.36C618.48 69.36 619.152 69.5147 619.77 69.824C620.389 70.1333 620.885 70.5973 621.258 71.216C621.642 71.8347 621.834 72.6027 621.834 73.52V73.84C621.834 74.8107 621.642 75.616 621.258 76.256C620.885 76.896 620.389 77.376 619.77 77.696C619.152 78.0053 618.48 78.16 617.754 78.16ZM617.754 76.88C618.192 76.88 618.608 76.784 619.002 76.592C619.408 76.3893 619.738 76.064 619.994 75.616C620.261 75.168 620.394 74.576 620.394 73.84V73.52C620.394 72.8373 620.261 72.288 619.994 71.872C619.738 71.4453 619.408 71.136 619.002 70.944C618.608 70.7413 618.192 70.64 617.754 70.64C617.328 70.64 616.912 70.7413 616.506 70.944C616.101 71.136 615.765 71.4453 615.498 71.872C615.242 72.288 615.114 72.8373 615.114 73.52V73.84C615.114 74.576 615.242 75.168 615.498 75.616C615.765 76.064 616.101 76.3893 616.506 76.592C616.912 76.784 617.328 76.88 617.754 76.88ZM623.668 78V69.52H625.076V75.92L629.46 69.52H630.868V78H629.46V71.6L625.076 78H623.668ZM627.268 68.48C626.436 68.48 625.828 68.304 625.444 67.952C625.06 67.5893 624.868 67.072 624.868 66.4H626.244C626.244 66.7627 626.329 67.0347 626.5 67.216C626.671 67.3973 626.927 67.488 627.268 67.488C627.62 67.488 627.881 67.3973 628.052 67.216C628.233 67.0347 628.324 66.7627 628.324 66.4H629.668C629.668 67.072 629.476 67.5893 629.092 67.952C628.708 68.304 628.1 68.48 627.268 68.48ZM633.274 78V69.52H634.682V73.072H635.802L638.97 69.52H640.634L636.954 73.584L640.794 78H639.002L635.802 74.288H634.682V78H633.274ZM643.593 81.36C643.433 81.36 643.273 81.344 643.113 81.312V80.032C643.273 80.064 643.433 80.08 643.593 80.08C643.806 80.08 643.982 80.0267 644.121 79.92C644.27 79.824 644.42 79.6267 644.569 79.328C644.718 79.0293 644.9 78.5867 645.113 78L641.513 69.52H643.081L645.833 76.4L648.329 69.52H649.833L646.633 78C646.334 78.8 646.046 79.4453 645.769 79.936C645.502 80.4267 645.198 80.784 644.857 81.008C644.526 81.2427 644.105 81.36 643.593 81.36ZM655.106 78V69.52H660.866V70.768H656.514V78H655.106ZM665.669 78.16C664.955 78.16 664.283 78.0053 663.653 77.696C663.035 77.3867 662.533 76.912 662.149 76.272C661.776 75.632 661.589 74.8213 661.589 73.84V73.52C661.589 72.5813 661.771 71.808 662.133 71.2C662.496 70.5813 662.976 70.1227 663.573 69.824C664.171 69.5147 664.816 69.36 665.509 69.36C666.757 69.36 667.723 69.7013 668.405 70.384C669.088 71.0667 669.429 72.032 669.429 73.28V74.176H662.997C662.997 74.8373 663.131 75.3653 663.397 75.76C663.675 76.1547 664.016 76.4427 664.421 76.624C664.837 76.7947 665.253 76.88 665.669 76.88C666.309 76.88 666.8 76.7733 667.141 76.56C667.493 76.3467 667.744 76.0533 667.893 75.68H669.269C669.099 76.4907 668.677 77.1093 668.005 77.536C667.344 77.952 666.565 78.16 665.669 78.16ZM665.589 70.64C665.152 70.64 664.736 70.7253 664.341 70.896C663.947 71.056 663.621 71.312 663.365 71.664C663.12 72.016 662.997 72.4693 662.997 73.024H668.101C668.091 72.4373 667.968 71.9733 667.733 71.632C667.509 71.28 667.211 71.0293 666.837 70.88C666.464 70.72 666.048 70.64 665.589 70.64ZM674.791 78.16C674.076 78.16 673.404 78.0053 672.775 77.696C672.156 77.376 671.655 76.896 671.271 76.256C670.897 75.616 670.711 74.8107 670.711 73.84V73.52C670.711 72.6027 670.897 71.8347 671.271 71.216C671.655 70.5973 672.156 70.1333 672.775 69.824C673.404 69.5147 674.076 69.36 674.791 69.36C675.516 69.36 676.188 69.5147 676.807 69.824C677.425 70.1333 677.921 70.5973 678.295 71.216C678.679 71.8347 678.871 72.6027 678.871 73.52V73.84C678.871 74.8107 678.679 75.616 678.295 76.256C677.921 76.896 677.425 77.376 676.807 77.696C676.188 78.0053 675.516 78.16 674.791 78.16ZM674.791 76.88C675.228 76.88 675.644 76.784 676.039 76.592C676.444 76.3893 676.775 76.064 677.031 75.616C677.297 75.168 677.431 74.576 677.431 73.84V73.52C677.431 72.8373 677.297 72.288 677.031 71.872C676.775 71.4453 676.444 71.136 676.039 70.944C675.644 70.7413 675.228 70.64 674.791 70.64C674.364 70.64 673.948 70.7413 673.543 70.944C673.137 71.136 672.801 71.4453 672.535 71.872C672.279 72.288 672.151 72.8373 672.151 73.52V73.84C672.151 74.576 672.279 75.168 672.535 75.616C672.801 76.064 673.137 76.3893 673.543 76.592C673.948 76.784 674.364 76.88 674.791 76.88ZM680.704 78V69.52H686.464V70.768H682.112V78H680.704ZM687.904 81.2V69.52H689.216V71.12C689.504 70.5547 689.904 70.1227 690.416 69.824C690.938 69.5147 691.541 69.36 692.224 69.36C693.29 69.36 694.144 69.712 694.784 70.416C695.424 71.1093 695.744 72.144 695.744 73.52V73.84C695.744 74.8 695.594 75.6 695.296 76.24C695.008 76.88 694.597 77.36 694.064 77.68C693.541 78 692.928 78.16 692.224 78.16C691.498 78.16 690.89 78 690.4 77.68C689.92 77.36 689.557 76.96 689.312 76.48V81.2H687.904ZM691.904 76.912C692.597 76.912 693.173 76.6507 693.632 76.128C694.101 75.6053 694.336 74.8427 694.336 73.84V73.52C694.336 72.592 694.101 71.8773 693.632 71.376C693.173 70.864 692.597 70.608 691.904 70.608C691.392 70.608 690.938 70.7147 690.544 70.928C690.16 71.1413 689.856 71.4347 689.632 71.808C689.418 72.1707 689.312 72.5813 689.312 73.04V74.32C689.312 74.832 689.418 75.2853 689.632 75.68C689.856 76.064 690.16 76.368 690.544 76.592C690.938 76.8053 691.392 76.912 691.904 76.912ZM700.003 78.16C699.385 78.16 698.857 78.048 698.419 77.824C697.993 77.5893 697.667 77.2747 697.443 76.88C697.219 76.4747 697.107 76.0213 697.107 75.52C697.107 74.6773 697.353 74.0693 697.843 73.696C698.345 73.3227 699.059 73.136 699.987 73.136H702.739V72.56C702.739 71.8347 702.574 71.3333 702.243 71.056C701.923 70.7787 701.438 70.64 700.787 70.64C700.179 70.64 699.737 70.7573 699.459 70.992C699.182 71.216 699.027 71.472 698.995 71.76H697.587C697.619 71.3013 697.774 70.896 698.051 70.544C698.329 70.1813 698.707 69.8933 699.187 69.68C699.667 69.4667 700.227 69.36 700.867 69.36C701.539 69.36 702.121 69.4667 702.611 69.68C703.102 69.8827 703.481 70.208 703.747 70.656C704.014 71.0933 704.147 71.6747 704.147 72.4V75.84C704.147 76.288 704.147 76.6827 704.147 77.024C704.158 77.3547 704.185 77.68 704.227 78H702.995C702.963 77.7547 702.942 77.5253 702.931 77.312C702.921 77.088 702.915 76.8373 702.915 76.56C702.691 77.008 702.329 77.3867 701.827 77.696C701.326 78.0053 700.718 78.16 700.003 78.16ZM700.307 76.88C700.755 76.88 701.161 76.8 701.523 76.64C701.897 76.48 702.19 76.2453 702.403 75.936C702.627 75.6267 702.739 75.248 702.739 74.8V74.224H700.227C699.705 74.224 699.294 74.3307 698.995 74.544C698.697 74.7467 698.547 75.072 698.547 75.52C698.547 75.9147 698.686 76.24 698.963 76.496C699.251 76.752 699.699 76.88 700.307 76.88ZM710.41 81.2V78.16C708.938 78.16 707.818 77.7867 707.05 77.04C706.293 76.2933 705.914 75.232 705.914 73.856V73.536C705.914 72.224 706.293 71.2 707.05 70.464C707.818 69.728 708.938 69.36 710.41 69.36V66.8H711.818V69.36C713.29 69.36 714.405 69.728 715.162 70.464C715.93 71.2 716.314 72.224 716.314 73.536V73.856C716.314 75.232 715.93 76.2933 715.162 77.04C714.405 77.7867 713.29 78.16 711.818 78.16V81.2H710.41ZM714.874 73.856V73.536C714.874 72.5653 714.624 71.84 714.122 71.36C713.632 70.88 712.858 70.64 711.802 70.64V76.88C712.858 76.88 713.632 76.6347 714.122 76.144C714.624 75.6533 714.874 74.8907 714.874 73.856ZM707.354 73.536V73.856C707.354 74.8907 707.6 75.6533 708.09 76.144C708.592 76.6347 709.37 76.88 710.426 76.88V70.64C709.37 70.64 708.592 70.88 708.09 71.36C707.6 71.84 707.354 72.5653 707.354 73.536ZM718.158 78V69.52H719.566V75.92L723.95 69.52H725.358V78H723.95V71.6L719.566 78H718.158ZM727.764 78V69.52H729.172V75.92L733.556 69.52H734.964V78H733.556V71.6L729.172 78H727.764ZM139.28 102V93.52H146.32V102H144.912V94.768H140.688V102H139.28ZM152.234 102.16C151.519 102.16 150.847 102.005 150.218 101.696C149.599 101.376 149.098 100.896 148.714 100.256C148.34 99.616 148.154 98.8107 148.154 97.84V97.52C148.154 96.6027 148.34 95.8347 148.714 95.216C149.098 94.5973 149.599 94.1333 150.218 93.824C150.847 93.5147 151.519 93.36 152.234 93.36C152.959 93.36 153.631 93.5147 154.25 93.824C154.868 94.1333 155.364 94.5973 155.738 95.216C156.122 95.8347 156.314 96.6027 156.314 97.52V97.84C156.314 98.8107 156.122 99.616 155.738 100.256C155.364 100.896 154.868 101.376 154.25 101.696C153.631 102.005 152.959 102.16 152.234 102.16ZM152.234 100.88C152.671 100.88 153.087 100.784 153.482 100.592C153.887 100.389 154.218 100.064 154.474 99.616C154.74 99.168 154.874 98.576 154.874 97.84V97.52C154.874 96.8373 154.74 96.288 154.474 95.872C154.218 95.4453 153.887 95.136 153.482 94.944C153.087 94.7413 152.671 94.64 152.234 94.64C151.807 94.64 151.391 94.7413 150.986 94.944C150.58 95.136 150.244 95.4453 149.978 95.872C149.722 96.288 149.594 96.8373 149.594 97.52V97.84C149.594 98.576 149.722 99.168 149.978 99.616C150.244 100.064 150.58 100.389 150.986 100.592C151.391 100.784 151.807 100.88 152.234 100.88ZM157.031 104V100.752H158.071C158.231 100.539 158.37 100.181 158.487 99.68C158.605 99.168 158.695 98.5707 158.759 97.888C158.834 97.2053 158.871 96.496 158.871 95.76V93.52H164.791V100.752H165.991V104H164.647V102H158.375V104H157.031ZM159.511 100.752H163.383V94.768H160.247V96.08C160.247 96.976 160.183 97.8453 160.055 98.688C159.938 99.52 159.757 100.208 159.511 100.752ZM171.359 102V93.52H172.767V97.056H177.151V93.52H178.559V102H177.151V98.304H172.767V102H171.359ZM184.484 102.16C183.77 102.16 183.098 102.005 182.468 101.696C181.85 101.376 181.348 100.896 180.964 100.256C180.591 99.616 180.404 98.8107 180.404 97.84V97.52C180.404 96.6027 180.591 95.8347 180.964 95.216C181.348 94.5973 181.85 94.1333 182.468 93.824C183.098 93.5147 183.77 93.36 184.484 93.36C185.21 93.36 185.882 93.5147 186.5 93.824C187.119 94.1333 187.615 94.5973 187.988 95.216C188.372 95.8347 188.564 96.6027 188.564 97.52V97.84C188.564 98.8107 188.372 99.616 187.988 100.256C187.615 100.896 187.119 101.376 186.5 101.696C185.882 102.005 185.21 102.16 184.484 102.16ZM184.484 100.88C184.922 100.88 185.338 100.784 185.732 100.592C186.138 100.389 186.468 100.064 186.724 99.616C186.991 99.168 187.124 98.576 187.124 97.84V97.52C187.124 96.8373 186.991 96.288 186.724 95.872C186.468 95.4453 186.138 95.136 185.732 94.944C185.338 94.7413 184.922 94.64 184.484 94.64C184.058 94.64 183.642 94.7413 183.236 94.944C182.831 95.136 182.495 95.4453 182.228 95.872C181.972 96.288 181.844 96.8373 181.844 97.52V97.84C181.844 98.576 181.972 99.168 182.228 99.616C182.495 100.064 182.831 100.389 183.236 100.592C183.642 100.784 184.058 100.88 184.484 100.88ZM190.398 102V93.52H194.078C194.782 93.52 195.358 93.6213 195.806 93.824C196.254 94.016 196.585 94.288 196.798 94.64C197.011 94.9813 197.118 95.3813 197.118 95.84C197.118 96.2133 196.995 96.5707 196.75 96.912C196.515 97.2427 196.211 97.472 195.838 97.6C196.361 97.728 196.755 97.9733 197.022 98.336C197.299 98.688 197.438 99.104 197.438 99.584C197.438 100.32 197.193 100.907 196.702 101.344C196.211 101.781 195.443 102 194.398 102H190.398ZM191.806 100.752H194.398C194.995 100.752 195.417 100.645 195.662 100.432C195.907 100.219 196.03 99.9147 196.03 99.52C196.03 99.1147 195.907 98.8053 195.662 98.592C195.417 98.368 194.995 98.256 194.398 98.256H191.806V100.752ZM191.806 97.104H194.078C194.686 97.104 195.107 96.9973 195.342 96.784C195.587 96.5707 195.71 96.2773 195.71 95.904C195.71 95.552 195.587 95.2747 195.342 95.072C195.107 94.8693 194.686 94.768 194.078 94.768H191.806V97.104ZM199.285 102V93.52H200.693V96.72H202.405C203.472 96.72 204.256 96.9547 204.757 97.424C205.269 97.8933 205.525 98.544 205.525 99.376C205.525 99.9093 205.413 100.373 205.189 100.768C204.965 101.163 204.624 101.467 204.165 101.68C203.706 101.893 203.12 102 202.405 102H199.285ZM200.693 100.752H202.325C202.986 100.752 203.45 100.635 203.717 100.4C203.984 100.165 204.117 99.8187 204.117 99.36C204.117 98.9013 203.984 98.5547 203.717 98.32C203.45 98.0853 202.986 97.968 202.325 97.968H200.693V100.752ZM206.837 102V93.52H208.245V102H206.837ZM210.813 102V93.52H212.221V99.92L216.605 93.52H218.013V102H216.605V95.6L212.221 102H210.813ZM214.413 92.48C213.581 92.48 212.973 92.304 212.589 91.952C212.205 91.5893 212.013 91.072 212.013 90.4H213.389C213.389 90.7627 213.474 91.0347 213.645 91.216C213.815 91.3973 214.071 91.488 214.413 91.488C214.765 91.488 215.026 91.3973 215.197 91.216C215.378 91.0347 215.469 90.7627 215.469 90.4H216.813C216.813 91.072 216.621 91.5893 216.237 91.952C215.853 92.304 215.245 92.48 214.413 92.48ZM227.538 102.16C226.813 102.16 226.157 102.005 225.57 101.696C224.994 101.376 224.535 100.896 224.194 100.256C223.863 99.616 223.698 98.8107 223.698 97.84V97.52C223.698 96.6027 223.879 95.8347 224.242 95.216C224.605 94.5973 225.079 94.1333 225.666 93.824C226.253 93.5147 226.877 93.36 227.538 93.36C228.21 93.36 228.786 93.4827 229.266 93.728C229.757 93.9627 230.151 94.288 230.45 94.704C230.749 95.1093 230.951 95.568 231.058 96.08H229.618C229.447 95.6747 229.207 95.3333 228.898 95.056C228.599 94.7787 228.146 94.64 227.538 94.64C227.122 94.64 226.733 94.7413 226.37 94.944C226.007 95.136 225.709 95.4453 225.474 95.872C225.25 96.288 225.138 96.8373 225.138 97.52V97.84C225.138 98.5653 225.25 99.152 225.474 99.6C225.709 100.048 226.007 100.373 226.37 100.576C226.733 100.779 227.122 100.88 227.538 100.88C228.061 100.88 228.498 100.752 228.85 100.496C229.213 100.24 229.469 99.888 229.618 99.44H231.058C230.93 99.9947 230.701 100.48 230.37 100.896C230.039 101.301 229.634 101.616 229.154 101.84C228.674 102.053 228.135 102.16 227.538 102.16ZM239.713 104V102H232.817V93.52H234.225V100.752H238.289V93.52H239.697V100.752H241.057V104H239.713ZM246.099 102.16C245.384 102.16 244.712 102.005 244.083 101.696C243.464 101.387 242.963 100.912 242.579 100.272C242.205 99.632 242.019 98.8213 242.019 97.84V97.52C242.019 96.5813 242.2 95.808 242.563 95.2C242.925 94.5813 243.405 94.1227 244.003 93.824C244.6 93.5147 245.245 93.36 245.939 93.36C247.187 93.36 248.152 93.7013 248.835 94.384C249.517 95.0667 249.859 96.032 249.859 97.28V98.176H243.427C243.427 98.8373 243.56 99.3653 243.827 99.76C244.104 100.155 244.445 100.443 244.851 100.624C245.267 100.795 245.683 100.88 246.099 100.88C246.739 100.88 247.229 100.773 247.571 100.56C247.923 100.347 248.173 100.053 248.323 99.68H249.699C249.528 100.491 249.107 101.109 248.435 101.536C247.773 101.952 246.995 102.16 246.099 102.16ZM246.019 94.64C245.581 94.64 245.165 94.7253 244.771 94.896C244.376 95.056 244.051 95.312 243.795 95.664C243.549 96.016 243.427 96.4693 243.427 97.024H248.531C248.52 96.4373 248.397 95.9733 248.163 95.632C247.939 95.28 247.64 95.0293 247.267 94.88C246.893 94.72 246.477 94.64 246.019 94.64ZM251.7 102V93.52H253.108V97.056H257.492V93.52H258.9V102H257.492V98.304H253.108V102H251.7ZM263.722 102.16C263.103 102.16 262.575 102.048 262.138 101.824C261.711 101.589 261.386 101.275 261.162 100.88C260.938 100.475 260.826 100.021 260.826 99.52C260.826 98.6773 261.071 98.0693 261.562 97.696C262.063 97.3227 262.778 97.136 263.706 97.136H266.458V96.56C266.458 95.8347 266.292 95.3333 265.962 95.056C265.642 94.7787 265.156 94.64 264.506 94.64C263.898 94.64 263.455 94.7573 263.178 94.992C262.9 95.216 262.746 95.472 262.714 95.76H261.306C261.338 95.3013 261.492 94.896 261.77 94.544C262.047 94.1813 262.426 93.8933 262.906 93.68C263.386 93.4667 263.946 93.36 264.586 93.36C265.258 93.36 265.839 93.4667 266.33 93.68C266.82 93.8827 267.199 94.208 267.466 94.656C267.732 95.0933 267.866 95.6747 267.866 96.4V99.84C267.866 100.288 267.866 100.683 267.866 101.024C267.876 101.355 267.903 101.68 267.946 102H266.714C266.682 101.755 266.66 101.525 266.65 101.312C266.639 101.088 266.634 100.837 266.634 100.56C266.41 101.008 266.047 101.387 265.546 101.696C265.044 102.005 264.436 102.16 263.722 102.16ZM264.026 100.88C264.474 100.88 264.879 100.8 265.242 100.64C265.615 100.48 265.908 100.245 266.122 99.936C266.346 99.6267 266.458 99.248 266.458 98.8V98.224H263.946C263.423 98.224 263.012 98.3307 262.714 98.544C262.415 98.7467 262.266 99.072 262.266 99.52C262.266 99.9147 262.404 100.24 262.682 100.496C262.97 100.752 263.418 100.88 264.026 100.88ZM270.193 105.2V93.52H271.505V95.12C271.793 94.5547 272.193 94.1227 272.705 93.824C273.227 93.5147 273.83 93.36 274.513 93.36C275.579 93.36 276.433 93.712 277.073 94.416C277.713 95.1093 278.033 96.144 278.033 97.52V97.84C278.033 98.8 277.883 99.6 277.585 100.24C277.297 100.88 276.886 101.36 276.353 101.68C275.83 102 275.217 102.16 274.513 102.16C273.787 102.16 273.179 102 272.689 101.68C272.209 101.36 271.846 100.96 271.601 100.48V105.2H270.193ZM274.193 100.912C274.886 100.912 275.462 100.651 275.921 100.128C276.39 99.6053 276.625 98.8427 276.625 97.84V97.52C276.625 96.592 276.39 95.8773 275.921 95.376C275.462 94.864 274.886 94.608 274.193 94.608C273.681 94.608 273.227 94.7147 272.833 94.928C272.449 95.1413 272.145 95.4347 271.921 95.808C271.707 96.1707 271.601 96.5813 271.601 97.04V98.32C271.601 98.832 271.707 99.2853 271.921 99.68C272.145 100.064 272.449 100.368 272.833 100.592C273.227 100.805 273.681 100.912 274.193 100.912ZM279.876 102V93.52H281.284V99.92L285.668 93.52H287.076V102H285.668V95.6L281.284 102H279.876ZM289.482 102V93.52H290.89V99.92L295.274 93.52H296.682V102H295.274V95.6L290.89 102H289.482ZM293.082 92.48C292.25 92.48 291.642 92.304 291.258 91.952C290.874 91.5893 290.682 91.072 290.682 90.4H292.058C292.058 90.7627 292.143 91.0347 292.314 91.216C292.485 91.3973 292.741 91.488 293.082 91.488C293.434 91.488 293.695 91.3973 293.866 91.216C294.047 91.0347 294.138 90.7627 294.138 90.4H295.482C295.482 91.072 295.29 91.5893 294.906 91.952C294.522 92.304 293.914 92.48 293.082 92.48ZM305.808 101.2L302.288 98.224V96.976L305.808 94V95.568L303.408 97.568L305.808 99.568V101.2ZM309.488 101.2L305.968 98.224V96.976L309.488 94V95.568L307.088 97.568L309.488 99.568V101.2ZM313.98 102.16C313.362 102.16 312.834 102.048 312.396 101.824C311.97 101.589 311.644 101.275 311.42 100.88C311.196 100.475 311.084 100.021 311.084 99.52C311.084 98.6773 311.33 98.0693 311.82 97.696C312.322 97.3227 313.036 97.136 313.964 97.136H316.716V96.56C316.716 95.8347 316.551 95.3333 316.22 95.056C315.9 94.7787 315.415 94.64 314.764 94.64C314.156 94.64 313.714 94.7573 313.436 94.992C313.159 95.216 313.004 95.472 312.972 95.76H311.564C311.596 95.3013 311.751 94.896 312.028 94.544C312.306 94.1813 312.684 93.8933 313.164 93.68C313.644 93.4667 314.204 93.36 314.844 93.36C315.516 93.36 316.098 93.4667 316.588 93.68C317.079 93.8827 317.458 94.208 317.724 94.656C317.991 95.0933 318.124 95.6747 318.124 96.4V99.84C318.124 100.288 318.124 100.683 318.124 101.024C318.135 101.355 318.162 101.68 318.204 102H316.972C316.94 101.755 316.919 101.525 316.908 101.312C316.898 101.088 316.892 100.837 316.892 100.56C316.668 101.008 316.306 101.387 315.804 101.696C315.303 102.005 314.695 102.16 313.98 102.16ZM314.284 100.88C314.732 100.88 315.138 100.8 315.5 100.64C315.874 100.48 316.167 100.245 316.38 99.936C316.604 99.6267 316.716 99.248 316.716 98.8V98.224H314.204C313.682 98.224 313.271 98.3307 312.972 98.544C312.674 98.7467 312.524 99.072 312.524 99.52C312.524 99.9147 312.663 100.24 312.94 100.496C313.228 100.752 313.676 100.88 314.284 100.88ZM320.451 102V93.52H321.859V97.072H322.979L326.147 93.52H327.811L324.131 97.584L327.971 102H326.179L322.979 98.288H321.859V102H320.451ZM336.39 104V102H329.494V93.52H330.902V100.752H334.966V93.52H336.374V100.752H337.734V104H336.39ZM339.256 102V93.52H340.664V99.92L345.048 93.52H346.456V102H345.048V95.6L340.664 102H339.256ZM348.222 102L350.526 98.64C349.822 98.48 349.315 98.192 349.006 97.776C348.697 97.3493 348.542 96.8053 348.542 96.144C348.542 95.5893 348.654 95.12 348.878 94.736C349.102 94.3413 349.449 94.0427 349.918 93.84C350.387 93.6267 350.995 93.52 351.742 93.52H355.422V102H354.014V98.768H351.854L349.79 102H348.222ZM349.95 96.144C349.95 96.592 350.078 96.9333 350.334 97.168C350.601 97.4027 351.043 97.52 351.662 97.52H354.014V94.768H351.662C351.043 94.768 350.601 94.8853 350.334 95.12C350.078 95.3547 349.95 95.696 349.95 96.144ZM361.667 102V93.52H363.075V97.056H367.459V93.52H368.867V102H367.459V98.304H363.075V102H361.667ZM373.688 102.16C373.07 102.16 372.542 102.048 372.104 101.824C371.678 101.589 371.352 101.275 371.128 100.88C370.904 100.475 370.792 100.021 370.792 99.52C370.792 98.6773 371.038 98.0693 371.528 97.696C372.03 97.3227 372.744 97.136 373.672 97.136H376.424V96.56C376.424 95.8347 376.259 95.3333 375.928 95.056C375.608 94.7787 375.123 94.64 374.472 94.64C373.864 94.64 373.422 94.7573 373.144 94.992C372.867 95.216 372.712 95.472 372.68 95.76H371.272C371.304 95.3013 371.459 94.896 371.736 94.544C372.014 94.1813 372.392 93.8933 372.872 93.68C373.352 93.4667 373.912 93.36 374.552 93.36C375.224 93.36 375.806 93.4667 376.296 93.68C376.787 93.8827 377.166 94.208 377.432 94.656C377.699 95.0933 377.832 95.6747 377.832 96.4V99.84C377.832 100.288 377.832 100.683 377.832 101.024C377.843 101.355 377.87 101.68 377.912 102H376.68C376.648 101.755 376.627 101.525 376.616 101.312C376.606 101.088 376.6 100.837 376.6 100.56C376.376 101.008 376.014 101.387 375.512 101.696C375.011 102.005 374.403 102.16 373.688 102.16ZM373.992 100.88C374.44 100.88 374.846 100.8 375.208 100.64C375.582 100.48 375.875 100.245 376.088 99.936C376.312 99.6267 376.424 99.248 376.424 98.8V98.224H373.912C373.39 98.224 372.979 98.3307 372.68 98.544C372.382 98.7467 372.232 99.072 372.232 99.52C372.232 99.9147 372.371 100.24 372.648 100.496C372.936 100.752 373.384 100.88 373.992 100.88ZM383.999 102V93.52H387.679C388.383 93.52 388.959 93.6213 389.407 93.824C389.855 94.016 390.186 94.288 390.399 94.64C390.613 94.9813 390.719 95.3813 390.719 95.84C390.719 96.2133 390.597 96.5707 390.351 96.912C390.117 97.2427 389.813 97.472 389.439 97.6C389.962 97.728 390.357 97.9733 390.623 98.336C390.901 98.688 391.039 99.104 391.039 99.584C391.039 100.32 390.794 100.907 390.303 101.344C389.813 101.781 389.045 102 387.999 102H383.999ZM385.407 100.752H387.999C388.597 100.752 389.018 100.645 389.263 100.432C389.509 100.219 389.631 99.9147 389.631 99.52C389.631 99.1147 389.509 98.8053 389.263 98.592C389.018 98.368 388.597 98.256 387.999 98.256H385.407V100.752ZM385.407 97.104H387.679C388.287 97.104 388.709 96.9973 388.943 96.784C389.189 96.5707 389.311 96.2773 389.311 95.904C389.311 95.552 389.189 95.2747 388.943 95.072C388.709 94.8693 388.287 94.768 387.679 94.768H385.407V97.104ZM396.406 102.16C395.692 102.16 395.02 102.005 394.39 101.696C393.772 101.387 393.27 100.912 392.886 100.272C392.513 99.632 392.326 98.8213 392.326 97.84V97.52C392.326 96.5813 392.508 95.808 392.87 95.2C393.233 94.5813 393.713 94.1227 394.31 93.824C394.908 93.5147 395.553 93.36 396.246 93.36C397.494 93.36 398.46 93.7013 399.142 94.384C399.825 95.0667 400.166 96.032 400.166 97.28V98.176H393.734C393.734 98.8373 393.868 99.3653 394.134 99.76C394.412 100.155 394.753 100.443 395.158 100.624C395.574 100.795 395.99 100.88 396.406 100.88C397.046 100.88 397.537 100.773 397.878 100.56C398.23 100.347 398.481 100.053 398.63 99.68H400.006C399.836 100.491 399.414 101.109 398.742 101.536C398.081 101.952 397.302 102.16 396.406 102.16ZM396.326 94.64C395.889 94.64 395.473 94.7253 395.078 94.896C394.684 95.056 394.358 95.312 394.102 95.664C393.857 96.016 393.734 96.4693 393.734 97.024H398.838C398.828 96.4373 398.705 95.9733 398.47 95.632C398.246 95.28 397.948 95.0293 397.574 94.88C397.201 94.72 396.785 94.64 396.326 94.64ZM405.288 102.16C404.562 102.16 403.906 102.005 403.32 101.696C402.744 101.376 402.285 100.896 401.944 100.256C401.613 99.616 401.448 98.8107 401.448 97.84V97.52C401.448 96.6027 401.629 95.8347 401.992 95.216C402.354 94.5973 402.829 94.1333 403.416 93.824C404.002 93.5147 404.626 93.36 405.288 93.36C405.96 93.36 406.536 93.4827 407.016 93.728C407.506 93.9627 407.901 94.288 408.2 94.704C408.498 95.1093 408.701 95.568 408.808 96.08H407.368C407.197 95.6747 406.957 95.3333 406.648 95.056C406.349 94.7787 405.896 94.64 405.288 94.64C404.872 94.64 404.482 94.7413 404.12 94.944C403.757 95.136 403.458 95.4453 403.224 95.872C403 96.288 402.888 96.8373 402.888 97.52V97.84C402.888 98.5653 403 99.152 403.224 99.6C403.458 100.048 403.757 100.373 404.12 100.576C404.482 100.779 404.872 100.88 405.288 100.88C405.81 100.88 406.248 100.752 406.6 100.496C406.962 100.24 407.218 99.888 407.368 99.44H408.808C408.68 99.9947 408.45 100.48 408.12 100.896C407.789 101.301 407.384 101.616 406.904 101.84C406.424 102.053 405.885 102.16 405.288 102.16ZM410.566 102V93.52H411.974V96.72H414.006C415.073 96.72 415.857 96.9547 416.358 97.424C416.87 97.8933 417.126 98.544 417.126 99.376C417.126 99.9093 417.014 100.373 416.79 100.768C416.566 101.163 416.225 101.467 415.766 101.68C415.308 101.893 414.721 102 414.006 102H410.566ZM411.974 100.752H413.926C414.588 100.752 415.052 100.635 415.318 100.4C415.585 100.165 415.718 99.8187 415.718 99.36C415.718 98.9013 415.585 98.5547 415.318 98.32C415.052 98.0853 414.588 97.968 413.926 97.968H411.974V100.752ZM422.652 102V93.52H428.412V94.768H424.06V102H422.652ZM433.216 102.16C432.501 102.16 431.829 102.005 431.2 101.696C430.581 101.376 430.08 100.896 429.696 100.256C429.322 99.616 429.136 98.8107 429.136 97.84V97.52C429.136 96.6027 429.322 95.8347 429.696 95.216C430.08 94.5973 430.581 94.1333 431.2 93.824C431.829 93.5147 432.501 93.36 433.216 93.36C433.941 93.36 434.613 93.5147 435.232 93.824C435.85 94.1333 436.346 94.5973 436.72 95.216C437.104 95.8347 437.296 96.6027 437.296 97.52V97.84C437.296 98.8107 437.104 99.616 436.72 100.256C436.346 100.896 435.85 101.376 435.232 101.696C434.613 102.005 433.941 102.16 433.216 102.16ZM433.216 100.88C433.653 100.88 434.069 100.784 434.464 100.592C434.869 100.389 435.2 100.064 435.456 99.616C435.722 99.168 435.856 98.576 435.856 97.84V97.52C435.856 96.8373 435.722 96.288 435.456 95.872C435.2 95.4453 434.869 95.136 434.464 94.944C434.069 94.7413 433.653 94.64 433.216 94.64C432.789 94.64 432.373 94.7413 431.968 94.944C431.562 95.136 431.226 95.4453 430.96 95.872C430.704 96.288 430.576 96.8373 430.576 97.52V97.84C430.576 98.576 430.704 99.168 430.96 99.616C431.226 100.064 431.562 100.389 431.968 100.592C432.373 100.784 432.789 100.88 433.216 100.88ZM439.129 105.2V93.52H440.441V95.12C440.729 94.5547 441.129 94.1227 441.641 93.824C442.164 93.5147 442.767 93.36 443.449 93.36C444.516 93.36 445.369 93.712 446.009 94.416C446.649 95.1093 446.969 96.144 446.969 97.52V97.84C446.969 98.8 446.82 99.6 446.521 100.24C446.233 100.88 445.823 101.36 445.289 101.68C444.767 102 444.153 102.16 443.449 102.16C442.724 102.16 442.116 102 441.625 101.68C441.145 101.36 440.783 100.96 440.537 100.48V105.2H439.129ZM443.129 100.912C443.823 100.912 444.399 100.651 444.857 100.128C445.327 99.6053 445.561 98.8427 445.561 97.84V97.52C445.561 96.592 445.327 95.8773 444.857 95.376C444.399 94.864 443.823 94.608 443.129 94.608C442.617 94.608 442.164 94.7147 441.769 94.928C441.385 95.1413 441.081 95.4347 440.857 95.808C440.644 96.1707 440.537 96.5813 440.537 97.04V98.32C440.537 98.832 440.644 99.2853 440.857 99.68C441.081 100.064 441.385 100.368 441.769 100.592C442.164 100.805 442.617 100.912 443.129 100.912ZM452.333 102.16C451.618 102.16 450.946 102.005 450.317 101.696C449.698 101.376 449.197 100.896 448.813 100.256C448.44 99.616 448.253 98.8107 448.253 97.84V97.52C448.253 96.6027 448.44 95.8347 448.813 95.216C449.197 94.5973 449.698 94.1333 450.317 93.824C450.946 93.5147 451.618 93.36 452.333 93.36C453.058 93.36 453.73 93.5147 454.349 93.824C454.968 94.1333 455.464 94.5973 455.837 95.216C456.221 95.8347 456.413 96.6027 456.413 97.52V97.84C456.413 98.8107 456.221 99.616 455.837 100.256C455.464 100.896 454.968 101.376 454.349 101.696C453.73 102.005 453.058 102.16 452.333 102.16ZM452.333 100.88C452.77 100.88 453.186 100.784 453.581 100.592C453.986 100.389 454.317 100.064 454.573 99.616C454.84 99.168 454.973 98.576 454.973 97.84V97.52C454.973 96.8373 454.84 96.288 454.573 95.872C454.317 95.4453 453.986 95.136 453.581 94.944C453.186 94.7413 452.77 94.64 452.333 94.64C451.906 94.64 451.49 94.7413 451.085 94.944C450.68 95.136 450.344 95.4453 450.077 95.872C449.821 96.288 449.693 96.8373 449.693 97.52V97.84C449.693 98.576 449.821 99.168 450.077 99.616C450.344 100.064 450.68 100.389 451.085 100.592C451.49 100.784 451.906 100.88 452.333 100.88ZM457.131 104V100.752H458.171C458.331 100.539 458.469 100.181 458.587 99.68C458.704 99.168 458.795 98.5707 458.859 97.888C458.933 97.2053 458.971 96.496 458.971 95.76V93.52H464.891V100.752H466.091V104H464.747V102H458.475V104H457.131ZM459.611 100.752H463.483V94.768H460.347V96.08C460.347 96.976 460.283 97.8453 460.155 98.688C460.037 99.52 459.856 100.208 459.611 100.752ZM467.298 94L470.818 96.976V98.224L467.298 101.2V99.632L469.698 97.632L467.298 95.632V94ZM470.978 94L474.498 96.976V98.224L470.978 101.2V99.632L473.378 97.632L470.978 95.632V94ZM477.375 102.16C477.172 102.16 476.986 102.107 476.815 102C476.644 101.904 476.506 101.771 476.399 101.6C476.303 101.429 476.255 101.243 476.255 101.04C476.255 100.72 476.362 100.453 476.575 100.24C476.799 100.027 477.066 99.92 477.375 99.92C477.684 99.92 477.946 100.027 478.159 100.24C478.383 100.453 478.495 100.72 478.495 101.04C478.495 101.243 478.442 101.429 478.335 101.6C478.239 101.771 478.106 101.904 477.935 102C477.775 102.107 477.588 102.16 477.375 102.16Z" fill="#21201F"/>
</g>
<defs>
<filter id="filter0_f_3954_132335" x="290" y="-177" width="786" height="786" filterUnits="userSpaceOnUse" color-interpolation-filters="sRGB">
<feFlood flood-opacity="0" result="BackgroundImageFix"/>
<feBlend mode="normal" in="SourceGraphic" in2="BackgroundImageFix" result="shape"/>
<feGaussianBlur stdDeviation="86" result="effect1_foregroundBlur_3954_132335"/>
</filter>
<clipPath id="clip0_3954_132335">
<rect width="925" height="176" fill="white"/>
</clipPath>
</defs>
</svg>
