<svg width="417" height="56" viewBox="0 0 417 56" fill="none" xmlns="http://www.w3.org/2000/svg">
<path d="M0 30.2493L16.5214 25.0489L3.75703 13.3411L0 30.2493ZM9.12024 20.3059L9.79795 21.6441C17.1548 17.9182 28.9176 14.6732 43.9969 11.9866C59.041 9.30619 77.265 7.20165 97.4651 5.70518C137.864 2.71236 186.086 2.15743 232.425 4.26742C278.777 6.37798 323.175 11.1519 355.95 18.7938C372.35 22.6177 385.742 27.138 394.999 32.3452C404.337 37.5985 409 43.2731 409 49.2493H410.5H412C412 41.5448 406.01 35.0972 396.47 29.7305C386.847 24.3176 373.134 19.72 356.631 15.8722C323.599 8.17035 278.994 3.38475 232.561 1.27052C186.117 -0.844278 137.774 -0.289232 97.2435 2.71338C76.9789 4.21462 58.6469 6.32915 43.4707 9.03306C28.3296 11.7307 16.2077 15.0351 8.44252 18.9678L9.12024 20.3059Z" fill="#93A088"/>
<circle cx="410.5" cy="49.2493" r="4.5" fill="white" stroke="#93A088" stroke-width="3"/>
</svg>
