<svg width="282" height="58" viewBox="0 0 282 58" fill="none" xmlns="http://www.w3.org/2000/svg">
<path d="M280.5 0L265.864 9.26291L281.204 17.3062L280.5 0ZM274.231 11.9555L273.298 10.7809C268.467 14.618 260.724 17.4726 250.657 19.5403C240.63 21.5999 228.478 22.845 214.978 23.5818C187.97 25.056 155.788 24.4871 124.776 24.4219C93.8234 24.3568 64.0103 24.7929 41.9218 28.3108C30.8901 30.0677 21.6365 32.6139 15.1037 36.3444C8.52914 40.0986 4.5 45.1947 4.5 52H6H7.5C7.5 46.6453 10.5746 42.3853 16.5913 38.9496C22.6497 35.49 31.4751 33.0123 42.3937 31.2734C64.2059 27.7996 93.7794 27.3567 124.77 27.4219C155.702 27.4869 188.021 28.0576 215.142 26.5774C228.706 25.837 241.025 24.5814 251.261 22.479C261.457 20.3847 269.768 17.4158 275.164 13.1302L274.231 11.9555Z" fill="#93A088"/>
<circle cx="6" cy="52" r="4.5" fill="white" stroke="#93A088" stroke-width="3"/>
</svg>
