<svg width="196" height="584" viewBox="0 0 196 584" fill="none" xmlns="http://www.w3.org/2000/svg">
<path d="M0 488.008L17.3178 487.702L8.39338 472.857L0 488.008ZM11.5759 481.049L11.9141 482.51C32.1731 477.821 76.3624 478.882 115.471 492.662C154.573 506.439 188 532.68 188 578.008H189.5H191C191 530.777 156.041 503.776 116.468 489.832C76.9034 475.891 32.1306 474.752 11.2377 479.588L11.5759 481.049Z" fill="#93A088"/>
<circle cx="189.5" cy="578.008" r="4.5" fill="white" stroke="#93A088" stroke-width="3"/>
<path d="M22 13.0084L38.9836 16.4081L33.436 2.09808e-05L22 13.0084ZM34.7893 8.68433L34.6268 10.1755C53.3968 12.2204 91.7415 33.1265 125.44 114.317C159.116 195.454 188 336.494 188 578.008H189.5H191C191 336.312 162.103 194.823 128.211 113.167C94.3412 31.5641 55.3306 9.41337 34.9517 7.19316L34.7893 8.68433Z" fill="#93A088"/>
<circle cx="189.5" cy="578.008" r="4.5" fill="white" stroke="#93A088" stroke-width="3"/>
</svg>
