<svg width="51" height="18" viewBox="0 0 51 18" fill="none" xmlns="http://www.w3.org/2000/svg">
<path d="M51 8.66028L36 2.38419e-05V17.3205L51 8.66028ZM6 8.66028V10.1603C6.03281 10.1603 6.06557 10.1603 6.09829 10.1603C6.131 10.1603 6.16367 10.1603 6.19629 10.1603C6.22891 10.1603 6.26149 10.1603 6.29401 10.1603C6.32654 10.1603 6.35901 10.1603 6.39144 10.1603C6.42387 10.1603 6.45626 10.1603 6.48859 10.1603C6.52093 10.1603 6.55322 10.1603 6.58546 10.1603C6.6177 10.1603 6.6499 10.1603 6.68204 10.1603C6.71419 10.1603 6.74629 10.1603 6.77835 10.1603C6.8104 10.1603 6.84241 10.1603 6.87437 10.1603C6.90633 10.1603 6.93825 10.1603 6.97011 10.1603C7.00198 10.1603 7.0338 10.1603 7.06558 10.1603C7.09735 10.1603 7.12908 10.1603 7.16076 10.1603C7.19245 10.1603 7.22408 10.1603 7.25567 10.1603C7.28726 10.1603 7.31881 10.1603 7.35031 10.1603C7.38181 10.1603 7.41326 10.1603 7.44467 10.1603C7.47607 10.1603 7.50743 10.1603 7.53875 10.1603C7.57007 10.1603 7.60134 10.1603 7.63256 10.1603C7.66378 10.1603 7.69496 10.1603 7.7261 10.1603C7.75723 10.1603 7.78832 10.1603 7.81936 10.1603C7.8504 10.1603 7.8814 10.1603 7.91236 10.1603C7.94331 10.1603 7.97422 10.1603 8.00508 10.1603C8.03594 10.1603 8.06676 10.1603 8.09753 10.1603C8.12831 10.1603 8.15903 10.1603 8.18972 10.1603C8.2204 10.1603 8.25104 10.1603 8.28164 10.1603C8.31223 10.1603 8.34278 10.1603 8.37329 10.1603C8.40379 10.1603 8.43425 10.1603 8.46467 10.1603C8.49509 10.1603 8.52546 10.1603 8.55579 10.1603C8.58612 10.1603 8.6164 10.1603 8.64665 10.1603C8.67689 10.1603 8.70708 10.1603 8.73724 10.1603C8.76739 10.1603 8.7975 10.1603 8.82756 10.1603C8.85763 10.1603 8.88765 10.1603 8.91763 10.1603C8.94761 10.1603 8.97754 10.1603 9.00744 10.1603C9.03733 10.1603 9.06718 10.1603 9.09698 10.1603C9.12679 10.1603 9.15655 10.1603 9.18627 10.1603C9.21598 10.1603 9.24566 10.1603 9.27529 10.1603C9.30493 10.1603 9.33451 10.1603 9.36406 10.1603C9.39361 10.1603 9.42311 10.1603 9.45257 10.1603C9.48203 10.1603 9.51145 10.1603 9.54083 10.1603C9.57021 10.1603 9.59954 10.1603 9.62883 10.1603C9.65812 10.1603 9.68737 10.1603 9.71658 10.1603C9.74578 10.1603 9.77495 10.1603 9.80407 10.1603C9.83319 10.1603 9.86227 10.1603 9.89131 10.1603C9.92035 10.1603 9.94934 10.1603 9.9783 10.1603C10.0073 10.1603 10.0362 10.1603 10.065 10.1603C10.0939 10.1603 10.1227 10.1603 10.1515 10.1603C10.1803 10.1603 10.2091 10.1603 10.2378 10.1603C10.2665 10.1603 10.2951 10.1603 10.3237 10.1603C10.3524 10.1603 10.3809 10.1603 10.4095 10.1603C10.438 10.1603 10.4665 10.1603 10.495 10.1603C10.5234 10.1603 10.5519 10.1603 10.5802 10.1603C10.6086 10.1603 10.6369 10.1603 10.6652 10.1603C10.6935 10.1603 10.7218 10.1603 10.75 10.1603C10.7782 10.1603 10.8064 10.1603 10.8345 10.1603C10.8626 10.1603 10.8907 10.1603 10.9188 10.1603C10.9468 10.1603 10.9748 10.1603 11.0028 10.1603C11.0308 10.1603 11.0587 10.1603 11.0866 10.1603C11.1145 10.1603 11.1423 10.1603 11.1701 10.1603C11.198 10.1603 11.2257 10.1603 11.2535 10.1603C11.2812 10.1603 11.3089 10.1603 11.3365 10.1603C11.3642 10.1603 11.3918 10.1603 11.4194 10.1603C11.4469 10.1603 11.4745 10.1603 11.502 10.1603C11.5295 10.1603 11.5569 10.1603 11.5843 10.1603C11.6117 10.1603 11.6391 10.1603 11.6664 10.1603C11.6938 10.1603 11.7211 10.1603 11.7483 10.1603C11.7756 10.1603 11.8028 10.1603 11.83 10.1603C11.8572 10.1603 11.8843 10.1603 11.9114 10.1603C11.9385 10.1603 11.9656 10.1603 11.9926 10.1603C12.0196 10.1603 12.0466 10.1603 12.0736 10.1603C12.1005 10.1603 12.1274 10.1603 12.1543 10.1603C12.1812 10.1603 12.208 10.1603 12.2348 10.1603C12.2616 10.1603 12.2884 10.1603 12.3151 10.1603C12.3418 10.1603 12.3685 10.1603 12.3951 10.1603C12.4218 10.1603 12.4484 10.1603 12.4749 10.1603C12.5015 10.1603 12.528 10.1603 12.5545 10.1603C12.581 10.1603 12.6075 10.1603 12.6339 10.1603C12.6603 10.1603 12.6867 10.1603 12.7131 10.1603C12.7394 10.1603 12.7657 10.1603 12.792 10.1603C12.8182 10.1603 12.8445 10.1603 12.8707 10.1603C12.8969 10.1603 12.923 10.1603 12.9492 10.1603C12.9753 10.1603 13.0014 10.1603 13.0274 10.1603C13.0535 10.1603 13.0795 10.1603 13.1054 10.1603C13.1314 10.1603 13.1574 10.1603 13.1833 10.1603C13.2092 10.1603 13.235 10.1603 13.2609 10.1603C13.2867 10.1603 13.3125 10.1603 13.3382 10.1603C13.364 10.1603 13.3897 10.1603 13.4154 10.1603C13.4411 10.1603 13.4667 10.1603 13.4924 10.1603C13.518 10.1603 13.5435 10.1603 13.5691 10.1603C13.5946 10.1603 13.6201 10.1603 13.6456 10.1603C13.6711 10.1603 13.6965 10.1603 13.7219 10.1603C13.7473 10.1603 13.7727 10.1603 13.798 10.1603C13.8233 10.1603 13.8486 10.1603 13.8739 10.1603C13.8991 10.1603 13.9244 10.1603 13.9495 10.1603C13.9747 10.1603 13.9999 10.1603 14.025 10.1603C14.0501 10.1603 14.0752 10.1603 14.1003 10.1603C14.1253 10.1603 14.1503 10.1603 14.1753 10.1603C14.2003 10.1603 14.2252 10.1603 14.2501 10.1603C14.275 10.1603 14.2999 10.1603 14.3248 10.1603C14.3496 10.1603 14.3744 10.1603 14.3992 10.1603C14.424 10.1603 14.4487 10.1603 14.4734 10.1603C14.4981 10.1603 14.5228 10.1603 14.5474 10.1603C14.5721 10.1603 14.5967 10.1603 14.6212 10.1603C14.6458 10.1603 14.6703 10.1603 14.6948 10.1603C14.7193 10.1603 14.7438 10.1603 14.7682 10.1603C14.7927 10.1603 14.8171 10.1603 14.8414 10.1603C14.8658 10.1603 14.8901 10.1603 14.9144 10.1603C14.9387 10.1603 14.963 10.1603 14.9873 10.1603C15.0115 10.1603 15.0357 10.1603 15.0599 10.1603C15.084 10.1603 15.1082 10.1603 15.1323 10.1603C15.1564 10.1603 15.1804 10.1603 15.2045 10.1603C15.2285 10.1603 15.2525 10.1603 15.2765 10.1603C15.3005 10.1603 15.3244 10.1603 15.3483 10.1603C15.3722 10.1603 15.3961 10.1603 15.4199 10.1603C15.4438 10.1603 15.4676 10.1603 15.4914 10.1603C15.5152 10.1603 15.5389 10.1603 15.5626 10.1603C15.5863 10.1603 15.61 10.1603 15.6337 10.1603C15.6573 10.1603 15.6809 10.1603 15.7045 10.1603C15.7281 10.1603 15.7517 10.1603 15.7752 10.1603C15.7987 10.1603 15.8222 10.1603 15.8457 10.1603C15.8691 10.1603 15.8926 10.1603 15.916 10.1603C15.9394 10.1603 15.9627 10.1603 15.9861 10.1603C16.0094 10.1603 16.0327 10.1603 16.056 10.1603C16.0793 10.1603 16.1025 10.1603 16.1257 10.1603C16.1489 10.1603 16.1721 10.1603 16.1953 10.1603C16.2184 10.1603 16.2416 10.1603 16.2646 10.1603C16.2877 10.1603 16.3108 10.1603 16.3338 10.1603C16.3569 10.1603 16.3799 10.1603 16.4028 10.1603C16.4258 10.1603 16.4487 10.1603 16.4716 10.1603C16.4945 10.1603 16.5174 10.1603 16.5403 10.1603C16.5631 10.1603 16.5859 10.1603 16.6087 10.1603C16.6315 10.1603 16.6543 10.1603 16.677 10.1603C16.6997 10.1603 16.7224 10.1603 16.7451 10.1603C16.7678 10.1603 16.7904 10.1603 16.813 10.1603C16.8356 10.1603 16.8582 10.1603 16.8808 10.1603C16.9033 10.1603 16.9258 10.1603 16.9483 10.1603C16.9708 10.1603 16.9933 10.1603 17.0157 10.1603C17.0382 10.1603 17.0606 10.1603 17.0829 10.1603C17.1053 10.1603 17.1277 10.1603 17.15 10.1603C17.1723 10.1603 17.1946 10.1603 17.2169 10.1603C17.2391 10.1603 17.2614 10.1603 17.2836 10.1603C17.3058 10.1603 17.328 10.1603 17.3501 10.1603C17.3723 10.1603 17.3944 10.1603 17.4165 10.1603C17.4386 10.1603 17.4606 10.1603 17.4827 10.1603C17.5047 10.1603 17.5267 10.1603 17.5487 10.1603C17.5707 10.1603 17.5926 10.1603 17.6145 10.1603C17.6365 10.1603 17.6584 10.1603 17.6802 10.1603C17.7021 10.1603 17.7239 10.1603 17.7458 10.1603C17.7676 10.1603 17.7894 10.1603 17.8111 10.1603C17.8329 10.1603 17.8546 10.1603 17.8763 10.1603C17.898 10.1603 17.9197 10.1603 17.9413 10.1603C17.963 10.1603 17.9846 10.1603 18.0062 10.1603C18.0278 10.1603 18.0494 10.1603 18.0709 10.1603C18.0925 10.1603 18.114 10.1603 18.1355 10.1603C18.157 10.1603 18.1784 10.1603 18.1999 10.1603C18.2213 10.1603 18.2427 10.1603 18.2641 10.1603C18.2855 10.1603 18.3068 10.1603 18.3282 10.1603C18.3495 10.1603 18.3708 10.1603 18.3921 10.1603C18.4134 10.1603 18.4346 10.1603 18.4558 10.1603C18.4771 10.1603 18.4983 10.1603 18.5194 10.1603C18.5406 10.1603 18.5618 10.1603 18.5829 10.1603C18.604 10.1603 18.6251 10.1603 18.6462 10.1603C18.6673 10.1603 18.6883 10.1603 18.7093 10.1603C18.7303 10.1603 18.7513 10.1603 18.7723 10.1603C18.7933 10.1603 18.8142 10.1603 18.8351 10.1603C18.8561 10.1603 18.877 10.1603 18.8978 10.1603C18.9187 10.1603 18.9395 10.1603 18.9604 10.1603C18.9812 10.1603 19.002 10.1603 19.0228 10.1603C19.0435 10.1603 19.0643 10.1603 19.085 10.1603C19.1057 10.1603 19.1264 10.1603 19.1471 10.1603C19.1678 10.1603 19.1884 10.1603 19.209 10.1603C19.2297 10.1603 19.2503 10.1603 19.2708 10.1603C19.2914 10.1603 19.312 10.1603 19.3325 10.1603C19.353 10.1603 19.3735 10.1603 19.394 10.1603C19.4145 10.1603 19.4349 10.1603 19.4554 10.1603C19.4758 10.1603 19.4962 10.1603 19.5166 10.1603C19.537 10.1603 19.5573 10.1603 19.5777 10.1603C19.598 10.1603 19.6183 10.1603 19.6386 10.1603C19.6589 10.1603 19.6792 10.1603 19.6994 10.1603C19.7197 10.1603 19.7399 10.1603 19.7601 10.1603C19.7803 10.1603 19.8005 10.1603 19.8206 10.1603C19.8408 10.1603 19.8609 10.1603 19.881 10.1603C19.9011 10.1603 19.9212 10.1603 19.9413 10.1603C19.9613 10.1603 19.9814 10.1603 20.0014 10.1603C20.0214 10.1603 20.0414 10.1603 20.0614 10.1603C20.0813 10.1603 20.1013 10.1603 20.1212 10.1603C20.1411 10.1603 20.1611 10.1603 20.1809 10.1603C20.2008 10.1603 20.2207 10.1603 20.2405 10.1603C20.2604 10.1603 20.2802 10.1603 20.3 10.1603C20.3198 10.1603 20.3395 10.1603 20.3593 10.1603C20.379 10.1603 20.3988 10.1603 20.4185 10.1603C20.4382 10.1603 20.4579 10.1603 20.4776 10.1603C20.4972 10.1603 20.5169 10.1603 20.5365 10.1603C20.5561 10.1603 20.5757 10.1603 20.5953 10.1603C20.6149 10.1603 20.6344 10.1603 20.654 10.1603C20.6735 10.1603 20.693 10.1603 20.7125 10.1603C20.732 10.1603 20.7515 10.1603 20.771 10.1603C20.7904 10.1603 20.8099 10.1603 20.8293 10.1603C20.8487 10.1603 20.8681 10.1603 20.8875 10.1603C20.9068 10.1603 20.9262 10.1603 20.9455 10.1603C20.9649 10.1603 20.9842 10.1603 21.0035 10.1603C21.0228 10.1603 21.042 10.1603 21.0613 10.1603C21.0805 10.1603 21.0998 10.1603 21.119 10.1603C21.1382 10.1603 21.1574 10.1603 21.1766 10.1603C21.1958 10.1603 21.2149 10.1603 21.234 10.1603C21.2532 10.1603 21.2723 10.1603 21.2914 10.1603C21.3105 10.1603 21.3296 10.1603 21.3486 10.1603C21.3677 10.1603 21.3867 10.1603 21.4057 10.1603C21.4248 10.1603 21.4438 10.1603 21.4627 10.1603C21.4817 10.1603 21.5007 10.1603 21.5196 10.1603C21.5386 10.1603 21.5575 10.1603 21.5764 10.1603C21.5953 10.1603 21.6142 10.1603 21.6331 10.1603C21.6519 10.1603 21.6708 10.1603 21.6896 10.1603C21.7085 10.1603 21.7273 10.1603 21.7461 10.1603C21.7649 10.1603 21.7836 10.1603 21.8024 10.1603C21.8212 10.1603 21.8399 10.1603 21.8586 10.1603C21.8773 10.1603 21.8961 10.1603 21.9147 10.1603C21.9334 10.1603 21.9521 10.1603 21.9707 10.1603C21.9894 10.1603 22.008 10.1603 22.0266 10.1603C22.0453 10.1603 22.0639 10.1603 22.0824 10.1603C22.101 10.1603 22.1196 10.1603 22.1381 10.1603C22.1567 10.1603 22.1752 10.1603 22.1937 10.1603C22.2122 10.1603 22.2307 10.1603 22.2492 10.1603C22.2677 10.1603 22.2862 10.1603 22.3046 10.1603C22.323 10.1603 22.3415 10.1603 22.3599 10.1603C22.3783 10.1603 22.3967 10.1603 22.4151 10.1603C22.4334 10.1603 22.4518 10.1603 22.4701 10.1603C22.4885 10.1603 22.5068 10.1603 22.5251 10.1603C22.5434 10.1603 22.5617 10.1603 22.58 10.1603C22.5983 10.1603 22.6166 10.1603 22.6348 10.1603C22.653 10.1603 22.6713 10.1603 22.6895 10.1603C22.7077 10.1603 22.7259 10.1603 22.7441 10.1603C22.7623 10.1603 22.7804 10.1603 22.7986 10.1603C22.8167 10.1603 22.8349 10.1603 22.853 10.1603C22.8711 10.1603 22.8892 10.1603 22.9073 10.1603C22.9254 10.1603 22.9435 10.1603 22.9615 10.1603C22.9796 10.1603 22.9977 10.1603 23.0157 10.1603C23.0337 10.1603 23.0517 10.1603 23.0697 10.1603C23.0877 10.1603 23.1057 10.1603 23.1237 10.1603C23.1416 10.1603 23.1596 10.1603 23.1775 10.1603C23.1955 10.1603 23.2134 10.1603 23.2313 10.1603C23.2492 10.1603 23.2671 10.1603 23.285 10.1603C23.3029 10.1603 23.3208 10.1603 23.3386 10.1603C23.3565 10.1603 23.3743 10.1603 23.3921 10.1603C23.41 10.1603 23.4278 10.1603 23.4456 10.1603C23.4634 10.1603 23.4811 10.1603 23.4989 10.1603C23.5167 10.1603 23.5344 10.1603 23.5522 10.1603C23.5699 10.1603 23.5877 10.1603 23.6054 10.1603C23.6231 10.1603 23.6408 10.1603 23.6585 10.1603C23.6762 10.1603 23.6938 10.1603 23.7115 10.1603C23.7292 10.1603 23.7468 10.1603 23.7644 10.1603C23.7821 10.1603 23.7997 10.1603 23.8173 10.1603C23.8349 10.1603 23.8525 10.1603 23.8701 10.1603C23.8877 10.1603 23.9053 10.1603 23.9228 10.1603C23.9404 10.1603 23.9579 10.1603 23.9754 10.1603C23.993 10.1603 24.0105 10.1603 24.028 10.1603C24.0455 10.1603 24.063 10.1603 24.0805 10.1603C24.098 10.1603 24.1154 10.1603 24.1329 10.1603C24.1504 10.1603 24.1678 10.1603 24.1852 10.1603C24.2027 10.1603 24.2201 10.1603 24.2375 10.1603C24.2549 10.1603 24.2723 10.1603 24.2897 10.1603C24.3071 10.1603 24.3245 10.1603 24.3418 10.1603C24.3592 10.1603 24.3766 10.1603 24.3939 10.1603C24.4112 10.1603 24.4286 10.1603 24.4459 10.1603C24.4632 10.1603 24.4805 10.1603 24.4978 10.1603C24.5151 10.1603 24.5324 10.1603 24.5497 10.1603C24.5669 10.1603 24.5842 10.1603 24.6014 10.1603C24.6187 10.1603 24.6359 10.1603 24.6532 10.1603C24.6704 10.1603 24.6876 10.1603 24.7048 10.1603C24.722 10.1603 24.7392 10.1603 24.7564 10.1603C24.7736 10.1603 24.7908 10.1603 24.808 10.1603C24.8251 10.1603 24.8423 10.1603 24.8594 10.1603C24.8766 10.1603 24.8937 10.1603 24.9108 10.1603C24.928 10.1603 24.9451 10.1603 24.9622 10.1603C24.9793 10.1603 24.9964 10.1603 25.0135 10.1603C25.0306 10.1603 25.0476 10.1603 25.0647 10.1603C25.0818 10.1603 25.0988 10.1603 25.1159 10.1603C25.1329 10.1603 25.15 10.1603 25.167 10.1603C25.184 10.1603 25.201 10.1603 25.2181 10.1603C25.2351 10.1603 25.2521 10.1603 25.2691 10.1603C25.286 10.1603 25.303 10.1603 25.32 10.1603C25.337 10.1603 25.3539 10.1603 25.3709 10.1603C25.3879 10.1603 25.4048 10.1603 25.4218 10.1603C25.4387 10.1603 25.4556 10.1603 25.4725 10.1603C25.4895 10.1603 25.5064 10.1603 25.5233 10.1603C25.5402 10.1603 25.5571 10.1603 25.574 10.1603C25.5909 10.1603 25.6077 10.1603 25.6246 10.1603C25.6415 10.1603 25.6584 10.1603 25.6752 10.1603C25.6921 10.1603 25.7089 10.1603 25.7258 10.1603C25.7426 10.1603 25.7594 10.1603 25.7763 10.1603C25.7931 10.1603 25.8099 10.1603 25.8267 10.1603C25.8435 10.1603 25.8603 10.1603 25.8771 10.1603C25.8939 10.1603 25.9107 10.1603 25.9275 10.1603C25.9443 10.1603 25.961 10.1603 25.9778 10.1603C25.9946 10.1603 26.0113 10.1603 26.0281 10.1603C26.0448 10.1603 26.0616 10.1603 26.0783 10.1603C26.0951 10.1603 26.1118 10.1603 26.1285 10.1603C26.1452 10.1603 26.162 10.1603 26.1787 10.1603C26.1954 10.1603 26.2121 10.1603 26.2288 10.1603C26.2455 10.1603 26.2622 10.1603 26.2789 10.1603C26.2956 10.1603 26.3122 10.1603 26.3289 10.1603C26.3456 10.1603 26.3623 10.1603 26.3789 10.1603C26.3956 10.1603 26.4122 10.1603 26.4289 10.1603C26.4455 10.1603 26.4622 10.1603 26.4788 10.1603C26.4955 10.1603 26.5121 10.1603 26.5287 10.1603C26.5453 10.1603 26.562 10.1603 26.5786 10.1603C26.5952 10.1603 26.6118 10.1603 26.6284 10.1603C26.645 10.1603 26.6616 10.1603 26.6782 10.1603C26.6948 10.1603 26.7114 10.1603 26.728 10.1603C26.7446 10.1603 26.7612 10.1603 26.7777 10.1603C26.7943 10.1603 26.8109 10.1603 26.8274 10.1603C26.844 10.1603 26.8606 10.1603 26.8771 10.1603C26.8937 10.1603 26.9102 10.1603 26.9268 10.1603C26.9433 10.1603 26.9599 10.1603 26.9764 10.1603C26.9929 10.1603 27.0095 10.1603 27.026 10.1603C27.0425 10.1603 27.0591 10.1603 27.0756 10.1603C27.0921 10.1603 27.1086 10.1603 27.1251 10.1603C27.1417 10.1603 27.1582 10.1603 27.1747 10.1603C27.1912 10.1603 27.2077 10.1603 27.2242 10.1603C27.2407 10.1603 27.2572 10.1603 27.2737 10.1603C27.2902 10.1603 27.3066 10.1603 27.3231 10.1603C27.3396 10.1603 27.3561 10.1603 27.3726 10.1603C27.3891 10.1603 27.4055 10.1603 27.422 10.1603C27.4385 10.1603 27.4549 10.1603 27.4714 10.1603C27.4879 10.1603 27.5043 10.1603 27.5208 10.1603C27.5373 10.1603 27.5537 10.1603 27.5702 10.1603C27.5866 10.1603 27.6031 10.1603 27.6195 10.1603C27.636 10.1603 27.6524 10.1603 27.6689 10.1603C27.6853 10.1603 27.7018 10.1603 27.7182 10.1603C27.7346 10.1603 27.7511 10.1603 27.7675 10.1603C27.784 10.1603 27.8004 10.1603 27.8168 10.1603C27.8333 10.1603 27.8497 10.1603 27.8661 10.1603C27.8825 10.1603 27.899 10.1603 27.9154 10.1603C27.9318 10.1603 27.9482 10.1603 27.9647 10.1603C27.9811 10.1603 27.9975 10.1603 28.0139 10.1603C28.0303 10.1603 28.0468 10.1603 28.0632 10.1603C28.0796 10.1603 28.096 10.1603 28.1124 10.1603C28.1288 10.1603 28.1452 10.1603 28.1617 10.1603C28.1781 10.1603 28.1945 10.1603 28.2109 10.1603C28.2273 10.1603 28.2437 10.1603 28.2601 10.1603C28.2765 10.1603 28.2929 10.1603 28.3093 10.1603C28.3258 10.1603 28.3422 10.1603 28.3586 10.1603C28.375 10.1603 28.3914 10.1603 28.4078 10.1603C28.4242 10.1603 28.4406 10.1603 28.457 10.1603C28.4734 10.1603 28.4898 10.1603 28.5062 10.1603C28.5226 10.1603 28.539 10.1603 28.5554 10.1603C28.5718 10.1603 28.5882 10.1603 28.6047 10.1603C28.6211 10.1603 28.6375 10.1603 28.6539 10.1603C28.6703 10.1603 28.6867 10.1603 28.7031 10.1603C28.7195 10.1603 28.7359 10.1603 28.7523 10.1603C28.7687 10.1603 28.7851 10.1603 28.8016 10.1603C28.818 10.1603 28.8344 10.1603 28.8508 10.1603C28.8672 10.1603 28.8836 10.1603 28.9 10.1603C28.9164 10.1603 28.9329 10.1603 28.9493 10.1603C28.9657 10.1603 28.9821 10.1603 28.9985 10.1603C29.0149 10.1603 29.0314 10.1603 29.0478 10.1603C29.0642 10.1603 29.0806 10.1603 29.0971 10.1603C29.1135 10.1603 29.1299 10.1603 29.1464 10.1603C29.1628 10.1603 29.1792 10.1603 29.1956 10.1603C29.2121 10.1603 29.2285 10.1603 29.2449 10.1603C29.2614 10.1603 29.2778 10.1603 29.2943 10.1603C29.3107 10.1603 29.3272 10.1603 29.3436 10.1603C29.36 10.1603 29.3765 10.1603 29.3929 10.1603C29.4094 10.1603 29.4259 10.1603 29.4423 10.1603C29.4588 10.1603 29.4752 10.1603 29.4917 10.1603C29.5081 10.1603 29.5246 10.1603 29.5411 10.1603C29.5575 10.1603 29.574 10.1603 29.5905 10.1603C29.607 10.1603 29.6234 10.1603 29.6399 10.1603C29.6564 10.1603 29.6729 10.1603 29.6894 10.1603C29.7059 10.1603 29.7224 10.1603 29.7388 10.1603C29.7553 10.1603 29.7718 10.1603 29.7883 10.1603C29.8048 10.1603 29.8213 10.1603 29.8378 10.1603C29.8544 10.1603 29.8709 10.1603 29.8874 10.1603C29.9039 10.1603 29.9204 10.1603 29.9369 10.1603C29.9535 10.1603 29.97 10.1603 29.9865 10.1603C30.0031 10.1603 30.0196 10.1603 30.0361 10.1603C30.0527 10.1603 30.0692 10.1603 30.0858 10.1603C30.1023 10.1603 30.1189 10.1603 30.1354 10.1603C30.152 10.1603 30.1686 10.1603 30.1851 10.1603C30.2017 10.1603 30.2183 10.1603 30.2348 10.1603C30.2514 10.1603 30.268 10.1603 30.2846 10.1603C30.3012 10.1603 30.3178 10.1603 30.3344 10.1603C30.351 10.1603 30.3676 10.1603 30.3842 10.1603C30.4008 10.1603 30.4174 10.1603 30.434 10.1603C30.4506 10.1603 30.4673 10.1603 30.4839 10.1603C30.5005 10.1603 30.5172 10.1603 30.5338 10.1603C30.5504 10.1603 30.5671 10.1603 30.5837 10.1603C30.6004 10.1603 30.6171 10.1603 30.6337 10.1603C30.6504 10.1603 30.6671 10.1603 30.6837 10.1603C30.7004 10.1603 30.7171 10.1603 30.7338 10.1603C30.7505 10.1603 30.7672 10.1603 30.7839 10.1603C30.8006 10.1603 30.8173 10.1603 30.834 10.1603C30.8507 10.1603 30.8674 10.1603 30.8842 10.1603C30.9009 10.1603 30.9176 10.1603 30.9344 10.1603C30.9511 10.1603 30.9679 10.1603 30.9846 10.1603C31.0014 10.1603 31.0181 10.1603 31.0349 10.1603C31.0517 10.1603 31.0685 10.1603 31.0852 10.1603C31.102 10.1603 31.1188 10.1603 31.1356 10.1603C31.1524 10.1603 31.1692 10.1603 31.186 10.1603C31.2028 10.1603 31.2197 10.1603 31.2365 10.1603C31.2533 10.1603 31.2702 10.1603 31.287 10.1603C31.3039 10.1603 31.3207 10.1603 31.3376 10.1603C31.3544 10.1603 31.3713 10.1603 31.3882 10.1603C31.4051 10.1603 31.4219 10.1603 31.4388 10.1603C31.4557 10.1603 31.4726 10.1603 31.4895 10.1603C31.5064 10.1603 31.5234 10.1603 31.5403 10.1603C31.5572 10.1603 31.5742 10.1603 31.5911 10.1603C31.608 10.1603 31.625 10.1603 31.642 10.1603C31.6589 10.1603 31.6759 10.1603 31.6929 10.1603C31.7098 10.1603 31.7268 10.1603 31.7438 10.1603C31.7608 10.1603 31.7778 10.1603 31.7949 10.1603C31.8119 10.1603 31.8289 10.1603 31.8459 10.1603C31.863 10.1603 31.88 10.1603 31.8971 10.1603C31.9141 10.1603 31.9312 10.1603 31.9482 10.1603C31.9653 10.1603 31.9824 10.1603 31.9995 10.1603C32.0166 10.1603 32.0337 10.1603 32.0508 10.1603C32.0679 10.1603 32.085 10.1603 32.1022 10.1603C32.1193 10.1603 32.1364 10.1603 32.1536 10.1603C32.1707 10.1603 32.1879 10.1603 32.2051 10.1603C32.2222 10.1603 32.2394 10.1603 32.2566 10.1603C32.2738 10.1603 32.291 10.1603 32.3082 10.1603C32.3254 10.1603 32.3427 10.1603 32.3599 10.1603C32.3771 10.1603 32.3944 10.1603 32.4116 10.1603C32.4289 10.1603 32.4462 10.1603 32.4634 10.1603C32.4807 10.1603 32.498 10.1603 32.5153 10.1603C32.5326 10.1603 32.5499 10.1603 32.5673 10.1603C32.5846 10.1603 32.6019 10.1603 32.6193 10.1603C32.6366 10.1603 32.654 10.1603 32.6713 10.1603C32.6887 10.1603 32.7061 10.1603 32.7235 10.1603C32.7409 10.1603 32.7583 10.1603 32.7757 10.1603C32.7931 10.1603 32.8105 10.1603 32.828 10.1603C32.8454 10.1603 32.8629 10.1603 32.8803 10.1603C32.8978 10.1603 32.9153 10.1603 32.9328 10.1603C32.9503 10.1603 32.9678 10.1603 32.9853 10.1603C33.0028 10.1603 33.0203 10.1603 33.0379 10.1603C33.0554 10.1603 33.0729 10.1603 33.0905 10.1603C33.1081 10.1603 33.1257 10.1603 33.1432 10.1603C33.1608 10.1603 33.1784 10.1603 33.196 10.1603C33.2137 10.1603 33.2313 10.1603 33.2489 10.1603C33.2666 10.1603 33.2842 10.1603 33.3019 10.1603C33.3196 10.1603 33.3372 10.1603 33.3549 10.1603C33.3726 10.1603 33.3903 10.1603 33.4081 10.1603C33.4258 10.1603 33.4435 10.1603 33.4613 10.1603C33.479 10.1603 33.4968 10.1603 33.5146 10.1603C33.5323 10.1603 33.5501 10.1603 33.5679 10.1603C33.5857 10.1603 33.6036 10.1603 33.6214 10.1603C33.6392 10.1603 33.6571 10.1603 33.6749 10.1603C33.6928 10.1603 33.7107 10.1603 33.7286 10.1603C33.7464 10.1603 33.7644 10.1603 33.7823 10.1603C33.8002 10.1603 33.8181 10.1603 33.8361 10.1603C33.854 10.1603 33.872 10.1603 33.89 10.1603C33.9079 10.1603 33.9259 10.1603 33.9439 10.1603C33.9619 10.1603 33.98 10.1603 33.998 10.1603C34.016 10.1603 34.0341 10.1603 34.0522 10.1603C34.0702 10.1603 34.0883 10.1603 34.1064 10.1603C34.1245 10.1603 34.1426 10.1603 34.1607 10.1603C34.1789 10.1603 34.197 10.1603 34.2152 10.1603C34.2333 10.1603 34.2515 10.1603 34.2697 10.1603C34.2879 10.1603 34.3061 10.1603 34.3243 10.1603C34.3425 10.1603 34.3608 10.1603 34.379 10.1603C34.3973 10.1603 34.4156 10.1603 34.4339 10.1603C34.4521 10.1603 34.4704 10.1603 34.4888 10.1603C34.5071 10.1603 34.5254 10.1603 34.5438 10.1603C34.5621 10.1603 34.5805 10.1603 34.5989 10.1603C34.6173 10.1603 34.6357 10.1603 34.6541 10.1603C34.6725 10.1603 34.6909 10.1603 34.7094 10.1603C34.7278 10.1603 34.7463 10.1603 34.7648 10.1603C34.7833 10.1603 34.8018 10.1603 34.8203 10.1603C34.8388 10.1603 34.8574 10.1603 34.8759 10.1603C34.8945 10.1603 34.9131 10.1603 34.9317 10.1603C34.9502 10.1603 34.9688 10.1603 34.9875 10.1603C35.0061 10.1603 35.0247 10.1603 35.0434 10.1603C35.0621 10.1603 35.0807 10.1603 35.0994 10.1603C35.1181 10.1603 35.1368 10.1603 35.1556 10.1603C35.1743 10.1603 35.1931 10.1603 35.2118 10.1603C35.2306 10.1603 35.2494 10.1603 35.2682 10.1603C35.287 10.1603 35.3058 10.1603 35.3247 10.1603C35.3435 10.1603 35.3624 10.1603 35.3812 10.1603C35.4001 10.1603 35.419 10.1603 35.4379 10.1603C35.4568 10.1603 35.4758 10.1603 35.4947 10.1603C35.5137 10.1603 35.5327 10.1603 35.5517 10.1603C35.5706 10.1603 35.5897 10.1603 35.6087 10.1603C35.6277 10.1603 35.6468 10.1603 35.6658 10.1603C35.6849 10.1603 35.704 10.1603 35.7231 10.1603C35.7422 10.1603 35.7613 10.1603 35.7805 10.1603C35.7996 10.1603 35.8188 10.1603 35.838 10.1603C35.8572 10.1603 35.8764 10.1603 35.8956 10.1603C35.9148 10.1603 35.934 10.1603 35.9533 10.1603C35.9726 10.1603 35.9919 10.1603 36.0112 10.1603C36.0305 10.1603 36.0498 10.1603 36.0691 10.1603C36.0885 10.1603 36.1078 10.1603 36.1272 10.1603C36.1466 10.1603 36.166 10.1603 36.1854 10.1603C36.2049 10.1603 36.2243 10.1603 36.2438 10.1603C36.2633 10.1603 36.2827 10.1603 36.3023 10.1603C36.3218 10.1603 36.3413 10.1603 36.3608 10.1603C36.3804 10.1603 36.4 10.1603 36.4196 10.1603C36.4391 10.1603 36.4588 10.1603 36.4784 10.1603C36.498 10.1603 36.5177 10.1603 36.5374 10.1603C36.557 10.1603 36.5767 10.1603 36.5965 10.1603C36.6162 10.1603 36.6359 10.1603 36.6557 10.1603C36.6755 10.1603 36.6952 10.1603 36.715 10.1603C36.7349 10.1603 36.7547 10.1603 36.7745 10.1603C36.7944 10.1603 36.8143 10.1603 36.8342 10.1603C36.854 10.1603 36.874 10.1603 36.8939 10.1603C36.9138 10.1603 36.9338 10.1603 36.9538 10.1603C36.9738 10.1603 36.9938 10.1603 37.0138 10.1603C37.0338 10.1603 37.0539 10.1603 37.074 10.1603C37.094 10.1603 37.1141 10.1603 37.1342 10.1603C37.1544 10.1603 37.1745 10.1603 37.1947 10.1603C37.2148 10.1603 37.235 10.1603 37.2552 10.1603C37.2754 10.1603 37.2957 10.1603 37.3159 10.1603C37.3362 10.1603 37.3565 10.1603 37.3768 10.1603C37.3971 10.1603 37.4174 10.1603 37.4377 10.1603C37.4581 10.1603 37.4785 10.1603 37.4989 10.1603V8.66028V7.16028C37.4785 7.16028 37.4581 7.16028 37.4377 7.16028C37.4174 7.16028 37.3971 7.16028 37.3768 7.16028C37.3565 7.16028 37.3362 7.16028 37.3159 7.16028C37.2957 7.16028 37.2754 7.16028 37.2552 7.16028C37.235 7.16028 37.2148 7.16028 37.1947 7.16028C37.1745 7.16028 37.1544 7.16028 37.1342 7.16028C37.1141 7.16028 37.094 7.16028 37.074 7.16028C37.0539 7.16028 37.0338 7.16028 37.0138 7.16028C36.9938 7.16028 36.9738 7.16028 36.9538 7.16028C36.9338 7.16028 36.9138 7.16028 36.8939 7.16028C36.874 7.16028 36.854 7.16028 36.8342 7.16028C36.8143 7.16028 36.7944 7.16028 36.7745 7.16028C36.7547 7.16028 36.7349 7.16028 36.715 7.16028C36.6952 7.16028 36.6755 7.16028 36.6557 7.16028C36.6359 7.16028 36.6162 7.16028 36.5965 7.16028C36.5767 7.16028 36.557 7.16028 36.5374 7.16028C36.5177 7.16028 36.498 7.16028 36.4784 7.16028C36.4588 7.16028 36.4391 7.16028 36.4196 7.16028C36.4 7.16028 36.3804 7.16028 36.3608 7.16028C36.3413 7.16028 36.3218 7.16028 36.3023 7.16028C36.2827 7.16028 36.2633 7.16028 36.2438 7.16028C36.2243 7.16028 36.2049 7.16028 36.1854 7.16028C36.166 7.16028 36.1466 7.16028 36.1272 7.16028C36.1078 7.16028 36.0885 7.16028 36.0691 7.16028C36.0498 7.16028 36.0305 7.16028 36.0112 7.16028C35.9919 7.16028 35.9726 7.16028 35.9533 7.16028C35.934 7.16028 35.9148 7.16028 35.8956 7.16028C35.8764 7.16028 35.8572 7.16028 35.838 7.16028C35.8188 7.16028 35.7996 7.16028 35.7805 7.16028C35.7613 7.16028 35.7422 7.16028 35.7231 7.16028C35.704 7.16028 35.6849 7.16028 35.6658 7.16028C35.6468 7.16028 35.6277 7.16028 35.6087 7.16028C35.5897 7.16028 35.5706 7.16028 35.5517 7.16028C35.5327 7.16028 35.5137 7.16028 35.4947 7.16028C35.4758 7.16028 35.4568 7.16028 35.4379 7.16028C35.419 7.16028 35.4001 7.16028 35.3812 7.16028C35.3624 7.16028 35.3435 7.16028 35.3247 7.16028C35.3058 7.16028 35.287 7.16028 35.2682 7.16028C35.2494 7.16028 35.2306 7.16028 35.2118 7.16028C35.1931 7.16028 35.1743 7.16028 35.1556 7.16028C35.1368 7.16028 35.1181 7.16028 35.0994 7.16028C35.0807 7.16028 35.0621 7.16028 35.0434 7.16028C35.0247 7.16028 35.0061 7.16028 34.9875 7.16028C34.9688 7.16028 34.9502 7.16028 34.9317 7.16028C34.9131 7.16028 34.8945 7.16028 34.8759 7.16028C34.8574 7.16028 34.8388 7.16028 34.8203 7.16028C34.8018 7.16028 34.7833 7.16028 34.7648 7.16028C34.7463 7.16028 34.7278 7.16028 34.7094 7.16028C34.6909 7.16028 34.6725 7.16028 34.6541 7.16028C34.6357 7.16028 34.6173 7.16028 34.5989 7.16028C34.5805 7.16028 34.5621 7.16028 34.5438 7.16028C34.5254 7.16028 34.5071 7.16028 34.4888 7.16028C34.4704 7.16028 34.4521 7.16028 34.4339 7.16028C34.4156 7.16028 34.3973 7.16028 34.379 7.16028C34.3608 7.16028 34.3425 7.16028 34.3243 7.16028C34.3061 7.16028 34.2879 7.16028 34.2697 7.16028C34.2515 7.16028 34.2333 7.16028 34.2152 7.16028C34.197 7.16028 34.1789 7.16028 34.1607 7.16028C34.1426 7.16028 34.1245 7.16028 34.1064 7.16028C34.0883 7.16028 34.0702 7.16028 34.0522 7.16028C34.0341 7.16028 34.016 7.16028 33.998 7.16028C33.98 7.16028 33.9619 7.16028 33.9439 7.16028C33.9259 7.16028 33.9079 7.16028 33.89 7.16028C33.872 7.16028 33.854 7.16028 33.8361 7.16028C33.8181 7.16028 33.8002 7.16028 33.7823 7.16028C33.7644 7.16028 33.7464 7.16028 33.7286 7.16028C33.7107 7.16028 33.6928 7.16028 33.6749 7.16028C33.6571 7.16028 33.6392 7.16028 33.6214 7.16028C33.6036 7.16028 33.5857 7.16028 33.5679 7.16028C33.5501 7.16028 33.5323 7.16028 33.5146 7.16028C33.4968 7.16028 33.479 7.16028 33.4613 7.16028C33.4435 7.16028 33.4258 7.16028 33.4081 7.16028C33.3903 7.16028 33.3726 7.16028 33.3549 7.16028C33.3372 7.16028 33.3196 7.16028 33.3019 7.16028C33.2842 7.16028 33.2666 7.16028 33.2489 7.16028C33.2313 7.16028 33.2137 7.16028 33.196 7.16028C33.1784 7.16028 33.1608 7.16028 33.1432 7.16028C33.1257 7.16028 33.1081 7.16028 33.0905 7.16028C33.0729 7.16028 33.0554 7.16028 33.0379 7.16028C33.0203 7.16028 33.0028 7.16028 32.9853 7.16028C32.9678 7.16028 32.9503 7.16028 32.9328 7.16028C32.9153 7.16028 32.8978 7.16028 32.8803 7.16028C32.8629 7.16028 32.8454 7.16028 32.828 7.16028C32.8105 7.16028 32.7931 7.16028 32.7757 7.16028C32.7583 7.16028 32.7409 7.16028 32.7235 7.16028C32.7061 7.16028 32.6887 7.16028 32.6713 7.16028C32.654 7.16028 32.6366 7.16028 32.6193 7.16028C32.6019 7.16028 32.5846 7.16028 32.5673 7.16028C32.5499 7.16028 32.5326 7.16028 32.5153 7.16028C32.498 7.16028 32.4807 7.16028 32.4634 7.16028C32.4462 7.16028 32.4289 7.16028 32.4116 7.16028C32.3944 7.16028 32.3771 7.16028 32.3599 7.16028C32.3427 7.16028 32.3254 7.16028 32.3082 7.16028C32.291 7.16028 32.2738 7.16028 32.2566 7.16028C32.2394 7.16028 32.2222 7.16028 32.2051 7.16028C32.1879 7.16028 32.1707 7.16028 32.1536 7.16028C32.1364 7.16028 32.1193 7.16028 32.1022 7.16028C32.085 7.16028 32.0679 7.16028 32.0508 7.16028C32.0337 7.16028 32.0166 7.16028 31.9995 7.16028C31.9824 7.16028 31.9653 7.16028 31.9482 7.16028C31.9312 7.16028 31.9141 7.16028 31.8971 7.16028C31.88 7.16028 31.863 7.16028 31.8459 7.16028C31.8289 7.16028 31.8119 7.16028 31.7949 7.16028C31.7778 7.16028 31.7608 7.16028 31.7438 7.16028C31.7268 7.16028 31.7098 7.16028 31.6929 7.16028C31.6759 7.16028 31.6589 7.16028 31.642 7.16028C31.625 7.16028 31.608 7.16028 31.5911 7.16028C31.5742 7.16028 31.5572 7.16028 31.5403 7.16028C31.5234 7.16028 31.5064 7.16028 31.4895 7.16028C31.4726 7.16028 31.4557 7.16028 31.4388 7.16028C31.4219 7.16028 31.4051 7.16028 31.3882 7.16028C31.3713 7.16028 31.3544 7.16028 31.3376 7.16028C31.3207 7.16028 31.3039 7.16028 31.287 7.16028C31.2702 7.16028 31.2533 7.16028 31.2365 7.16028C31.2197 7.16028 31.2028 7.16028 31.186 7.16028C31.1692 7.16028 31.1524 7.16028 31.1356 7.16028C31.1188 7.16028 31.102 7.16028 31.0852 7.16028C31.0685 7.16028 31.0517 7.16028 31.0349 7.16028C31.0181 7.16028 31.0014 7.16028 30.9846 7.16028C30.9679 7.16028 30.9511 7.16028 30.9344 7.16028C30.9176 7.16028 30.9009 7.16028 30.8842 7.16028C30.8674 7.16028 30.8507 7.16028 30.834 7.16028C30.8173 7.16028 30.8006 7.16028 30.7839 7.16028C30.7672 7.16028 30.7505 7.16028 30.7338 7.16028C30.7171 7.16028 30.7004 7.16028 30.6837 7.16028C30.6671 7.16028 30.6504 7.16028 30.6337 7.16028C30.6171 7.16028 30.6004 7.16028 30.5837 7.16028C30.5671 7.16028 30.5504 7.16028 30.5338 7.16028C30.5172 7.16028 30.5005 7.16028 30.4839 7.16028C30.4673 7.16028 30.4506 7.16028 30.434 7.16028C30.4174 7.16028 30.4008 7.16028 30.3842 7.16028C30.3676 7.16028 30.351 7.16028 30.3344 7.16028C30.3178 7.16028 30.3012 7.16028 30.2846 7.16028C30.268 7.16028 30.2514 7.16028 30.2348 7.16028C30.2183 7.16028 30.2017 7.16028 30.1851 7.16028C30.1686 7.16028 30.152 7.16028 30.1354 7.16028C30.1189 7.16028 30.1023 7.16028 30.0858 7.16028C30.0692 7.16028 30.0527 7.16028 30.0361 7.16028C30.0196 7.16028 30.0031 7.16028 29.9865 7.16028C29.97 7.16028 29.9535 7.16028 29.9369 7.16028C29.9204 7.16028 29.9039 7.16028 29.8874 7.16028C29.8709 7.16028 29.8544 7.16028 29.8378 7.16028C29.8213 7.16028 29.8048 7.16028 29.7883 7.16028C29.7718 7.16028 29.7553 7.16028 29.7388 7.16028C29.7224 7.16028 29.7059 7.16028 29.6894 7.16028C29.6729 7.16028 29.6564 7.16028 29.6399 7.16028C29.6234 7.16028 29.607 7.16028 29.5905 7.16028C29.574 7.16028 29.5575 7.16028 29.5411 7.16028C29.5246 7.16028 29.5081 7.16028 29.4917 7.16028C29.4752 7.16028 29.4588 7.16028 29.4423 7.16028C29.4259 7.16028 29.4094 7.16028 29.3929 7.16028C29.3765 7.16028 29.36 7.16028 29.3436 7.16028C29.3272 7.16028 29.3107 7.16028 29.2943 7.16028C29.2778 7.16028 29.2614 7.16028 29.2449 7.16028C29.2285 7.16028 29.2121 7.16028 29.1956 7.16028C29.1792 7.16028 29.1628 7.16028 29.1464 7.16028C29.1299 7.16028 29.1135 7.16028 29.0971 7.16028C29.0806 7.16028 29.0642 7.16028 29.0478 7.16028C29.0314 7.16028 29.0149 7.16028 28.9985 7.16028C28.9821 7.16028 28.9657 7.16028 28.9493 7.16028C28.9329 7.16028 28.9164 7.16028 28.9 7.16028C28.8836 7.16028 28.8672 7.16028 28.8508 7.16028C28.8344 7.16028 28.818 7.16028 28.8016 7.16028C28.7851 7.16028 28.7687 7.16028 28.7523 7.16028C28.7359 7.16028 28.7195 7.16028 28.7031 7.16028C28.6867 7.16028 28.6703 7.16028 28.6539 7.16028C28.6375 7.16028 28.6211 7.16028 28.6047 7.16028C28.5882 7.16028 28.5718 7.16028 28.5554 7.16028C28.539 7.16028 28.5226 7.16028 28.5062 7.16028C28.4898 7.16028 28.4734 7.16028 28.457 7.16028C28.4406 7.16028 28.4242 7.16028 28.4078 7.16028C28.3914 7.16028 28.375 7.16028 28.3586 7.16028C28.3422 7.16028 28.3258 7.16028 28.3093 7.16028C28.2929 7.16028 28.2765 7.16028 28.2601 7.16028C28.2437 7.16028 28.2273 7.16028 28.2109 7.16028C28.1945 7.16028 28.1781 7.16028 28.1617 7.16028C28.1452 7.16028 28.1288 7.16028 28.1124 7.16028C28.096 7.16028 28.0796 7.16028 28.0632 7.16028C28.0468 7.16028 28.0303 7.16028 28.0139 7.16028C27.9975 7.16028 27.9811 7.16028 27.9647 7.16028C27.9482 7.16028 27.9318 7.16028 27.9154 7.16028C27.899 7.16028 27.8825 7.16028 27.8661 7.16028C27.8497 7.16028 27.8333 7.16028 27.8168 7.16028C27.8004 7.16028 27.784 7.16028 27.7675 7.16028C27.7511 7.16028 27.7346 7.16028 27.7182 7.16028C27.7018 7.16028 27.6853 7.16028 27.6689 7.16028C27.6524 7.16028 27.636 7.16028 27.6195 7.16028C27.6031 7.16028 27.5866 7.16028 27.5702 7.16028C27.5537 7.16028 27.5373 7.16028 27.5208 7.16028C27.5043 7.16028 27.4879 7.16028 27.4714 7.16028C27.4549 7.16028 27.4385 7.16028 27.422 7.16028C27.4055 7.16028 27.3891 7.16028 27.3726 7.16028C27.3561 7.16028 27.3396 7.16028 27.3231 7.16028C27.3066 7.16028 27.2902 7.16028 27.2737 7.16028C27.2572 7.16028 27.2407 7.16028 27.2242 7.16028C27.2077 7.16028 27.1912 7.16028 27.1747 7.16028C27.1582 7.16028 27.1417 7.16028 27.1251 7.16028C27.1086 7.16028 27.0921 7.16028 27.0756 7.16028C27.0591 7.16028 27.0425 7.16028 27.026 7.16028C27.0095 7.16028 26.9929 7.16028 26.9764 7.16028C26.9599 7.16028 26.9433 7.16028 26.9268 7.16028C26.9102 7.16028 26.8937 7.16028 26.8771 7.16028C26.8606 7.16028 26.844 7.16028 26.8274 7.16028C26.8109 7.16028 26.7943 7.16028 26.7777 7.16028C26.7612 7.16028 26.7446 7.16028 26.728 7.16028C26.7114 7.16028 26.6948 7.16028 26.6782 7.16028C26.6616 7.16028 26.645 7.16028 26.6284 7.16028C26.6118 7.16028 26.5952 7.16028 26.5786 7.16028C26.562 7.16028 26.5453 7.16028 26.5287 7.16028C26.5121 7.16028 26.4955 7.16028 26.4788 7.16028C26.4622 7.16028 26.4455 7.16028 26.4289 7.16028C26.4122 7.16028 26.3956 7.16028 26.3789 7.16028C26.3623 7.16028 26.3456 7.16028 26.3289 7.16028C26.3122 7.16028 26.2956 7.16028 26.2789 7.16028C26.2622 7.16028 26.2455 7.16028 26.2288 7.16028C26.2121 7.16028 26.1954 7.16028 26.1787 7.16028C26.162 7.16028 26.1452 7.16028 26.1285 7.16028C26.1118 7.16028 26.0951 7.16028 26.0783 7.16028C26.0616 7.16028 26.0448 7.16028 26.0281 7.16028C26.0113 7.16028 25.9946 7.16028 25.9778 7.16028C25.961 7.16028 25.9443 7.16028 25.9275 7.16028C25.9107 7.16028 25.8939 7.16028 25.8771 7.16028C25.8603 7.16028 25.8435 7.16028 25.8267 7.16028C25.8099 7.16028 25.7931 7.16028 25.7763 7.16028C25.7594 7.16028 25.7426 7.16028 25.7258 7.16028C25.7089 7.16028 25.6921 7.16028 25.6752 7.16028C25.6584 7.16028 25.6415 7.16028 25.6246 7.16028C25.6077 7.16028 25.5909 7.16028 25.574 7.16028C25.5571 7.16028 25.5402 7.16028 25.5233 7.16028C25.5064 7.16028 25.4895 7.16028 25.4725 7.16028C25.4556 7.16028 25.4387 7.16028 25.4218 7.16028C25.4048 7.16028 25.3879 7.16028 25.3709 7.16028C25.3539 7.16028 25.337 7.16028 25.32 7.16028C25.303 7.16028 25.286 7.16028 25.2691 7.16028C25.2521 7.16028 25.2351 7.16028 25.2181 7.16028C25.201 7.16028 25.184 7.16028 25.167 7.16028C25.15 7.16028 25.1329 7.16028 25.1159 7.16028C25.0988 7.16028 25.0818 7.16028 25.0647 7.16028C25.0476 7.16028 25.0306 7.16028 25.0135 7.16028C24.9964 7.16028 24.9793 7.16028 24.9622 7.16028C24.9451 7.16028 24.928 7.16028 24.9108 7.16028C24.8937 7.16028 24.8766 7.16028 24.8594 7.16028C24.8423 7.16028 24.8251 7.16028 24.808 7.16028C24.7908 7.16028 24.7736 7.16028 24.7564 7.16028C24.7392 7.16028 24.722 7.16028 24.7048 7.16028C24.6876 7.16028 24.6704 7.16028 24.6532 7.16028C24.6359 7.16028 24.6187 7.16028 24.6014 7.16028C24.5842 7.16028 24.5669 7.16028 24.5497 7.16028C24.5324 7.16028 24.5151 7.16028 24.4978 7.16028C24.4805 7.16028 24.4632 7.16028 24.4459 7.16028C24.4286 7.16028 24.4112 7.16028 24.3939 7.16028C24.3766 7.16028 24.3592 7.16028 24.3418 7.16028C24.3245 7.16028 24.3071 7.16028 24.2897 7.16028C24.2723 7.16028 24.2549 7.16028 24.2375 7.16028C24.2201 7.16028 24.2027 7.16028 24.1852 7.16028C24.1678 7.16028 24.1504 7.16028 24.1329 7.16028C24.1154 7.16028 24.098 7.16028 24.0805 7.16028C24.063 7.16028 24.0455 7.16028 24.028 7.16028C24.0105 7.16028 23.993 7.16028 23.9754 7.16028C23.9579 7.16028 23.9404 7.16028 23.9228 7.16028C23.9053 7.16028 23.8877 7.16028 23.8701 7.16028C23.8525 7.16028 23.8349 7.16028 23.8173 7.16028C23.7997 7.16028 23.7821 7.16028 23.7644 7.16028C23.7468 7.16028 23.7292 7.16028 23.7115 7.16028C23.6938 7.16028 23.6762 7.16028 23.6585 7.16028C23.6408 7.16028 23.6231 7.16028 23.6054 7.16028C23.5877 7.16028 23.5699 7.16028 23.5522 7.16028C23.5344 7.16028 23.5167 7.16028 23.4989 7.16028C23.4811 7.16028 23.4634 7.16028 23.4456 7.16028C23.4278 7.16028 23.41 7.16028 23.3921 7.16028C23.3743 7.16028 23.3565 7.16028 23.3386 7.16028C23.3208 7.16028 23.3029 7.16028 23.285 7.16028C23.2671 7.16028 23.2492 7.16028 23.2313 7.16028C23.2134 7.16028 23.1955 7.16028 23.1775 7.16028C23.1596 7.16028 23.1416 7.16028 23.1237 7.16028C23.1057 7.16028 23.0877 7.16028 23.0697 7.16028C23.0517 7.16028 23.0337 7.16028 23.0157 7.16028C22.9977 7.16028 22.9796 7.16028 22.9615 7.16028C22.9435 7.16028 22.9254 7.16028 22.9073 7.16028C22.8892 7.16028 22.8711 7.16028 22.853 7.16028C22.8349 7.16028 22.8167 7.16028 22.7986 7.16028C22.7804 7.16028 22.7623 7.16028 22.7441 7.16028C22.7259 7.16028 22.7077 7.16028 22.6895 7.16028C22.6713 7.16028 22.653 7.16028 22.6348 7.16028C22.6166 7.16028 22.5983 7.16028 22.58 7.16028C22.5617 7.16028 22.5434 7.16028 22.5251 7.16028C22.5068 7.16028 22.4885 7.16028 22.4701 7.16028C22.4518 7.16028 22.4334 7.16028 22.4151 7.16028C22.3967 7.16028 22.3783 7.16028 22.3599 7.16028C22.3415 7.16028 22.323 7.16028 22.3046 7.16028C22.2862 7.16028 22.2677 7.16028 22.2492 7.16028C22.2307 7.16028 22.2122 7.16028 22.1937 7.16028C22.1752 7.16028 22.1567 7.16028 22.1381 7.16028C22.1196 7.16028 22.101 7.16028 22.0824 7.16028C22.0639 7.16028 22.0453 7.16028 22.0266 7.16028C22.008 7.16028 21.9894 7.16028 21.9707 7.16028C21.9521 7.16028 21.9334 7.16028 21.9147 7.16028C21.8961 7.16028 21.8773 7.16028 21.8586 7.16028C21.8399 7.16028 21.8212 7.16028 21.8024 7.16028C21.7836 7.16028 21.7649 7.16028 21.7461 7.16028C21.7273 7.16028 21.7085 7.16028 21.6896 7.16028C21.6708 7.16028 21.6519 7.16028 21.6331 7.16028C21.6142 7.16028 21.5953 7.16028 21.5764 7.16028C21.5575 7.16028 21.5386 7.16028 21.5196 7.16028C21.5007 7.16028 21.4817 7.16028 21.4627 7.16028C21.4438 7.16028 21.4248 7.16028 21.4057 7.16028C21.3867 7.16028 21.3677 7.16028 21.3486 7.16028C21.3296 7.16028 21.3105 7.16028 21.2914 7.16028C21.2723 7.16028 21.2532 7.16028 21.234 7.16028C21.2149 7.16028 21.1958 7.16028 21.1766 7.16028C21.1574 7.16028 21.1382 7.16028 21.119 7.16028C21.0998 7.16028 21.0805 7.16028 21.0613 7.16028C21.042 7.16028 21.0228 7.16028 21.0035 7.16028C20.9842 7.16028 20.9649 7.16028 20.9455 7.16028C20.9262 7.16028 20.9068 7.16028 20.8875 7.16028C20.8681 7.16028 20.8487 7.16028 20.8293 7.16028C20.8099 7.16028 20.7904 7.16028 20.771 7.16028C20.7515 7.16028 20.732 7.16028 20.7125 7.16028C20.693 7.16028 20.6735 7.16028 20.654 7.16028C20.6344 7.16028 20.6149 7.16028 20.5953 7.16028C20.5757 7.16028 20.5561 7.16028 20.5365 7.16028C20.5169 7.16028 20.4972 7.16028 20.4776 7.16028C20.4579 7.16028 20.4382 7.16028 20.4185 7.16028C20.3988 7.16028 20.379 7.16028 20.3593 7.16028C20.3395 7.16028 20.3198 7.16028 20.3 7.16028C20.2802 7.16028 20.2604 7.16028 20.2405 7.16028C20.2207 7.16028 20.2008 7.16028 20.1809 7.16028C20.1611 7.16028 20.1411 7.16028 20.1212 7.16028C20.1013 7.16028 20.0813 7.16028 20.0614 7.16028C20.0414 7.16028 20.0214 7.16028 20.0014 7.16028C19.9814 7.16028 19.9613 7.16028 19.9413 7.16028C19.9212 7.16028 19.9011 7.16028 19.881 7.16028C19.8609 7.16028 19.8408 7.16028 19.8206 7.16028C19.8005 7.16028 19.7803 7.16028 19.7601 7.16028C19.7399 7.16028 19.7197 7.16028 19.6994 7.16028C19.6792 7.16028 19.6589 7.16028 19.6386 7.16028C19.6183 7.16028 19.598 7.16028 19.5777 7.16028C19.5573 7.16028 19.537 7.16028 19.5166 7.16028C19.4962 7.16028 19.4758 7.16028 19.4554 7.16028C19.4349 7.16028 19.4145 7.16028 19.394 7.16028C19.3735 7.16028 19.353 7.16028 19.3325 7.16028C19.312 7.16028 19.2914 7.16028 19.2708 7.16028C19.2503 7.16028 19.2297 7.16028 19.209 7.16028C19.1884 7.16028 19.1678 7.16028 19.1471 7.16028C19.1264 7.16028 19.1057 7.16028 19.085 7.16028C19.0643 7.16028 19.0435 7.16028 19.0228 7.16028C19.002 7.16028 18.9812 7.16028 18.9604 7.16028C18.9395 7.16028 18.9187 7.16028 18.8978 7.16028C18.877 7.16028 18.8561 7.16028 18.8351 7.16028C18.8142 7.16028 18.7933 7.16028 18.7723 7.16028C18.7513 7.16028 18.7303 7.16028 18.7093 7.16028C18.6883 7.16028 18.6673 7.16028 18.6462 7.16028C18.6251 7.16028 18.604 7.16028 18.5829 7.16028C18.5618 7.16028 18.5406 7.16028 18.5194 7.16028C18.4983 7.16028 18.4771 7.16028 18.4558 7.16028C18.4346 7.16028 18.4134 7.16028 18.3921 7.16028C18.3708 7.16028 18.3495 7.16028 18.3282 7.16028C18.3068 7.16028 18.2855 7.16028 18.2641 7.16028C18.2427 7.16028 18.2213 7.16028 18.1999 7.16028C18.1784 7.16028 18.157 7.16028 18.1355 7.16028C18.114 7.16028 18.0925 7.16028 18.0709 7.16028C18.0494 7.16028 18.0278 7.16028 18.0062 7.16028C17.9846 7.16028 17.963 7.16028 17.9413 7.16028C17.9197 7.16028 17.898 7.16028 17.8763 7.16028C17.8546 7.16028 17.8329 7.16028 17.8111 7.16028C17.7894 7.16028 17.7676 7.16028 17.7458 7.16028C17.7239 7.16028 17.7021 7.16028 17.6802 7.16028C17.6584 7.16028 17.6365 7.16028 17.6145 7.16028C17.5926 7.16028 17.5707 7.16028 17.5487 7.16028C17.5267 7.16028 17.5047 7.16028 17.4827 7.16028C17.4606 7.16028 17.4386 7.16028 17.4165 7.16028C17.3944 7.16028 17.3723 7.16028 17.3501 7.16028C17.328 7.16028 17.3058 7.16028 17.2836 7.16028C17.2614 7.16028 17.2391 7.16028 17.2169 7.16028C17.1946 7.16028 17.1723 7.16028 17.15 7.16028C17.1277 7.16028 17.1053 7.16028 17.0829 7.16028C17.0606 7.16028 17.0382 7.16028 17.0157 7.16028C16.9933 7.16028 16.9708 7.16028 16.9483 7.16028C16.9258 7.16028 16.9033 7.16028 16.8808 7.16028C16.8582 7.16028 16.8356 7.16028 16.813 7.16028C16.7904 7.16028 16.7678 7.16028 16.7451 7.16028C16.7224 7.16028 16.6997 7.16028 16.677 7.16028C16.6543 7.16028 16.6315 7.16028 16.6087 7.16028C16.5859 7.16028 16.5631 7.16028 16.5403 7.16028C16.5174 7.16028 16.4945 7.16028 16.4716 7.16028C16.4487 7.16028 16.4258 7.16028 16.4028 7.16028C16.3799 7.16028 16.3569 7.16028 16.3338 7.16028C16.3108 7.16028 16.2877 7.16028 16.2646 7.16028C16.2416 7.16028 16.2184 7.16028 16.1953 7.16028C16.1721 7.16028 16.1489 7.16028 16.1257 7.16028C16.1025 7.16028 16.0793 7.16028 16.056 7.16028C16.0327 7.16028 16.0094 7.16028 15.9861 7.16028C15.9627 7.16028 15.9394 7.16028 15.916 7.16028C15.8926 7.16028 15.8691 7.16028 15.8457 7.16028C15.8222 7.16028 15.7987 7.16028 15.7752 7.16028C15.7517 7.16028 15.7281 7.16028 15.7045 7.16028C15.6809 7.16028 15.6573 7.16028 15.6337 7.16028C15.61 7.16028 15.5863 7.16028 15.5626 7.16028C15.5389 7.16028 15.5152 7.16028 15.4914 7.16028C15.4676 7.16028 15.4438 7.16028 15.4199 7.16028C15.3961 7.16028 15.3722 7.16028 15.3483 7.16028C15.3244 7.16028 15.3005 7.16028 15.2765 7.16028C15.2525 7.16028 15.2285 7.16028 15.2045 7.16028C15.1804 7.16028 15.1564 7.16028 15.1323 7.16028C15.1082 7.16028 15.084 7.16028 15.0599 7.16028C15.0357 7.16028 15.0115 7.16028 14.9873 7.16028C14.963 7.16028 14.9387 7.16028 14.9144 7.16028C14.8901 7.16028 14.8658 7.16028 14.8414 7.16028C14.8171 7.16028 14.7927 7.16028 14.7682 7.16028C14.7438 7.16028 14.7193 7.16028 14.6948 7.16028C14.6703 7.16028 14.6458 7.16028 14.6212 7.16028C14.5967 7.16028 14.5721 7.16028 14.5474 7.16028C14.5228 7.16028 14.4981 7.16028 14.4734 7.16028C14.4487 7.16028 14.424 7.16028 14.3992 7.16028C14.3744 7.16028 14.3496 7.16028 14.3248 7.16028C14.2999 7.16028 14.275 7.16028 14.2501 7.16028C14.2252 7.16028 14.2003 7.16028 14.1753 7.16028C14.1503 7.16028 14.1253 7.16028 14.1003 7.16028C14.0752 7.16028 14.0501 7.16028 14.025 7.16028C13.9999 7.16028 13.9747 7.16028 13.9495 7.16028C13.9244 7.16028 13.8991 7.16028 13.8739 7.16028C13.8486 7.16028 13.8233 7.16028 13.798 7.16028C13.7727 7.16028 13.7473 7.16028 13.7219 7.16028C13.6965 7.16028 13.6711 7.16028 13.6456 7.16028C13.6201 7.16028 13.5946 7.16028 13.5691 7.16028C13.5435 7.16028 13.518 7.16028 13.4924 7.16028C13.4667 7.16028 13.4411 7.16028 13.4154 7.16028C13.3897 7.16028 13.364 7.16028 13.3382 7.16028C13.3125 7.16028 13.2867 7.16028 13.2609 7.16028C13.235 7.16028 13.2092 7.16028 13.1833 7.16028C13.1574 7.16028 13.1314 7.16028 13.1054 7.16028C13.0795 7.16028 13.0535 7.16028 13.0274 7.16028C13.0014 7.16028 12.9753 7.16028 12.9492 7.16028C12.923 7.16028 12.8969 7.16028 12.8707 7.16028C12.8445 7.16028 12.8182 7.16028 12.792 7.16028C12.7657 7.16028 12.7394 7.16028 12.7131 7.16028C12.6867 7.16028 12.6603 7.16028 12.6339 7.16028C12.6075 7.16028 12.581 7.16028 12.5545 7.16028C12.528 7.16028 12.5015 7.16028 12.4749 7.16028C12.4484 7.16028 12.4218 7.16028 12.3951 7.16028C12.3685 7.16028 12.3418 7.16028 12.3151 7.16028C12.2884 7.16028 12.2616 7.16028 12.2348 7.16028C12.208 7.16028 12.1812 7.16028 12.1543 7.16028C12.1274 7.16028 12.1005 7.16028 12.0736 7.16028C12.0466 7.16028 12.0196 7.16028 11.9926 7.16028C11.9656 7.16028 11.9385 7.16028 11.9114 7.16028C11.8843 7.16028 11.8572 7.16028 11.83 7.16028C11.8028 7.16028 11.7756 7.16028 11.7483 7.16028C11.7211 7.16028 11.6938 7.16028 11.6664 7.16028C11.6391 7.16028 11.6117 7.16028 11.5843 7.16028C11.5569 7.16028 11.5295 7.16028 11.502 7.16028C11.4745 7.16028 11.4469 7.16028 11.4194 7.16028C11.3918 7.16028 11.3642 7.16028 11.3365 7.16028C11.3089 7.16028 11.2812 7.16028 11.2535 7.16028C11.2257 7.16028 11.198 7.16028 11.1701 7.16028C11.1423 7.16028 11.1145 7.16028 11.0866 7.16028C11.0587 7.16028 11.0308 7.16028 11.0028 7.16028C10.9748 7.16028 10.9468 7.16028 10.9188 7.16028C10.8907 7.16028 10.8626 7.16028 10.8345 7.16028C10.8064 7.16028 10.7782 7.16028 10.75 7.16028C10.7218 7.16028 10.6935 7.16028 10.6652 7.16028C10.6369 7.16028 10.6086 7.16028 10.5802 7.16028C10.5519 7.16028 10.5234 7.16028 10.495 7.16028C10.4665 7.16028 10.438 7.16028 10.4095 7.16028C10.3809 7.16028 10.3524 7.16028 10.3237 7.16028C10.2951 7.16028 10.2665 7.16028 10.2378 7.16028C10.2091 7.16028 10.1803 7.16028 10.1515 7.16028C10.1227 7.16028 10.0939 7.16028 10.065 7.16028C10.0362 7.16028 10.0073 7.16028 9.9783 7.16028C9.94934 7.16028 9.92035 7.16028 9.89131 7.16028C9.86227 7.16028 9.83319 7.16028 9.80407 7.16028C9.77495 7.16028 9.74578 7.16028 9.71658 7.16028C9.68737 7.16028 9.65812 7.16028 9.62883 7.16028C9.59954 7.16028 9.57021 7.16028 9.54083 7.16028C9.51145 7.16028 9.48203 7.16028 9.45257 7.16028C9.42311 7.16028 9.39361 7.16028 9.36406 7.16028C9.33451 7.16028 9.30493 7.16028 9.27529 7.16028C9.24566 7.16028 9.21598 7.16028 9.18627 7.16028C9.15655 7.16028 9.12679 7.16028 9.09698 7.16028C9.06718 7.16028 9.03733 7.16028 9.00744 7.16028C8.97754 7.16028 8.94761 7.16028 8.91763 7.16028C8.88765 7.16028 8.85763 7.16028 8.82756 7.16028C8.7975 7.16028 8.76739 7.16028 8.73724 7.16028C8.70708 7.16028 8.67689 7.16028 8.64665 7.16028C8.6164 7.16028 8.58612 7.16028 8.55579 7.16028C8.52546 7.16028 8.49509 7.16028 8.46467 7.16028C8.43425 7.16028 8.40379 7.16028 8.37329 7.16028C8.34278 7.16028 8.31223 7.16028 8.28164 7.16028C8.25104 7.16028 8.2204 7.16028 8.18972 7.16028C8.15903 7.16028 8.12831 7.16028 8.09753 7.16028C8.06676 7.16028 8.03594 7.16028 8.00508 7.16028C7.97422 7.16028 7.94331 7.16028 7.91236 7.16028C7.8814 7.16028 7.8504 7.16028 7.81936 7.16028C7.78832 7.16028 7.75723 7.16028 7.7261 7.16028C7.69496 7.16028 7.66378 7.16028 7.63256 7.16028C7.60134 7.16028 7.57007 7.16028 7.53875 7.16028C7.50743 7.16028 7.47607 7.16028 7.44467 7.16028C7.41326 7.16028 7.38181 7.16028 7.35031 7.16028C7.31881 7.16028 7.28726 7.16028 7.25567 7.16028C7.22408 7.16028 7.19245 7.16028 7.16076 7.16028C7.12908 7.16028 7.09735 7.16028 7.06558 7.16028C7.0338 7.16028 7.00198 7.16028 6.97011 7.16028C6.93825 7.16028 6.90633 7.16028 6.87437 7.16028C6.84241 7.16028 6.8104 7.16028 6.77835 7.16028C6.74629 7.16028 6.71419 7.16028 6.68204 7.16028C6.6499 7.16028 6.6177 7.16028 6.58546 7.16028C6.55322 7.16028 6.52093 7.16028 6.48859 7.16028C6.45626 7.16028 6.42387 7.16028 6.39144 7.16028C6.35901 7.16028 6.32654 7.16028 6.29401 7.16028C6.26149 7.16028 6.22891 7.16028 6.19629 7.16028C6.16367 7.16028 6.131 7.16028 6.09829 7.16028C6.06557 7.16028 6.03281 7.16028 6 7.16028V8.66028Z" fill="#93A088"/>
<circle cx="6" cy="8.66028" r="4.5" fill="white" stroke="#93A088" stroke-width="3"/>
</svg>
