<svg width="84" height="37" viewBox="0 0 84 37" fill="none" xmlns="http://www.w3.org/2000/svg">
<path d="M0 0L3.23169 17.0163L16.3524 5.70945L0 0ZM8.81487 10.2289L8.25297 11.6197C13.557 13.7627 20.6083 14.9565 28.0566 15.8515C31.7971 16.301 35.6779 16.6791 39.5273 17.0594C43.3838 17.4404 47.2103 17.8238 50.8736 18.2856C58.2384 19.2141 64.7796 20.4427 69.4525 22.5126C74.1046 24.5732 76.5 27.2598 76.5 31H78H79.5C79.5 25.5277 75.7985 22.0424 70.6675 19.7696C65.5573 17.506 58.6292 16.2396 51.2489 15.3091C47.5397 14.8415 43.6749 14.4545 39.8223 14.0739C35.9627 13.6926 32.1169 13.3178 28.4146 12.8729C20.9773 11.9792 14.2778 10.8183 9.37676 8.83816L8.81487 10.2289Z" fill="#93A088"/>
<circle cx="78" cy="31" r="4.5" fill="white" stroke="#93A088" stroke-width="3"/>
</svg>
