<svg width="89" height="52" viewBox="0 0 89 52" fill="none" xmlns="http://www.w3.org/2000/svg">
<path d="M87.5 0L73.0368 9.52974L88.5214 17.2904L87.5 0ZM81.4508 12.0698L80.5191 10.8943C76.0807 14.412 69.293 16.7235 61.357 18.573C53.3978 20.4279 44.7304 21.7325 36.3462 23.4436C28.0887 25.129 20.2136 27.1931 14.3851 30.5542C8.48108 33.9589 4.5 38.8143 4.5 46H6H7.5C7.5 40.2093 10.5905 36.2055 15.8838 33.153C21.2527 30.0569 28.7007 28.0659 36.9462 26.383C45.065 24.726 54.0803 23.3493 62.038 21.4947C70.0188 19.6347 77.382 17.2086 82.3825 13.2454L81.4508 12.0698Z" fill="#93A088"/>
<circle cx="6" cy="46" r="4.5" fill="white" stroke="#93A088" stroke-width="3"/>
</svg>
