<svg width="78" height="41" viewBox="0 0 78 41" fill="none" xmlns="http://www.w3.org/2000/svg">
<path d="M0 41L15.783 33.8658L1.71305 23.7644L0 41ZM71.5 6H70C70 10.151 67.6798 13.0865 63.46 15.3611C59.1768 17.6698 53.1752 19.1467 46.3967 20.3357C43.0262 20.9269 39.5066 21.4404 35.9573 21.9544C32.4158 22.4671 28.8434 22.9805 25.4029 23.5679C18.5559 24.7369 12.0591 26.2245 7.19406 28.696L7.87342 30.0333L8.55279 31.3706C12.9799 29.1216 19.0825 27.6904 25.9078 26.5251C29.3034 25.9454 32.8353 25.4377 36.3872 24.9234C39.9311 24.4102 43.4937 23.8907 46.915 23.2906C53.72 22.0969 60.1405 20.5584 64.8835 18.0019C69.6899 15.4111 73 11.6313 73 6H71.5Z" fill="#93A088"/>
<circle cx="71.5" cy="6" r="4.5" fill="white" stroke="#93A088" stroke-width="3"/>
</svg>
